<?xml version="1.0" encoding="utf-8" ?>
<svg baseProfile="full" height="300mm" version="1.1" viewBox="0,0,200,300" width="200mm" xmlns="http://www.w3.org/2000/svg" xmlns:ev="http://www.w3.org/2001/xml-events" xmlns:xlink="http://www.w3.org/1999/xlink"><defs /><rect fill="#222222" height="300" width="200" x="0" y="0" /><text fill="#FFFFFF" style="font-size:12px; font-family:Arial; font-weight:bold;" x="10" y="20">Over 5km Runs</text><text fill="#FFFFFF" style="font-size:4px; font-family:Arial" x="10" y="280">ATHLETE</text><text fill="#FFFFFF" style="font-size:9px; font-family:Arial" x="10" y="290">Mr. Error 追</text><text fill="#FFFFFF" style="font-size:4px; font-family:Arial" x="65" y="280">SPECIAL TRACKS</text><rect fill="yellow" height="2.6" width="2.6" x="65" y="283" /><text fill="#FFFFFF" style="font-size:3px; font-family:Arial" x="70" y="285.5">Over 20.0 km</text><rect fill="red" height="2.6" width="2.6" x="65" y="287" /><text fill="#FFFFFF" style="font-size:3px; font-family:Arial" x="70" y="289.5">Over 40.0 km</text><text fill="#FFFFFF" style="font-size:4px; font-family:Arial" x="120" y="280">STATISTICS</text><text fill="#FFFFFF" style="font-size:3px; font-family:Arial" x="120" y="285">Number: 1</text><text fill="#FFFFFF" style="font-size:3px; font-family:Arial" x="120" y="290">Weekly: 1.0</text><text fill="#FFFFFF" style="font-size:3px; font-family:Arial" x="141" y="285">Total: 5.3 km</text><text fill="#FFFFFF" style="font-size:3px; font-family:Arial" x="141" y="290">Avg: 5.3 km</text><text fill="#FFFFFF" style="font-size:3px; font-family:Arial" x="167" y="285">Min: 5.3 km</text><text fill="#FFFFFF" style="font-size:3px; font-family:Arial" x="167" y="290">Max: 5.3 km</text><polyline fill="none" points="105.86956521775573,142.83395019732416 87.67391304392368,142.83395019732416 82.68478260934353,143.85769299673848 74.46739130374044,143.5164454325568 71.82608695700765,141.46895930287428 68.01086956541985,139.42147190123796 64.48913043458015,139.08022387768142 61.84782608784735,137.3739832281135 61.26086956541985,134.6439963504672 57.15217391308397,131.91400721203536 55.09782608691603,131.57275841129012 53.04347826167941,132.255255977856 48.054347827099264,130.54901179438457 47.173913043923676,129.1840158123523 46.58695652149618,125.7715233808849 45.99999999906868,125.08902447042055 44.532608695328236,124.40652541862801 40.130434782244265,125.43027394264936 34.55434782616794,124.40652541862801 27.80434782616794,121.33527793711983 25.75,119.62902809958905 22.815217391587794,122.70027717133053 21.347826087847352,125.43027394264936 21.347826087847352,128.1602684536483 19.0,132.937753404025 19.0,134.9852448340971 19.880434783175588,139.42147190123796 21.05434782616794,140.4452157614287 23.69565217383206,141.46895930287428 28.68478260934353,140.78646364435554 33.96739130560309,141.46895930287428 36.90217391308397,144.19894052646123 38.956521740183234,144.5401880198624 42.77173912990838,148.63515519048087 50.10869565140456,151.70637722872198 53.923913043923676,151.36513047665358 57.73913043458015,152.38887062622234 59.5,153.0713638823945 60.96739130374044,155.11884280270897 65.36956521682441,157.84881271771155 71.23913043458015,157.84881271771155 77.69565217290074,160.2375345386099 83.85869565233588,158.87255085329525 89.14130434859544,158.87255085329525 92.07608695700765,160.2375345386099 97.35869565233588,165.01497298455797 99.41304347850382,165.69746362627484 103.5217391308397,165.69746362627484 105.57608695607632,164.67372761131264 107.92391304299235,161.2612719319295 113.5,157.1663204501383 117.3152173915878,155.8013354933355 120.25000000093132,156.48382804286666 126.70652173925191,159.21379682654515 127.88043478317559,160.92002616915852 128.76086956541985,163.99123675748706 127.88043478317559,167.06244448479265 127.0,168.08617975749075 127.5869565224275,171.83987303683534 129.6413043467328,175.25231776200235 131.40217391215265,176.27605049149133 135.2173913056031,177.64102696743794 139.91304347850382,178.66475895466283 144.60869565233588,177.64102696743794 145.48913043551147,176.95853880047798 154.2934782607481,175.9348062830977 157.81521739251912,176.95853880047798 164.56521739065647,177.2997829017695 164.85869565140456,175.5935620397795 167.2065217383206,173.20485135051422 168.67391304299235,167.403689610539 168.96739130374044,162.6262546274811 170.14130434766412,158.87255085329525 172.78260869625956,156.14258178533055 173.9565217383206,152.0476239451673 177.1847826084122,147.6114138753619 178.94565217290074,143.5164454325568 179.23913043458015,141.46895930287428 180.4130434775725,138.39772772439755 179.53260869625956,136.35023841448128 180.4130434775725,132.937753404025 179.53260869625956,130.54901179438457 173.3695652168244,131.91400721203536 170.4347826084122,129.52526486082934 169.26086956541985,127.81901926291175 167.5,126.11277278256603 162.21739130374044,125.08902447042055 159.8695652168244,125.43027394264936 153.41304347850382,127.47777003771625 151.94565217383206,128.50151760759763 150.77173912990838,131.91400721203536 150.47826086822897,135.66774169518612 149.89130434766412,137.7152314283885 145.48913043551147,145.56393029005267 144.02173912990838,146.58767224126495 141.67391304392368,145.90517764235847 138.44565217476338,144.19894052646123 135.2173913056031,143.5164454325568 130.22826087009162,141.46895930287428 116.72826087009162,139.08022387768142 106.75,140.4452157614287 95.30434782523662,139.76271989033557 90.02173912990838,140.1039678431116 76.8152173915878,142.83395019732416 73.88043478317559,142.15145482076332 63.60869565140456,136.00899007264525 57.73913043458015,130.20776285114698 53.33695652149618,129.52526486082934 47.76086956541985,130.20776285114698 45.41304347850382,129.52526486082934 42.77173912990838,127.13652077736333 42.77173912990838,123.72402622550726 44.23913043551147,123.04152689105831 43.65217391308397,122.70027717133053 36.02173912990838,120.99402803974226 28.68478260934353,121.33527793711983 26.630434782244265,119.28777802549303 23.402173914015293,122.35902741621248 22.815217391587794,124.40652541862801 23.402173914015293,125.43027394264936 22.815217391587794,126.45402214955539 22.228260870091617,130.8902607015334 22.228260870091617,134.6439963504672 19.880434783175588,139.42147190123796 19.880434783175588,140.78646364435554 20.760869565419853,141.12771149142645 24.576086957007647,142.15145482076332 27.217391305603087,141.46895930287428 31.326086957007647,141.810207080096 39.25000000093132,145.90517764235847 43.65217391308397,149.65889618755318 47.76086956541985,151.36513047665358 49.22826087009162,152.0476239451673 58.32608695700765,152.7301172716543 64.48913043458015,158.87255085329525 66.54347826167941,158.87255085329525 69.18478261027485,157.84881271771155 73.88043478317559,158.19005879783072 77.69565217290074,159.5550427653361 87.96739130374044,159.21379682654515 95.59782608691603,160.57878037099726 101.46739130467176,163.3087457632646 110.2717391308397,160.92002616915852 114.38043478224427,157.84881271771155 120.25000000093132,156.14258178533055 125.23913043551147,158.87255085329525 126.70652173925191,160.2375345386099 127.0,163.99123675748706 127.0,171.49862837046385 128.46739130467176,176.27605049149133 133.4565217392519,179.34724676888436 134.33695652149618,180.71222197427414 135.51086956448853,180.71222197427414 136.9782608691603,180.37097822525539 138.44565217476338,179.0060028792359 144.60869565233588,175.9348062830977 151.65217391308397,174.91107344906777 154.58695652149618,176.6172946630977 161.63043478224427,177.2997829017695 163.6847826084122,176.95853880047798 165.44565217383206,175.5935620397795 166.6195652168244,173.88734029629268 168.38043478224427,165.69746362627484 169.8478260859847,163.99123675748706 170.7282608691603,160.92002616915852 173.07608695700765,157.1663204501383 174.25,152.0476239451673 177.4782608691603,146.24642495857552 180.11956521775573,138.0564795937389 181.0,132.255255977856 180.4130434775725,130.8902607015334 179.53260869625956,130.54901179438457 173.9565217383206,131.23150957399048 172.19565217383206,130.54901179438457 170.4347826084122,127.47777003771625 168.96739130374044,126.11277278256603 162.21739130374044,124.74777496233582 158.69565217383206,125.43027394264936 156.34782608691603,126.79527148092166 152.23913043364882,128.1602684536483 148.42391304392368,131.23150957399048 146.3695652168244,137.7152314283885 145.78260869532824,140.1039678431116 146.07608695607632,142.15145482076332 145.48913043551147,144.88143547880463 143.7282608691603,145.2226829023566 137.5652173915878,142.4927025262732 119.07608695700765,139.76271989033557 114.67391304299235,140.78646364435554 113.5,141.810207080096 107.04347825981677,142.83395019732416 102.05434782523662,142.83395019732416 95.01086956448853,141.12771149142645 83.2717391308397,142.83395019732416 74.17391304299235,142.4927025262732 74.76086956541985,141.46895930287428 74.17391304299235,139.08022387768142 73.29347826167941,137.03273499151692 71.82608695700765,136.00899007264525 65.07608695700765,136.35023841448128 62.434782608412206,132.937753404025 55.09782608691603,131.23150957399048 50.69565217476338,131.23150957399048 48.054347827099264,129.86651387345046 47.467391304671764,125.7715233808849 45.41304347850382,123.72402622550726 43.65217391308397,123.04152689105831 41.59782608691603,123.38277657679282 38.956521740183234,123.38277657679282 36.315217391587794,124.40652541862801 33.96739130560309,124.40652541862801 30.15217391308397,122.70027717133053 29.565217391587794,121.33527793711983 29.565217391587794,119.28777802549303 25.75,124.40652541862801 23.69565217383206,128.8427667277865 21.934782608412206,135.32649328187108 21.934782608412206,140.4452157614287 22.815217391587794,141.12771149142645 30.739130434580147,142.4927025262732 33.96739130560309,144.5401880198624 37.19565217476338,145.56393029005267 42.77173912990838,150.00014311657287 43.35869565233588,151.02388368966058 50.69565217476338,152.7301172716543 54.804347827099264,152.7301172716543 58.61956521682441,153.4126104572788 60.96739130374044,155.11884280270897 62.434782608412206,157.1663204501383 63.60869565140456,157.1663204501383 68.5978260859847,156.14258178533055 77.4021739140153,158.53130484255962 79.45652173925191,158.53130484255962 83.56521739065647,157.84881271771155 89.7282608691603,158.53130484255962 92.66304347850382,160.2375345386099 92.66304347850382,161.2612719319295 94.42391304392368,163.64999127807096 99.11956521775573,166.72119932249188 100.29347825981677,166.72119932249188 104.40217391308397,164.67372761131264 105.86956521775573,163.99123675748706 108.51086956541985,161.2612719319295 117.3152173915878,156.82507426524535" stroke="#4DD2FF" stroke-linecap="round" stroke-linejoin="round" stroke-width="0.5"><title>2024-09-08 5.3km</title><desc>12358127434</desc></polyline></svg>