<?xml version="1.0" encoding="utf-8" ?>
<svg baseProfile="full" height="300mm" version="1.1" viewBox="0,0,200,300" width="200mm" xmlns="http://www.w3.org/2000/svg" xmlns:ev="http://www.w3.org/2001/xml-events" xmlns:xlink="http://www.w3.org/1999/xlink"><defs /><rect fill="#222222" height="300" width="200" x="0" y="0" /><text fill="#FFFFFF" style="font-size:12px; font-family:Arial; font-weight:bold;" x="10" y="20">Over 5km Runs</text><text fill="#FFFFFF" style="font-size:4px; font-family:Arial" x="10" y="280">ATHLETE</text><text fill="#FFFFFF" style="font-size:9px; font-family:Arial" x="10" y="290">Mr. Error 追</text><text fill="#FFFFFF" style="font-size:4px; font-family:Arial" x="65" y="280">SPECIAL TRACKS</text><rect fill="yellow" height="2.6" width="2.6" x="65" y="283" /><text fill="#FFFFFF" style="font-size:3px; font-family:Arial" x="70" y="285.5">Over 20.0 km</text><rect fill="red" height="2.6" width="2.6" x="65" y="287" /><text fill="#FFFFFF" style="font-size:3px; font-family:Arial" x="70" y="289.5">Over 40.0 km</text><text fill="#FFFFFF" style="font-size:4px; font-family:Arial" x="120" y="280">STATISTICS</text><text fill="#FFFFFF" style="font-size:3px; font-family:Arial" x="120" y="285">Number: 4</text><text fill="#FFFFFF" style="font-size:3px; font-family:Arial" x="120" y="290">Weekly: 1.0</text><text fill="#FFFFFF" style="font-size:3px; font-family:Arial" x="141" y="285">Total: 21.6 km</text><text fill="#FFFFFF" style="font-size:3px; font-family:Arial" x="141" y="290">Avg: 5.4 km</text><text fill="#FFFFFF" style="font-size:3px; font-family:Arial" x="167" y="285">Min: 5.2 km</text><text fill="#FFFFFF" style="font-size:3px; font-family:Arial" x="167" y="290">Max: 5.5 km</text><polyline fill="none" points="50.744565217755735,79.9481375948526 51.77173912990838,80.97187451052014 52.65217391261831,81.31312000763137 53.38586956495419,81.14249726792332 55.29347826074809,81.48374272999354 59.40217391261831,81.14249726792332 61.16304347850382,79.7775147134671 61.896739130374044,78.24190798774362 62.77717391308397,77.90066185395699 63.2173913042061,78.24190798774362 63.07065217383206,78.92440004216041 63.2173913042061,78.92440004216041 65.41847826121375,78.58315405016765 68.20652173878625,79.60689181438647 68.9402173915878,80.28938330395613 69.38043478270993,81.48374272999354 69.38043478270993,84.21370388148353 70.4076086957939,86.94366050988901 69.9673913042061,87.2849047704367 70.70108695607632,87.96739307977259 73.7826086957939,89.16174694010988 74.95652173925191,89.16174694010988 77.30434782616794,88.13801511260681 80.5326086957939,87.96739307977259 81.55978260887787,87.96739307977259 84.49456521729007,89.16174694010988 86.40217391354963,88.99112501333002 87.28260869532824,88.64988110621925 87.72282608691603,87.11428264877759 89.19021739112213,84.5549487072276 91.53804347850382,78.58315405016765 92.125,76.02380685752723 94.32608695700765,71.41697189211845 95.5,67.8338691246463 94.91304347803816,66.98074826982338 94.32608695700765,66.81012404593639 91.09782608691603,67.49262083612848 90.2173913042061,67.32199666521046 89.63043478270993,66.81012404593639 89.19021739112213,65.1038808345329 88.6032608691603,64.25075856561307 85.08152173925191,63.227011260343716 83.90760869625956,63.397635855712 81.11956521682441,64.59200752608012 81.11956521682441,65.1038808345329 78.77173913037404,68.68698953813873 78.62499999953434,71.24634812725708 78.77173913037404,72.09946677391417 77.59782608738169,72.95258497830946 58.96195652149618,72.09946677391417 57.64130434719846,72.27009045006707 46.19565217429772,72.4407141081756 41.5,70.73447672754992 40.17934782616794,69.71073345106561 38.56521739112213,67.49262083612848 36.36413043458015,66.63949980412144 34.75,66.63949980412144 34.01630434812978,66.29825126822107 32.98913043458015,65.78637833090033 31.375,64.25075856561307 29.61413043504581,64.59200752608012 28.29347826074809,64.08013405930251 28.146739130374044,64.59200752608012 26.826086956541985,64.42138305446133 24.478260870091617,63.397635855712 24.038043478503823,62.54451270366553 24.038043478503823,62.03263860021252 23.157608695793897,61.52076433820184 21.983695652801543,61.35013954853639 21.25,61.69138911005575 19.342391304671764,61.52076433820184 16.701086957007647,60.326390441390686 15.673913043923676,63.738884992781095 15.086956521496177,66.29825126822107 15.086956521496177,68.51636549108662 15.673913043923676,70.3932290392695 16.55434782616794,70.73447672754992 17.58152173878625,70.90510054549668 18.90217391308397,70.3932290392695 20.663043478503823,70.56385289202444 23.157608695793897,71.75821936829016 25.358695652801543,73.29383213655092 29.32065217383206,75.17069024324883 35.33695652196184,75.51193694199901 40.17934782616794,78.4125310278032 43.4076086957939,79.4362688981928 45.46195652196184,79.9481375948526 47.66304347803816,79.0950230115559 48.83695652196184,79.2656459636055 49.86413043458015,79.60689181438647 50.01086956495419,80.11876045772806 52.35869565233588,81.48374272999354 54.26630434766412,81.31312000763137 56.61413043504581,81.82498812116683 59.8423913042061,80.97187451052014 62.630434782709926,79.0950230115559 64.09782608691603,78.92440004216041 67.32608695607632,79.0950230115559 68.79347826121375,80.11876045772806 69.38043478270993,80.97187451052014 69.23369565233588,82.33685607556254 68.79347826121375,83.01934643415734 69.23369565233588,85.23743814730551 68.9402173915878,86.09054954943713 69.23369565233588,86.94366050988901 71.14130434766412,88.13801511260681 73.63586956495419,88.99112501333002 78.47826086962596,87.2849047704367 81.11956521682441,87.6261489604367 83.4673913042061,88.82050306850579 85.66847826074809,88.82050306850579 88.6032608691603,87.6261489604367 88.75,86.60241617914289 89.77717391354963,84.38432630349416 91.39130434812978,78.75377705553547 93.5923913042061,74.48819663340691 94.91304347803816,70.22260516893584 95.3532608691603,68.51636549108662 95.05978260887787,67.49262083612848 94.32608695700765,66.98074826982338 91.09782608691603,67.1513724764809 88.16304347850382,64.59200752608012 86.54891304299235,64.08013405930251 85.375,64.08013405930251 81.26630434766412,64.42138305446133 79.94565217383206,65.27450523490552 78.62499999953434,67.32199666521046 78.33152173925191,68.68698953813873 78.33152173925191,71.58759563881904 77.74456521775573,72.4407141081756 77.30434782616794,72.78196137258783 61.01630434719846,72.4407141081756 53.23913043504581,72.78196137258783 46.92934782616794,72.4407141081756 43.994565217290074,71.92884308006614 42.52717391308397,70.22260516893584 40.0326086957939,69.36948555044364 39.592391305137426,69.19886157405563 39.15217391354963,68.3457414257573 37.39130434812978,67.49262083612848 35.77717391354963,67.49262083612848 33.72282608691603,66.63949980412144 28.586956521961838,65.44512961781584 24.91847826074809,63.397635855712 21.396739130374044,62.54451270366553 19.92934782616794,62.03263860021252 18.755434782709926,61.00888991728425 17.434782608877867,61.00888991728425 16.84782608691603,61.35013954853639 16.407608695793897,64.42138305446133 15.380434782709926,67.49262083612848 15.967391304206103,69.19886157405563 16.84782608691603,70.22260516893584 19.92934782616794,70.56385289202444 23.59782608738169,72.27009045006707 25.798913043458015,72.61133774952032 27.853260870091617,73.97632624104153 30.788043478969485,74.65882006229367 32.10869565233588,74.65882006229367 34.16304347850382,75.34131360147148 37.244565217290074,75.682560264715 37.978260869160295,76.36505337967537 42.52717391308397,78.75377705553547 44.43478260887787,78.92440004216041 45.315217391587794,78.75377705553547 47.369565217290074,78.92440004216041 50.89130434766412,79.9481375948526 52.65217391261831,81.31312000763137 54.853260869625956,82.33685607556254 59.8423913042061,80.80125173507258 63.36413043504581,79.0950230115559 66.73913043504581,79.2656459636055 69.23369565233588,79.9481375948526 69.67391304345801,80.28938330395613 69.8206521733664,80.63062894262839 69.08695652149618,83.53121401753742 69.38043478270993,86.4317939869361 69.9673913042061,87.4555268746335 70.84782608691603,88.30863712821156 72.31521739112213,89.16174694010988 73.34239130467176,89.33236884966027 75.25,88.99112501333002 78.47826086962596,87.6261489604367 81.11956521682441,87.2849047704367 81.99999999953434,87.4555268746335 82.58695652196184,88.4792591262376 83.4673913042061,88.82050306850579 85.08152173925191,88.82050306850579 86.25543478270993,89.16174694010988 87.13586956541985,88.82050306850579 89.33695652149618,85.06681581411976 90.07065217383206,83.18996897991747 91.09782608691603,79.9481375948526 92.2717391308397,77.38879252155311 93.00543478270993,74.31757318717428 94.0326086957939,72.78196137258783 95.5,67.1513724764809 95.05978260887787,66.46887554496061 94.32608695700765,66.29825126822107 92.125,66.98074826982338 91.53804347850382,66.81012404593639 90.6576086957939,66.46887554496061 89.63043478270993,65.27450523490552 87.57608695654199,63.738884992781095 84.34782608691603,63.738884992781095 83.32065217383206,63.90950953506399 79.65217391308397,65.78637833090033 79.50543478224427,66.63949980412144 78.1847826084122,68.68698953813873 78.1847826084122,71.24634812725708 77.89130434766412,72.09946677391417 76.57065217383206,72.95258497830946 69.8206521733664,72.95258497830946 64.53804347850382,72.27009045006707 63.51086956541985,72.4407141081756 61.30978260934353,72.09946677391417 48.396739130374044,72.95258497830946 43.55434782616794,71.92884308006614 42.23369565187022,71.41697189211845 41.940217391587794,71.07572434516624 41.5,69.88135737460107 38.85869565187022,67.32199666521046 36.51086956541985,67.1513724764809 35.33695652196184,66.46887554496061 33.28260869625956,66.29825126822107 31.521739130839705,65.44512961781584 30.34782608738169,65.61575398326386 28.586956521961838,65.44512961781584 27.266304347664118,64.76263197965454 25.94565217383206,62.885762017569505 24.91847826074809,62.54451270366553 20.22282608738169,62.03263860021252 19.048913043458015,61.52076433820184 18.16847826121375,60.49701533699408 16.407608695793897,61.52076433820184 16.11413043504581,62.54451270366553 16.26086956495419,63.738884992781095 16.407608695793897,64.08013405930251 14.5,68.00449324294459 15.967391304206103,70.22260516893584 18.90217391308397,70.05198128032498 20.663043478503823,70.73447672754992 22.717391304671764,71.58759563881904 27.70652173925191,75.00006686721463 28.586956521961838,75.00006686721463 30.64130434812978,76.02380685752723 34.16304347850382,75.8531835700851 36.80434782570228,77.21816937555559 38.125,77.21816937555559 39.005434782709926,78.4125310278032 42.23369565187022,79.7775147134671 44.43478260887787,79.7775147134671 46.782608695328236,79.2656459636055 48.103260869160295,79.2656459636055 50.157608695328236,79.9481375948526 52.798913043458015,81.65436543454416 54.41304347803816,82.33685607556254 55.58695652196184,82.33685607556254 59.69565217383206,81.31312000763137 60.576086956541985,80.97187451052014 61.45652173878625,79.9481375948526 63.07065217383206,79.2656459636055 64.83152173878625,79.0950230115559 67.0326086957939,79.4362688981928 69.08695652149618,81.14249726792332 69.23369565233588,81.65436543454416 68.79347826121375,83.70183651021216 69.52717391308397,86.94366050988901 70.55434782616794,88.64988110621925 71.875,89.67361261602491 72.31521739112213,89.84423447214067 74.22282608738169,89.50299074151553 75.10326087009162,89.16174694010988 75.54347826074809,88.64988110621925 78.03804347803816,87.79677102912683 80.23913043411449,87.79677102912683 83.90760869625956,88.30863712821156 85.96195652149618,88.13801511260681 87.42934782570228,87.4555268746335 89.63043478270993,84.38432630349416 90.51086956541985,81.31312000763137 92.125,78.24190798774362 92.41847826028243,75.34131360147148 93.29891304299235,74.48819663340691 93.88586956541985,72.09946677391417 95.05978260887787,69.19886157405563 95.3532608691603,67.66324498911854 95.20652173878625,67.32199666521046 94.61956521729007,66.81012404593639 93.5923913042061,66.63949980412144 91.39130434812978,67.49262083612848 89.33695652149618,66.29825126822107 88.45652173925191,65.27450523490552 87.13586956541985,64.42138305446133 86.25543478270993,64.08013405930251 84.49456521729007,64.08013405930251 81.55978260887787,64.93325641588308 79.21195652196184,66.81012404593639 78.47826086962596,69.19886157405563 78.47826086962596,72.27009045006707 77.74456521775573,72.95258497830946 77.1576086957939,73.12320856656879 75.10326087009162,72.78196137258783 67.91304347850382,72.95258497830946 62.33695652149618,72.27009045006707 54.853260869625956,72.61133774952032 48.103260869160295,72.27009045006707 44.728260869625956,72.95258497830946 43.26086956541985,72.4407141081756 42.23369565187022,71.41697189211845 41.353260869160295,70.90510054549668 39.592391305137426,70.73447672754992 38.85869565187022,70.3932290392695 37.09782608738169,68.51636549108662 35.33695652196184,68.3457414257573 34.16304347850382,67.49262083612848 29.61413043504581,65.78637833090033 28.733695652335882,64.76263197965454 25.358695652801543,61.86201386409812 24.038043478503823,60.15576552785933 23.01086956495419,60.49701533699408 21.54347826074809,60.326390441390686 20.369565217290074,61.17951474164147 19.048913043458015,60.6676402145531 18.315217391122133,60.15576552785933 18.755434782709926,60.49701533699408 17.875,61.00888991728425 17.58152173878625,62.03263860021252" stroke="#4DD2FF" stroke-linecap="round" stroke-linejoin="round" stroke-width="0.5"><title>2024-10-27 5.5km</title><desc>12753632530</desc></polyline><polyline fill="none" points="176.6313868612051,89.26510983600747 178.55291970819235,88.9213752039941 178.99635036475956,88.40577312302776 180.9178832117468,80.15611803927459 185.20437956228852,69.15651414263994 185.5,66.57847143383697 184.7609489057213,66.06286241172347 184.0218978105113,66.06286241172347 182.10036496352404,66.92221069347579 181.5091240881011,66.75034107267857 179.88321167882532,64.68790423637256 178.4051094893366,63.65668485686183 177.22262773755938,63.31294492119923 173.67518248222768,63.141074926475994 172.6405109493062,63.484814898110926 170.57116788253188,64.85977407032624 169.24087591283023,66.57847143383697 168.7974452553317,68.6409059209982 168.7974452553317,70.70333784550894 169.0930656939745,71.9064219512511 168.64963503647596,72.07829103758559 167.0237226281315,72.25016010692343 158.8941605836153,72.07829103758559 154.6076642330736,72.25016010692343 148.5474452553317,72.07829103758559 138.9397810222581,72.59389819134958 136.87043795641512,72.93763620476238 133.47080291993916,71.39081458409782 130.95802919752896,69.84399152209517 129.18430657032877,69.50025286793243 126.81934306584299,67.78155852959026 124.89781021978706,66.75034107267857 123.86313868593425,66.75034107267857 121.35036496352404,66.23473210341763 120.61131386924535,65.71912297455128 116.32481751870364,64.00042472057976 113.95985401514918,63.484814898110926 109.67335766460747,61.59424417547416 108.19525547418743,61.42237400333397 107.308394161053,60.56302287441213 106.27372262813151,61.59424417547416 106.27372262813151,63.141074926475994 105.38686131406575,65.20351368538104 104.7956204386428,67.95342804351822 104.7956204386428,68.98464475304354 106.27372262813151,71.04707625054289 107.16058394219726,71.04707625054289 110.116788322106,70.35959936946165 112.18613138701767,70.5314686166821 117.80291970912367,73.62511201808229 120.02007299289107,73.79698092653416 128.5930656939745,76.20314378105104 131.99270073045045,78.60930314625148 134.80109489057213,79.81238152098376 139.53102189768106,79.64051323570311 142.33941605873406,80.84359086258337 143.66970802936703,82.0466676177457 145.88686131406575,82.7341396578122 146.7737226281315,82.56227167474572 149.13868613168597,81.70293149119243 151.65145985409617,79.9842497893842 152.3905109493062,79.9842497893842 154.6076642330736,78.78117153863423 156.67700729891658,79.12490827112924 158.30291970819235,79.81238152098376 160.37226277403533,81.18732716748491 159.63321167882532,82.2185356542468 159.48540145996958,83.077875571209 159.63321167882532,83.93721504264977 158.74635036475956,84.96842182136606 158.74635036475956,85.48402497021016 159.78102189768106,87.5464359652251 160.2244525551796,88.06203831313178 161.9981751833111,89.09324252884835 163.7718978105113,89.43697712558787 167.61496350355446,88.40577312302776 170.71897810231894,87.89017088140827 174.41423357650638,88.57764050120022 176.48357664234936,89.43697712558787 177.6660583941266,89.09324252884835 178.55291970819235,88.57764050120022 178.84854014683515,88.06203831313178 179.58759124111384,85.31215727189556 180.62226277403533,82.2185356542468 181.65693430695683,80.15611803927459 182.39598540123552,76.71874965250026 184.31751824822277,72.59389819134958 185.35218978114426,68.12529753998388 185.35218978114426,66.75034107267857 184.4653284670785,66.06286241172347 181.9525547446683,66.75034107267857 180.17883211746812,64.85977407032624 179.1441605836153,64.00042472057976 173.82299270108342,62.79733488417696 172.19708029180765,63.31294492119923 171.90145985409617,64.00042472057976 170.57116788253188,65.54725322907325 169.68430656939745,67.09408029634506 169.0930656939745,69.50025286793243 169.24087591283023,72.07829103758559 168.7974452553317,72.42202915786766 167.17153284698725,72.7657672072528 164.5109489057213,72.42202915786766 155.6423357669264,72.42202915786766 153.42518248222768,72.07829103758559 149.13868613168597,72.59389819134958 144.40875912457705,72.25016010692343 137.4616788327694,72.59389819134958 134.50547445286065,71.56268372456543 133.47080291993916,70.5314686166821 130.95802919752896,70.01586082205176 130.366788322106,69.32838351430837 129.18430657032877,69.15651414263994 128.5930656939745,68.81277534610126 128.00182481762022,67.95342804351822 125.63686131406575,66.92221069347579 119.28102189768106,65.37538346624933 118.6897810222581,64.68790423637256 117.35948905162513,64.34416451386642 116.1770072998479,62.79733488417696 110.8558394163847,61.766114330501296 108.63868613168597,62.10985458618961 106.71715328469872,61.25050381314941 105.68248175177723,62.10985458618961 105.68248175177723,65.0316438867012 104.7956204386428,66.57847143383697 104.5,68.29716701805592 105.09124087635428,69.32838351430837 106.27372262813151,70.5314686166821 107.16058394219726,70.70333784550894 108.19525547418743,70.35959936946165 109.8211678834632,70.18773010442965 112.03832116816193,70.5314686166821 113.3686131387949,71.04707625054289 115.14233576692641,72.42202915786766 116.76824817527086,73.10950518446043 121.4981751833111,75.00006278976798 126.22810218948871,75.17193155619316 128.88868613168597,76.03127512114588 131.69708029273897,77.74996091611683 133.6186131387949,78.60930314625148 138.9397810222581,79.12490827112924 141.7481751833111,80.49985448643565 143.37408759165555,81.70293149119243 144.85218978114426,82.39040367340203 147.21715328469872,82.39040367340203 149.13868613168597,81.53106340090744 151.94708029180765,79.64051323570311 153.8686131387949,78.95303991367109 155.49452554713935,78.60930314625148 157.12043795641512,78.95303991367109 159.1897810222581,80.15611803927459 159.63321167882532,81.18732716748491 159.04197080340236,82.7341396578122 159.1897810222581,85.31215727189556 159.9288321165368,87.03083345643245 160.9635036494583,87.89017088140827 162.441605838947,88.40577312302776 164.5109489057213,88.57764050120022 166.7281021894887,88.06203831313178 169.5364963505417,87.89017088140827 171.75364963524044,88.06203831313178 175.8923357669264,89.09324252884835 177.22262773755938,88.74950786156114 178.25729927048087,88.23390572727658 178.84854014683515,87.2027009773301 178.99635036475956,85.99962795944884 179.88321167882532,84.10908288380597 181.5091240881011,79.12490827112924 183.28284671530128,75.17193155619316 183.430656934157,73.96884981775656 184.90875912364572,70.5314686166821 185.5,68.29716701805592 185.20437956228852,67.09408029634506 184.7609489057213,66.4066017777659 184.16970802936703,66.23473210341763 181.9525547446683,67.09408029634506 181.5091240881011,67.09408029634506 178.84854014683515,64.17229462624528 177.22262773755938,63.65668485686183 173.67518248222768,63.141074926475994 172.93613138701767,63.31294492119923 172.19708029180765,63.82855479756836 172.0492700729519,64.34416451386642 170.866788322106,65.37538346624933 169.68430656939745,67.09408029634506 169.24087591283023,69.32838351430837 169.24087591283023,72.25016010692343 169.0930656939745,72.7657672072528 168.35401459876448,73.28137414704543 165.9890510942787,72.7657672072528 158.4507299270481,72.42202915786766 142.930656934157,72.59389819134958 140.86131386924535,72.93763620476238 139.53102189768106,72.7657672072528 137.9051094893366,72.07829103758559 137.75729927048087,71.04707625054289 135.68795620463789,69.32838351430837 133.6186131387949,68.81277534610126 132.43613138701767,69.15651414263994 130.366788322106,68.81277534610126 129.0364963505417,67.26594988105353 129.0364963505417,66.75034107267857 128.44525547511876,66.4066017777659 125.78467153385282,66.23473210341763 124.30656934343278,65.20351368538104 120.02007299289107,65.71912297455128 117.65510948933661,65.37538346624933 114.69890510942787,64.00042472057976 109.22992700804025,62.10985458618961 108.04744525626302,61.42237400333397 108.3430656939745,61.25050381314941 108.04744525626302,60.734893135377206 107.0127737224102,61.766114330501296 106.86496350355446,63.31294492119923 105.97810219042003,65.89099270233419 105.38686131406575,66.75034107267857 105.09124087635428,69.32838351430837 105.68248175177723,70.35959936946165 106.56934306677431,71.2189454260515 111.59489051066339,70.35959936946165 111.89051094930619,70.70333784550894 114.55109489057213,71.39081458409782 117.2116788327694,73.62511201808229 118.24635036475956,74.14071869070176 120.46350364945829,74.656325203483 123.56751824822277,74.656325203483 127.2627737224102,75.51566903560888 129.0364963505417,76.54688104661182 131.1058394163847,77.23435536469333 132.5839416058734,78.43743473629002 134.80109489057213,79.12490827112924 140.7135036494583,79.29677661019377 141.4525547446683,80.32798627216835 144.70437956228852,82.2185356542468 146.18248175177723,82.7341396578122 147.66058394219726,82.56227167474572 152.8339416058734,79.29677661019377 154.16423357650638,78.78117153863423 155.34671532921493,78.43743473629002 156.97262773755938,78.78117153863423 158.1551094893366,79.64051323570311 159.04197080340236,80.84359086258337 158.8941605836153,84.79655406973325 159.63321167882532,87.03083345643245 160.52007299289107,88.57764050120022 161.55474452581257,89.09324252884835 164.5109489057213,89.26510983600747 168.35401459876448,88.23390572727658 170.57116788253188,87.89017088140827 172.93613138701767,88.23390572727658 174.70985401421785,89.09324252884835 176.18795620463789,89.26510983600747 178.55291970819235,88.06203831313178 179.1441605836153,87.37456847983412 179.58759124111384,85.99962795944884" stroke="#4DD2FF" stroke-linecap="round" stroke-linejoin="round" stroke-width="0.5"><title>2024-10-13 5.5km</title><desc>12641545700</desc></polyline><polyline fill="none" points="65.29159049317241,229.04636227246374 68.25319926813245,229.90727560210507 68.84552102349699,230.5960059441859 68.99360146280378,231.62910092214588 68.40127970743924,233.5231067155255 68.40127970743924,234.9005641194526 68.54936014674604,235.76147441694047 69.43784277886152,237.1389299663715 70.62248628865927,237.99983910564333 72.25137111544609,238.6885660958942 74.02833638060838,238.8607477985788 80.54387568496168,238.17202087957412 84.83820840902627,239.03292948403396 87.50365630723536,238.6885660958942 88.09597806166857,237.99983910564333 88.39213893935084,236.10583841148764 90.61334552057087,230.42382338491734 91.05758683755994,228.01326568983495 92.24223034735769,226.11925362038892 93.57495429646224,222.8477731461171 95.20383912231773,217.85444843326695 95.05575868394226,217.33789674530271 94.31535649020225,216.8213448963361 91.50182815361768,216.99352886353154 89.13254113309085,214.5829516974045 82.9131627054885,213.3776618039701 81.43235831800848,214.06639899301808 79.80347349122167,215.44387251487933 78.61882998142391,216.8213448963361 78.02650822605938,219.05973508185707 78.02650822605938,222.33122300892137 77.28610603231937,223.01995648967568 67.66087751369923,221.98685616231523 60.99725777003914,221.98685616231523 58.331809871830046,221.64248924318235 50.631627056747675,221.64248924318235 45.00457038357854,222.503406406031 43.819926872849464,222.15903959446587 43.52376599609852,221.64248924318235 41.894881170243025,221.47030575748067 40.85831809788942,220.78157163551077 40.26599634345621,220.09283722762484 40.11791590414941,219.40410253510345 40.414076782763004,218.71536755689885 40.11791590414941,218.02663229347672 38.93327239435166,217.1657128132647 37.74862888455391,216.8213448963361 36.26782449707389,217.6822645548964 33.602376598864794,217.33789674530271 32.56581352837384,216.4769769080449 27.97531992662698,214.9273200785974 26.79067641682923,214.2385832455475 26.19835466146469,213.3776618039701 24.27330895792693,212.00018657033797 22.644424131140113,212.1723710366059 18.94241316244006,211.48363306338433 18.05393053032458,211.13926396891475 17.75776965264231,210.79489480389748 17.905850091017783,210.45052556786686 17.165447897277772,211.13926396891475 15.24040219374001,215.44387251487933 14.5,217.6822645548964 14.944241316057742,220.09283722762484 15.684643509797752,220.95375519280788 19.386654478497803,220.78157163551077 20.867458865977824,221.1259387319442 21.904021937400103,221.64248924318235 22.348263253457844,222.15903959446587 24.71755027398467,222.8477731461171 26.642595977522433,224.3974225942511 29.01188299804926,225.43052142404485 35.08318098727614,226.2914366250625 43.96800731215626,229.73509297135752 45.44881169963628,229.56291032361332 45.30073126126081,229.04636227246374 47.67001828085631,229.39072765794117 52.852833637967706,232.66219525889028 54.03747714776546,233.1787421865156 55.66636197362095,233.1787421865156 57.73948811739683,232.49001291382592 60.25685557536781,230.5960059441859 63.51462522894144,229.04636227246374 68.10511882975698,229.90727560210507 68.99360146280378,231.4569184705615 68.10511882975698,233.86747117340565 68.25319926813245,236.4502023345558 68.54936014674604,237.3111118299421 69.585923217237,238.34420263580978 70.62248628865927,239.2051111512119 71.51096892170608,239.37729280046187 74.32449725735933,239.54947443224955 77.8784277876839,238.6885660958942 80.69195612426847,238.34420263580978 82.76508226618171,238.51638437481597 85.72669104207307,239.54947443224955 86.61517367418855,239.54947443224955 87.50365630723536,238.17202087957412 87.50365630723536,236.10583841148764 88.24405850097537,235.2449282919988 90.02102376613766,230.5960059441859 91.50182815361768,229.56291032361332 91.94606946967542,228.5298140613595 91.79798903129995,227.84108286362607 92.24223034735769,227.3245342776645 93.13071297947317,225.25833833008073 93.72303473483771,222.8477731461171 94.16727605089545,222.15903959446587 95.5,217.6822645548964 95.20383912231773,216.99352886353154 94.16727605089545,216.30479288718197 92.0941499080509,217.1657128132647 91.50182815361768,217.1657128132647 88.83638025633991,214.410767480731 86.76325411349535,213.54984612797853 82.46892138943076,213.03329310228582 80.54387568496168,214.75513589696493 79.21115173678845,216.64916091121268 78.47074954211712,219.74846991722006 78.61882998142391,222.503406406031 78.02650822605938,223.01995648967568 69.73400365654379,222.33122300892137 58.92413162719458,222.33122300892137 55.81444241292775,222.6755897848634" stroke="#4DD2FF" stroke-linecap="round" stroke-linejoin="round" stroke-width="0.5"><title>2024-09-09 5.2km</title><desc>12366514575</desc></polyline><polyline fill="none" points="153.33606557408348,227.91651839017868 154.36885245889425,228.08807390299626 157.7622950822115,229.2889619974885 158.64754098374397,230.14673867519014 159.0901639345102,231.00451490830164 159.23770491825417,232.0338458016049 158.79508196748793,233.5778409432387 158.35245901625603,233.92095077922568 158.64754098374397,235.97960830270313 159.68032786855474,237.69515428482555 160.5655737700872,238.20981773349922 162.48360655782744,238.89603541546967 164.84426229493693,239.41069849091582 167.20491803297773,238.89603541546967 167.64754098374397,238.55292661022395 172.07377049187198,238.0382632681867 173.8442622954026,238.55292661022395 176.94262295030057,238.72448102175258 177.38524590153247,238.20981773349922 177.38524590153247,237.86670878517907 178.5655737700872,236.66582690854557 179.30327868834138,233.74939586990513 179.45081967161968,231.34762527723797 180.04098360659555,229.4605173689779 181.3688524593599,228.08807390299626 181.9590163929388,226.029406573507 183.5819672131911,223.7991807460785 184.4672131142579,221.7405080863973 184.61475409846753,220.71117079711985 185.20491803251207,219.16716366482433 184.7622950822115,218.13782477681525 185.20491803251207,216.4222585419193 184.90983606502414,215.56447475857567 184.7622950822115,215.2213611206971 181.66393442591652,215.90758832532447 180.18852458987385,214.706690531224 179.5983606558293,213.848905858933 178.71311475383118,212.99112074321602 176.0573770487681,212.4764494606061 174.87704918021336,212.6480065723881 171.63114754110575,213.67734887148254 170.89344262285158,214.19201978098135 170.30327868834138,215.90758832532447 170.1557377045974,217.79471167200245 169.86065573757514,218.82405077281874 167.64754098374397,222.76984473597258 166.9098360654898,223.28451282088645 165.72950819693506,222.94140078208875 164.10655737714842,222.08362037409097 162.48360655782744,221.7405080863973 159.97540983650833,220.71117079711985 153.1885245903395,219.51027648500167 148.17213114723563,220.1965019130148 142.41803278634325,219.8533892345149 139.76229508174583,220.024945582496 133.12295081978664,221.3973957276903 131.64754098374397,221.05428329796996 126.48360655689612,217.96626823337283 123.53278688481078,215.0498042749241 121.3196721309796,214.706690531224 118.51639344263822,215.0498042749241 117.33606557361782,214.706690531224 116.00819672131911,213.50579186622053 116.00819672131911,211.79022083478048 116.74590163957328,211.44710641517304 116.45081967208534,211.27554917905945 112.61475409800187,210.41776273038704 108.92622950812802,210.5893200559076 107.89344262238592,209.55997583805583 106.2704918035306,211.10399192525074 105.97540983604267,212.13333518325817 106.2704918035306,212.6480065723881 105.97540983604267,213.16267780202907 105.6803278690204,215.39291794830933 105.6803278690204,217.28004188113846 104.5,219.68183286848944 104.5,220.36805822572205 106.41803278680891,221.05428329796996 108.18852459033951,220.71117079711985 110.25409836089239,220.88272705674171 114.23770491825417,222.94140078208875 116.45081967208534,224.82851611624938 119.25409836089239,226.029406573507 123.8278688522987,226.37251797271892 126.92622950812802,229.4605173689779 127.95901639387012,229.4605173689779 129.28688524663448,228.9458512024721 131.64754098374397,229.11740660876967 133.5655737700872,229.8036280570086 138.7295081964694,229.6320727217244 142.56557377055287,230.31829395715613 145.51639344263822,231.69073557516094 149.94262295076624,230.48984922177624 152.0081967213191,228.9458512024721 154.95901639387012,228.08807390299626 157.46721311518922,229.4605173689779 158.20491803297773,230.14673867519014 158.35245901625603,232.0338458016049 158.35245901625603,235.8080536071211 159.0901639345102,238.20981773349922 161.5983606558293,239.753807118861 162.04098360612988,240.44002416194417 162.6311475406401,240.44002416194417 163.36885245889425,240.26846992748324 164.10655737714842,239.58225281373598 167.20491803297773,238.0382632681867 170.74590163910761,237.5235997668933 172.2213114751503,238.3813721804181 175.76229508174583,238.72448102175258 176.79508196702227,238.55292661022395 177.6803278690204,237.86670878517907 178.27049180306494,237.00893610541243 179.15573770506307,232.89162105810829 179.89344262238592,232.0338458016049 180.33606557361782,230.48984922177624 181.51639344263822,228.60274033574387 182.10655737714842,226.029406573507 183.7295081964694,223.1129568099277 185.05737704923376,218.99560722755268 185.5,216.07914508192334 185.20491803251207,215.39291794830933 184.7622950822115,215.2213611206971 181.9590163929388,215.56447475857567 180.77868852438405,214.87824741192162 180.48360655736178,214.02046282915398 179.5983606558293,213.16267780202907 175.9098360654898,212.3048923308961 171.1885245903395,214.02046282915398 169.12295081978664,215.56447475857567 168.09016393404454,218.82405077281874 167.79508196702227,220.024945582496 167.94262295076624,221.05428329796996 167.64754098374397,222.42673259053845 167.20491803297773,222.5982886722777 166.3196721309796,222.5982886722777 164.25409836089239,221.3973957276903 163.22131147561595,221.05428329796996 159.23770491825417,220.71117079711985 155.25409836089239,219.8533892345149 153.33606557408348,220.024945582496 152.1557377045974,220.36805822572205 151.56557377055287,220.88272705674171 150.53278688527644,221.05428329796996" stroke="#4DD2FF" stroke-linecap="round" stroke-linejoin="round" stroke-width="0.5"><title>2024-09-08 5.3km</title><desc>12358368474</desc></polyline></svg>