<?xml version="1.0" encoding="utf-8" ?>
<svg baseProfile="full" height="300mm" version="1.1" viewBox="0,0,200,300" width="200mm" xmlns="http://www.w3.org/2000/svg" xmlns:ev="http://www.w3.org/2001/xml-events" xmlns:xlink="http://www.w3.org/1999/xlink"><defs /><rect fill="#222222" height="300" width="200" x="0" y="0" /><text fill="#FFFFFF" style="font-size:12px; font-family:Arial; font-weight:bold;" x="10" y="20">Over 1km Runs</text><text fill="#FFFFFF" style="font-size:4px; font-family:Arial" x="10" y="280">ATHLETE</text><text fill="#FFFFFF" style="font-size:9px; font-family:Arial" x="10" y="290">Mr. Error 追</text><text fill="#FFFFFF" style="font-size:4px; font-family:Arial" x="65" y="280">SPECIAL TRACKS</text><rect fill="yellow" height="2.6" width="2.6" x="65" y="283" /><text fill="#FFFFFF" style="font-size:3px; font-family:Arial" x="70" y="285.5">Over 20.0 km</text><rect fill="red" height="2.6" width="2.6" x="65" y="287" /><text fill="#FFFFFF" style="font-size:3px; font-family:Arial" x="70" y="289.5">Over 40.0 km</text><text fill="#FFFFFF" style="font-size:4px; font-family:Arial" x="120" y="280">STATISTICS</text><text fill="#FFFFFF" style="font-size:3px; font-family:Arial" x="120" y="285">Number: 1</text><text fill="#FFFFFF" style="font-size:3px; font-family:Arial" x="120" y="290">Weekly: 1.0</text><text fill="#FFFFFF" style="font-size:3px; font-family:Arial" x="141" y="285">Total: 1.2 km</text><text fill="#FFFFFF" style="font-size:3px; font-family:Arial" x="141" y="290">Avg: 1.2 km</text><text fill="#FFFFFF" style="font-size:3px; font-family:Arial" x="167" y="285">Min: 1.2 km</text><text fill="#FFFFFF" style="font-size:3px; font-family:Arial" x="167" y="290">Max: 1.2 km</text><polyline fill="none" points="74.93584905564785,156.39751471951604 75.24150943383574,155.68669309909455 73.10188679210842,155.68669309909455 73.10188679210842,156.0421039275825 72.18490566127002,156.39751471951604 69.7396226413548,155.68669309909455 66.37735849060118,156.39751471951604 63.015094339847565,154.26504941983148 59.65283018909395,154.26504941983148 55.067924527451396,152.13258279534057 50.788679245859385,151.4217602929566 43.452830189839005,145.73517497442663 38.8679245300591,143.60270305001177 35.50566037930548,142.89187878090888 28.781132075935602,140.04858023207635 26.33584905602038,138.27151744347066 22.667924527078867,137.56069207005203 21.750943396240473,136.84986654948443 21.750943396240473,135.42821506690234 19.91698113270104,135.7836279931944 19.61132075637579,135.07280210475437 19.0,135.7836279931944 22.973584905266762,134.71738910488784 28.169811321422458,134.71738910488784 32.14339622668922,137.91610477445647 34.89433962292969,141.82564210053533 36.728301886469126,143.24729093443602 42.535849057137966,144.66893917764537 53.53962264209986,145.73517497442663 58.43018867820501,149.28929190291092 64.84905660524964,152.13258279534057 75.54716981202364,154.6204603947699 77.68679245188832,154.6204603947699 80.43773584999144,153.55422735889442 86.55094339698553,154.6204603947699 90.21886792592704,156.75292547349818 92.35849056579173,159.95162060670555 95.72075471654534,162.4394925381057 98.47169811464846,163.86113283224404 101.22264150902629,163.15031275874935 103.97358490526676,160.30703099281527 108.55849056690931,157.1083361916244 113.14339622668922,155.68669309909455 115.28301886841655,153.19881627289578 122.61886792443693,153.55422735889442 127.20377358607948,156.0421039275825 128.73207547329366,158.17456812318414 128.12075471691787,160.66244134283625 126.28679245337844,163.5057228144724 126.89811320789158,169.54768811981194 133.31698113121092,177.3666862573009 136.98490566015244,178.07750338688493 144.6264150943607,174.5234162681736 144.9320754725486,174.5234162681736 145.84905660524964,175.23423398728482 147.07169811427593,173.4571894153487 149.82264150865376,172.39096223027445 152.57358490675688,172.74637132906355 156.8528301883489,172.03555309586227 162.35471698082983,173.10178039129823 166.9396226424724,170.96932547050528 168.16226415149868,169.54768811981194 169.38490566052496,166.7044116545003 169.38490566052496,164.2165428143926 170.91320754773915,162.08408237318508 171.5245283022523,159.24079972319305 175.80377358570695,150.71093764388934 176.72075471654534,144.66893917764537 178.86037735827267,139.33775522676297 181.0,130.45243024080992 179.16603773646057,127.96453512273729 177.94339622743428,127.60912138735875 172.44150943495333,127.25370761472732 169.38490566052496,123.69956786744297 167.24528301879764,122.6333252247423 163.57735849171877,121.9224966133479 158.99245283007622,122.27791093755513 155.32452830299735,123.34415368945338 153.49056603759527,123.34415368945338 151.65660377405584,124.41039611166343 149.82264150865376,126.8982938057743 145.84905660524964,130.0970167631749 145.54339622706175,132.9403235556092 147.37735849246383,138.62693007546477 146.1547169815749,140.40399267990142 139.7358490563929,140.40399267990142 132.70566037856042,138.9823426695075 122.92452830076218,137.91610477445647 104.8905660379678,138.9823426695075 58.73584905639291,151.77717156289145 63.932075472548604,153.55422735889442" stroke="#4DD2FF" stroke-linecap="round" stroke-linejoin="round" stroke-width="0.5"><title>2024-09-07 1.2km</title><desc>12348256557</desc></polyline></svg>