<?xml version="1.0" encoding="utf-8" ?>
<svg baseProfile="full" height="300mm" version="1.1" viewBox="0,0,200,300" width="200mm" xmlns="http://www.w3.org/2000/svg" xmlns:ev="http://www.w3.org/2001/xml-events" xmlns:xlink="http://www.w3.org/1999/xlink"><defs /><rect fill="#222222" height="300" width="200" x="0" y="0" /><text fill="#FFFFFF" style="font-size:12px; font-family:Arial; font-weight:bold;" x="10" y="20">Over 5km Runs</text><text fill="#FFFFFF" style="font-size:4px; font-family:Arial" x="10" y="280">ATHLETE</text><text fill="#FFFFFF" style="font-size:9px; font-family:Arial" x="10" y="290">Mr. Error 追</text><text fill="#FFFFFF" style="font-size:4px; font-family:Arial" x="65" y="280">SPECIAL TRACKS</text><rect fill="yellow" height="2.6" width="2.6" x="65" y="283" /><text fill="#FFFFFF" style="font-size:3px; font-family:Arial" x="70" y="285.5">Over 20.0 km</text><rect fill="red" height="2.6" width="2.6" x="65" y="287" /><text fill="#FFFFFF" style="font-size:3px; font-family:Arial" x="70" y="289.5">Over 40.0 km</text><text fill="#FFFFFF" style="font-size:4px; font-family:Arial" x="120" y="280">STATISTICS</text><text fill="#FFFFFF" style="font-size:3px; font-family:Arial" x="120" y="285">Number: 2</text><text fill="#FFFFFF" style="font-size:3px; font-family:Arial" x="120" y="290">Weekly: 1.0</text><text fill="#FFFFFF" style="font-size:3px; font-family:Arial" x="141" y="285">Total: 10.5 km</text><text fill="#FFFFFF" style="font-size:3px; font-family:Arial" x="141" y="290">Avg: 5.3 km</text><text fill="#FFFFFF" style="font-size:3px; font-family:Arial" x="167" y="285">Min: 5.2 km</text><text fill="#FFFFFF" style="font-size:3px; font-family:Arial" x="167" y="290">Max: 5.3 km</text><polyline fill="none" points="113.72212065849453,95.39514969661832 117.67093235813081,96.54303413606249 118.46069469861686,97.46134125883691 118.65813528373837,98.83880122960545 117.86837294325233,101.36414228728972 117.86837294325233,103.20075215934776 118.06581352930516,104.34863255592063 119.25045703817159,106.1852399550844 120.82998171914369,107.33311880752444 123.00182815361768,108.25142146134749 125.3711151741445,108.48099706484936 134.05850091390312,107.56269450625405 139.784277879633,108.71057264553383 143.3382084099576,108.25142146134749 144.12797074951231,107.33311880752444 144.52285191975534,104.8077845487278 147.48446069471538,97.23176451330073 148.07678245007992,94.01768758660182 149.65630713105202,91.49233816051856 151.43327239528298,87.13036419497803 153.60511882975698,80.4725979110226 153.40767824556679,79.7838623272255 152.42047532089055,79.09512652852573 148.66910420544446,79.32470515137538 145.51005484443158,76.11060226336122 137.217550274916,74.50354907196015 135.2431444246322,75.42186532425694 133.07129798922688,77.25849668658338 131.4917733091861,79.09512652852573 130.70201096870005,82.07964677573182 130.70201096870005,86.44163067871705 129.7148080440238,87.35994198638946 116.88117001857609,85.98247488308698 107.99634369369596,85.98247488308698 104.44241316337138,85.52331899106503 94.17550274264067,85.52331899106503 86.67276051174849,86.67120854137465 85.09323583170772,86.21205279277638 84.69835466146469,85.52331899106503 82.5265082269907,85.29374100989662 81.14442413114011,84.37542884750292 80.35466179251671,83.45711630349979 80.15722120646387,82.53880338021554 80.5521023767069,81.62049007602036 80.15722120646387,80.70217639137991 78.5776965264231,79.55428375117481 76.99817184731364,79.09512652852573 75.02376599609852,80.24301940645091 71.46983546577394,79.7838623272255 70.08775137085468,78.63596921064891 63.96709323581308,76.56976010487415 62.38756855670363,75.65144432755187 61.597806215286255,74.50354907196015 59.03107861056924,72.66691542719491 56.859232175163925,72.89649471547455 51.92321754992008,71.978177418001 50.73857404012233,71.51901862537488 50.343692869879305,71.05985973868519 50.54113345593214,70.60070075723343 49.55393053032458,71.51901862537488 46.98720292467624,77.25849668658338 46.0,80.24301940645091 46.59232175536454,83.45711630349979 47.57952468004078,84.60500692366622 52.51553930528462,84.37542884750292 54.48994515556842,84.83458497584797 55.872029250487685,85.52331899106503 56.4643510049209,86.21205279277638 59.623400365933776,87.13036419497803 62.19012797065079,89.19656345900148 65.34917733073235,90.57402856554836 73.44424131605774,91.72191550023854 85.29067641682923,96.31345729529858 87.26508226711303,96.08388043148443 87.06764168199152,95.39514969661832 90.22669104207307,95.85430354392156 97.13711151760072,100.21626034541987 98.71663619764149,100.90498958202079 100.88848263211548,100.90498958202079 103.65265082288533,99.98668388510123 107.0091407680884,97.46134125883691 111.35283363889903,95.39514969661832 117.47349177394062,96.54303413606249 118.65813528373837,98.60922462749295 117.47349177394062,101.82329489802942 117.67093235813081,105.2669364460744 118.06581352930516,106.41481577325612 119.4478976232931,107.79227018123493 120.82998171914369,108.94014820177108 122.01462522894144,109.16972373402677 125.76599634345621,109.3992992429994 130.50457038357854,108.25142146134749 134.25594149902463,107.79227018123493 137.02010968886316,108.02184583316557 140.96892138943076,109.3992992429994 142.15356490015984,109.3992992429994 143.3382084099576,107.56269450625405 143.3382084099576,104.8077845487278 144.32541133463383,103.65990438940935 146.69469835516065,97.46134125883691 148.66910420544446,96.08388043148443 149.26142595987767,94.70641874847934 149.06398537568748,93.78811048483476 149.65630713105202,93.09937903680839 150.84095063991845,90.34445110685192 151.63071297947317,87.13036419497803 152.2230347348377,86.21205279277638 154.0,80.24301940645091 153.60511882975698,79.32470515137538 152.2230347348377,78.40639051632024 149.45886654499918,79.55428375117481 148.66910420544446,79.55428375117481 145.11517367511988,75.88102330779657 142.35100548435003,74.73312817071564 136.62522851955146,74.04439080320299 134.05850091390312,76.34018119587563 132.28153564874083,78.86554788169451 131.2943327240646,82.99795988970436 131.4917733091861,86.67120854137465 130.70201096870005,87.35994198638946 119.64533820841461,86.44163067871705 105.23217550292611,86.44163067871705 101.08592321816832,86.90078637981787" stroke="#4dd2ff" stroke-linecap="round" stroke-linejoin="round" stroke-width="0.5"><title>2024-09-09 5.2km</title><desc>12366514575</desc></polyline><polyline fill="none" points="111.11475409846753,213.88869118667208 112.49180327821523,214.11743187042885 117.01639344263822,215.71861599641852 118.19672131165862,216.86231823335402 118.78688524570316,218.0060198775027 118.98360655736178,219.37846106872894 118.39344262238592,221.43712125741877 117.80327868834138,221.89460103865713 118.19672131165862,224.63947773678228 119.57377049140632,226.92687237961218 120.75409836042672,227.61309031117707 123.31147541012615,228.52804722031578 126.45901639293879,229.2142646543216 129.60655737668276,228.52804722031578 130.19672131165862,228.0705688134767 136.0983606558293,227.3843510239385 138.45901639387012,228.0705688134767 142.59016393404454,228.2993080287706 143.18032786808908,227.61309031117707 143.18032786808908,227.15561171318404 144.7540983594954,225.55443587782793 145.7377049177885,221.66586115956306 145.9344262285158,218.46350036934018 146.7213114751503,215.9473564918153 148.49180327914655,214.11743187042885 149.2786885239184,211.37254209793173 151.44262295030057,208.39890766120516 152.62295081838965,205.65401078155264 152.8196721309796,204.28156106267124 153.60655737668276,202.2228848861996 153.01639344263822,200.85043303552084 153.60655737668276,198.5630113889929 153.21311475336552,197.41929967794567 153.01639344263822,196.9618148272857 148.88524590153247,197.8767844333779 146.9180327868089,196.2755873745773 146.13114754110575,195.1318744784221 144.95081967208534,193.98816099064425 141.40983606502414,193.30193261406384 139.8360655726865,193.530675429618 135.50819672085345,194.90313182841055 134.52459016349167,195.5893597076647 133.7377049177885,197.8767844333779 133.54098360519856,200.39294889569283 133.14754098281264,201.76540103019215 130.19672131165862,207.02645964780822 129.21311475336552,207.71268376079388 127.6393442619592,207.25520104239695 125.47540983650833,206.11149383173324 123.31147541012615,205.65401078155264 119.96721311472356,204.28156106267124 110.91803278680891,202.68036864651367 104.22950819600374,203.5953358837869 96.5573770487681,203.13785231253132 93.0163934417069,203.36659410968423 84.16393442638218,205.19652763660997 82.19672131165862,204.73904439690523 75.31147540919483,200.6216909775976 71.3770491797477,196.73307236633264 68.42622950766236,196.2755873745773 64.68852458987385,196.73307236633264 63.11475409846753,196.2755873745773 61.344262294471264,194.67438915465027 61.344262294471264,192.3869611127302 62.32786885276437,191.9294752201531 61.934426229447126,191.70073223859072 56.8196721309796,190.55701697361656 51.90163934417069,190.78576007438824 50.524590162560344,189.41330111725256 48.360655738040805,191.4719892332796 47.96721311472356,192.84444691077806 48.360655738040805,193.530675429618 47.96721311472356,194.21690373588353 47.573770492337644,197.19055726425722 47.573770492337644,199.70672250795178 46.0,202.9091104909312 46.0,203.82407763390802 48.5573770487681,204.73904439690523 50.91803278680891,204.28156106267124 53.67213114723563,204.51030274201185 58.98360655736178,207.25520104239695 61.934426229447126,209.7713548215106 65.67213114723563,211.37254209793173 71.77049180306494,211.83002396347 75.90163934323937,215.9473564918153 77.27868852484971,215.9473564918153 79.04918032791466,215.26113493647426 82.19672131165862,215.48987547820434 84.7540983594954,216.40483740903437 91.6393442619592,216.17609696206637 96.75409836042672,217.09105860930867 100.68852458987385,218.92098076664843 106.59016393404454,217.3197989622131 109.34426229447126,215.26113493647426 113.27868852484971,214.11743187042885 116.6229508202523,215.9473564918153 117.60655737668276,216.86231823335402 117.80327868834138,219.37846106872894 117.80327868834138,224.41073814267293 118.78688524570316,227.61309031117707 122.13114754110575,229.67174282483757 122.72131147515029,230.5866988825146 123.50819672085345,230.5866988825146 124.49180327821523,230.35795990307815 125.47540983650833,229.44300375133753 129.60655737668276,227.3843510239385 134.32786885183305,226.6981330222916 136.2950819665566,227.8418295737356 141.0163934417069,228.2993080287706 142.39344262238592,228.0705688134767 143.57377049140632,227.15561171318404 144.36065573710948,226.01191480690613 145.54098360612988,220.522161410423 146.52459016349167,219.37846106872894 147.1147540975362,217.3197989622131 148.68852458987385,214.80365378060378 149.475409835577,211.37254209793173 151.6393442619592,207.48394241300412 153.40983606502414,201.9941429698374 154.0,198.10552677558735 153.60655737668276,197.19055726425722 153.01639344263822,196.9618148272857 149.2786885239184,197.41929967794567 147.70491803251207,196.50432988232933 147.31147541012615,195.36061710538343 146.13114754110575,194.21690373588353 141.21311475336552,193.07318977429532 134.9180327868089,195.36061710538343 132.16393442638218,197.41929967794567 130.78688524477184,201.76540103019215 130.39344262238592,203.36659410968423 130.59016393404454,204.73904439690523 130.19672131165862,206.56897678715177 129.60655737668276,206.79771822947077 128.42622950766236,206.79771822947077 125.67213114723563,205.19652763660997 124.29508196748793,204.73904439690523 118.98360655736178,204.28156106267124 113.67213114723563,203.13785231253132 111.11475409846753,203.36659410968423 109.54098360612988,203.82407763390802 108.75409836042672,204.51030274201185 107.3770491797477,204.73904439690523" stroke="#4dd2ff" stroke-linecap="round" stroke-linejoin="round" stroke-width="0.5"><title>2024-09-08 5.3km</title><desc>12358368474</desc></polyline></svg>