<?xml version="1.0" encoding="utf-8" ?>
<svg baseProfile="full" height="300mm" version="1.1" viewBox="0,0,200,300" width="200mm" xmlns="http://www.w3.org/2000/svg" xmlns:ev="http://www.w3.org/2001/xml-events" xmlns:xlink="http://www.w3.org/1999/xlink"><defs /><rect fill="#222222" height="300" width="200" x="0" y="0" /><text fill="#FFFFFF" style="font-size:12px; font-family:Arial; font-weight:bold;" x="10" y="20">Over 5km Runs</text><text fill="#FFFFFF" style="font-size:4px; font-family:Arial" x="10" y="280">ATHLETE</text><text fill="#FFFFFF" style="font-size:9px; font-family:Arial" x="10" y="290">𝓗𝓶𝓸𝓻𝓪</text><text fill="#FFFFFF" style="font-size:4px; font-family:Arial" x="65" y="280">SPECIAL TRACKS</text><rect fill="yellow" height="2.6" width="2.6" x="65" y="283" /><text fill="#FFFFFF" style="font-size:3px; font-family:Arial" x="70" y="285.5">Over 20.0 km</text><rect fill="red" height="2.6" width="2.6" x="65" y="287" /><text fill="#FFFFFF" style="font-size:3px; font-family:Arial" x="70" y="289.5">Over 40.0 km</text><text fill="#FFFFFF" style="font-size:4px; font-family:Arial" x="120" y="280">STATISTICS</text><text fill="#FFFFFF" style="font-size:3px; font-family:Arial" x="120" y="285">Number: 7</text><text fill="#FFFFFF" style="font-size:3px; font-family:Arial" x="120" y="290">Weekly: 1.2</text><text fill="#FFFFFF" style="font-size:3px; font-family:Arial" x="141" y="285">Total: 37.8 km</text><text fill="#FFFFFF" style="font-size:3px; font-family:Arial" x="141" y="290">Avg: 5.4 km</text><text fill="#FFFFFF" style="font-size:3px; font-family:Arial" x="167" y="285">Min: 5.2 km</text><text fill="#FFFFFF" style="font-size:3px; font-family:Arial" x="167" y="290">Max: 5.5 km</text><polyline fill="none" points="67.0,54.74834587483201 67.0,54.055812582722865 66.40441176481545,53.47870117716957 65.21323529398069,53.82496805628762 64.61764705879614,53.70954577496741 63.72426470555365,53.13243419013452 62.53308823518455,51.978210124070756 60.448529412038624,51.28567511041183 58.860294117592275,52.0936325842049 57.66911764675751,51.978210124070756 56.87499999953434,52.786167095880955 56.27941176481545,53.59412348200567 55.98161764675751,54.40207928256132 55.78308823518455,55.440878737019375 55.98161764675751,56.825943169998936 55.68382352916524,57.51847474137321 51.91176470601931,57.633896627812646 49.827205881942064,57.40305284282658 47.2463235296309,57.749318502726965 40.397058823145926,57.633896627812646 37.22058823518455,57.864740365417674 33.051470587961376,57.633896627812646 31.363970587961376,56.825943169998936 29.180147058330476,56.24883319879882 26.5,55.09461235976778 21.040441176388413,53.36327885999344 17.764705881942064,51.862787651713006 16.077205881942064,51.401097642374225 14.985294117126614,50.362294423161075 14.588235293980688,50.477717050816864 14.588235293980688,50.70856227062177 13.794117646757513,51.74736516724806 13.0,54.055812582722865 13.694852941203862,55.67172292876057 14.091911764349788,56.01798912649974 14.985294117126614,56.01798912649974 16.077205881942064,55.67172292876057 16.97058823518455,55.67172292876057 17.963235293980688,55.78714500681963 18.856617647223175,56.24883319879882 20.047794117592275,57.287630932289176 22.430147058796138,58.44184950029012 24.514705882407725,59.13438006734941 25.805147058330476,59.36522349412553 27.393382352776825,60.17317511118017 29.577205882407725,60.28859672311228 32.2573529407382,61.55823366402183 33.44852941157296,61.90449803334195 36.12867647083476,61.78907658858225 37.31985294120386,62.1353408859577 39.30514705879614,63.17413313337602 41.19117647083476,63.289554434246384 42.580882352776825,62.82786915835459 43.57352941157296,62.71244780998677 44.96323529398069,62.0199194655288 46.55147058842704,61.78907658858225 47.54411764675751,61.67365513218101 48.93382352916524,62.0199194655288 49.330882352776825,62.25076229462866 49.6286764703691,62.94329049543012 49.330882352776825,65.48255688312929 49.52941176481545,66.5213460107334 50.52205882361159,67.67555501696188 52.20955882361159,68.13723828503862 54.393382352776825,67.9063966749236 55.28676470601931,67.56013416999485 56.577205882407725,67.44471331126988 58.264705882407725,67.67555501696188 60.64705882361159,68.59892136172857 61.54044117638841,68.59892136172857 62.136029412038624,68.36807984719053 62.4338235296309,68.13723828503862 62.731617647223175,67.09845066338312 63.22794117638841,65.02087251562625 63.22794117638841,64.3283456057543 64.61764705879614,60.40401832317002 65.8088235296309,58.095584055408835 66.80147058796138,54.863768048468046 66.90073529398069,54.17123482807074 66.60294117638841,53.82496805628762 66.20588235277683,53.70954577496741 64.61764705879614,54.055812582722865 63.327205882873386,52.67074470734224 62.235294117592275,51.862787651713006 61.044117647223175,51.401097642374225 60.25,51.401097642374225 58.95955882361159,51.978210124070756 57.76838235324249,52.0936325842049 57.073529412038624,52.67074470734224 56.18014705879614,54.286657061311416 56.08088235324249,55.440878737019375 56.27941176481545,57.0567870750092 56.08088235324249,57.40305284282658 55.58455882361159,57.51847474137321 47.2463235296309,57.749318502726965 45.16176470601931,57.51847474137321 34.83823529398069,57.980162216350436 31.761029411572963,57.287630932289176 27.1948529407382,55.440878737019375 24.613970588427037,54.632923689554445 21.040441176388413,53.0170118373353 15.77941176481545,51.28567511041183 15.382352941203862,51.054830010281876 15.1838235296309,50.593139666481875 14.78676470555365,50.24687178328168 14.389705882407725,50.93940744223073 13.794117646757513,52.32447746919934 13.297794117126614,54.40207928256132 13.4963235296309,55.21003449743148 14.1911764703691,56.01798912649974 15.1838235296309,56.01798912649974 16.573529411572963,55.67172292876057 18.261029411572963,56.01798912649974 19.948529411572963,56.825943169998936 21.735294117592275,58.211005882243626 25.011029411572963,59.13438006734941 27.294117647223175,59.24980178673286 29.775735293980688,59.82691020425409 32.85294117638841,61.55823366402183 33.64705882361159,61.67365513218101 35.33455882361159,61.55823366402183 36.327205882407725,61.67365513218101 39.40441176434979,63.635818265611306 40.99264705879614,63.75123951898422 41.78676470601931,63.52039700048044 44.36764705879614,61.90449803334195 45.65808823518455,61.55823366402183 49.03308823518455,62.0199194655288 49.72794117638841,62.82786915835459 49.827205881942064,63.289554434246384 49.43014705879614,64.79003026010469 49.6286764703691,65.94424105912913 50.02573529444635,66.63676696503535 50.52205882361159,67.32929244078696 51.3161764703691,67.79097585217096 52.50735294120386,67.9063966749236 56.577205882407725,67.44471331126988 58.66176470601931,67.67555501696188 61.34191176481545,67.09845066338312 62.136029412038624,66.5213460107334 63.22794117638841,64.67460911453236 64.22058823518455,61.78907658858225 64.71691176481545,60.981126142665744 66.30514705879614,56.4796772232512 66.60294117638841,55.440878737019375 66.90073529398069,54.632923689554445 66.90073529398069,54.055812582722865 66.60294117638841,53.70954577496741 66.30514705879614,53.59412348200567 64.61764705879614,54.055812582722865 63.922794117592275,53.47870117716957 62.731617647223175,52.20905503258109 61.9375,51.74736516724806 60.34926470555365,51.401097642374225 59.05882352916524,51.978210124070756 58.0661764703691,52.0936325842049 57.47058823518455,52.43989989371039 56.77573529444635,53.36327885999344 56.27941176481545,54.286657061311416 56.18014705879614,54.74834587483201 56.08088235324249,56.01798912649974 56.27941176481545,57.17220900952816 55.78308823518455,57.633896627812646 53.69852941157296,57.51847474137321 49.6286764703691,57.633896627812646 43.97058823518455,57.51847474137321 41.88602941157296,57.749318502726965 35.83088235324249,57.749318502726965 32.15808823518455,57.40305284282658 30.172794117592275,56.710521199856885 27.1948529407382,55.440878737019375 23.621323529165238,54.17123482807074 21.338235293980688,53.13243419013452 16.176470587961376,51.401097642374225 15.28308823518455,51.054830010281876 14.886029411572963,50.362294423161075 14.1911764703691,50.593139666481875 13.694852941203862,51.74736516724806 13.198529412038624,54.286657061311416 13.794117646757513,56.13341116881929 14.588235293980688,56.24883319879882 15.8786764703691,55.902567072655074 16.077205881942064,55.55630083871074 17.069852941203862,55.55630083871074 17.367647058796138,55.902567072655074 19.2536764703691,56.36425521678757 19.84926470555365,57.0567870750092 21.834558823145926,57.980162216350436 26.102941176388413,59.018958335975185 27.59191176481545,60.05775348760653 28.78308823518455,60.51943991088774 30.371323529165238,60.750283050583676 32.7536764703691,61.90449803334195 33.84558823518455,62.0199194655288 35.03676470555365,61.67365513218101 36.12867647083476,61.90449803334195 39.80147058842704,63.982081989524886 42.084558823145926,63.635818265611306 43.57352941157296,62.94329049543012 45.45955882361159,61.55823366402183 46.55147058842704,61.44281218352262 48.4375,61.78907658858225 49.72794117638841,62.5970264490461 49.72794117638841,63.05871182016563 49.231617647223175,64.79003026010469 49.231617647223175,65.36713580903597 49.52941176481545,66.40592504455708 50.22426470601931,67.32929244078696 51.3161764703691,68.02181748615112 55.08823529444635,68.13723828503862 56.27941176481545,68.59892136172857 58.46323529444635,69.75312821660191 61.738970587961376,68.48350061068777 62.4338235296309,67.9063966749236 62.93014705879614,66.05966207350139 63.823529412038624,63.86666076036636 64.41911764722317,61.67365513218101 65.01470588240772,60.28859672311228 66.30514705879614,56.01798912649974 66.90073529398069,54.74834587483201 66.90073529398069,54.055812582722865 66.60294117638841,53.82496805628762 66.00735294120386,53.70954577496741 65.01470588240772,54.055812582722865 64.71691176481545,54.286657061311416 64.8161764703691,54.51750149182044 64.1213235296309,55.09461235976778 64.02205882361159,55.67172292876057 62.83088235324249,55.67172292876057 62.63235294120386,56.01798912649974 61.54044117638841,56.36425521678757 60.547794117592275,57.17220900952816 59.15808823518455,57.40305284282658 58.0661764703691,56.94136512861587 57.56985294120386,57.0567870750092 56.97426470601931,57.51847474137321 55.68382352916524,57.749318502726965 51.61397058842704,57.51847474137321 48.04044117638841,57.864740365417674 40.09926470601931,57.864740365417674 35.53308823518455,58.095584055408835 33.25,57.749318502726965 17.665441176388413,52.0936325842049 17.367647058796138,52.0936325842049 16.573529411572963,51.74736516724806 16.275735293980688,51.74736516724806 15.481617646757513,51.054830010281876 15.28308823518455,50.593139666481875 14.78676470555365,50.362294423161075 14.1911764703691,50.823984862305224" stroke="#4DD2FF" stroke-linecap="round" stroke-linejoin="round" stroke-width="0.5"><title>2025-02-08 5.5km</title><desc>13569967175</desc></polyline><polyline fill="none" points="179.38336347183213,77.93990828888491 180.16455696197227,78.05345010093879 180.75045207934454,77.82636646495666 181.72694394225255,76.6909475796856 182.7034358046949,72.4898874805076 183.38698010891676,70.21903748204932 183.48462929483503,69.42423887155019 184.26582278497517,67.2669254533248 185.43761301971972,64.65543510997668 186.90235081361607,60.45432889764197 187.0,59.773066913941875 186.80470162723213,58.86471694405191 185.82820976525545,57.38864663790446 184.85171790234745,56.366750646498986 183.48462929483503,55.68548612308223 182.11754068685696,55.458397854701616 180.555153707508,54.3229558065068 178.3092224234715,53.41460132133216 176.55153707042336,53.073968195472844 174.50090415915474,52.2791571568232 173.5244122967124,51.48434554191772 172.25497287511826,51.03016721759923 170.1066907774657,50.68953335098922 166.1030741413124,49.32699682598468 164.93128390610218,48.64572792837862 163.95479204365984,48.5321830707835 163.8571428572759,48.30509332078509 162.49005424929783,47.737368739792146 160.244122965727,47.05609885440208 158.77938517183065,46.942553832544945 157.99819168215618,46.942553832544945 156.6311030741781,46.37482854607515 155.55696202535182,46.48837362683844 154.58047016290948,46.261283453321084 151.84629294788465,45.12583188095596 150.5768535262905,44.89874142524786 149.2097649187781,44.21746977651492 148.23327305633575,43.99037913256325 147.6473779384978,43.536197703913786 146.08499095821753,43.19556150876451 145.98734177229926,43.08201608678792 144.91320072347298,42.51428880158346 141.78842676291242,41.605924533330835 141.20253164554015,41.605924533330835 139.64014466572553,42.85492520814296 139.2495479201898,43.42265231721103 139.3471971070394,44.10392446035985 139.2495479201898,44.671650922624394 138.0777576849796,45.352922289283015 136.90596745023504,46.82900879858062 136.80831826431677,48.64572792837862 136.41772151878104,49.781175855663605 136.22242314647883,50.80307798483409 135.8318264009431,51.82497916172724 135.8318264009431,53.073968195472844 135.53887884272262,53.641690013115294 135.05063291126862,54.09586725581903 133.87884267652407,55.68548612308223 133.29294755868614,58.97826073132455 133.488245931454,59.65952320897486 134.9529837248847,61.02204689383507 137.2965641953051,60.45432889764197 138.8589511755854,60.794959730817936 139.3471971070394,61.249134010169655 139.93309222441167,61.930395076749846 141.78842676291242,63.29291593970265 143.64376130187884,64.08771899470594 145.88969258591533,64.31480547611136 147.06148282112554,64.768978297594 148.13562386948615,65.56378028262407 149.99095840891823,66.47212470287923 150.28390596760437,66.47212470287923 151.0650994577445,67.0398395829834 152.43218806525692,67.72109705174807 152.334538878873,67.49401127616875 152.52983725164086,67.49401127616875 155.4593128389679,67.2669254533248 156.92405063286424,68.06172562751453 158.77938517183065,68.28881128586363 160.244122965727,69.42423887155019 161.22061482816935,69.76486691820901 162.58770343568176,69.53778156568296 163.56419529858977,68.28881128586363 164.93128390610218,67.2669254533248 165.41952983709052,67.15338252391666 166.2983725136146,66.92629663052503 168.54430379765108,67.2669254533248 169.52079566009343,68.17526846239343 169.9113924051635,68.85652522556484 169.61844484647736,69.87840957683511 169.13019891502336,70.33258009387646 169.13019891502336,71.01383551675826 169.7160940328613,72.0357178573031 170.30198915023357,72.7169722217368 172.0596745023504,73.62531071621925 173.4267631098628,73.62531071621925 175.7703435807489,72.9440569159342 177.8209764920175,73.2846838691039 179.38336347183213,73.96593745751306 179.57866184413433,73.85239522217307 180.555153707508,73.85239522217307 181.23869801079854,73.2846838691039 181.53164556948468,72.8305145748891 181.53164556948468,72.4898874805076 182.99638336338103,70.6732078579953 183.58227848121896,69.42423887155019 184.16817359859124,67.2669254533248 184.94936708873138,65.33669406024273 184.94936708873138,64.88252147368621 185.92585895117372,63.179372599348426 186.70705244131386,60.567872520303354 186.70705244131386,60.00015428918414 186.02350813755766,58.29699783050455 185.53526220610365,57.50219057803042 184.94936708873138,56.820926760323346 183.19168173568323,55.912574344547465 182.01989150093868,55.68548612308223 177.62567811924964,53.75523434160277 176.06329113943502,53.528145673219115 175.7703435807489,53.073968195472844 171.18083182629198,50.91662260715384 169.42314647417516,50.80307798483409 167.4701627488248,49.55408636422362 164.63833634741604,48.418638201779686 161.12296564225107,47.737368739792146 157.99819168215618,46.37482854607515 157.41229656431824,46.261283453321084 156.24050632910803,46.601918695960194 153.7016274863854,46.03419323277194 152.82278480986133,45.693557814112864 149.30741410469636,43.649743078509346 146.18264014460146,43.19556150876451 145.30379746854305,42.741379751241766 141.397830018308,41.605924533330835 139.64014466572553,42.40074330905918 139.15189873427153,42.85492520814296 139.2495479201898,43.19556150876451 138.76130198920146,44.21746977651492 138.66365280281752,45.693557814112864 137.68716094037518,46.37482854607515 137.2965641953051,47.05609885440208 136.90596745023504,48.418638201779686 136.61301989201456,48.64572792837862 136.3200723323971,49.213452039053664 136.12477396056056,50.1218100048136 135.53887884272262,50.46244404732715 134.9529837248847,51.370800978387706 134.9529837248847,51.82497916172724 135.44122965680435,53.073968195472844 134.75768535304815,54.55004431027919 134.56238698028028,55.458397854701616 134.07414104882628,55.912574344547465 133.87884267652407,58.29699783050455 133.39059674507007,58.86471694405191 133.58589511737227,60.113697958760895 134.07414104882628,61.249134010169655 135.2459312840365,61.930395076749846 135.8318264009431,62.61165571969468 137.19891500892118,63.29291593970265 140.81193490047008,65.79086645809002 141.49547920422629,66.13149563362822 143.44846292957664,66.35858169128187 147.06148282112554,67.2669254533248 148.62386980094016,67.72109705174807 150.28390596760437,68.62943968502805 150.96745027136058,68.51589689683169 151.84629294788465,68.97006797848735 153.01808318309486,68.97006797848735 153.31103074131534,69.31069616577588 153.79927667276934,69.31069616577588 154.38517179060727,69.65132424759213 155.7522603981197,69.65132424759213 156.92405063286424,70.10549485881347 158.2911392408423,70.33258009387646 159.65822784835473,71.35446306923404 161.22061482816935,71.35446306923404 161.80650994554162,71.80863297486212 162.19710669107735,72.4898874805076 163.27124773990363,72.7169722217368 163.95479204365984,73.1711415629834 168.25135623896495,74.4201062816428 169.03254972863942,74.4201062816428 169.9113924051635,75.21490127081051 169.9113924051635,75.55552751827054 170.98553345398977,75.78261162468698 171.66907775774598,76.23677969619166 172.25497287511826,76.00969568395521 174.40325497323647,76.57740562630352 175.28209764929488,77.25865716929547 176.6491862568073,77.59928278194275 178.21157323662192,78.39407546666916 179.67631103098392,78.05345010093879 180.35985533474013,77.37219905201346 180.4575045206584,76.91803145047743 181.04339963849634,76.12323769577779 181.04339963849634,75.78261162468698 181.72694394225255,75.21490127081051 181.72694394225255,74.4201062816428 182.99638336338103,72.7169722217368 183.58227848121896,70.55966528179124 184.65641953004524,67.38046837050933 185.14466546103358,65.56378028262407 185.82820976525545,64.20126224134583 186.41410488262773,61.703308101627044 186.90235081361607,60.794959730817936 187.0,59.773066913941875 186.41410488262773,58.52408551145345 185.82820976525545,58.29699783050455 185.24231464741752,57.38864663790446 185.0470162751153,56.70738274930045 181.72694394225255,55.11776536365505 181.23869801079854,54.77713276690338 180.94575045164675,54.3229558065068 179.7739602169022,53.75523434160277 174.2079566004686,52.61979052959941 173.5244122967124,52.2791571568232 172.64556962018833,51.597890093922615 170.88788426760584,51.25725640321616 167.27486437605694,49.781175855663605 165.90777576854452,48.986362430034205 162.8806509943679,47.737368739792146 161.90415913239121,47.62382378836628 161.22061482816935,47.169643864850514 159.16998191690072,46.71546375320759 155.84990958403796,46.261283453321084 152.23688969248906,45.352922289283015 150.18625678122044,45.23937709094025 148.7215189873241,44.44456037285272 146.76853526197374,43.99037913256325 146.2802893309854,43.649743078509346 146.18264014460146,43.30910691909958 141.69077757699415,41.7194701078115 140.909584086854,41.833015670999885 140.4213381554,42.17365228908602 138.8589511755854,42.85492520814296 138.3707052441314,43.536197703913786 137.49186256807297,43.99037913256325 137.49186256807297,44.55810565361753 138.0777576849796,44.89874142524786 138.0777576849796,45.80710296565667 137.88245931267738,46.48837362683844 137.49186256807297,46.71546375320759 137.2965641953051,47.169643864850514 137.39421338168904,47.85091367957648 137.39421338168904,48.64572792837862 136.80831826431677,49.781175855663605 136.12477396056056,50.68953335098922 135.6365280286409,52.05206818273291 135.7341772154905,52.96042379643768 134.85533453896642,54.77713276690338 134.26943942112848,56.02611843775958 133.39059674507007,56.820926760323346 133.0,57.615734506747685 133.0,58.41054167691618 133.29294755868614,59.54597949190065 133.97649186244234,60.794959730817936 134.85533453896642,61.13559045805596 137.1012658230029,61.02204689383507 139.5424954793416,61.703308101627044 142.08137432206422,63.179372599348426 144.2296564192511,63.633545891265385 145.1084990957752,64.20126224134583 145.59674502676353,64.08771899470594 145.88969258591533,64.42834869923536 146.4755877032876,64.42834869923536 147.25678119342774,64.99606463790406 148.13562386948615,64.99606463790406 149.30741410469636,65.56378028262407 151.16274864366278,67.2669254533248 152.62748643755913,67.94818278052844 155.6546112112701,67.2669254533248 156.6311030741781,67.38046837050933 157.5099457502365,67.94818278052844 158.2911392408423,68.28881128586363 159.267631102819,69.08361071941908 160.0488245934248,69.31069616577588 162.00180831784382,69.08361071941908 164.44303797511384,68.06172562751453 165.02893309202045,68.06172562751453 165.22423146478832,67.60755417007022 166.00542495492846,67.15338252391666 166.59132007230073,67.15338252391666 167.4701627488248,67.2669254533248 169.42314647417516,68.17526846239343 169.7160940328613,68.51589689683169 169.32549728732556,71.01383551675826 170.1066907774657,72.26280269224662 170.98553345398977,72.9440569159342 171.76672694366425,73.05759924522135 171.86437613004819,73.39822616323363 173.03616636572406,73.73885297495872 175.7703435807489,73.2846838691039 177.8209764920175,73.1711415629834 178.89511754084378,73.1711415629834 179.7739602169022,73.73885297495872 179.96925858967006,74.19302189315204 179.48101265868172,75.32844336493872 178.40687160938978,76.46386366139632 178.21157323662192,76.80448952096049 177.91862567840144,76.57740562630352" stroke="#4DD2FF" stroke-linecap="round" stroke-linejoin="round" stroke-width="0.5"><title>2024-11-16 5.2km</title><desc>12913950085</desc></polyline><polyline fill="none" points="31.0,121.47877958370373 30.608695652335882,122.04752328654286 30.90217391261831,122.04752328654286 30.80434782616794,122.16127199190669 31.782608695328236,122.04752328654286 32.467391304671764,122.50251803710125 32.56521739112213,122.957512598834 33.83695652196184,122.957512598834 36.08695652196184,122.50251803710125 36.9673913042061,122.957512598834 37.84782608645037,123.9812496737577 39.80434782616794,124.32249515340663 43.130434782709926,124.09499817865435 44.10869565187022,123.18500980897807 44.59782608645037,122.16127199190669 44.89130434766412,122.04752328654286 45.184782608412206,121.93377456930466 45.478260869625956,122.16127199190669 45.380434782709926,122.61626669485122 45.478260869625956,122.61626669485122 46.94565217383206,122.38876936677843 48.80434782570228,123.07126120966859 49.29347826074809,123.52625553600956 49.58695652196184,124.32249515340663 49.58695652196184,126.14246925432235 50.271739130374044,127.96244033996481 49.978260869625956,128.18993651366327 50.4673913042061,128.6449287198484 52.521739130374044,129.44116462673992 53.30434782616794,129.44116462673992 54.869565217290074,128.75867674173787 57.021739130374044,128.6449287198484 57.70652173925191,128.6449287198484 59.66304347803816,129.44116462673992 60.64130434766412,129.32741667551454 61.521739130374044,129.0999207375571 61.81521739112213,128.0761884325184 62.79347826074809,126.3699658048572 64.35869565233588,122.38876936677843 64.75,120.68253790505696 66.2173913042061,117.61131459474564 67.0,115.22257941646967 66.60869565187022,114.65383217984345 66.2173913042061,114.54008269729093 64.06521739112213,114.99508055741899 63.478260869625956,114.88133111014031 63.08695652149618,114.54008269729093 62.89130434766412,113.40258722309954 62.40217391261831,112.83383904374205 60.05434782616794,112.15134084026795 59.271739130374044,112.26509057043586 57.41304347803816,113.06133835075889 57.41304347803816,113.40258722309954 55.84782608691603,115.79132635879796 55.74999999953434,117.49756541813258 55.84782608691603,118.06631118257064 55.065217391587794,118.63505665224511 42.64130434766412,118.06631118257064 41.76086956495419,118.18006030004472 34.130434782709926,118.29380940552801 31.0,117.15631781844422 30.119565217290074,116.47382230078802 29.04347826074809,114.99508055741899 27.576086956076324,114.42633320274763 26.5,114.42633320274763 26.010869565419853,114.19883417885285 25.326086956076324,113.85758555401117 24.25,112.83383904374205 23.076086956541985,113.06133835075889 22.19565217383206,112.72008937282953 22.09782608691603,113.06133835075889 21.217391304206103,112.94758870301303 19.65217391308397,112.26509057043586 19.358695652335882,111.6963418024825 19.358695652335882,111.35509240021929 18.771739130374044,111.01384289213456 17.98913043504581,110.9000930323964 17.5,111.12759274011478 16.228260869625956,111.01384289213456 15.25,110.6725932782283 14.565217391122133,110.10384368523955 14.467391304671764,110.2175936276326 13.782608695793897,112.49258999514859 13.391304347664118,114.19883417885285 13.391304347664118,115.67757699417416 13.782608695793897,116.928819359513 14.369565217290074,117.15631781844422 15.05434782570228,117.27006703033112 15.934782608412206,116.928819359513 17.01086956495419,117.04256859468296 18.771739130374044,117.7250637592515 20.23913043504581,118.86255475773942 22.880434782244265,120.11379349557683 26.89130434812978,120.34129129466601 30.119565217290074,122.27502068527974 32.271739130374044,122.957512598834 33.64130434766412,123.29875839664601 35.10869565187022,122.73001534107607 35.89130434766412,122.8437639757758 36.576086956541985,123.07126120966859 36.673913043458015,123.41250697185751 38.23913043458015,124.32249515340663 39.51086956495419,124.20874667179305 41.076086956541985,124.54999208077788 43.228260869160295,123.9812496737577 45.08695652149618,122.73001534107607 46.06521739112213,122.61626669485122 48.2173913042061,122.73001534107607 49.19565217383206,123.41250697185751 49.58695652196184,123.9812496737577 49.48913043504581,124.89123738370836 49.19565217383206,125.3462309561437 49.48913043504581,126.82495876494795 49.29347826074809,127.39369969966356 49.48913043504581,127.96244033996481 50.76086956495419,128.75867674173787 52.423913043458015,129.32741667551454 55.65217391261831,128.18993651366327 57.41304347803816,128.41743264032993 58.978260869160295,129.2136687124148 60.44565217383206,129.2136687124148 62.40217391261831,128.41743264032993 62.5,127.7349441194674 63.18478260887787,126.25621753570158 64.26086956541985,122.50251803710125 65.72826086962596,119.65879775572103 66.60869565187022,116.8150701127015 66.90217391261831,115.67757699417416 66.70652173925191,114.99508055741899 66.2173913042061,114.65383217984345 64.06521739112213,114.76758165098727 62.10869565187022,113.06133835075889 61.032608695328236,112.72008937282953 60.25,112.72008937282953 57.51086956495419,112.94758870301303 56.630434782244265,113.51633682334796 55.74999999953434,114.88133111014031 55.55434782616794,115.79132635879796 55.55434782616794,117.7250637592515 55.16304347803816,118.29380940552801 54.869565217290074,118.52130758180283 44.01086956495419,118.29380940552801 38.826086956541985,118.52130758180283 34.619565217290074,118.29380940552801 32.66304347803816,117.95256205345504 31.684782608412206,116.8150701127015 30.021739130374044,116.24632370041218 29.728260869625956,116.13257438270375 29.434782608877867,115.56382761721034 28.260869565419853,114.99508055741899 26.989130434580147,114.99508055741899 25.815217391122133,114.42633320274763 22.391304347664118,113.63008641195484 19.94565217383206,112.26509057043586 16.815217391587794,111.35509240021929 15.836956521961838,110.6725932782283 14.956521739251912,110.6725932782283 14.565217391122133,110.9000930323964 14.271739130374044,112.94758870301303 13.586956521961838,114.99508055741899 13.978260869625956,116.13257438270375 14.565217391122133,116.8150701127015 16.619565217290074,117.04256859468296 19.065217391587794,118.18006030004472 20.532608695793897,118.40755849971902 21.90217391308397,119.31755082739983 23.858695652335882,119.77254670823459 24.739130434580147,119.77254670823459 26.10869565187022,120.22754240094218 27.478260869625956,120.34129129466601 28.163043478038162,120.45504017651547 28.65217391261831,120.91003558645025 31.684782608412206,122.50251803710125 32.95652173925191,122.61626669485122 33.54347826074809,122.50251803710125 34.91304347803816,122.61626669485122 37.26086956495419,123.29875839664601 38.434782608412206,124.20874667179305 39.90217391308397,124.89123738370836 43.228260869160295,123.86750115675386 45.576086956541985,122.73001534107607 47.826086956541985,122.8437639757758 49.48913043504581,123.29875839664601 49.782608695328236,123.52625553600956 49.880434782244265,123.75375262845773 49.39130434766412,125.68747601169161 49.58695652196184,127.62119599129073 49.978260869625956,128.3036845830502 50.56521739112213,128.87242475210223 51.934782608412206,129.55491256644018 52.91304347803816,129.55491256644018 55.65217391261831,128.41743264032993 57.41304347803816,128.18993651366327 57.99999999953434,128.3036845830502 58.39130434766412,128.98617275094148 58.978260869160295,129.2136687124148 60.05434782616794,129.2136687124148 60.83695652149618,129.44116462673992 61.423913043458015,129.2136687124148 62.89130434766412,126.71121054282412 63.380434782709926,125.45997931994498 64.06521739112213,123.29875839664601 64.84782608691603,121.59252834774088 65.33695652149618,119.54504879144952 66.02173913037404,118.52130758180283 67.0,114.76758165098727 66.70652173925191,114.31258369667921 66.2173913042061,114.19883417885285 64.75,114.65383217984345 64.35869565233588,114.54008269729093 63.771739130374044,114.31258369667921 63.08695652149618,113.51633682334796 61.7173913042061,112.49258999514859 59.56521739112213,112.49258999514859 58.880434782244265,112.60633969004266 56.43478260887787,113.85758555401117 56.33695652149618,114.42633320274763 55.45652173878625,115.79132635879796 55.45652173878625,117.49756541813258 55.26086956495419,118.06631118257064 54.380434782244265,118.63505665224511 49.48913043504581,118.63505665224511 46.35869565233588,118.18006030004472 45.673913043458015,118.29380940552801 44.20652173925191,118.06631118257064 35.59782608691603,118.63505665224511 32.369565217290074,117.95256205345504 31.489130434580147,117.61131459474564 31.29347826074809,117.38381623011082 31.0,116.58757158310618 30.70652173925191,116.24632370041218 29.239130434580147,114.88133111014031 27.673913043458015,114.76758165098727 26.89130434812978,114.31258369667921 25.521739130839705,114.19883417885285 24.34782608691603,113.63008641195484 23.565217391587794,113.74383598892018 22.391304347664118,113.63008641195484 21.51086956495419,113.17508798639756 20.630434782244265,111.92384134500753 19.163043478038162,111.58259201340843 16.815217391587794,111.35509240021929 16.032608695328236,111.01384289213456 15.445652173832059,110.33134355803486 14.271739130374044,111.01384289213456 14.076086956541985,111.6963418024825 14.173913042992353,112.49258999514859 14.271739130374044,112.72008937282953 13.0,115.33632882870734 13.978260869625956,116.8150701127015 15.934782608412206,116.70132085354999 17.108695652335882,117.15631781844422 18.478260869625956,117.7250637592515 21.80434782616794,120.0000445782207 22.391304347664118,120.0000445782207 23.760869565419853,120.68253790505696 26.10869565187022,120.5687890467234 27.869565217290074,121.47877958370373 28.75,121.47877958370373 29.336956521496177,122.27502068527974 31.489130434580147,123.18500980897807 32.95652173925191,123.18500980897807 34.52173912990838,122.8437639757758 35.40217391261831,122.8437639757758 36.77173912990838,123.29875839664601 38.5326086957939,124.43624362302944 39.60869565187022,124.89123738370836 40.39130434766412,124.89123738370836 43.130434782709926,124.20874667179305 43.7173913042061,123.9812496737577 44.30434782570228,123.29875839664601 45.380434782709926,122.8437639757758 46.55434782570228,122.73001534107607 48.021739130374044,122.957512598834 49.09782608691603,123.75375262845773 49.39130434766412,124.09499817865435 49.48913043504581,124.43624362302944 49.19565217383206,125.80122434021905 49.684782608412206,127.96244033996481 50.369565217290074,129.0999207375571 51.25,129.78240841068327 51.54347826028243,129.89615631476045 52.815217391587794,129.6686604943825 53.40217391308397,129.44116462673992 53.69565217383206,129.0999207375571 55.35869565187022,128.53118068620097 56.826086956076324,128.53118068620097 59.271739130374044,128.87242475210223 60.64130434766412,128.75867674173787 61.619565217290074,128.3036845830502 63.08695652149618,126.25621753570158 63.673913043458015,124.20874667179305 64.75,122.16127199190669 64.9456521733664,120.22754240094218 65.53260869532824,119.65879775572103 66.90217391261831,115.1088299928233 66.41304347803816,114.54008269729093 65.92391304345801,114.42633320274763 64.06521739112213,114.88133111014031 62.89130434766412,114.19883417885285 62.30434782616794,113.51633682334796 61.423913043458015,112.94758870301303 60.83695652149618,112.72008937282953 59.66304347803816,112.72008937282953 57.70652173925191,113.28883761062752 56.14130434766412,114.54008269729093 55.65217391261831,116.13257438270375 55.65217391261831,118.18006030004472 55.16304347803816,118.63505665224511 54.771739130374044,118.74880571104586 53.40217391308397,118.52130758180283 48.60869565233588,118.63505665224511 44.89130434766412,118.18006030004472 39.90217391308397,118.40755849971902 35.40217391261831,118.18006030004472 33.15217391308397,118.63505665224511 32.173913043458015,118.29380940552801 31.489130434580147,117.61131459474564 30.90217391261831,117.27006703033112 29.728260869625956,117.15631781844422 29.239130434580147,116.928819359513 28.065217391587794,115.67757699417416 26.89130434812978,115.56382761721034 26.10869565187022,114.99508055741899 23.076086956541985,113.85758555401117 22.489130434580147,113.17508798639756 20.23913043504581,111.24134257610422 19.358695652335882,110.10384368523955 18.673913043458015,110.33134355803486 17.69565217383206,110.2175936276326 16.913043478038162,110.78634316113312 16.032608695328236,110.55884338298347 15.543478260282427,110.10384368523955 15.836956521961838,110.33134355803486 15.25,110.6725932782283 14.369565217290074,113.28883761062752 13.684782608412206,114.08508464891929 13.489130435045809,115.22257941646967 14.076086956541985,116.24632370041218 14.956521739251912,116.8150701127015 15.836956521961838,118.06631118257064 17.01086956495419,118.40755849971902 18.086956521961838,118.97630379255861 18.478260869625956,120.11379349557683 19.065217391587794,121.0237844097428 19.65217391308397,121.59252834774088 22.489130434580147,121.70627710025292 23.565217391587794,122.16127199190669 25.619565217290074,122.61626669485122 28.358695652335882,123.75375262845773 33.15217391308397,124.66374052700121 33.54347826074809,124.77748896135017 34.032608695328236,125.45997931994498" stroke="#4DD2FF" stroke-linecap="round" stroke-linejoin="round" stroke-width="0.5"><title>2024-10-27 5.5km</title><desc>13388431337</desc></polyline><polyline fill="none" points="157.16304347803816,123.29875839664601 157.84782608645037,123.9812496737577 158.4347826084122,124.20874667179305 158.92391304345801,124.09499817865435 160.19565217383206,124.32249515340663 162.9347826084122,124.09499817865435 164.10869565187022,123.18500980897807 164.59782608645037,122.16127199190669 165.1847826084122,121.93377456930466 165.47826086962596,122.16127199190669 165.38043478270993,122.61626669485122 165.47826086962596,122.61626669485122 166.94565217383206,122.38876936677843 168.80434782570228,123.07126120966859 169.2934782607481,123.52625553600956 169.58695652196184,124.32249515340663 169.58695652196184,126.14246925432235 170.27173913037404,127.96244033996481 169.97826086962596,128.18993651366327 170.4673913042061,128.6449287198484 172.52173913037404,129.44116462673992 173.30434782616794,129.44116462673992 174.86956521729007,128.75867674173787 177.02173913037404,128.6449287198484 177.7065217392519,128.6449287198484 179.66304347803816,129.44116462673992 180.93478260887787,129.32741667551454 181.52173913037404,129.0999207375571 181.81521739112213,128.0761884325184 182.7934782607481,126.3699658048572 184.35869565233588,122.38876936677843 184.75,120.68253790505696 186.2173913042061,117.61131459474564 187.0,115.22257941646967 186.60869565187022,114.65383217984345 186.2173913042061,114.54008269729093 184.06521739112213,114.99508055741899 183.47826086962596,114.88133111014031 183.08695652149618,114.54008269729093 182.7934782607481,113.40258722309954 182.4021739126183,112.83383904374205 180.05434782616794,112.15134084026795 179.27173913037404,112.26509057043586 177.41304347803816,113.06133835075889 177.41304347803816,113.40258722309954 175.84782608691603,115.79132635879796 175.74999999953434,117.49756541813258 175.84782608691603,118.06631118257064 175.0652173915878,118.63505665224511 162.64130434766412,118.06631118257064 161.7608695649542,118.18006030004472 154.13043478270993,118.29380940552801 151.0,117.15631781844422 150.11956521729007,116.47382230078802 149.0434782607481,114.99508055741899 147.57608695607632,114.42633320274763 146.5,114.42633320274763 146.01086956541985,114.19883417885285 145.32608695607632,113.85758555401117 144.25,112.83383904374205 143.07608695654199,113.06133835075889 142.19565217383206,112.72008937282953 142.09782608691603,113.06133835075889 141.2173913042061,112.94758870301303 139.65217391308397,112.26509057043586 139.35869565233588,111.6963418024825 139.35869565233588,111.35509240021929 138.77173913037404,111.01384289213456 137.9891304350458,110.9000930323964 137.5,111.12759274011478 136.22826086962596,111.01384289213456 134.46739130467176,110.2175936276326 133.7826086957939,112.49258999514859 133.39130434766412,114.19883417885285 133.39130434766412,115.67757699417416 133.7826086957939,116.928819359513 134.36956521729007,117.15631781844422 135.05434782570228,117.27006703033112 135.9347826084122,116.928819359513 137.10869565233588,117.04256859468296 138.77173913037404,117.83881291223224 140.2391304350458,118.86255475773942 142.88043478224427,120.11379349557683 146.89130434812978,120.34129129466601 150.11956521729007,122.27502068527974 152.27173913037404,122.957512598834 153.64130434766412,123.29875839664601 155.10869565187022,122.73001534107607 155.89130434766412,122.8437639757758 156.57608695654199,123.07126120966859 156.67391304345801,123.41250697185751 158.23913043458015,124.32249515340663 159.5108695649542,124.20874667179305 161.07608695654199,124.54999208077788 163.2282608691603,123.9812496737577 165.08695652149618,122.73001534107607 166.06521739112213,122.61626669485122 168.2173913042061,122.73001534107607 169.19565217383206,123.41250697185751 169.58695652196184,123.9812496737577 169.4891304350458,124.89123738370836 169.19565217383206,125.3462309561437 169.4891304350458,126.82495876494795 169.2934782607481,127.39369969966356 169.4891304350458,127.96244033996481 170.7608695649542,128.75867674173787 172.42391304345801,129.32741667551454 175.6521739126183,128.18993651366327 177.41304347803816,128.41743264032993 178.9782608691603,129.2136687124148 180.44565217383206,129.2136687124148 182.4021739126183,128.41743264032993 182.5,127.7349441194674 183.18478260887787,126.25621753570158 184.26086956541985,122.50251803710125 185.72826086962596,119.65879775572103 186.60869565187022,116.8150701127015 186.9021739126183,115.67757699417416 186.7065217392519,114.99508055741899 186.2173913042061,114.65383217984345 184.06521739112213,114.76758165098727 182.10869565187022,113.06133835075889 181.03260869532824,112.72008937282953 180.25,112.72008937282953 177.5108695649542,112.94758870301303 176.63043478224427,113.51633682334796 175.74999999953434,114.88133111014031 175.55434782616794,115.79132635879796 175.55434782616794,117.7250637592515 175.16304347803816,118.29380940552801 174.86956521729007,118.52130758180283 164.0108695649542,118.29380940552801 158.82608695654199,118.52130758180283 154.61956521729007,118.29380940552801 152.66304347803816,117.95256205345504 151.6847826084122,116.8150701127015 150.02173913037404,116.24632370041218 149.72826086962596,116.13257438270375 149.43478260887787,115.56382761721034 148.26086956541985,114.99508055741899 147.18478260887787,114.99508055741899 145.81521739112213,114.42633320274763 142.39130434766412,113.63008641195484 139.94565217383206,112.26509057043586 137.59782608691603,111.6963418024825 136.61956521729007,111.35509240021929 135.83695652196184,110.6725932782283 134.9565217392519,110.6725932782283 134.56521739112213,110.9000930323964 134.27173913037404,112.94758870301303 133.58695652196184,114.99508055741899 133.97826086962596,116.13257438270375 134.56521739112213,116.8150701127015 136.61956521729007,117.04256859468296 139.0652173915878,118.18006030004472 140.5326086957939,118.40755849971902 141.90217391308397,119.31755082739983 143.85869565233588,119.77254670823459 144.73913043458015,119.77254670823459 146.10869565187022,120.22754240094218 148.16304347803816,120.45504017651547 148.6521739126183,120.91003558645025 151.6847826084122,122.50251803710125 152.9565217392519,122.61626669485122 153.5434782607481,122.50251803710125 154.91304347803816,122.61626669485122 157.2608695649542,123.29875839664601 158.4347826084122,124.20874667179305 159.90217391308397,124.89123738370836 163.2282608691603,123.86750115675386 165.57608695654199,122.73001534107607 167.82608695654199,122.8437639757758 169.4891304350458,123.29875839664601 169.78260869532824,123.52625553600956 169.88043478224427,123.75375262845773 169.39130434766412,125.68747601169161 169.58695652196184,127.62119599129073 169.97826086962596,128.3036845830502 170.56521739112213,128.87242475210223 171.54347826028243,129.44116462673992 172.22826086962596,129.55491256644018 173.5,129.32741667551454 175.6521739126183,128.41743264032993 177.41304347803816,128.18993651366327 177.99999999953434,128.3036845830502 178.39130434766412,128.98617275094148 178.9782608691603,129.2136687124148 180.05434782616794,129.2136687124148 180.83695652149618,129.44116462673992 181.42391304345801,129.2136687124148 182.89130434766412,126.71121054282412 183.38043478270993,125.45997931994498 184.06521739112213,123.29875839664601 184.84782608691603,121.59252834774088 185.33695652149618,119.54504879144952 186.02173913037404,118.52130758180283 187.0,114.76758165098727 186.7065217392519,114.31258369667921 186.2173913042061,114.19883417885285 184.75,114.65383217984345 184.35869565233588,114.54008269729093 183.77173913037404,114.31258369667921 183.08695652149618,113.51633682334796 181.7173913042061,112.49258999514859 179.56521739112213,112.49258999514859 178.88043478224427,112.60633969004266 176.43478260887787,113.85758555401117 176.33695652149618,114.42633320274763 175.45652173878625,115.79132635879796 175.45652173878625,117.49756541813258 175.2608695649542,118.06631118257064 174.38043478224427,118.63505665224511 169.88043478224427,118.63505665224511 166.35869565233588,118.18006030004472 165.67391304345801,118.29380940552801 164.2065217392519,118.06631118257064 155.59782608691603,118.63505665224511 152.36956521729007,117.95256205345504 151.48913043458015,117.61131459474564 151.2934782607481,117.38381623011082 151.0,116.58757158310618 149.23913043458015,114.88133111014031 147.67391304345801,114.76758165098727 146.89130434812978,114.31258369667921 145.5217391308397,114.19883417885285 144.34782608691603,113.63008641195484 143.5652173915878,113.74383598892018 142.39130434766412,113.63008641195484 141.5108695649542,113.17508798639756 140.63043478224427,111.92384134500753 139.94565217383206,111.6963418024825 136.8152173915878,111.35509240021929 136.03260869532824,111.01384289213456 135.44565217383206,110.33134355803486 134.27173913037404,111.01384289213456 134.07608695654199,111.6963418024825 134.17391304299235,112.49258999514859 134.27173913037404,112.72008937282953 133.0,115.33632882870734 133.97826086962596,116.8150701127015 135.9347826084122,116.70132085354999 137.10869565233588,117.15631781844422 138.47826086962596,117.7250637592515 141.80434782616794,120.0000445782207 142.39130434766412,120.0000445782207 143.76086956541985,120.68253790505696 146.10869565187022,120.5687890467234 147.86956521729007,121.47877958370373 148.75,121.47877958370373 149.33695652149618,122.27502068527974 151.48913043458015,123.18500980897807 152.9565217392519,123.18500980897807 154.52173912990838,122.8437639757758 155.4021739126183,122.8437639757758 156.77173912990838,123.29875839664601 158.5326086957939,124.43624362302944 159.60869565187022,124.89123738370836 160.39130434766412,124.89123738370836 163.13043478270993,124.20874667179305 163.7173913042061,123.9812496737577 164.30434782570228,123.29875839664601 165.38043478270993,122.8437639757758 166.55434782570228,122.73001534107607 168.02173913037404,122.957512598834 169.39130434766412,124.09499817865435 169.4891304350458,124.43624362302944 169.19565217383206,125.80122434021905 169.6847826084122,127.96244033996481 170.36956521729007,129.0999207375571 171.25,129.78240841068327 171.54347826028243,129.89615631476045 172.8152173915878,129.6686604943825 173.40217391308397,129.44116462673992 173.69565217383206,129.0999207375571 175.35869565187022,128.53118068620097 176.82608695607632,128.53118068620097 179.27173913037404,128.87242475210223 180.64130434766412,128.75867674173787 181.61956521729007,128.3036845830502 183.08695652149618,126.25621753570158 183.67391304345801,124.20874667179305 184.75,122.16127199190669 184.9456521733664,120.22754240094218 185.53260869532824,119.65879775572103 185.92391304345801,118.06631118257064 186.7065217392519,116.13257438270375 186.9021739126183,115.1088299928233 186.80434782570228,114.88133111014031 186.41304347803816,114.54008269729093 185.72826086962596,114.42633320274763 184.26086956541985,114.99508055741899 182.89130434766412,114.19883417885285 182.30434782616794,113.51633682334796 181.42391304345801,112.94758870301303 180.83695652149618,112.72008937282953 179.66304347803816,112.72008937282953 177.7065217392519,113.28883761062752 176.14130434766412,114.54008269729093 175.6521739126183,116.13257438270375 175.6521739126183,118.18006030004472 175.16304347803816,118.63505665224511 174.77173913037404,118.74880571104586 173.40217391308397,118.52130758180283 168.60869565233588,118.63505665224511 164.89130434766412,118.18006030004472 159.90217391308397,118.40755849971902 155.4021739126183,118.18006030004472 153.15217391308397,118.63505665224511 152.17391304345801,118.29380940552801 151.48913043458015,117.61131459474564 150.9021739126183,117.27006703033112 149.72826086962596,117.15631781844422 149.23913043458015,116.928819359513 148.0652173915878,115.67757699417416 146.89130434812978,115.56382761721034 146.10869565187022,114.99508055741899 143.07608695654199,113.85758555401117 142.48913043458015,113.17508798639756 140.2391304350458,111.24134257610422 139.35869565233588,110.10384368523955 138.67391304345801,110.33134355803486 137.69565217383206,110.2175936276326 136.91304347803816,110.78634316113312 136.03260869532824,110.44509347632993 135.54347826028243,110.10384368523955 135.83695652196184,110.33134355803486 135.25,110.6725932782283 135.05434782570228,111.35509240021929" stroke="#4DD2FF" stroke-linecap="round" stroke-linejoin="round" stroke-width="0.5"><title>2024-10-27 5.5km</title><desc>12753632530</desc></polyline><polyline fill="none" points="61.08759124111384,189.5100732240826 62.3686131387949,189.28091680270154 62.664233576506376,188.93718208209611 63.945255474653095,183.43741202633828 66.80291970819235,176.10434276179876 67.0,174.3856476226356 66.50729927048087,174.04190827463754 66.01459854003042,174.04190827463754 64.73357664234936,174.61480712913908 64.3394160582684,174.50022738194093 63.25547445239499,173.12526949099265 62.27007299289107,172.43778990465216 61.481751824729145,172.20862994762138 59.11678832117468,172.0940499510616 58.42700729938224,172.32320993219037 57.047445255331695,173.2398493803339 56.1605839417316,174.3856476226356 55.86496350355446,175.76060394744854 55.86496350355446,177.13555856386665 56.062043795827776,177.93761463428382 55.76642335765064,178.05219402513467 54.68248175224289,178.16677340469323 49.2627737224102,178.05219402513467 46.40510948887095,178.16677340469323 42.36496350355446,178.05219402513467 35.959854014683515,178.3959321276052 34.58029197063297,178.62509080325253 32.313868613447994,177.59387638955377 30.638686131685972,176.56266101484653 29.45620437990874,176.33350191207137 27.879562043584883,175.1877056864323 26.598540146369487,174.50022738194093 25.908759124111384,174.50022738194093 24.233576642349362,174.1564880691003 23.740875912830234,173.81274864985608 20.88321167882532,172.66694981383625 19.306569343432784,172.32320993219037 16.44890510989353,171.06282945047133 15.46350364945829,170.9482493356336 14.872262774035335,170.37534858298022 14.182481752242893,171.06282945047133 14.182481752242893,172.0940499510616 13.591240875888616,173.46900912374258 13.197080292273313,175.3022853625007 13.197080292273313,175.9897631688509 14.182481752242893,177.36471750040073 14.773722628131509,177.36471750040073 16.744525547605008,176.9063995797187 18.124087591655552,177.02097907790449 21.86861313926056,179.08340801217128 23.346715328283608,179.19798728451133 29.062043795827776,180.80209585418925 31.328467153478414,182.4062020975398 33.20072992751375,183.20825434743892 36.35401459876448,183.09367549058516 38.22627737233415,183.89572724187747 39.113138685934246,184.69777841190808 40.591240875888616,185.15609310532454 41.18248175224289,185.0415144499857 42.75912408763543,184.4686209942447 44.43430656939745,183.3228331930004 44.92700729938224,183.3228331930004 46.40510948887095,182.52078102587257 47.78467153245583,182.7499388474971 48.8686131387949,183.20825434743892 50.24817518284544,184.12488477840088 49.75547445286065,184.81235710298643 49.65693430695683,185.3852503808448 49.75547445286065,185.95814336184412 49.16423357697204,186.645614547655 49.16423357697204,186.98934998025652 49.85401459876448,188.36429064359982 50.149635036475956,188.70802554220427 51.33211678871885,189.39549501938745 52.51459854003042,189.6246514171362 55.076642335858196,188.93718208209611 57.14598540170118,188.5934472543886 59.60948905115947,189.0517603341723 60.989051094744354,189.6246514171362 61.77737226290628,189.39549501938745 62.3686131387949,189.0517603341723 62.56569343106821,188.70802554220427 63.05839416058734,186.87477151467465 63.74817518237978,184.81235710298643 64.43795620417222,183.43741202633828 64.93065693415701,181.14583310170565 66.21167883230373,178.3959321276052 66.90145985363051,175.41686502681114 66.90145985363051,174.50022738194093 66.31021897820756,174.04190827463754 64.63503649644554,174.50022738194093 63.452554744668305,173.2398493803339 62.7627737224102,172.66694981383625 59.21532846707851,171.86488992290106 58.1313868612051,172.20862994762138 57.93430656939745,172.66694981383625 57.047445255331695,173.6981688195374 56.45620437944308,174.72938686434645 56.062043795827776,176.33350191207137 56.1605839417316,178.05219402513467 55.86496350355446,178.28135277202819 54.78102189814672,178.51051147154067 53.00729927048087,178.28135277202819 47.09489051112905,178.28135277202819 45.61678832117468,178.05219402513467 42.75912408763543,178.3959321276052 39.6058394163847,178.16677340469323 34.974452554713935,178.3959321276052 33.003649635240436,177.70845581649337 32.313868613447994,177.02097907790449 30.638686131685972,176.67724054818973 30.244525547605008,176.21892234298866 29.45620437990874,176.10434276179876 29.062043795827776,175.87518356414512 28.66788321128115,175.3022853625007 27.091240875888616,174.61480712913908 22.85401459876448,173.58358897757716 22.459854014683515,173.12526949099265 21.57299270108342,172.89610967598855 20.784671532921493,171.86488992290106 17.237226277589798,171.17740955378395 15.759124088101089,171.40656972420402 14.47810218995437,170.8336692089215 13.788321167696267,171.40656972420402 13.788321167696267,173.35442925791722 13.197080292273313,174.3856476226356 13.0,175.53144467878155 13.394160584546626,176.21892234298866 14.182481752242893,177.02097907790449 14.773722628131509,177.13555856386665 15.46350364945829,176.9063995797187 16.547445255797356,176.79182006965857 18.025547445751727,177.02097907790449 18.91240875935182,177.36471750040073 20.09489051112905,178.28135277202819 21.178832117002457,178.73967012309004 24.33211678871885,180.00004185992293 27.48540145996958,180.11462103761733 29.259124087635428,180.6875167475082 31.131386861670762,181.83330727752764 32.41240875935182,182.4062020975398 35.959854014683515,182.7499388474971 37.83211678871885,183.66656965774018 38.916058394126594,184.4686209942447 39.901459854096174,184.92693578230683 41.47810218995437,184.92693578230683 42.75912408763543,184.35404226742685 44.6313868612051,183.09367549058516 45.91240875935182,182.6353599425638 46.996350364759564,182.4062020975398 48.08029197063297,182.6353599425638 49.459854014683515,183.43741202633828 49.75547445286065,184.12488477840088 49.36131386877969,185.15609310532454 49.459854014683515,186.87477151467465 49.952554744668305,188.02055563777685 50.64233576646075,188.5934472543886 51.62773722643033,188.93718208209611 53.00729927048087,189.0517603341723 54.48540145996958,188.70802554220427 56.35766423353925,188.5934472543886 57.835766423493624,188.70802554220427 60.59489051112905,189.39549501938745 61.481751824729145,189.1663385744905 62.171532846521586,188.822603818262 62.56569343106821,188.13513398496434 62.664233576506376,187.33308530633803 63.25547445239499,186.07272192265373 64.3394160582684,182.7499388474971 65.52189781004563,180.11462103761733 65.62043795641512,179.31256654532626 66.60583941591904,177.02097907790449 67.0,175.53144467878155 66.80291970819235,174.72938686434645 66.50729927048087,174.27106785192154 66.11313868593425,174.1564880691003 64.63503649644554,174.72938686434645 64.3394160582684,174.72938686434645 62.56569343106821,172.7815297509078 61.481751824729145,172.43778990465216 59.11678832117468,172.0940499510616 58.62408759165555,172.20862994762138 58.1313868612051,172.55236986512318 58.032846715301275,172.89610967598855 57.24452554760501,173.58358897757716 56.45620437944308,174.72938686434645 56.1605839417316,176.21892234298866 56.1605839417316,178.16677340469323 56.062043795827776,178.51051147154067 55.569343065842986,178.85424943140242 53.99270072998479,178.51051147154067 48.967153284698725,178.28135277202819 38.62043795641512,178.3959321276052 37.240875912830234,178.62509080325253 36.35401459876448,178.51051147154067 35.27007299289107,178.05219402513467 35.171532846521586,177.36471750040073 33.7919708029367,176.21892234298866 32.41240875935182,175.87518356414512 31.624087591655552,176.10434276179876 30.244525547605008,175.87518356414512 29.357664233539253,174.84396658744663 29.357664233539253,174.50022738194093 28.96350364992395,174.27106785192154 27.189781022258103,174.1564880691003 26.204379562288523,173.46900912374258 23.346715328283608,173.81274864985608 21.770072992891073,173.58358897757716 19.799270073417574,172.66694981383625 16.153284671716392,171.40656972420402 15.364963504020125,170.9482493356336 15.562043795827776,170.8336692089215 15.364963504020125,170.48992875707336 14.675182481762022,171.17740955378395 14.576642335858196,172.20862994762138 13.985401460435241,173.9273284683004 13.591240875888616,174.50022738194093 13.394160584546626,176.21892234298866 13.788321167696267,176.9063995797187 14.379562044050545,177.47929695085622 17.729927007108927,176.9063995797187 17.9270072998479,177.13555856386665 19.70072992751375,177.59387638955377 21.474452554713935,179.08340801217128 22.164233576972038,179.4271457939176 23.642335766460747,179.77088346914388 25.711678832303733,179.77088346914388 28.175182481762022,180.3437793571502 29.357664233539253,181.03125403111335 30.737226277589798,181.4895702431677 31.722627737559378,182.2916231576819 33.20072992751375,182.7499388474971 37.14233576646075,182.8645177402068 37.63503649644554,183.55199084815104 39.80291970819235,184.81235710298643 40.78832116769627,185.15609310532454 41.77372262813151,185.0415144499857 45.22262773755938,182.8645177402068 46.10948905115947,182.52078102587257 46.8978102193214,182.2916231576819 47.981751825194806,182.52078102587257 48.77007299289107,183.09367549058516 49.36131386877969,183.89572724187747 49.2627737224102,186.53103604656644 49.75547445286065,188.02055563777685 50.34671532828361,189.0517603341723 51.03649635054171,189.39549501938745 53.00729927048087,189.5100732240826 55.569343065842986,188.822603818262 57.047445255331695,188.5934472543886 58.62408759165555,188.822603818262 59.80656934296712,189.39549501938745 60.7919708029367,189.5100732240826 62.3686131387949,188.70802554220427 62.7627737224102,188.24971232004464 63.05839416058734,187.33308530633803" stroke="#4DD2FF" stroke-linecap="round" stroke-linejoin="round" stroke-width="0.5"><title>2024-10-13 5.5km</title><desc>12641545700</desc></polyline><polyline fill="none" points="166.86106032924727,182.69757484830916 168.8354661790654,183.27151706803124 169.23034734930843,183.73067062941846 169.3290676418692,184.41940061480273 168.93418647162616,185.68207114364486 168.93418647162616,186.60037607967388 169.03290676465258,187.17431627796032 169.6252285190858,188.0926199775422 170.41499085957184,188.66655940376222 171.50091407680884,189.12571073067375 172.68555758707225,189.24049853242468 177.02925045695156,188.78134725312702 179.8921389398165,189.35528632276691 181.6691042049788,189.12571073067375 182.06398537475616,188.66655940376222 182.26142595987767,187.4038922743639 183.7422303473577,183.61588225665037 184.03839122503996,182.0088437933009 184.828153565526,180.74616908025928 185.7166361976415,178.56518209748901 186.8025594148785,175.2362989555113 186.7038391227834,174.89193116361275 186.21023766044527,174.54756326426286 184.33455210272223,174.6623525756877 182.7550274222158,173.0553011316806 178.608775137458,172.25177453598008 177.6215722123161,172.71093266212847 176.53564899461344,173.6292483432917 175.74588665459305,174.54756326426286 175.35100548435003,176.0398233878659 175.35100548435003,178.22081533935852 174.8574040220119,178.67997099319473 168.44058500928804,177.9912374415435 163.99817184684798,177.9912374415435 162.2212065816857,177.7616594955325 157.08775137132034,177.7616594955325 153.33638025587425,178.33560427068733 152.54661791585386,178.1060263963882 152.34917733073235,177.7616594955325 151.26325411349535,177.6468705049483 150.57221206557006,177.18771442375146 150.17733089625835,176.7285581517499 150.07861060323194,176.26940169010777 150.27605118835345,175.81024503801018 150.07861060323194,175.35108819568995 149.28884826321155,174.7771418755874 148.49908592365682,174.54756326426286 147.51188299804926,175.12150970322546 145.73491773288697,174.89193116361275 145.04387568542734,174.31798460532445 141.98354661790654,173.28488005243707 141.1937842783518,172.82572216377594 140.79890310764313,172.25177453598008 139.51553930528462,171.33345771359745 138.42961608758196,171.44824735773727 135.96160877496004,170.9890887090005 135.36928702006117,170.75950931268744 135.17184643493965,170.5299298693426 135.27056672796607,170.3003503786167 134.7769652651623,170.75950931268744 133.49360146233812,173.6292483432917 133.0,175.12150970322546 133.29616087768227,176.7285581517499 133.7897623400204,177.3025034618331 136.2577696526423,177.18771442375146 137.2449725777842,177.417292487924 137.93601462524384,177.7616594955325 138.23217550246045,178.1060263963882 139.8117001829669,178.56518209748901 141.0950639853254,179.59828172950074 142.67458866536617,180.28701428277418 146.72212065802887,180.86095775011927 152.6453382084146,183.1567286476493 153.63254113355651,183.04194021574222 153.53382084099576,182.69757484830916 155.11334552103654,182.92715177196078 158.56855575880036,185.10813017270993 159.35831809882075,185.4524947910104 160.44424131605774,185.4524947910104 161.82632541144267,184.99334194255061 163.5045703840442,183.73067062941846 165.6764168194495,182.69757484830916 168.7367458869703,183.27151706803124 169.3290676418692,184.30461231374647 168.7367458869703,185.9116474490147 168.8354661790654,187.6334682230372 169.03290676465258,188.20740788662806 169.72394881164655,188.89613509061746 170.41499085957184,189.47007410088554 171.00731261447072,189.5848618670134 172.8829981717281,189.6996496214997 175.25228519178927,189.12571073067375 177.12797074951231,188.89613509061746 178.51005484443158,189.01092291658279 180.48446069471538,189.6996496214997 181.07678245007992,189.6996496214997 181.6691042049788,188.78134725312702 181.6691042049788,187.4038922743639 182.1627056673169,186.82995219470467 183.34734917758033,183.73067062941846 184.33455210272223,183.04194021574222 184.63071297993883,182.35320937423967 184.53199268784374,181.89405524241738 184.828153565526,181.5496895184042 185.42047531995922,180.17222555342596 185.8153564897366,178.56518209748901 186.11151736741886,178.1060263963882 187.0,175.12150970322546 186.8025594148785,174.6623525756877 186.11151736741886,174.20319525816012 184.7294332724996,174.7771418755874 184.33455210272223,174.7771418755874 182.55758683755994,172.94051165389828 181.175502742175,172.36656408535782 178.31261425977573,172.0221954016015 177.02925045695156,173.17009059793781 176.1407678243704,174.43277394084726 175.6471663620323,176.49897994485218 175.74588665459305,178.33560427068733 175.35100548435003,178.67997099319473 169.8226691042073,178.22081533935852 162.61608775146306,178.22081533935852 160.54296160908416,178.45039318990894" stroke="#4DD2FF" stroke-linecap="round" stroke-linejoin="round" stroke-width="0.5"><title>2024-09-09 5.2km</title><desc>12366514575</desc></polyline><polyline fill="none" points="45.557377049233764,241.94434559333604 46.245901639107615,242.05871593521442 48.50819672131911,242.85930799820926 49.09836065582931,243.431159116677 49.39344262285158,244.00300993875135 49.49180327868089,244.68923053436447 49.19672131119296,245.71856062870938 48.90163934417069,245.94730051932856 49.09836065582931,247.31973886839114 49.78688524570316,248.4634361898061 50.37704918021336,248.80654515558854 51.655737705063075,249.2640236101579 53.229508196469396,249.6071323271608 54.80327868834138,249.2640236101579 55.09836065582931,249.03528440673836 58.049180327914655,248.69217551196925 59.22950819693506,249.03528440673836 61.29508196702227,249.1496540143853 61.59016393404454,248.80654515558854 61.59016393404454,248.57780585659202 62.3770491797477,247.77721793891396 62.86885245889425,245.83293057978153 62.9672131142579,244.2317501846701 63.360655737575144,242.97367824590765 64.24590163957328,242.05871593521442 64.6393442619592,240.68627104896586 65.72131147515029,239.19945383060258 66.31147540919483,237.82700539077632 66.4098360654898,237.14078053133562 66.80327868834138,236.1114424430998 66.50819672131911,235.42521651776042 66.80327868834138,234.28150569449645 66.60655737668276,233.70964983897284 66.50819672131911,233.48090741364285 64.44262295076624,233.93839221668895 63.459016393404454,233.13779368728865 63.065573770552874,232.56593723921105 62.47540983604267,231.99408049532212 60.70491803251207,231.65096630703192 59.91803278634325,231.765337714809 57.754098360426724,232.45156591420528 57.26229508174583,232.79467985383235 56.86885245889425,233.93839221668895 56.77049180259928,235.1964744478464 56.57377049140632,235.88270051509608 55.09836065582931,238.5132298239041 54.60655737668276,238.85634188039694 53.8196721309796,238.62760052119847 52.73770491825417,238.05574691586662 51.655737705063075,237.82700539077632 49.98360655736178,237.14078053133562 45.459016393404454,236.34018432325684 42.11475409800187,236.79766794189345 38.27868852438405,236.56892615626566 36.50819672085345,236.68329705484211 32.08196721319109,237.59826381830499 31.09836065582931,237.36952219845261 27.655737704597414,235.3108454887988 25.68852458987385,233.36653618316632 24.213114753831178,233.13779368728865 22.344262294936925,233.36653618316632 21.557377049233764,233.13779368728865 20.672131147235632,232.33719457732514 20.672131147235632,231.1934805563651 21.163934426382184,230.96473761007655 20.967213114723563,230.85036611929536 18.4098360654898,230.27850848680828 15.950819672085345,230.39288003719412 15.262295081280172,229.70665055862628 14.180327869020402,230.7359946166398 13.983606557361782,231.42222345538903 14.180327869020402,231.765337714809 13.983606557361782,232.10845186794177 13.786885246168822,233.5952786321286 13.786885246168822,234.8533612539759 13.0,236.4545552454656 13.0,236.912038816954 14.278688524384052,237.36952219845261 15.459016393404454,237.14078053133562 16.836065573617816,237.25515137100592 19.49180327868089,238.62760052119847 20.967213114723563,239.8856774107553 22.836065573617816,240.68627104896586 25.88524590153247,240.915011981735 27.950819671619684,242.97367824590765 28.639344262424856,242.97367824590765 29.524590163957328,242.63056746823713 31.09836065582931,242.74493773910217 32.3770491797477,243.20241870451719 35.8196721309796,243.08804848103318 38.37704918021336,243.54552930465434 40.344262294936925,244.4604903833242 43.29508196702227,243.65989948110655 44.67213114723563,242.63056746823713 46.639344262424856,242.05871593521442 48.31147541012615,242.97367824590765 48.80327868834138,243.431159116677 48.90163934417069,244.68923053436447 48.90163934417069,247.20536907133646 49.39344262285158,248.80654515558854 51.065573770552874,249.83587141241878 51.360655737575144,250.2933494412573 51.754098360426724,250.2933494412573 52.245901639107615,250.17897995153908 52.73770491825417,249.72150187566876 54.80327868834138,248.69217551196925 57.16393442591652,248.3490665111458 58.147540983278304,248.9209147868678 60.50819672085345,249.1496540143853 61.19672131119296,249.03528440673836 61.78688524570316,248.57780585659202 62.18032786855474,248.00595740345307 62.77049180306494,245.2610807052115 63.26229508174583,244.68923053436447 63.5573770487681,243.65989948110655 64.34426229493693,242.4018268903019 64.7377049177885,240.68627104896586 65.8196721309796,238.74197120650206 66.70491803251207,235.9970714849187 67.0,234.05276338779368 66.80327868834138,233.5952786321286 66.50819672131911,233.48090741364285 64.6393442619592,233.70964983897284 63.852459016256034,233.25216494116466 63.655737705063075,232.6803085526917 63.065573770552874,232.10845186794177 60.60655737668276,231.53659488714766 57.459016393404454,232.6803085526917 56.08196721319109,233.70964983897284 55.39344262238592,235.88270051509608 55.19672131119296,236.68329705484211 55.29508196702227,237.36952219845261 55.09836065582931,238.28448839357588 54.80327868834138,238.3988591147354 54.21311475383118,238.3988591147354 52.836065573617816,237.59826381830499 52.147540983743966,237.36952219845261 49.49180327868089,237.14078053133562 46.836065573617816,236.56892615626566 45.557377049233764,236.68329705484211 44.77049180306494,236.912038816954 44.37704918021336,237.25515137100592 43.68852458987385,237.36952219845261" stroke="#4DD2FF" stroke-linecap="round" stroke-linejoin="round" stroke-width="0.5"><title>2024-09-08 5.3km</title><desc>12358368474</desc></polyline></svg>