<?xml version="1.0" encoding="utf-8" ?>
<svg baseProfile="full" height="300mm" version="1.1" viewBox="0,0,200,300" width="200mm" xmlns="http://www.w3.org/2000/svg" xmlns:ev="http://www.w3.org/2001/xml-events" xmlns:xlink="http://www.w3.org/1999/xlink"><defs /><rect fill="#222222" height="300" width="200" x="0" y="0" /><text fill="#FFFFFF" style="font-size:12px; font-family:Arial; font-weight:bold;" x="10" y="20">Over 5km Runs</text><text fill="#FFFFFF" style="font-size:4px; font-family:Arial" x="10" y="280">ATHLETE</text><text fill="#FFFFFF" style="font-size:9px; font-family:Arial" x="10" y="290">Mr. Error 追</text><text fill="#FFFFFF" style="font-size:4px; font-family:Arial" x="65" y="280">SPECIAL TRACKS</text><rect fill="yellow" height="2.6" width="2.6" x="65" y="283" /><text fill="#FFFFFF" style="font-size:3px; font-family:Arial" x="70" y="285.5">Over 20.0 km</text><rect fill="red" height="2.6" width="2.6" x="65" y="287" /><text fill="#FFFFFF" style="font-size:3px; font-family:Arial" x="70" y="289.5">Over 40.0 km</text><text fill="#FFFFFF" style="font-size:4px; font-family:Arial" x="120" y="280">STATISTICS</text><text fill="#FFFFFF" style="font-size:3px; font-family:Arial" x="120" y="285">Number: 3</text><text fill="#FFFFFF" style="font-size:3px; font-family:Arial" x="120" y="290">Weekly: 1.5</text><text fill="#FFFFFF" style="font-size:3px; font-family:Arial" x="141" y="285">Total: 15.8 km</text><text fill="#FFFFFF" style="font-size:3px; font-family:Arial" x="141" y="290">Avg: 5.3 km</text><text fill="#FFFFFF" style="font-size:3px; font-family:Arial" x="167" y="285">Min: 5.2 km</text><text fill="#FFFFFF" style="font-size:3px; font-family:Arial" x="167" y="290">Max: 5.3 km</text><polyline fill="none" points="65.29159049317241,79.04636227246374 68.25319926813245,79.90727560210507 68.84552102349699,80.59600594418589 68.99360146280378,81.62910092214588 68.40127970743924,83.5231067155255 68.40127970743924,84.90056411945261 68.54936014674604,85.76147441694047 69.43784277886152,87.1389299663715 70.62248628865927,87.99983910564333 72.25137111544609,88.6885660958942 74.02833638060838,88.86074779857881 80.54387568496168,88.17202087957412 84.83820840902627,89.03292948403396 87.50365630723536,88.6885660958942 88.09597806166857,87.99983910564333 88.39213893935084,86.10583841148764 90.61334552057087,80.42382338491734 91.05758683755994,78.01326568983495 92.24223034735769,76.11925362038892 93.57495429646224,72.8477731461171 95.20383912231773,67.85444843326695 95.05575868394226,67.33789674530271 94.31535649020225,66.82134489633609 91.50182815361768,66.99352886353154 89.13254113309085,64.5829516974045 82.9131627054885,63.37766180397011 81.43235831800848,64.06639899301808 79.80347349122167,65.44387251487933 78.61882998142391,66.82134489633609 78.02650822605938,69.05973508185707 78.02650822605938,72.33122300892137 77.28610603231937,73.01995648967568 67.66087751369923,71.98685616231523 60.99725777003914,71.98685616231523 58.331809871830046,71.64248924318235 50.631627056747675,71.64248924318235 45.00457038357854,72.50340640603099 43.819926872849464,72.15903959446587 43.52376599609852,71.64248924318235 41.894881170243025,71.47030575748067 40.85831809788942,70.78157163551077 40.26599634345621,70.09283722762484 40.11791590414941,69.40410253510345 40.414076782763004,68.71536755689885 40.11791590414941,68.02663229347672 38.93327239435166,67.16571281326469 37.74862888455391,66.82134489633609 36.26782449707389,67.68226455489639 33.602376598864794,67.33789674530271 32.56581352837384,66.47697690804489 27.97531992662698,64.9273200785974 26.79067641682923,64.23858324554749 26.19835466146469,63.37766180397011 24.27330895792693,62.00018657033797 22.644424131140113,62.17237103660591 18.94241316244006,61.48363306338433 18.05393053032458,61.13926396891475 17.75776965264231,60.79489480389748 17.905850091017783,60.45052556786686 17.165447897277772,61.13926396891475 15.24040219374001,65.44387251487933 14.5,67.68226455489639 14.944241316057742,70.09283722762484 15.684643509797752,70.95375519280788 19.386654478497803,70.78157163551077 20.867458865977824,71.12593873194419 21.904021937400103,71.64248924318235 22.348263253457844,72.15903959446587 24.71755027398467,72.8477731461171 26.642595977522433,74.39742259425111 29.01188299804926,75.43052142404485 35.08318098727614,76.29143662506249 43.96800731215626,79.73509297135752 45.44881169963628,79.56291032361332 45.30073126126081,79.04636227246374 47.67001828085631,79.39072765794117 52.852833637967706,82.66219525889028 54.03747714776546,83.17874218651559 55.66636197362095,83.17874218651559 57.73948811739683,82.49001291382592 60.25685557536781,80.59600594418589 63.51462522894144,79.04636227246374 68.10511882975698,79.90727560210507 68.99360146280378,81.4569184705615 68.10511882975698,83.86747117340565 68.25319926813245,86.4502023345558 68.54936014674604,87.31111182994209 69.585923217237,88.34420263580978 70.62248628865927,89.2051111512119 71.51096892170608,89.37729280046187 74.32449725735933,89.54947443224955 77.8784277876839,88.6885660958942 80.69195612426847,88.34420263580978 82.76508226618171,88.51638437481597 85.72669104207307,89.54947443224955 86.61517367418855,89.54947443224955 87.50365630723536,88.17202087957412 87.50365630723536,86.10583841148764 88.24405850097537,85.2449282919988 90.02102376613766,80.59600594418589 91.50182815361768,79.56291032361332 91.94606946967542,78.5298140613595 91.79798903129995,77.84108286362607 92.24223034735769,77.3245342776645 93.13071297947317,75.25833833008073 93.72303473483771,72.8477731461171 94.16727605089545,72.15903959446587 95.5,67.68226455489639 95.20383912231773,66.99352886353154 94.16727605089545,66.30479288718197 92.0941499080509,67.16571281326469 91.50182815361768,67.16571281326469 88.83638025633991,64.41076748073101 86.76325411349535,63.549846127978526 82.46892138943076,63.033293102285825 80.54387568496168,64.75513589696493 79.21115173678845,66.64916091121268 78.47074954211712,69.74846991722006 78.61882998142391,72.50340640603099 78.02650822605938,73.01995648967568 69.73400365654379,72.33122300892137 58.92413162719458,72.33122300892137 55.81444241292775,72.6755897848634" stroke="#4dd2ff" stroke-linecap="round" stroke-linejoin="round" stroke-width="0.5"><title>2024-09-09 5.2km</title><desc>12366514575</desc></polyline><polyline fill="none" points="153.33606557408348,77.91651839017868 154.36885245889425,78.08807390299626 157.7622950822115,79.28896199748851 158.64754098374397,80.14673867519014 159.0901639345102,81.00451490830164 159.23770491825417,82.03384580160491 158.79508196748793,83.5778409432387 158.35245901625603,83.92095077922568 158.64754098374397,85.97960830270313 159.68032786855474,87.69515428482555 160.5655737700872,88.20981773349922 162.48360655782744,88.89603541546967 164.84426229493693,89.41069849091582 167.20491803297773,88.89603541546967 167.64754098374397,88.55292661022395 172.07377049187198,88.03826326818671 173.8442622954026,88.55292661022395 176.94262295030057,88.72448102175258 177.38524590153247,88.20981773349922 177.38524590153247,87.86670878517907 178.5655737700872,86.66582690854557 179.30327868834138,83.74939586990513 179.45081967161968,81.34762527723797 180.04098360659555,79.46051736897789 181.3688524593599,78.08807390299626 181.9590163929388,76.029406573507 183.5819672131911,73.79918074607849 184.4672131142579,71.74050808639731 184.61475409846753,70.71117079711985 185.20491803251207,69.16716366482433 184.7622950822115,68.13782477681525 185.20491803251207,66.42225854191929 184.90983606502414,65.56447475857567 184.7622950822115,65.22136112069711 181.66393442591652,65.90758832532447 180.18852458987385,64.70669053122401 179.5983606558293,63.848905858932994 178.71311475383118,62.991120743216015 176.0573770487681,62.47644946060609 174.87704918021336,62.64800657238811 171.63114754110575,63.677348871482536 170.89344262285158,64.19201978098135 170.30327868834138,65.90758832532447 170.1557377045974,67.79471167200245 169.86065573757514,68.82405077281874 167.64754098374397,72.76984473597258 166.9098360654898,73.28451282088645 165.72950819693506,72.94140078208875 164.10655737714842,72.08362037409097 162.48360655782744,71.74050808639731 159.97540983650833,70.71117079711985 153.1885245903395,69.51027648500167 148.17213114723563,70.1965019130148 142.41803278634325,69.8533892345149 139.76229508174583,70.024945582496 133.12295081978664,71.39739572769031 131.64754098374397,71.05428329796996 126.48360655689612,67.96626823337283 123.53278688481078,65.0498042749241 121.3196721309796,64.70669053122401 118.51639344263822,65.0498042749241 117.33606557361782,64.70669053122401 116.00819672131911,63.505791866220534 116.00819672131911,61.790220834780484 116.74590163957328,61.44710641517304 116.45081967208534,61.27554917905945 112.61475409800187,60.41776273038704 108.92622950812802,60.58932005590759 107.89344262238592,59.559975838055834 106.2704918035306,61.10399192525074 105.97540983604267,62.13333518325817 106.2704918035306,62.64800657238811 105.97540983604267,63.162677802029066 105.6803278690204,65.39291794830933 105.6803278690204,67.28004188113846 104.5,69.68183286848944 104.5,70.36805822572205 106.41803278680891,71.05428329796996 108.18852459033951,70.71117079711985 110.25409836089239,70.88272705674171 114.23770491825417,72.94140078208875 116.45081967208534,74.82851611624938 119.25409836089239,76.029406573507 123.8278688522987,76.37251797271892 126.92622950812802,79.46051736897789 127.95901639387012,79.46051736897789 129.28688524663448,78.94585120247211 131.64754098374397,79.11740660876967 133.5655737700872,79.80362805700861 138.7295081964694,79.6320727217244 142.56557377055287,80.31829395715613 145.51639344263822,81.69073557516094 149.94262295076624,80.48984922177624 152.0081967213191,78.94585120247211 154.95901639387012,78.08807390299626 157.46721311518922,79.46051736897789 158.20491803297773,80.14673867519014 158.35245901625603,82.03384580160491 158.35245901625603,85.80805360712111 159.0901639345102,88.20981773349922 161.5983606558293,89.753807118861 162.04098360612988,90.44002416194417 162.6311475406401,90.44002416194417 163.36885245889425,90.26846992748324 164.10655737714842,89.58225281373598 167.20491803297773,88.03826326818671 170.74590163910761,87.52359976689331 172.2213114751503,88.38137218041811 175.76229508174583,88.72448102175258 176.79508196702227,88.55292661022395 177.6803278690204,87.86670878517907 178.27049180306494,87.00893610541243 179.15573770506307,82.89162105810829 179.89344262238592,82.03384580160491 180.33606557361782,80.48984922177624 181.51639344263822,78.60274033574387 182.10655737714842,76.029406573507 183.7295081964694,73.11295680992771 185.05737704923376,68.99560722755268 185.5,66.07914508192334 185.20491803251207,65.39291794830933 184.7622950822115,65.22136112069711 181.9590163929388,65.56447475857567 180.77868852438405,64.87824741192162 180.48360655736178,64.02046282915398 179.5983606558293,63.162677802029066 175.9098360654898,62.30489233089611 171.1885245903395,64.02046282915398 169.12295081978664,65.56447475857567 168.09016393404454,68.82405077281874 167.79508196702227,70.024945582496 167.94262295076624,71.05428329796996 167.64754098374397,72.42673259053845 167.20491803297773,72.5982886722777 166.3196721309796,72.5982886722777 164.25409836089239,71.39739572769031 163.22131147561595,71.05428329796996 159.23770491825417,70.71117079711985 155.25409836089239,69.8533892345149 153.33606557408348,70.024945582496 152.1557377045974,70.36805822572205 151.56557377055287,70.88272705674171 150.53278688527644,71.05428329796996" stroke="#4dd2ff" stroke-linecap="round" stroke-linejoin="round" stroke-width="0.5"><title>2024-09-08 5.3km</title><desc>12358969802</desc></polyline><polyline fill="none" points="63.33606557408348,227.91651839017868 64.36885245889425,228.08807390299626 67.7622950822115,229.2889619974885 68.64754098374397,230.14673867519014 69.0901639345102,231.00451490830164 69.23770491825417,232.0338458016049 68.79508196748793,233.5778409432387 68.35245901625603,233.92095077922568 68.64754098374397,235.97960830270313 69.68032786855474,237.69515428482555 70.56557377008721,238.20981773349922 72.48360655782744,238.89603541546967 74.84426229493693,239.41069849091582 77.20491803297773,238.89603541546967 77.64754098374397,238.55292661022395 82.07377049187198,238.0382632681867 83.84426229540259,238.55292661022395 86.94262295030057,238.72448102175258 87.38524590153247,238.20981773349922 87.38524590153247,237.86670878517907 88.56557377008721,236.66582690854557 89.30327868834138,233.74939586990513 89.45081967161968,231.34762527723797 90.04098360659555,229.4605173689779 91.36885245935991,228.08807390299626 91.95901639293879,226.029406573507 93.58196721319109,223.7991807460785 94.4672131142579,221.7405080863973 94.61475409846753,220.71117079711985 95.20491803251207,219.16716366482433 94.7622950822115,218.13782477681525 95.20491803251207,216.4222585419193 94.90983606502414,215.56447475857567 94.7622950822115,215.2213611206971 91.66393442591652,215.90758832532447 90.18852458987385,214.706690531224 89.59836065582931,213.848905858933 88.71311475383118,212.99112074321602 86.0573770487681,212.4764494606061 84.87704918021336,212.6480065723881 81.63114754110575,213.67734887148254 80.89344262285158,214.19201978098135 80.30327868834138,215.90758832532447 80.15573770459741,217.79471167200245 79.86065573757514,218.82405077281874 77.64754098374397,222.76984473597258 76.9098360654898,223.28451282088645 75.72950819693506,222.94140078208875 74.10655737714842,222.08362037409097 72.48360655782744,221.7405080863973 69.97540983650833,220.71117079711985 63.18852459033951,219.51027648500167 58.17213114723563,220.1965019130148 52.41803278634325,219.8533892345149 49.76229508174583,220.024945582496 43.12295081978664,221.3973957276903 41.647540983743966,221.05428329796996 36.48360655689612,217.96626823337283 33.532786884810776,215.0498042749241 31.319672130979598,214.706690531224 28.51639344263822,215.0498042749241 27.336065573617816,214.706690531224 26.00819672131911,213.50579186622053 26.00819672131911,211.79022083478048 26.745901639573276,211.44710641517304 26.450819672085345,211.27554917905945 22.614754098001868,210.41776273038704 18.926229508128017,210.5893200559076 17.89344262238592,209.55997583805583 16.270491803530604,211.10399192525074 15.975409836042672,212.13333518325817 16.270491803530604,212.6480065723881 15.975409836042672,213.16267780202907 15.680327869020402,215.39291794830933 15.680327869020402,217.28004188113846 14.5,219.68183286848944 14.5,220.36805822572205 16.418032786808908,221.05428329796996 18.18852459033951,220.71117079711985 20.254098360892385,220.88272705674171 24.237704918254167,222.94140078208875 26.450819672085345,224.82851611624938 29.254098360892385,226.029406573507 33.82786885229871,226.37251797271892 36.92622950812802,229.4605173689779 37.959016393870115,229.4605173689779 39.28688524663448,228.9458512024721 41.647540983743966,229.11740660876967 43.56557377008721,229.8036280570086 48.729508196469396,229.6320727217244 52.565573770552874,230.31829395715613 55.51639344263822,231.69073557516094 59.942622950766236,230.48984922177624 62.00819672131911,228.9458512024721 64.95901639387012,228.08807390299626 67.46721311518922,229.4605173689779 68.20491803297773,230.14673867519014 68.35245901625603,232.0338458016049 68.35245901625603,235.8080536071211 69.0901639345102,238.20981773349922 71.59836065582931,239.753807118861 72.04098360612988,240.44002416194417 72.63114754064009,240.44002416194417 73.36885245889425,240.26846992748324 74.10655737714842,239.58225281373598 77.20491803297773,238.0382632681867 80.74590163910761,237.5235997668933 82.22131147515029,238.3813721804181 85.76229508174583,238.72448102175258 86.79508196702227,238.55292661022395 87.6803278690204,237.86670878517907 88.27049180306494,237.00893610541243 89.15573770506307,232.89162105810829 89.89344262238592,232.0338458016049 90.33606557361782,230.48984922177624 91.51639344263822,228.60274033574387 92.10655737714842,226.029406573507 93.7295081964694,223.1129568099277 95.05737704923376,218.99560722755268 95.5,216.07914508192334 95.20491803251207,215.39291794830933 94.7622950822115,215.2213611206971 91.95901639293879,215.56447475857567 90.77868852438405,214.87824741192162 90.48360655736178,214.02046282915398 89.59836065582931,213.16267780202907 85.9098360654898,212.3048923308961 81.18852459033951,214.02046282915398 79.12295081978664,215.56447475857567 78.09016393404454,218.82405077281874 77.79508196702227,220.024945582496 77.94262295076624,221.05428329796996 77.64754098374397,222.42673259053845 77.20491803297773,222.5982886722777 76.3196721309796,222.5982886722777 74.25409836089239,221.3973957276903 73.22131147561595,221.05428329796996 69.23770491825417,220.71117079711985 65.25409836089239,219.8533892345149 63.33606557408348,220.024945582496 62.15573770459741,220.36805822572205 61.565573770552874,220.88272705674171 60.53278688527644,221.05428329796996" stroke="#4dd2ff" stroke-linecap="round" stroke-linejoin="round" stroke-width="0.5"><title>2024-09-08 5.3km</title><desc>12358368474</desc></polyline></svg>