<?xml version="1.0" encoding="utf-8" ?>
<svg baseProfile="full" height="300mm" version="1.1" viewBox="0,0,200,300" width="200mm" xmlns="http://www.w3.org/2000/svg" xmlns:ev="http://www.w3.org/2001/xml-events" xmlns:xlink="http://www.w3.org/1999/xlink"><defs /><rect fill="#222222" height="300" width="200" x="0" y="0" /><text fill="#FFFFFF" style="font-size:12px; font-family:Arial; font-weight:bold;" x="10" y="20">Over 5km Runs</text><text fill="#FFFFFF" style="font-size:4px; font-family:Arial" x="10" y="280">Runner</text><text fill="#FFFFFF" style="font-size:9px; font-family:Arial" x="10" y="290">Mr. Error 追</text><text fill="#FFFFFF" style="font-size:4px; font-family:Arial" x="65" y="280">SPECIAL TRACKS</text><rect fill="yellow" height="2.6" width="2.6" x="65" y="283" /><text fill="#FFFFFF" style="font-size:3px; font-family:Arial" x="70" y="285.5">Over 20.0 km</text><rect fill="red" height="2.6" width="2.6" x="65" y="287" /><text fill="#FFFFFF" style="font-size:3px; font-family:Arial" x="70" y="289.5">Over 40.0 km</text><text fill="#FFFFFF" style="font-size:4px; font-family:Arial" x="120" y="280">STATISTICS</text><text fill="#FFFFFF" style="font-size:3px; font-family:Arial" x="120" y="285">Number: 11</text><text fill="#FFFFFF" style="font-size:3px; font-family:Arial" x="120" y="290">Weekly: 1.1</text><text fill="#FFFFFF" style="font-size:3px; font-family:Arial" x="141" y="285">Total: 58.1 km</text><text fill="#FFFFFF" style="font-size:3px; font-family:Arial" x="141" y="290">Avg: 5.3 km</text><text fill="#FFFFFF" style="font-size:3px; font-family:Arial" x="167" y="285">Min: 5.0 km</text><text fill="#FFFFFF" style="font-size:3px; font-family:Arial" x="167" y="290">Max: 5.5 km</text><polyline fill="none" opacity="1" points="34.2903225813061,71.79620256111957 30.225806452333927,70.67276231362484 27.129032258875668,70.448074194137 26.161290322430432,69.32463325327262 25.967741935513914,68.42588008381426 27.322580645792186,59.88770652213134 27.516129032708704,56.06798648764379 28.483870968222618,54.04577905801125 29.64516129065305,53.59639937477186 31.774193548597395,53.82108922768384 34.48387096822262,54.49515864881687 40.2903225813061,55.39391755219549 42.22580645233393,55.39391755219549 56.54838709719479,58.09019204438664 56.93548387195915,57.865502630826086 57.12903225887567,57.19143425044604 58.2903225813061,49.7766683336813 56.54838709719479,48.877907117363065 49.774193548597395,48.203835961874574 46.483870967291296,47.52976459893398 36.22580645233393,46.6310024575796 32.93548387102783,45.95693060918711 29.64516129065305,45.95693060918711 24.225806451402605,45.05816782033071 23.64516129065305,45.732239946955815 22.483870968222618,50.90011933282949 22.483870968222618,53.14701959909871 23.064516129903495,54.49515864881687 25.0,54.94453814695589 30.419354839250445,54.27046886528842 34.677419355139136,55.39391755219549 37.19354838691652,55.6186072207056 42.41935483831912,56.51736566238105 44.93548387102783,56.51736566238105 47.64516129065305,57.19143425044604 49.19354838784784,56.966744743753225 51.12903225887567,57.19143425044604 56.161290323361754,58.31488143489696 56.93548387195915,60.11239572823979 57.12903225887567,63.932108687702566 56.35483871027827,68.20119173335843 56.161290323361754,70.22338605253026 55.387096773833036,72.69495434314013 54.225806451402605,74.26776907150634 51.90322580654174,74.26776907150634 49.19354838784784,73.81839355034754 47.64516129065305,74.04308132268488 39.709677420556545,72.4702664327342 34.677419355139136,71.79620256111957 26.93548387195915,69.77400969923474 26.354838710278273,68.42588008381426 26.74193548411131,67.0777496357914 26.74193548411131,63.932108687702566 27.322580645792186,61.460530476411805 27.90322580654174,56.74205521447584 27.516129032708704,54.49515864881687 27.129032258875668,54.27046886528842 29.25806451588869,53.37170949857682 31.774193548597395,54.27046886528842 35.45161290280521,54.94453814695589 42.80645161308348,55.6186072207056 45.12903225887567,55.39391755219549 48.419354839250445,56.51736566238105 53.25806451682001,57.416123733855784 56.74193548504263,58.76426014699973 57.322580644860864,59.88770652213134 57.70967741962522,61.90990854147822 57.90322580747306,64.1567974765785 57.51612903177738,67.30243810149841 55.774193548597395,72.69495434314013 55.19354838784784,73.59370575542562 52.87096774298698,74.04308132268488 43.00000000093132,72.24557849834673 35.06451612897217,71.79620256111957 28.677419355139136,70.22338605253026 27.322580645792186,70.22338605253026 26.54838709719479,68.87525671417825 26.354838710278273,66.62837263499387 26.54838709719479,65.05555240344256 26.54838709719479,63.258042179979384 27.7096774186939,57.416123733855784 27.90322580654174,55.39391755219549 27.516129032708704,54.49515864881687 26.54838709719479,53.82108922768384 24.612903226166964,54.49515864881687 23.64516129065305,54.27046886528842 19.0,52.472949761664495 17.064516129903495,52.02356975548901 15.709677419625223,52.24825976998545 14.935483871027827,52.697639730758965 13.580645161680877,54.49515864881687 13.580645161680877,56.06798648764379 18.419354838319123,64.1567974765785 19.967741935513914,65.28024107706733 23.258064516820014,64.83086370676756 26.54838709719479,65.28024107706733 27.322580645792186,64.60617498634383 27.516129032708704,56.06798648764379 28.290322580374777,54.27046886528842 29.64516129065305,53.82108922768384 31.774193548597395,53.82108922768384 36.612903226166964,54.94453814695589 39.90322580654174,55.16922786110081 45.709677420556545,56.51736566238105 48.612903226166964,56.74205521447584 51.70967741962522,56.51736566238105 53.064516129903495,56.74205521447584 56.35483871027827,58.53957080282271 56.74193548504263,60.56177407037467 56.35483871027827,63.70741987437941 57.12903225887567,67.30243810149841 57.322580644860864,69.54932148754597 56.54838709719479,72.24557849834673 55.387096773833036,73.36901793652214 50.93548387102783,74.26776907150634 47.64516129065305,74.04308132268488 41.83870967850089,72.4702664327342 35.64516129065305,72.02089054114185 31.967741936445236,71.12213848205283 27.7096774186939,70.67276231362484 26.54838709719479,69.77400969923474 26.354838710278273,66.17899554152973 26.93548387195915,63.70741987437941 27.129032258875668,58.98894946859218 27.7096774186939,56.06798648764379 27.90322580654174,54.94453814695589 28.677419355139136,54.04577905801125 31.580645160749555,54.04577905801125 37.967741936445236,54.94453814695589 47.45161290373653,56.966744743753225 53.25806451682001,57.416123733855784 54.80645161308348,57.865502630826086 54.612903226166964,57.640813193516806 55.19354838784784,57.640813193516806 58.48387096822262,58.98894946859218 63.322580645792186,59.213638766435906 67.0,60.786463206168264 66.80645161308348,63.258042179979384 66.03225806541741,66.17899554152973 65.25806451588869,69.32463325327262 64.09677419345826,71.57151455804706 63.70967741962522,74.04308132268488 63.129032257944345,74.71714450023137 61.58064516168088,74.94183217943646 54.225806451402605,73.36901793652214 52.48387096822262,72.4702664327342 47.64516129065305,71.79620256111957 31.38709677476436,70.67276231362484 27.516129032708704,69.99869788740762 26.74193548411131,69.09994499478489 26.74193548411131,65.28024107706733 27.516129032708704,61.6852195202373 27.322580645792186,58.53957080282271 28.290322580374777,54.49515864881687 28.677419355139136,53.59639937477186 29.45161290280521,53.59639937477186 32.93548387102783,54.27046886528842 35.25806451682001,55.16922786110081 38.35483871027827,55.16922786110081 43.967741936445236,56.51736566238105 50.35483870934695,56.966744743753225 54.419354839250445,57.865502630826086 56.35483871027827,58.98894946859218 56.93548387195915,59.88770652213134 57.12903225887567,65.05555240344256 56.54838709719479,65.72961835563183 56.93548387195915,69.54932148754597 56.54838709719479,71.79620256111957 55.967741935513914,72.91964223072864 51.90322580654174,73.59370575542562 34.48387096822262,71.34682653122582 27.129032258875668,69.77400969923474 26.354838710278273,68.20119173335843 26.161290322430432,67.30243810149841 27.516129032708704,61.90990854147822 27.129032258875668,61.23584140976891 28.09677419438958,58.76426014699973 27.516129032708704,54.94453814695589 26.54838709719479,54.04577905801125 24.806451614014804,54.94453814695589 23.64516129065305,54.94453814695589 21.322580645792186,53.37170949857682 19.0,52.697639730758965 17.25806451588869,50.67542917933315 17.64516129065305,51.34949957160279 15.516129031777382,51.12480946374126 14.935483871027827,51.5741896557156 13.193548386916518,55.16922786110081 14.935483871027827,59.213638766435906 16.870967742055655,61.6852195202373 18.419354838319123,64.83086370676756 19.38709677476436,65.72961835563183 20.354838710278273,66.17899554152973 21.516129033640027,66.17899554152973 24.419354838319123,65.05555240344256 24.612903226166964,64.38148624286987 23.838709677569568,59.663017293438315 24.225806451402605,56.29267608677037 23.838709677569568,55.39391755219549 18.419354838319123,52.697639730758965 16.483870967291296,52.472949761664495 14.935483871027827,52.9223296768032 13.774193548597395,54.71984840929508 13.387096773833036,55.843296866165474 13.580645161680877,56.74205521447584 16.09677419438958,60.337084911065176 19.0,65.28024107706733 20.354838710278273,65.95430695987307 23.64516129065305,65.72961835563183 24.612903226166964,64.83086370676756 24.806451614014804,62.35928651317954 24.419354838319123,56.74205521447584 23.838709677569568,55.6186072207056 18.032258064486086,52.9223296768032 16.09677419438958,52.472949761664495 15.516129031777382,52.472949761664495 14.161290323361754,53.59639937477186 13.580645161680877,54.71984840929508 13.387096773833036,55.843296866165474 15.322580645792186,59.213638766435906 16.677419354207814,60.56177407037467 18.225806451402605,63.932108687702566 20.161290322430432,65.95430695987307 21.129032258875668,65.95430695987307 22.290322580374777,65.72961835563183 23.45161290373653,64.38148624286987 24.032258064486086,56.966744743753225 24.032258064486086,56.06798648764379 23.258064516820014,54.94453814695589 18.225806451402605,52.697639730758965 15.903225807473063,52.24825976998545 14.548387096263468,53.14701959909871 13.387096773833036,55.16922786110081 13.580645161680877,56.29267608677037 18.225806451402605,63.932108687702566 19.0,65.05555240344256 20.161290322430432,65.72961835563183 23.64516129065305,64.60617498634383 24.612903226166964,63.258042179979384 23.45161290373653,59.213638766435906 24.419354838319123,55.39391755219549 20.354838710278273,53.14701959909871 16.483870967291296,52.02356975548901 15.322580645792186,52.472949761664495 13.0,54.71984840929508 13.0,56.29267608677037 18.419354838319123,64.60617498634383 20.74193548411131,65.72961835563183 24.225806451402605,64.83086370676756 24.612903226166964,61.23584140976891 24.225806451402605,60.11239572823979 24.419354838319123,56.51736566238105 23.838709677569568,55.39391755219549 22.290322580374777,54.49515864881687 20.161290322430432,54.04577905801125 17.25806451588869,52.02356975548901 15.516129031777382,52.472949761664495 13.387096773833036,55.6186072207056 13.967741935513914,57.19143425044604 16.290322580374777,60.337084911065176 16.870967742055655,62.13459753873758 18.419354838319123,64.60617498634383 20.161290322430432,65.72961835563183 23.064516129903495,65.50492972810753 24.032258064486086,65.05555240344256 24.806451614014804,63.258042179979384 24.806451614014804,56.06798648764379 24.032258064486086,54.94453814695589 17.45161290373653,52.02356975548901" stroke="#4DD2FF" stroke-dasharray="none" stroke-linecap="round" stroke-linejoin="round" stroke-width="0.5"><title>2026-03-21 5.2km</title><desc>17800395122</desc></polyline><polyline fill="none" opacity="1" points="126.80183486267924,54.412344510667026 126.50458715623245,54.06671319855377 126.00917431246489,53.95150273712352 124.42385321157053,54.297134085092694 122.44220183463767,52.33855502551887 121.55045871576294,51.87771239306312 120.163302752655,51.64729100500699 117.58715596329421,52.45376565400511 116.69541284441948,53.2602397184819 116.20000000018626,54.06671319855377 116.00183486286551,54.7579757157946 116.00183486286551,55.7948686867021 116.20000000018626,57.29260127188172 116.10091743152589,57.63823158212472 115.60550458729267,57.868651729193516 111.14678899105638,57.7534416615963 106.48990825703368,57.868651729193516 104.21100917458534,57.63823158212472 98.86055045900866,57.868651729193516 97.37431192677468,57.7534416615963 94.69908256875351,57.868651729193516 92.71743119275197,57.52302149031311 78.05321100912988,51.992923068930395 75.37798165157437,51.1864480858203 74.48623853176832,51.07123732636683 73.99082568800077,51.64729100500699 73.0,54.52755492448341 73.09908256866038,55.21881715534255 73.39633027510718,55.44923780369572 73.59449541242793,56.25570969667751 73.89174311934039,56.486130130593665 74.88256880734116,56.486130130593665 76.07155963312835,56.140499462140724 76.36880733957514,55.910078956978396 78.35045871557668,56.140499462140724 79.34128440357745,56.486130130593665 80.92660550493747,57.7534416615963 83.40366972517222,58.67512186861131 87.26788990851492,59.36638152285013 90.43853211030364,60.51847999182064 93.21284403698519,61.785786930006 94.2036697245203,62.016206217813306 95.39266055030748,62.016206217813306 96.38348623830825,62.13141584408004 97.8697247710079,62.70746379613411 99.35596330277622,63.6291398992762 100.34678899077699,63.974768241052516 102.32844036724418,63.6291398992762 104.7064220183529,62.246625458588824 106.19266055058688,61.785786930006 108.66972477082163,62.13141584408004 109.16513761505485,62.361835060757585 109.56146789016202,62.70746379613411 109.6605504588224,63.28351145016495 109.26422018371522,64.43560586275999 109.16513761505485,66.04853603674565 110.05688073392957,67.3158366754651 110.84954128414392,68.00709096109495 111.84036697261035,68.35271794302389 113.42568807350472,68.35271794302389 115.2091743121855,67.77667291357648 116.69541284441948,67.66146387218032 120.95596330333501,68.58313587098382 121.94678899087012,68.35271794302389 122.44220183463767,67.54625481832772 122.44220183463767,66.85500024666544 123.03669724753127,65.70290833897889 123.92844036733732,63.51393042795826 124.12660550465807,62.361835060757585 125.21651376178488,58.79033184086438 126.30642201891169,56.37091991957277 126.90091743133962,54.52755492448341 126.7027522935532,53.95150273712352 126.30642201891169,53.72108177852351 124.91926605580375,54.297134085092694 124.32477064244449,54.06671319855377 122.54128440376371,52.10813373292331 121.35229357797652,51.64729100500699 120.4605504591018,51.53208029293455 119.8660550462082,52.10813373292331 119.27155963331461,52.33855502551887 118.57798165176064,52.223344385274686 117.48807339463383,52.79939746740274 117.38899082550779,53.37545025150757 116.69541284441948,54.06671319855377 116.39816513797268,54.7579757157946 116.10091743152589,55.7948686867021 116.29908256884664,56.71655051596463 116.20000000018626,57.29260127188172 115.70458715595305,57.63823158212472 113.82201834907755,57.868651729193516 110.15596330305561,57.7534416615963 101.33761467877775,58.09907182876486 97.8697247710079,57.868651729193516 95.98715596320108,58.09907182876486 94.79816513741389,58.09907182876486 93.60917431209236,57.868651729193516 90.83486238494515,56.83176069124602 89.64587155962363,56.601340329274535 87.0697247707285,55.33402748557273 85.08807339472696,54.87318609387148 77.16146788978949,51.87771239306312 75.08073394512758,51.301658833399415 74.28807339444757,51.301658833399415 74.08990825666115,51.416869569336995 73.39633027510718,53.836292263586074 73.39633027510718,54.412344510667026 73.59449541242793,55.44923780369572 74.38715596310794,56.486130130593665 75.57614678889513,56.25570969667751 75.97247706446797,55.7948686867021 77.9541284404695,56.02528921572957 79.04403669713065,56.37091991957277 79.93577981647104,57.29260127188172 81.32293578004465,58.09907182876486 85.78165137628093,59.13596168579534 88.25871559605002,60.63368977291975 90.0422018347308,60.74889954237733 93.01467889919877,61.785786930006 96.28440366964787,62.016206217813306 99.75229357834905,63.398720944998786 101.53577981609851,63.398720944998786 102.42752293590456,62.93788289336953 103.71559633081779,62.70746379613411 104.90458715613931,62.13141584408004 106.19266055058688,61.670577267650515 107.48073394503444,61.785786930006 108.76880733994767,62.13141584408004 109.36330275284126,62.361835060757585 109.75963302748278,62.82267335092183 109.16513761505485,65.47248981439043 109.56146789016202,66.85500024666544 110.45321100950241,67.77667291357648 112.73211009195074,68.46792691294104 114.9119266057387,67.89188194344752 116.20000000018626,67.89188194344752 120.4605504591018,68.69834481715225 121.74862385354936,68.58313587098382 122.24403669731691,68.23750896076672 122.54128440376371,67.77667291357648 124.32477064244449,61.44015790813137 125.81100917467847,57.29260127188172 126.80183486267924,55.44923780369572 127.0,54.64276532595977 126.90091743133962,54.297134085092694 126.4055045871064,53.836292263586074 125.01834862399846,54.18192364787683 124.72110091755167,54.06671319855377 124.0275229359977,53.60587128135376 122.83853211021051,52.10813373292331 121.55045871576294,51.64729100500699 120.4605504591018,51.416869569336995 119.5688073397614,51.87771239306312 118.08256880752742,52.223344385274686 117.38899082550779,52.45376565400511 116.59633027529344,53.72108177852351 116.59633027529344,54.412344510667026 116.29908256884664,55.10360681347083 116.39816513797268,56.25570969667751 116.20000000018626,57.0621810053708 116.00183486286551,57.40781138720922 115.60550458729267,57.63823158212472 114.81284403707832,57.63823158212472 114.3174311928451,57.868651729193516 113.72293577995151,57.868651729193516 112.33577981637791,57.63823158212472 109.56146789016202,57.9838617851492 107.48073394503444,57.7534416615963 104.31009174324572,57.9838617851492 103.02201834879816,57.868651729193516 97.67155963322148,57.868651729193516 94.69908256875351,58.09907182876486 92.71743119275197,57.868651729193516 90.0422018347308,56.601340329274535 74.88256880734116,51.416869569336995 74.38715596310794,51.416869569336995 74.08990825666115,51.64729100500699 73.29724770598114,52.9146080481587 73.19816513778642,53.95150273712352 73.29724770598114,54.7579757157946 73.89174311934039,55.910078956978396 74.28807339444757,56.140499462140724 75.17981651378796,56.25570969667751 76.26972477091476,55.7948686867021 77.6568807340227,56.02528921572957 81.62018348649144,58.32949188060593 88.06055045872927,59.59680131205823 92.51926605496556,61.785786930006 95.39266055030748,62.016206217813306 96.9779816516675,62.246625458588824 98.06788990832865,62.93788289336953 99.05871559632942,63.859558805590495 99.55412844056264,64.08997766440734 100.8422018350102,64.20518707565498 101.63486238522455,63.974768241052516 103.22018348658457,63.16830194299109 104.31009174324572,62.361835060757585 105.40000000037253,61.900996579788625 107.18348623858765,61.785786930006 108.47155963350087,61.900996579788625 109.16513761505485,62.13141584408004 109.6605504588224,62.59225422993768 109.75963302748278,63.16830194299109 109.36330275284126,64.20518707565498 109.26422018371522,65.47248981439043 110.15596330305561,67.43104575271718 110.94862385326996,68.35271794302389 112.6330275228247,68.58313587098382 116.7944954126142,68.23750896076672 121.05504587152973,68.92876267363317 121.94678899087012,68.58313587098382 122.44220183463767,68.00709096109495 124.12660550465807,62.016206217813306 125.81100917467847,58.21428186038975 126.90091743133962,54.87318609387148 126.7027522935532,54.06671319855377 126.50458715623245,53.95150273712352 125.01834862399846,54.297134085092694 124.52293578023091,54.297134085092694 123.1357798166573,52.5689762707334 121.64954128442332,51.87771239306312 119.96513761486858,51.76250170508865 118.1816513761878,52.33855502551887" stroke="#4DD2FF" stroke-dasharray="none" stroke-linecap="round" stroke-linejoin="round" stroke-width="0.5"><title>2025-05-18 5.0km</title><desc>14514095793</desc></polyline><polyline fill="none" opacity="1" points="137.37569060735404,47.10673879401293 136.87845303863287,48.49436950974632 136.77900552470237,49.30381996417418 134.59116022102535,55.31686211412307 133.8950276239775,56.82011759246234 133.19889502739534,58.90154491306748 133.2983425417915,59.94225711887702 133.79558011051267,60.63606471696403 134.39226519363,60.751699274987914 135.9834254141897,60.173526366008446 138.07182320440188,60.28916097187903 139.86187845328823,61.445506370277144 141.7513812156394,62.02367862011306 143.3425414361991,62.94875359768048 147.41988950269297,63.411290799151175 148.81215469632298,64.10509624192491 151.19889502739534,64.79890125361271 153.18784530367702,66.1865099837305 154.1823204420507,66.30214396654628 155.2762430938892,66.07087598904036 155.77348066307604,66.07087598904036 157.06629834277555,66.64904584398028 157.86187845328823,67.22721539984923 158.65745856333524,67.22721539984923 160.14917127089575,67.92101847194135 161.44198895059526,67.80538465641439 162.33701657457277,67.57411698985379 162.8342541437596,67.22721539984923 163.53038674034178,67.34284927533008 164.52486187871546,66.99594761338085 165.32044198922813,66.1865099837305 165.71823204448447,65.95524198166095 169.0994475139305,66.41777793772053 169.69613259704784,66.99594761338085 169.79558011051267,67.4584831383545 169.59668508311734,69.88679150142707 169.69613259704784,70.58059292112011 170.79005524888635,71.85256107035093 171.68508287286386,72.31509458378423 174.46961326012388,72.19946122355759 176.85635359119624,71.85256107035093 179.34254143666476,72.08382785099093 180.43646408850327,71.85256107035093 182.02762430999428,71.0431269609835 183.51933701708913,69.30862332240213 183.9171270718798,68.1522860666737 184.51381215499714,66.07087598904036 186.3038674038835,61.32987188419793 187.0,59.36408379091881 187.0,58.90154491306748 186.80110497260466,58.43900584394578 186.3038674038835,58.20773623744026 185.80662983469665,58.0921014159685 184.71270718285814,58.55464062909596 184.41436464106664,58.43900584394578 183.61878453055397,57.282657332136296 182.8232044200413,56.70448262721766 181.33149171294644,56.01067258650437 180.33701657503843,56.01067258650437 179.14364640926942,56.47321266133804 177.8508287295699,56.58884765021503 177.05524861859158,57.16702241508756 176.35911602247506,58.55464062909596 176.06077348114923,59.59535315807443 176.16022099461406,61.56114084413275 175.86187845328823,62.02367862011306 175.06629834277555,62.13931303424761 160.4475138122216,62.13931303424761 154.77900552516803,62.25494743662421 152.98895027628168,61.90804419410415 151.49723756918684,61.214237386127934 148.91160220978782,60.520430146949366 148.0165745858103,60.05789174849633 146.22651933692396,59.59535315807443 142.3480662982911,58.0921014159685 141.3535911599174,57.86083173751831 135.08839778974652,55.43249722267501 134.39226519363,55.548132319236174 133.99447513837367,55.779402476619 133.79558011051267,56.82011759246234 133.0,58.78591016388964 133.59668508311734,60.05789174849633 133.99447513837367,60.520430146949366 134.88950276235119,60.63606471696403 134.98895027628168,60.404795565409586 136.3812154699117,60.173526366008446 138.76795580098405,60.520430146949366 139.56353591149673,61.09860287641641 140.06077348068357,61.56114084413275 141.3535911599174,62.25494743662421 143.54143646452576,62.833119267597795 146.22651933692396,63.180022222339176 149.20994475157931,64.22073044045828 152.591160221491,66.1865099837305 156.56906077358872,66.30214396654628 158.06077348068357,67.11158151284326 159.45303867431358,68.26791984622832 160.5469613261521,68.49918736913241 161.14364640880376,68.49918736913241 162.73480663029477,67.80538465641439 163.72928176820278,67.22721539984923 165.22099447529763,66.07087598904036 166.71270718239248,65.83960796287283 168.50276243127882,66.1865099837305 169.0994475139305,66.41777793772053 169.79558011051267,67.11158151284326 169.397790055722,69.07735596725252 169.49723756918684,69.655524265836 170.19337016623467,71.27439390937798 171.08839778974652,72.31509458378423 172.08287292858586,72.546361268498 175.06629834277555,72.08382785099093 177.7513812156394,71.96819446678273 180.0386740337126,72.77762790559791 181.2320441994816,72.89326120598707 181.92817679559812,72.66199459321797 182.42541436478496,72.31509458378423 185.01104972371832,64.10509624192491 186.00552486255765,62.02367862011306 185.9060773481615,61.79240975587163 187.0,58.90154491306748 186.90055248700082,58.32337104668841 186.3038674038835,57.97646658285521 184.71270718285814,58.43900584394578 183.51933701708913,57.05138748604804 182.92265193443745,56.58884765021503 182.02762430999428,56.12630762311164 180.33701657503843,55.89503753755707 178.24861878482625,56.70448262721766 177.7513812156394,57.05138748604804 176.9558011055924,57.97646658285521 176.35911602247506,59.479718480375595 176.35911602247506,60.28916097187903 176.6574585638009,60.751699274987914 176.6574585638009,61.09860287641641 176.45856353640556,61.79240975587163 175.96132596675307,62.13931303424761 174.27071823226288,61.90804419410415 169.00000000046566,62.13931303424761 165.41988950315863,62.37058182654437 159.05524861905724,62.37058182654437 154.77900552516803,62.717484925175086 148.71270718239248,60.404795565409586 146.9226519339718,59.479718480375595 146.02762430952862,59.36408379091881 142.3480662982911,57.86083173751831 140.4585635359399,57.39829223707784 138.76795580098405,56.70448262721766 135.48618784546852,55.548132319236174 134.49171270709485,55.663767404155806 133.99447513837367,56.24194264772814 133.2983425417915,57.513927130261436 133.19889502739534,58.670275402255356 133.2983425417915,59.24844908947125 133.59668508311734,59.59535315807443 133.79558011051267,60.404795565409586 134.193370165769,60.63606471696403 134.88950276235119,60.751699274987914 135.68508287286386,60.28916097187903 136.1823204420507,60.173526366008446 138.76795580098405,60.520430146949366 140.16022099461406,61.676775306113996 141.55248618824407,62.25494743662421 143.3425414361991,62.833119267597795 144.9337016576901,62.94875359768048 148.21546961320564,63.5269250695128" stroke="#4DD2FF" stroke-dasharray="none" stroke-linecap="round" stroke-linejoin="round" stroke-width="0.5"><title>2025-05-10 5.0km</title><desc>14430932480</desc></polyline><polyline fill="none" opacity="1" points="67.0,115.9897563647246 66.70437956228852,115.41685739182867 66.21167883230373,115.07311786571518 65.62043795594946,115.07311786571518 64.53649635054171,115.41685739182867 62.86131386877969,113.81273868959397 60.693430656567216,112.78151829575654 60.20072992704809,112.78151829575654 59.018248175270855,113.12525853374973 57.73722627712414,113.23983858944848 56.94890510896221,113.92731867416296 56.1605839417316,115.531437210273 56.1605839417316,118.28134929016232 56.062043795362115,118.5105083216913 55.569343065377325,118.73966730583925 52.51459854003042,118.73966730583925 47.489051094744354,118.96882624248974 46.70072992704809,118.85424677992705 42.46350364945829,119.19798513152637 35.171532846521586,118.96882624248974 29.94890510942787,117.93761065404397 24.72627737186849,116.10433612391353 22.854014598298818,115.7605968110729 22.06569343013689,115.30227756150998 18.91240875888616,114.50021841796115 18.222627736628056,113.81273868959397 15.562043795362115,112.66693819244392 14.675182481762022,111.52113650913816 14.18248175131157,111.29197602998465 13.985401459503919,111.52113650913816 13.492700729519129,114.3856384929968 13.0,115.7605968110729 13.098540145903826,116.10433612391353 13.492700729519129,116.44807532953564 13.591240875888616,116.90639410447329 13.985401459503919,117.25013306108303 14.379562043584883,117.36471268942114 16.744525547139347,116.90639410447329 17.63138686073944,117.02097376878373 18.715328467078507,117.36471268942114 20.58759124064818,118.85424677992705 21.868613138329238,119.54172337625641 26.20437956182286,120.11462021362968 27.583941605873406,120.91667528729886 28.766423357650638,121.26041299803182 30.540145985316485,121.4895714125596 31.722627737093717,122.17704637115821 33.59489051066339,122.86452090286184 36.649635036010295,122.86452090286184 39.21167883183807,124.4686264822958 40.886861314065754,124.92694193508942 42.75912408763543,124.58320536336396 46.30656934250146,122.63536277320236 47.98175182426348,122.74994184379466 49.164233576506376,123.0936789852567 49.656934306491166,123.55199500743765 49.75547445239499,124.23946868465282 48.967153284698725,125.84357227094006 48.967153284698725,126.41646584507544 50.34671532828361,128.13514478865545 51.03649635007605,128.70803717616946 51.82481751823798,129.0517724667443 53.20437956228852,128.93719404842705 55.076642335392535,128.59345872234553 57.835766423493624,128.70803717616946 59.31386861298233,129.2809292676393 60.79197080247104,129.5100860206876 61.77737226244062,129.0517724667443 62.36861313832924,128.13514478865545 62.86131386877969,126.76020184741355 63.05839416058734,125.84357227094006 64.83211678778753,121.4895714125596 65.22627737233415,119.77088214666583 65.81751824822277,118.62508781987708 66.50729926954955,116.10433612391353 66.40875912411138,115.531437210273 66.01459854003042,115.07311786571518 66.01459854003042,114.8439581223065 65.0291970805265,114.04189864662476 64.93065693415701,113.46899866487365 64.3394160582684,112.78151829575654 63.35401459876448,112.20861766138114 61.08759124111384,111.52113650913816 59.41240875935182,110.60449430777226 58.821167883463204,110.4899139793124 58.525547445286065,110.60449430777226 58.22992700710893,111.17739577242173 58.42700729891658,111.97945732495282 58.1313868612051,112.78151829575654 56.75182481715456,114.15647860709578 56.1605839417316,115.30227756150998 56.1605839417316,118.0521902111359 56.062043795362115,118.39592881174758 55.569343065377325,118.73966730583925 49.164233576506376,118.96882624248974 45.41970802890137,119.31256455846597 39.605839415919036,119.08340569282882 37.14233576646075,119.42714397329837 33.003649634774774,118.62508781987708 29.259124087169766,117.36471268942114 28.372262773569673,116.79181442852132 25.416058394126594,115.7605968110729 23.740875912364572,114.95853799988981 20.981751824729145,114.3856384929968 18.61678832117468,113.23983858944848 16.251824817154557,112.66693819244392 14.872262773104012,112.20861766138114 14.18248175131157,112.09403749904595 13.788321167696267,112.3231978120748 13.788321167696267,113.01067846617661 13.394160583615303,114.27105855580885 13.19708029134199,114.61479833140038 13.19708029134199,115.18769771954976 13.68978102132678,116.90639410447329 14.18248175131157,117.36471268942114 14.872262773104012,117.36471268942114 16.350364963524044,116.6772347408114 18.715328467078507,117.25013306108303 20.39051094884053,118.62508781987708 22.854014598298818,119.54172337625641 26.894160583615303,120.0000408696942 29.850364963524044,121.03125453589018 31.13138686073944,121.83330894517712 33.20072992704809,122.63536277320236 36.84671532828361,122.74994184379466 37.53649635007605,123.0936789852567 39.408759124111384,124.81236308952793 40.78832116769627,125.15609959024005 42.069343065842986,125.04152076842729 45.12408759118989,123.43741601961665 47.78467153245583,122.86452090286184 48.671532846521586,122.97909994982183 49.45985401421785,123.55199500743765 49.656934306491166,123.89573189965449 49.26277372287586,125.2706783998292 49.36131386831403,126.6456231919583 49.85401459829882,127.44767353159841 51.03649635007605,128.47888025676366 51.72627737233415,128.70803717616946 53.401459854096174,128.82261561823543 55.076642335392535,128.59345872234553 57.343065693508834,128.70803717616946 58.72262773709372,128.93719404842705 60.39781021885574,129.5100860206876 61.77737226244062,129.5100860206876 62.17153284698725,129.16635087318718 62.56569343013689,128.36430177942384 63.156934306025505,126.18730845116079 64.24087591236457,123.55199500743765 65.32481751823798,120.0000408696942 65.81751824822277,119.08340569282882 66.40875912411138,117.13555342075415 66.40875912411138,115.9897563647246 65.62043795594946,115.41685739182867 64.04379562009126,115.07311786571518 63.452554744202644,114.3856384929968 62.17153284698725,113.23983858944848 61.08759124111384,112.78151829575654 60.1021897806786,112.66693819244392 59.41240875935182,113.23983858944848 58.032846715301275,113.23983858944848 57.343065693508834,113.58357868506573 56.65328467125073,114.3856384929968 56.062043795362115,115.30227756150998 55.86496350355446,116.79181442852132 56.062043795362115,118.0521902111359 55.66788321174681,118.5105083216913 50.149635036475956,118.73966730583925 47.88321167882532,118.73966730583925 44.33576642302796,118.96882624248974 39.605839415919036,118.85424677992705 35.36861313832924,118.85424677992705 33.39781021839008,118.62508781987708 28.273722627665848,116.56265504099429 25.21897810185328,116.10433612391353 23.445255474653095,115.64601701661013 22.952554744202644,115.18769771954976 21.5729927001521,115.07311786571518 21.178832116536796,114.8439581223065 20.88321167882532,114.27105855580885 20.39051094884053,113.6981586930342 19.996350364759564,113.46899866487365 18.91240875888616,113.46899866487365 17.434306568931788,112.78151829575654 15.364963503088802,112.43777795089409 15.069343065377325,112.09403749904595 14.872262773104012,111.29197602998465 14.478102189488709,111.17739577242173 14.083941605407745,111.86487713851966 13.788321167696267,113.12525853374973 13.788321167696267,114.04189864662476 13.985401459503919,114.61479833140038 13.788321167696267,115.18769771954976 13.788321167696267,115.7605968110729 14.083941605407745,117.13555342075415 14.675182481762022,117.36471268942114 16.350364963524044,116.79181442852132 17.532846714835614,116.79181442852132 18.518248174805194,117.25013306108303 20.686131386552006,118.85424677992705 22.755474452394992,119.54172337625641 24.233576642349362,119.77088214666583 25.317518247757107,119.65630276710726 27.18978102179244,120.22919954534154 29.456204378977418,121.03125453589018 31.525547445286065,122.17704637115821 32.60948905069381,122.52078369050287 33.89051094884053,122.63536277320236 36.25547445239499,122.63536277320236 38.0291970805265,123.55199500743765 40.0,125.38525719800964 40.68978102132678,125.38525719800964 41.773722627200186,125.04152076842729 43.94160583941266,123.55199500743765 45.12408759118989,123.0936789852567 46.89781021885574,122.63536277320236 48.77007299242541,122.97909994982183 49.26277372287586,123.20825800881721 49.952554744202644,123.89573189965449 49.26277372287586,126.18730845116079 49.75547445239499,127.3330949471565 50.445255474187434,127.67683066474274 51.72627737233415,129.0517724667443 52.51459854003042,129.39550765010063 53.5,129.39550765010063 54.97810218995437,128.82261561823543 56.25912408763543,128.70803717616946 58.525547445286065,128.93719404842705 60.89051094837487,129.5100860206876 62.17153284698725,129.16635087318718 62.27007299242541,128.93719404842705 62.36861313832924,128.13514478865545 63.55109489057213,125.84357227094006 63.84671532828361,124.4686264822958 64.24087591236457,123.78115294722375 65.22627737233415,120.0000408696942 66.1131386863999,118.0521902111359 66.70437956228852,115.7605968110729 66.40875912411138,115.18769771954976 65.71897810185328,115.07311786571518 65.0291970805265,115.18769771954976 64.04379562009126,115.07311786571518 62.467153284698725,113.46899866487365 61.08759124111384,112.78151829575654 60.29927007295191,112.66693819244392 58.91970802936703,113.12525853374973 58.032846715301275,113.12525853374973 56.850364963524044,114.04189864662476 56.1605839417316,115.531437210273 56.1605839417316,116.44807532953564 55.96350364945829,117.47929230623413 56.1605839417316,117.82303108496126 56.062043795362115,118.5105083216913 55.4708029194735,118.85424677992705 54.28832116769627,118.73966730583925 53.401459854096174,118.96882624248974" stroke="#4DD2FF" stroke-dasharray="none" stroke-linecap="round" stroke-linejoin="round" stroke-width="0.5"><title>2025-04-20 5.0km</title><desc>14232395834</desc></polyline><polyline fill="none" opacity="1" points="77.77348066261038,111.84780199383385 76.0828729281202,111.38526172656566 74.98895027581602,110.34454542584717 74.59116022102535,110.46018061833456 74.59116022102535,110.691450967337 73.79558011051267,111.73216694488656 73.0,114.04486564465333 73.69613259658217,115.66375188448 74.09392265183851,116.01065577322152 74.98895027581602,116.01065577322152 76.0828729281202,115.66375188448 76.97790055256337,115.66375188448 77.97237569047138,115.77938652620651 78.86740331491455,116.24192497273907 80.06077348068357,117.28263577760663 82.44751381175593,118.43897997832391 84.53591160243377,119.13278592389543 85.82872928166762,119.36405447672587 87.41988950269297,120.17349403421395 89.60773480683565,120.28912820888218 92.29281767923385,121.56110333930701 93.48618784500286,121.90800539636984 96.17127071833238,121.79237138899043 97.36464088410139,122.13927337387577 99.35359115991741,123.17997868254315 101.24309392273426,123.29561254556756 102.63535911589861,122.83307702059392 103.62983425427228,122.71744310983922 105.02209944743663,122.02363939094357 106.61325966846198,121.79237138899043 107.60773480636999,121.6767373700859 109.0,122.02363939094357 109.39779005525634,122.25490734505001 109.69613259658217,122.94871092005633 109.39779005525634,125.49265367304906 109.59668508311734,126.53335585608147 110.59116022102535,127.689690477564 112.2817679559812,128.1522239909973 114.46961325965822,127.920957258204 115.36464088410139,127.574057069025 116.65745856333524,127.45842364896089 118.34806629829109,127.689690477564 120.73480662982911,128.61475731281098 121.62983425427228,128.61475731281098 122.22651933692396,128.38349067571107 122.52486187871546,128.1522239909973 122.8232044200413,127.11152331659105 123.32044198876247,125.03011905809399 123.32044198876247,124.33631677634548 124.71270718239248,120.40476237179246 125.90607734816149,118.09207684383728 126.9005524860695,114.85430905793328 127.0,114.16050045401789 126.70165745867416,113.8135959901847 126.30386740341783,113.6979611448478 124.71270718239248,114.04486564465333 123.41988950315863,112.65724699979182 122.32596685085446,111.84780199383385 121.13259668508545,111.38526172656566 120.33701657457277,111.38526172656566 119.04419889487326,111.96343703044113 117.85082872956991,112.07907205505762 117.15469613252208,112.65724699979182 116.25966850854456,114.27613525127526 116.16022099461406,115.4324825652875 116.3591160220094,117.05136679345742 116.16022099461406,117.39827025146224 115.66298342542723,117.51390471332707 107.30939226504415,117.74517360143363 105.22099447529763,117.51390471332707 94.87845303816721,117.97644244157709 91.79558011051267,117.28263577760663 87.22099447483197,115.4324825652875 84.63535911589861,114.62303957121912 81.05524861859158,113.00415182241704 75.78453038679436,111.2696266300045 75.38674033153802,111.03835640090983 75.18784530414268,110.57581579859834 74.79005524842069,110.228910221369 74.39226519316435,110.92272126825992 73.79558011051267,112.31034206866752 73.29834254086018,114.39177003630903 73.49723756918684,115.2012131982483 74.19337016530335,116.01065577322152 75.18784530414268,116.01065577322152 76.58011049730703,115.66375188448 78.27071823226288,116.01065577322152 79.96132596675307,116.82009776157793 81.75138121517375,118.20771123387385 85.03314917115495,119.13278592389543 87.32044198876247,119.24842020636424 89.80662983423099,119.82659143861383 92.88950276235119,121.56110333930701 93.68508287286386,121.6767373700859 95.3756906078197,121.56110333930701 96.37016574572772,121.6767373700859 99.45303867384791,123.64251406362746 101.04419889487326,123.75814787915442 101.8397790058516,123.52688023634255 104.4254143643193,121.90800539636984 105.7182320440188,121.56110333930701 109.09944751346484,122.02363939094357 109.79558011051267,122.83307702059392 109.89502762397751,123.29561254556756 109.49723756918684,124.79885167872999 109.69613259658217,125.95518809615169 110.09392265230417,126.6489893719554 110.59116022102535,127.34279021702241 111.38674033153802,127.80532387411222 112.58011049730703,127.920957258204 116.65745856333524,127.45842364896089 118.74585635354742,127.689690477564 121.43093922641128,127.11152331659105 122.22651933692396,126.53335585608147 123.32044198876247,124.68321797123645 124.31491712713614,121.79237138899043 124.81215469632298,120.98293300485238 126.40331491688266,116.47319412429351 126.70165745867416,115.4324825652875 127.0,114.62303957121912 127.0,114.04486564465333 126.70165745867416,113.6979611448478 126.40331491688266,113.58232628775295 124.71270718239248,114.04486564465333 124.01657458534464,113.46669141878374 122.8232044200413,112.19470706768334 122.02762430952862,111.73216694488656 120.43646408803761,111.38526172656566 119.14364640880376,111.96343703044113 118.14917127043009,112.07907205505762 117.55248618731275,112.42597705754451 116.85635359119624,113.35105653759092 116.3591160220094,114.27613525127526 116.25966850854456,114.73867432039697 116.16022099461406,116.01065577322152 116.3591160220094,117.167001291411 115.86187845282257,117.6295391630847 113.77348066261038,117.51390471332707 109.69613259658217,117.6295391630847 104.02762430952862,117.51390471332707 101.93922651931643,117.74517360143363 95.87292817700654,117.74517360143363 92.19337016576901,117.39827025146224 90.20441988948733,116.70446322788484 87.22099447483197,115.4324825652875 83.6408839779906,114.16050045401789 81.35359115991741,113.11978673946578 76.18232044158503,111.38526172656566 75.28729281760752,111.03835640090983 74.88950276235119,110.34454542584717 74.19337016530335,110.57581579859834 73.69613259658217,111.73216694488656 73.198895027861,114.27613525127526 73.79558011051267,116.12629037920851 74.59116022102535,116.24192497273907 75.8839779002592,115.89502115582582 76.0828729281202,115.54811723076273 77.07734806602821,115.54811723076273 77.3756906078197,115.89502115582582 79.26519337017089,116.35755955427885 79.86187845282257,117.05136679345742 81.85082872910425,117.97644244157709 86.12707182299346,119.01715162955225 87.61878453055397,120.05785984778777 88.81215469585732,120.5203965222463 90.40331491688266,120.75166478741448 92.79005524842069,121.90800539636984 93.88397790072486,122.02363939094357 95.07734806602821,121.6767373700859 96.17127071833238,121.90800539636984 99.85082872956991,123.98941547388677 102.13812154671177,123.64251406362746 103.62983425427228,122.94871092005633 105.51933701662347,121.56110333930701 106.61325966846198,121.44546929630451 108.50276243081316,121.79237138899043 109.79558011051267,122.60180918662809 109.79558011051267,123.0643448070623 109.29834254132584,124.79885167872999 109.29834254132584,125.37702003715094 109.59668508311734,126.41772232833318 110.29281767969951,127.34279021702241 111.38674033153802,128.03659063077066 115.16574585670605,128.1522239909973 116.3591160220094,128.61475731281098 118.54696132615209,129.7710897787474 121.82872928166762,128.49912400043104 122.52486187871546,127.920957258204 123.02209944743663,126.07082167221233 123.9171270718798,123.87378168257419 124.51381215499714,121.6767373700859" stroke="#4DD2FF" stroke-dasharray="none" stroke-linecap="round" stroke-linejoin="round" stroke-width="0.5"><title>2025-02-08 5.5km</title><desc>13569967175</desc></polyline><polyline fill="none" opacity="1" points="163.8571428572759,108.30509332078509 162.49005424929783,107.73736873979215 160.244122965727,107.05609885440208 158.77938517183065,106.94255383254495 157.99819168215618,106.94255383254495 156.6311030741781,106.37482854607515 155.55696202535182,106.48837362683844 154.58047016290948,106.26128345332108 151.84629294788465,105.12583188095596 150.5768535262905,104.89874142524786 149.2097649187781,104.21746977651492 148.23327305633575,103.99037913256325 147.6473779384978,103.53619770391379 146.08499095821753,103.19556150876451 145.98734177229926,103.08201608678792 144.91320072347298,102.51428880158346 141.78842676291242,101.60592453333084 141.20253164554015,101.60592453333084 139.64014466572553,102.85492520814296 139.2495479201898,103.42265231721103 139.3471971070394,104.10392446035985 139.2495479201898,104.6716509226244 138.0777576849796,105.35292228928301 136.90596745023504,106.82900879858062 136.80831826431677,108.64572792837862 136.41772151878104,109.7811758556636 136.22242314647883,110.80307798483409 135.8318264009431,111.82497916172724 135.8318264009431,113.07396819547284 135.53887884272262,113.6416900131153 135.05063291126862,114.09586725581903 133.87884267652407,115.68548612308223 133.29294755868614,118.97826073132455 133.488245931454,119.65952320897486 134.9529837248847,121.02204689383507 137.2965641953051,120.45432889764197 138.8589511755854,120.79495973081794 139.3471971070394,121.24913401016966 139.93309222441167,121.93039507674985 141.78842676291242,123.29291593970265 143.64376130187884,124.08771899470594 145.88969258591533,124.31480547611136 147.06148282112554,124.768978297594 148.13562386948615,125.56378028262407 149.99095840891823,126.47212470287923 150.28390596760437,126.47212470287923 151.0650994577445,127.0398395829834 152.43218806525692,127.72109705174807 152.334538878873,127.49401127616875 152.52983725164086,127.49401127616875 155.4593128389679,127.2669254533248 156.92405063286424,128.06172562751453 158.77938517183065,128.28881128586363 160.244122965727,129.4242388715502 161.22061482816935,129.764866918209 162.58770343568176,129.53778156568296 163.56419529858977,128.28881128586363 164.93128390610218,127.2669254533248 165.41952983709052,127.15338252391666 166.2983725136146,126.92629663052503 168.54430379765108,127.2669254533248 169.52079566009343,128.17526846239343 169.9113924051635,128.85652522556484 169.61844484647736,129.8784095768351 169.13019891502336,130.33258009387646 169.13019891502336,131.01383551675826 169.7160940328613,132.0357178573031 170.30198915023357,132.7169722217368 172.0596745023504,133.62531071621925 173.4267631098628,133.62531071621925 175.7703435807489,132.9440569159342 177.8209764920175,133.2846838691039 179.38336347183213,133.96593745751306 179.57866184413433,133.85239522217307 180.555153707508,133.85239522217307 181.23869801079854,133.2846838691039 181.53164556948468,132.8305145748891 181.53164556948468,132.4898874805076 182.99638336338103,130.6732078579953 183.58227848121896,129.4242388715502 184.16817359859124,127.2669254533248 184.94936708873138,125.33669406024273 184.94936708873138,124.88252147368621 185.92585895117372,123.17937259934843 186.70705244131386,120.56787252030335 186.70705244131386,120.00015428918414 186.02350813755766,118.29699783050455 185.53526220610365,117.50219057803042 184.94936708873138,116.82092676032335 183.19168173568323,115.91257434454747 182.01989150093868,115.68548612308223 177.62567811924964,113.75523434160277 176.06329113943502,113.52814567321911 175.7703435807489,113.07396819547284 171.18083182629198,110.91662260715384 169.42314647417516,110.80307798483409 167.4701627488248,109.55408636422362 164.63833634741604,108.41863820177969 161.12296564225107,107.73736873979215 157.99819168215618,106.37482854607515 157.41229656431824,106.26128345332108 156.24050632910803,106.6019186959602 153.7016274863854,106.03419323277194 152.82278480986133,105.69355781411286 149.30741410469636,103.64974307850935 146.18264014460146,103.19556150876451 145.30379746854305,102.74137975124177 141.397830018308,101.60592453333084 139.64014466572553,102.40074330905918 139.15189873427153,102.85492520814296 139.2495479201898,103.19556150876451 138.76130198920146,104.21746977651492 138.66365280281752,105.69355781411286 137.68716094037518,106.37482854607515 137.2965641953051,107.05609885440208 136.90596745023504,108.41863820177969 136.61301989201456,108.64572792837862 136.3200723323971,109.21345203905366 136.12477396056056,110.1218100048136 135.53887884272262,110.46244404732715 134.9529837248847,111.3708009783877 134.9529837248847,111.82497916172724 135.44122965680435,113.07396819547284 134.75768535304815,114.55004431027919 134.56238698028028,115.45839785470162 134.07414104882628,115.91257434454747 133.87884267652407,118.29699783050455 133.39059674507007,118.8647169440519 133.58589511737227,120.1136979587609 134.07414104882628,121.24913401016966 135.2459312840365,121.93039507674985 135.8318264009431,122.61165571969468 137.19891500892118,123.29291593970265 140.81193490047008,125.79086645809002 141.49547920422629,126.13149563362822 143.44846292957664,126.35858169128187 147.06148282112554,127.2669254533248 148.62386980094016,127.72109705174807 150.28390596760437,128.62943968502805 150.96745027136058,128.5158968968317 151.84629294788465,128.97006797848735 153.01808318309486,128.97006797848735 153.31103074131534,129.31069616577588 153.79927667276934,129.31069616577588 154.38517179060727,129.65132424759213 155.7522603981197,129.65132424759213 156.92405063286424,130.10549485881347 158.2911392408423,130.33258009387646 159.65822784835473,131.35446306923404 161.22061482816935,131.35446306923404 161.80650994554162,131.80863297486212 162.19710669107735,132.4898874805076 163.27124773990363,132.7169722217368 163.95479204365984,133.1711415629834 168.25135623896495,134.4201062816428 169.03254972863942,134.4201062816428 169.9113924051635,135.21490127081051 169.9113924051635,135.55552751827054 170.98553345398977,135.78261162468698 171.66907775774598,136.23677969619166 172.25497287511826,136.00969568395521 174.40325497323647,136.57740562630352 175.28209764929488,137.25865716929547 176.6491862568073,137.59928278194275 178.21157323662192,138.39407546666916 179.67631103098392,138.0534501009388 180.35985533474013,137.37219905201346 180.4575045206584,136.91803145047743 181.04339963849634,136.1232376957778 181.04339963849634,135.78261162468698 181.72694394225255,135.21490127081051 181.72694394225255,134.4201062816428 182.99638336338103,132.7169722217368 183.58227848121896,130.55966528179124 184.65641953004524,127.38046837050933 185.14466546103358,125.56378028262407 185.82820976525545,124.20126224134583 186.41410488262773,121.70330810162704 186.90235081361607,120.79495973081794 187.0,119.77306691394188 186.41410488262773,118.52408551145345 185.82820976525545,118.29699783050455 185.24231464741752,117.38864663790446 185.0470162751153,116.70738274930045 181.72694394225255,115.11776536365505 181.23869801079854,114.77713276690338 180.94575045164675,114.3229558065068 179.7739602169022,113.75523434160277 174.2079566004686,112.61979052959941 173.5244122967124,112.2791571568232 172.64556962018833,111.59789009392262 170.88788426760584,111.25725640321616 167.27486437605694,109.7811758556636 165.90777576854452,108.9863624300342 162.8806509943679,107.73736873979215 161.90415913239121,107.62382378836628 161.22061482816935,107.16964386485051 159.16998191690072,106.71546375320759 155.84990958403796,106.26128345332108 152.23688969248906,105.35292228928301 150.18625678122044,105.23937709094025 148.7215189873241,104.44456037285272 146.76853526197374,103.99037913256325 146.2802893309854,103.64974307850935 146.18264014460146,103.30910691909958 141.69077757699415,101.7194701078115 140.909584086854,101.83301567099988 140.4213381554,102.17365228908602 138.8589511755854,102.85492520814296 138.3707052441314,103.53619770391379 137.49186256807297,103.99037913256325 137.49186256807297,104.55810565361753 138.0777576849796,104.89874142524786 138.0777576849796,105.80710296565667 137.88245931267738,106.48837362683844 137.49186256807297,106.71546375320759 137.2965641953051,107.16964386485051 137.39421338168904,107.85091367957648 137.39421338168904,108.64572792837862 136.80831826431677,109.7811758556636 136.12477396056056,110.68953335098922 135.6365280286409,112.05206818273291 135.7341772154905,112.96042379643768 134.85533453896642,114.77713276690338 134.26943942112848,116.02611843775958 133.39059674507007,116.82092676032335 133.0,117.61573450674769 133.0,118.41054167691618 133.29294755868614,119.54597949190065 133.97649186244234,120.79495973081794 134.85533453896642,121.13559045805596 137.1012658230029,121.02204689383507 139.5424954793416,121.70330810162704 142.08137432206422,123.17937259934843 144.2296564192511,123.63354589126538 145.1084990957752,124.20126224134583 145.59674502676353,124.08771899470594 145.88969258591533,124.42834869923536 146.4755877032876,124.42834869923536 147.25678119342774,124.99606463790406 148.13562386948615,124.99606463790406" stroke="#4DD2FF" stroke-dasharray="none" stroke-linecap="round" stroke-linejoin="round" stroke-width="0.5"><title>2024-11-16 5.2km</title><desc>12913950085</desc></polyline><polyline fill="none" opacity="1" points="61.81521739112213,188.0761884325184 62.79347826074809,186.3699658048572 64.35869565233588,182.38876936677843 64.75,180.68253790505696 66.2173913042061,177.61131459474564 67.0,175.22257941646967 66.60869565187022,174.65383217984345 66.2173913042061,174.54008269729093 64.06521739112213,174.995080557419 63.478260869625956,174.8813311101403 63.08695652149618,174.54008269729093 62.89130434766412,173.40258722309954 62.40217391261831,172.83383904374205 60.05434782616794,172.15134084026795 59.271739130374044,172.26509057043586 57.41304347803816,173.0613383507589 57.41304347803816,173.40258722309954 55.84782608691603,175.79132635879796 55.74999999953434,177.49756541813258 55.84782608691603,178.06631118257064 55.065217391587794,178.6350566522451 42.64130434766412,178.06631118257064 41.76086956495419,178.18006030004472 34.130434782709926,178.293809405528 31.0,177.15631781844422 30.119565217290074,176.47382230078802 29.04347826074809,174.995080557419 27.576086956076324,174.42633320274763 26.5,174.42633320274763 26.010869565419853,174.19883417885285 25.326086956076324,173.85758555401117 24.25,172.83383904374205 23.076086956541985,173.0613383507589 22.19565217383206,172.72008937282953 22.09782608691603,173.0613383507589 21.217391304206103,172.94758870301303 19.65217391308397,172.26509057043586 19.358695652335882,171.6963418024825 19.358695652335882,171.3550924002193 18.771739130374044,171.01384289213456 17.98913043504581,170.9000930323964 17.5,171.12759274011478 16.228260869625956,171.01384289213456 15.25,170.6725932782283 14.565217391122133,170.10384368523955 14.467391304671764,170.2175936276326 13.782608695793897,172.4925899951486 13.391304347664118,174.19883417885285 13.391304347664118,175.67757699417416 13.782608695793897,176.928819359513 14.369565217290074,177.15631781844422 15.05434782570228,177.27006703033112 15.934782608412206,176.928819359513 17.01086956495419,177.04256859468296 18.771739130374044,177.7250637592515 20.23913043504581,178.86255475773942 22.880434782244265,180.11379349557683 26.89130434812978,180.341291294666 30.119565217290074,182.27502068527974 32.271739130374044,182.957512598834 33.64130434766412,183.298758396646 35.10869565187022,182.73001534107607 35.89130434766412,182.8437639757758 36.576086956541985,183.0712612096686 36.673913043458015,183.4125069718575 38.23913043458015,184.32249515340663 39.51086956495419,184.20874667179305 41.076086956541985,184.54999208077788 43.228260869160295,183.9812496737577 45.08695652149618,182.73001534107607 46.06521739112213,182.61626669485122 48.2173913042061,182.73001534107607 49.19565217383206,183.4125069718575 49.58695652196184,183.9812496737577 49.48913043504581,184.89123738370836 49.19565217383206,185.3462309561437 49.48913043504581,186.82495876494795 49.29347826074809,187.39369969966356 49.48913043504581,187.96244033996481 50.76086956495419,188.75867674173787 52.423913043458015,189.32741667551454 55.65217391261831,188.18993651366327 57.41304347803816,188.41743264032993 58.978260869160295,189.2136687124148 60.44565217383206,189.2136687124148 62.40217391261831,188.41743264032993 62.5,187.7349441194674 63.18478260887787,186.25621753570158 64.26086956541985,182.50251803710125 65.72826086962596,179.65879775572103 66.60869565187022,176.8150701127015 66.90217391261831,175.67757699417416 66.70652173925191,174.995080557419 66.2173913042061,174.65383217984345 64.06521739112213,174.76758165098727 62.10869565187022,173.0613383507589 61.032608695328236,172.72008937282953 60.25,172.72008937282953 57.51086956495419,172.94758870301303 56.630434782244265,173.51633682334796 55.74999999953434,174.8813311101403 55.55434782616794,175.79132635879796 55.55434782616794,177.7250637592515 55.16304347803816,178.293809405528 54.869565217290074,178.52130758180283 44.01086956495419,178.293809405528 38.826086956541985,178.52130758180283 34.619565217290074,178.293809405528 32.66304347803816,177.95256205345504 31.684782608412206,176.8150701127015 30.021739130374044,176.24632370041218 29.728260869625956,176.13257438270375 29.434782608877867,175.56382761721034 28.260869565419853,174.995080557419 26.989130434580147,174.995080557419 25.815217391122133,174.42633320274763 22.391304347664118,173.63008641195484 19.94565217383206,172.26509057043586 16.815217391587794,171.3550924002193 15.836956521961838,170.6725932782283 14.956521739251912,170.6725932782283 14.565217391122133,170.9000930323964 14.271739130374044,172.94758870301303 13.586956521961838,174.995080557419 13.978260869625956,176.13257438270375 14.565217391122133,176.8150701127015 16.619565217290074,177.04256859468296 19.065217391587794,178.18006030004472 20.532608695793897,178.40755849971902 21.90217391308397,179.31755082739983 23.858695652335882,179.7725467082346 24.739130434580147,179.7725467082346 26.10869565187022,180.22754240094218 27.478260869625956,180.341291294666 28.163043478038162,180.45504017651547 28.65217391261831,180.91003558645025 31.684782608412206,182.50251803710125 32.95652173925191,182.61626669485122 33.54347826074809,182.50251803710125 34.91304347803816,182.61626669485122 37.26086956495419,183.298758396646 38.434782608412206,184.20874667179305 39.90217391308397,184.89123738370836 43.228260869160295,183.86750115675386 45.576086956541985,182.73001534107607 47.826086956541985,182.8437639757758 49.48913043504581,183.298758396646 49.782608695328236,183.52625553600956 49.880434782244265,183.75375262845773 49.39130434766412,185.68747601169161 49.58695652196184,187.62119599129073 49.978260869625956,188.3036845830502 50.56521739112213,188.87242475210223 51.934782608412206,189.55491256644018 52.91304347803816,189.55491256644018 55.65217391261831,188.41743264032993 57.41304347803816,188.18993651366327 57.99999999953434,188.3036845830502 58.39130434766412,188.98617275094148 58.978260869160295,189.2136687124148 60.05434782616794,189.2136687124148 60.83695652149618,189.44116462673992 61.423913043458015,189.2136687124148 62.89130434766412,186.71121054282412 63.380434782709926,185.45997931994498 64.06521739112213,183.298758396646 64.84782608691603,181.59252834774088 65.33695652149618,179.54504879144952 66.02173913037404,178.52130758180283 67.0,174.76758165098727 66.70652173925191,174.3125836966792 66.2173913042061,174.19883417885285 64.75,174.65383217984345 64.35869565233588,174.54008269729093 63.771739130374044,174.3125836966792 63.08695652149618,173.51633682334796 61.7173913042061,172.4925899951486 59.56521739112213,172.4925899951486 58.880434782244265,172.60633969004266 56.43478260887787,173.85758555401117 56.33695652149618,174.42633320274763 55.45652173878625,175.79132635879796 55.45652173878625,177.49756541813258 55.26086956495419,178.06631118257064 54.380434782244265,178.6350566522451 49.48913043504581,178.6350566522451 46.35869565233588,178.18006030004472 45.673913043458015,178.293809405528 44.20652173925191,178.06631118257064 35.59782608691603,178.6350566522451 32.369565217290074,177.95256205345504 31.489130434580147,177.61131459474564 31.29347826074809,177.38381623011082 31.0,176.58757158310618 30.70652173925191,176.24632370041218 29.239130434580147,174.8813311101403 27.673913043458015,174.76758165098727 26.89130434812978,174.3125836966792 25.521739130839705,174.19883417885285 24.34782608691603,173.63008641195484 23.565217391587794,173.74383598892018 22.391304347664118,173.63008641195484 21.51086956495419,173.17508798639756 20.630434782244265,171.92384134500753 19.163043478038162,171.58259201340843 16.815217391587794,171.3550924002193 16.032608695328236,171.01384289213456 15.445652173832059,170.33134355803486 14.271739130374044,171.01384289213456 14.076086956541985,171.6963418024825 14.173913042992353,172.4925899951486 14.271739130374044,172.72008937282953 13.0,175.33632882870734 13.978260869625956,176.8150701127015 15.934782608412206,176.70132085355 17.108695652335882,177.15631781844422 18.478260869625956,177.7250637592515 21.80434782616794,180.0000445782207 22.391304347664118,180.0000445782207 23.760869565419853,180.68253790505696 26.10869565187022,180.5687890467234 27.869565217290074,181.47877958370373 28.75,181.47877958370373 29.336956521496177,182.27502068527974 31.489130434580147,183.18500980897807 32.95652173925191,183.18500980897807 34.52173912990838,182.8437639757758 35.40217391261831,182.8437639757758 36.77173912990838,183.298758396646 38.5326086957939,184.43624362302944 39.60869565187022,184.89123738370836 40.39130434766412,184.89123738370836 43.130434782709926,184.20874667179305 43.7173913042061,183.9812496737577 44.30434782570228,183.298758396646 45.380434782709926,182.8437639757758 46.55434782570228,182.73001534107607 48.021739130374044,182.957512598834 49.09782608691603,183.75375262845773 49.39130434766412,184.09499817865435 49.48913043504581,184.43624362302944 49.19565217383206,185.80122434021905 49.684782608412206,187.96244033996481 50.369565217290074,189.0999207375571 51.25,189.78240841068327 51.54347826028243,189.89615631476045 52.815217391587794,189.6686604943825 53.40217391308397,189.44116462673992 53.69565217383206,189.0999207375571 55.35869565187022,188.53118068620097 56.826086956076324,188.53118068620097 59.271739130374044,188.87242475210223 60.64130434766412,188.75867674173787 61.619565217290074,188.3036845830502 63.08695652149618,186.25621753570158 63.673913043458015,184.20874667179305 64.75,182.1612719919067 64.9456521733664,180.22754240094218 65.53260869532824,179.65879775572103 66.90217391261831,175.1088299928233 66.41304347803816,174.54008269729093 65.92391304345801,174.42633320274763 64.06521739112213,174.8813311101403 62.89130434766412,174.19883417885285 62.30434782616794,173.51633682334796 61.423913043458015,172.94758870301303 60.83695652149618,172.72008937282953 59.66304347803816,172.72008937282953 57.70652173925191,173.28883761062752 56.14130434766412,174.54008269729093 55.65217391261831,176.13257438270375 55.65217391261831,178.18006030004472 55.16304347803816,178.6350566522451 54.771739130374044,178.74880571104586 53.40217391308397,178.52130758180283 48.60869565233588,178.6350566522451 44.89130434766412,178.18006030004472 39.90217391308397,178.40755849971902 35.40217391261831,178.18006030004472 33.15217391308397,178.6350566522451 32.173913043458015,178.293809405528 31.489130434580147,177.61131459474564 30.90217391261831,177.27006703033112 29.728260869625956,177.15631781844422 29.239130434580147,176.928819359513 28.065217391587794,175.67757699417416 26.89130434812978,175.56382761721034 26.10869565187022,174.995080557419" stroke="#4DD2FF" stroke-dasharray="none" stroke-linecap="round" stroke-linejoin="round" stroke-width="0.5"><title>2024-10-27 5.5km</title><desc>13388431337</desc></polyline><polyline fill="none" opacity="1" points="126.2173913042061,177.55443962360732 127.0,175.16570444533136 126.60869565187022,174.59695720870513 126.2173913042061,174.4832077261526 124.06521739112213,174.93820558628067 123.47826086962596,174.824456139002 123.08695652149618,174.4832077261526 122.79347826074809,173.34571225196123 122.40217391261831,172.77696407260373 120.05434782616794,172.09446586912964 119.27173913037404,172.20821559929755 117.41304347803816,173.00446337962057 117.41304347803816,173.34571225196123 115.84782608691603,175.73445138765965 115.74999999953434,177.44069044699427 115.84782608691603,178.00943621143233 115.0652173915878,178.5781816811068 102.64130434766412,178.00943621143233 101.76086956495419,178.1231853289064 94.13043478270993,178.2369344343897 91.0,177.0994428473059 90.11956521729007,176.4169473296497 89.04347826074809,174.93820558628067 87.57608695607632,174.36945823160931 86.5,174.36945823160931 86.01086956541985,174.14195920771454 85.32608695607632,173.80071058287285 84.25,172.77696407260373 83.07608695654199,173.00446337962057 82.19565217383206,172.66321440169122 82.09782608691603,173.00446337962057 81.2173913042061,172.8907137318747 79.65217391308397,172.20821559929755 79.35869565233588,171.63946683134418 79.35869565233588,171.29821742908098 78.77173913037404,170.95696792099625 77.98913043504581,170.84321806125809 77.5,171.07071776897646 76.22826086962596,170.95696792099625 74.46739130467176,170.16071865649428 73.7826086957939,172.43571502401028 73.39130434766412,174.14195920771454 73.39130434766412,175.62070202303585 73.7826086957939,176.8719443883747 74.36956521729007,177.0994428473059 75.05434782570228,177.2131920591928 75.9347826084122,176.8719443883747 77.10869565233588,176.98569362354465 78.77173913037404,177.78193794109393 80.23913043504581,178.8056797866011 82.88043478224427,180.05691852443852 86.89130434812978,180.2844163235277 90.11956521729007,182.21814571414143 92.27173913037404,182.9006376276957 93.64130434766412,183.2418834255077 95.10869565187022,182.67314036993776 95.89130434766412,182.7868890046375 96.57608695654199,183.01438623853028 96.67391304345801,183.3556320007192 98.23913043458015,184.26562018226832 99.51086956495419,184.15187170065474 101.07608695654199,184.49311710963957 103.2282608691603,183.9243747026194 105.08695652149618,182.67314036993776 106.06521739112213,182.5593917237129 108.2173913042061,182.67314036993776 109.19565217383206,183.3556320007192 109.58695652196184,183.9243747026194 109.48913043504581,184.83436241257004 109.19565217383206,185.2893559850054 109.48913043504581,186.76808379380964 109.29347826074809,187.33682472852524 109.48913043504581,187.9055653688265 110.76086956495419,188.70180177059956 112.42391304345801,189.27054170437623 115.65217391261831,188.13306154252496 117.41304347803816,188.36055766919162 118.9782608691603,189.1567937412765 120.44565217383206,189.1567937412765 122.40217391261831,188.36055766919162 122.5,187.6780691483291 123.18478260887787,186.19934256456327 124.26086956541985,182.44564306596294 125.72826086962596,179.6019227845827 126.60869565187022,176.7581951415632 126.90217391261831,175.62070202303585 126.70652173925191,174.93820558628067 126.2173913042061,174.59695720870513 124.06521739112213,174.71070667984895 122.10869565187022,173.00446337962057 121.03260869532824,172.66321440169122 120.25,172.66321440169122 117.51086956495419,172.8907137318747 116.63043478224427,173.45946185220964 115.74999999953434,174.824456139002 115.55434782616794,175.73445138765965 115.55434782616794,177.66818878811318 115.16304347803816,178.2369344343897 114.86956521729007,178.46443261066452 104.01086956495419,178.2369344343897 98.82608695654199,178.46443261066452 94.61956521729007,178.2369344343897 92.66304347803816,177.89568708231673 91.6847826084122,176.7581951415632 90.02173913037404,176.18944872927386 89.72826086962596,176.07569941156544 89.43478260887787,175.50695264607202 88.26086956541985,174.93820558628067 87.18478260887787,174.93820558628067 85.81521739112213,174.36945823160931 82.39130434766412,173.57321144081652 79.94565217383206,172.20821559929755 77.59782608691603,171.63946683134418 76.61956521729007,171.29821742908098 75.83695652196184,170.61571830709 74.95652173925191,170.61571830709 74.56521739112213,170.84321806125809 74.27173913037404,172.8907137318747 73.58695652196184,174.93820558628067 73.97826086962596,176.07569941156544 74.56521739112213,176.7581951415632 76.61956521729007,176.98569362354465 79.0652173915878,178.1231853289064 80.5326086957939,178.3506835285807 81.90217391308397,179.2606758562615 83.85869565233588,179.71567173709627 84.73913043458015,179.71567173709627 86.10869565187022,180.17066742980387 88.16304347803816,180.39816520537715 88.65217391261831,180.85316061531194 91.6847826084122,182.44564306596294 92.95652173925191,182.5593917237129 93.54347826074809,182.44564306596294 94.91304347803816,182.5593917237129 97.26086956495419,183.2418834255077 98.4347826084122,184.15187170065474 99.90217391308397,184.83436241257004 103.2282608691603,183.81062618561555 105.57608695654199,182.67314036993776 107.82608695654199,182.7868890046375 109.48913043504581,183.2418834255077 109.78260869532824,183.46938056487124 109.88043478224427,183.69687765731942 109.39130434766412,185.6306010405533 109.58695652196184,187.56432102015242 109.97826086962596,188.24680961191189 110.56521739112213,188.81554978096392 111.54347826028243,189.3842896556016 112.22826086962596,189.49803759530187 113.5,189.27054170437623 115.65217391261831,188.36055766919162 117.41304347803816,188.13306154252496 117.99999999953434,188.24680961191189 118.39130434766412,188.92929777980316 118.9782608691603,189.1567937412765 120.05434782616794,189.1567937412765 120.83695652149618,189.3842896556016 121.42391304345801,189.1567937412765 122.89130434766412,186.6543355716858 123.38043478270993,185.40310434880666 124.06521739112213,183.2418834255077 124.84782608691603,181.53565337660257 125.33695652149618,179.4881738203112 126.02173913037404,178.46443261066452 127.0,174.71070667984895 126.70652173925191,174.2557087255409 126.2173913042061,174.14195920771454 124.75,174.59695720870513 124.35869565233588,174.4832077261526 123.77173913037404,174.2557087255409 123.08695652149618,173.45946185220964 121.7173913042061,172.43571502401028 119.56521739112213,172.43571502401028 118.88043478224427,172.54946471890435 116.43478260887787,173.80071058287285 116.33695652149618,174.36945823160931 115.45652173878625,175.73445138765965 115.45652173878625,177.44069044699427 115.26086956495419,178.00943621143233 114.38043478224427,178.5781816811068 109.88043478224427,178.5781816811068 106.35869565233588,178.1231853289064 105.67391304345801,178.2369344343897 104.20652173925191,178.00943621143233 95.59782608691603,178.5781816811068 92.36956521729007,177.89568708231673 91.48913043458015,177.55443962360732 91.29347826074809,177.3269412589725 91.0,176.53069661196787 89.23913043458015,174.824456139002 87.67391304345801,174.71070667984895 86.89130434812978,174.2557087255409 85.5217391308397,174.14195920771454 84.34782608691603,173.57321144081652 83.5652173915878,173.68696101778187 82.39130434766412,173.57321144081652 81.51086956495419,173.11821301525924 80.63043478224427,171.86696637386922 79.94565217383206,171.63946683134418 76.8152173915878,171.29821742908098 76.03260869532824,170.95696792099625 75.44565217383206,170.27446858689655 74.27173913037404,170.95696792099625 74.07608695654199,171.63946683134418 74.17391304299235,172.43571502401028 74.27173913037404,172.66321440169122 73.0,175.27945385756902 73.97826086962596,176.7581951415632 75.9347826084122,176.64444588241167 77.10869565233588,177.0994428473059 78.47826086962596,177.66818878811318 81.80434782616794,179.94316960708238 82.39130434766412,179.94316960708238 83.76086956541985,180.62566293391865 86.10869565187022,180.51191407558508 87.86956521729007,181.4219046125654 88.75,181.4219046125654 89.33695652149618,182.21814571414143 91.48913043458015,183.12813483783975 92.95652173925191,183.12813483783975 94.52173912990838,182.7868890046375 95.40217391261831,182.7868890046375 96.77173912990838,183.2418834255077 98.5326086957939,184.37936865189113 99.60869565187022,184.83436241257004 100.39130434766412,184.83436241257004 103.13043478270993,184.15187170065474 103.7173913042061,183.9243747026194 104.30434782570228,183.2418834255077 105.38043478270993,182.7868890046375 106.55434782570228,182.67314036993776 108.02173913037404,182.9006376276957 109.39130434766412,184.03812320751604 109.48913043504581,184.37936865189113 109.19565217383206,185.74434936908074 109.6847826084122,187.9055653688265 110.36956521729007,189.0430457664188 111.25,189.72553343954496 111.54347826028243,189.83928134362213 112.8152173915878,189.61178552324418 113.40217391308397,189.3842896556016 113.69565217383206,189.0430457664188 115.35869565187022,188.47430571506266 116.82608695607632,188.47430571506266 119.27173913037404,188.81554978096392 120.64130434766412,188.70180177059956 121.61956521729007,188.24680961191189 123.08695652149618,186.19934256456327 123.67391304345801,184.15187170065474 124.75,182.10439702076837 124.9456521733664,180.17066742980387 125.53260869532824,179.6019227845827 125.92391304345801,178.00943621143233 126.70652173925191,176.07569941156544 126.90217391261831,175.051955021685 126.80434782570228,174.824456139002 126.41304347803816,174.4832077261526 125.72826086962596,174.36945823160931 124.26086956541985,174.93820558628067 122.89130434766412,174.14195920771454 122.30434782616794,173.45946185220964 121.42391304345801,172.8907137318747 120.83695652149618,172.66321440169122 119.66304347803816,172.66321440169122" stroke="#4DD2FF" stroke-dasharray="none" stroke-linecap="round" stroke-linejoin="round" stroke-width="0.5"><title>2024-10-27 5.5km</title><desc>12753632530</desc></polyline><polyline fill="none" opacity="1" points="150.63868613168597,176.56266101484653 149.45620437990874,176.33350191207137 147.87956204358488,175.1877056864323 146.5985401463695,174.50022738194093 145.90875912411138,174.50022738194093 144.23357664234936,174.1564880691003 143.74087591283023,173.81274864985608 140.88321167882532,172.66694981383625 139.30656934343278,172.32320993219037 136.44890510989353,171.06282945047133 135.4635036494583,170.9482493356336 134.87226277403533,170.37534858298022 134.1824817522429,171.06282945047133 134.1824817522429,172.0940499510616 133.59124087588862,173.46900912374258 133.1970802922733,175.3022853625007 133.1970802922733,175.9897631688509 134.1824817522429,177.36471750040073 134.7737226281315,177.36471750040073 136.744525547605,176.9063995797187 138.12408759165555,177.02097907790449 141.86861313926056,179.08340801217128 143.3467153282836,179.19798728451133 149.06204379582778,180.80209585418925 151.3284671534784,182.4062020975398 153.20072992751375,183.20825434743892 156.35401459876448,183.09367549058516 158.22627737233415,183.89572724187747 159.11313868593425,184.69777841190808 160.59124087588862,185.15609310532454 161.1824817522429,185.0415144499857 162.75912408763543,184.4686209942447 164.43430656939745,183.3228331930004 164.92700729938224,183.3228331930004 166.40510948887095,182.52078102587257 167.78467153245583,182.7499388474971 168.8686131387949,183.20825434743892 170.24817518284544,184.12488477840088 169.75547445286065,184.81235710298643 169.65693430695683,185.3852503808448 169.75547445286065,185.95814336184412 169.16423357697204,186.645614547655 169.16423357697204,186.98934998025652 169.85401459876448,188.36429064359982 170.14963503647596,188.70802554220427 171.33211678871885,189.39549501938745 172.51459854003042,189.6246514171362 175.0766423358582,188.93718208209611 177.14598540170118,188.5934472543886 179.60948905115947,189.0517603341723 180.98905109474435,189.6246514171362 181.77737226290628,189.39549501938745 182.3686131387949,189.0517603341723 182.5656934310682,188.70802554220427 183.05839416058734,186.87477151467465 183.74817518237978,184.81235710298643 184.43795620417222,183.43741202633828 184.930656934157,181.14583310170565 186.21167883230373,178.3959321276052 186.9014598536305,175.41686502681114 186.9014598536305,174.50022738194093 186.31021897820756,174.04190827463754 184.63503649644554,174.50022738194093 183.4525547446683,173.2398493803339 182.7627737224102,172.66694981383625 179.2153284670785,171.86488992290106 178.1313868612051,172.20862994762138 177.93430656939745,172.66694981383625 177.0474452553317,173.6981688195374 176.45620437944308,174.72938686434645 176.06204379582778,176.33350191207137 176.1605839417316,178.05219402513467 175.86496350355446,178.28135277202819 174.78102189814672,178.51051147154067 173.00729927048087,178.28135277202819 167.09489051112905,178.28135277202819 165.61678832117468,178.05219402513467 162.75912408763543,178.3959321276052 159.6058394163847,178.16677340469323 154.97445255471393,178.3959321276052 153.00364963524044,177.70845581649337 152.313868613448,177.02097907790449 150.63868613168597,176.67724054818973 150.244525547605,176.21892234298866 149.45620437990874,176.10434276179876 149.06204379582778,175.87518356414512 148.66788321128115,175.3022853625007 147.09124087588862,174.61480712913908 142.85401459876448,173.58358897757716 142.45985401468351,173.12526949099265 141.57299270108342,172.89610967598855 140.7846715329215,171.86488992290106 137.2372262775898,171.17740955378395 135.7591240881011,171.40656972420402 134.47810218995437,170.8336692089215 133.78832116769627,171.40656972420402 133.78832116769627,173.35442925791722 133.1970802922733,174.3856476226356 133.0,175.53144467878155 133.39416058454663,176.21892234298866 134.1824817522429,177.02097907790449 134.7737226281315,177.13555856386665 135.4635036494583,176.9063995797187 136.54744525579736,176.79182006965857 138.02554744575173,177.02097907790449 138.91240875935182,177.36471750040073 140.09489051112905,178.28135277202819 141.17883211700246,178.73967012309004 144.33211678871885,180.00004185992293 147.48540145996958,180.11462103761733 149.25912408763543,180.6875167475082 151.13138686167076,181.83330727752764 152.41240875935182,182.4062020975398 155.95985401468351,182.7499388474971 157.83211678871885,183.66656965774018 158.9160583941266,184.4686209942447 159.90145985409617,184.92693578230683 161.47810218995437,184.92693578230683 162.75912408763543,184.35404226742685 164.6313868612051,183.09367549058516 165.91240875935182,182.6353599425638 166.99635036475956,182.4062020975398 168.08029197063297,182.6353599425638 169.45985401468351,183.43741202633828 169.75547445286065,184.12488477840088 169.3613138687797,185.15609310532454 169.45985401468351,186.87477151467465 169.9525547446683,188.02055563777685 170.64233576646075,188.5934472543886 171.62773722643033,188.93718208209611 173.00729927048087,189.0517603341723 174.48540145996958,188.70802554220427 176.35766423353925,188.5934472543886 177.83576642349362,188.70802554220427 180.59489051112905,189.39549501938745 181.48175182472914,189.1663385744905 182.1715328465216,188.822603818262 182.5656934310682,188.13513398496434 182.66423357650638,187.33308530633803 183.255474452395,186.07272192265373 184.3394160582684,182.7499388474971 185.52189781004563,180.11462103761733 185.62043795641512,179.31256654532626 186.60583941591904,177.02097907790449 187.0,175.53144467878155 186.80291970819235,174.72938686434645 186.50729927048087,174.27106785192154 186.11313868593425,174.1564880691003 184.63503649644554,174.72938686434645 184.3394160582684,174.72938686434645 182.5656934310682,172.7815297509078 181.48175182472914,172.43778990465216 179.11678832117468,172.0940499510616 178.62408759165555,172.20862994762138 178.1313868612051,172.55236986512318 178.03284671530128,172.89610967598855 177.244525547605,173.58358897757716 176.45620437944308,174.72938686434645 176.1605839417316,176.21892234298866 176.1605839417316,178.16677340469323 176.06204379582778,178.51051147154067 175.569343065843,178.85424943140242 173.9927007299848,178.51051147154067 168.96715328469872,178.28135277202819 158.62043795641512,178.3959321276052 157.24087591283023,178.62509080325253 156.35401459876448,178.51051147154067 155.27007299289107,178.05219402513467 155.1715328465216,177.36471750040073 153.7919708029367,176.21892234298866 152.41240875935182,175.87518356414512 151.62408759165555,176.10434276179876 150.244525547605,175.87518356414512 149.35766423353925,174.84396658744663 149.35766423353925,174.50022738194093 148.96350364992395,174.27106785192154 147.1897810222581,174.1564880691003 146.20437956228852,173.46900912374258 143.3467153282836,173.81274864985608 141.77007299289107,173.58358897757716 139.79927007341757,172.66694981383625 136.1532846717164,171.40656972420402 135.36496350402012,170.9482493356336 135.56204379582778,170.8336692089215 135.36496350402012,170.48992875707336 134.67518248176202,171.17740955378395 134.5766423358582,172.20862994762138 133.98540146043524,173.9273284683004 133.59124087588862,174.50022738194093 133.39416058454663,176.21892234298866 133.78832116769627,176.9063995797187 134.37956204405054,177.47929695085622 137.72992700710893,176.9063995797187 137.9270072998479,177.13555856386665 139.70072992751375,177.59387638955377 141.47445255471393,179.08340801217128 142.16423357697204,179.4271457939176 143.64233576646075,179.77088346914388 145.71167883230373,179.77088346914388" stroke="#4DD2FF" stroke-dasharray="none" stroke-linecap="round" stroke-linejoin="round" stroke-width="0.5"><title>2024-10-13 5.5km</title><desc>12641545700</desc></polyline><polyline fill="none" opacity="1" points="65.3087248322554,233.3277787596453 64.8255033553578,235.15387783711776 64.8255033553578,237.82278745097574 64.22147650970146,238.3846624904545 56.36912751663476,237.54184984462336 50.932885906193405,237.54184984462336 48.7583892615512,237.26091217901558 42.47651006700471,237.26091217901558 37.885906040202826,237.96325623290613 36.91946308687329,237.6823186550755 36.677852348890156,237.26091217901558 35.348993288353086,237.12044332490768 34.50335570424795,236.55856776237488 34.02013422828168,235.99669196654577 33.899328858591616,235.4348159384681 34.140939597040415,234.87293967732694 33.899328858591616,234.31106318358798 32.932885905727744,233.608717239229 31.966442952863872,233.3277787596453 30.75838926108554,234.030124849407 28.583892616908997,233.7491864573676 27.738255033269525,233.0468402217375 23.993288590572774,231.78261608199682 23.026845637708902,231.22073830768932 22.543624160811305,230.51839076331817 20.973154361825436,229.39463393576443 19.644295301754028,229.53510358987842 16.62416107347235,228.9732248854125 15.899328859057277,228.69228544516955 15.657718120608479,228.41134594741743 15.778523489832878,228.13040639169049 15.174496644176543,228.69228544516955 13.604026845190674,232.20402425900102 13.0,234.030124849407 13.362416107207537,235.99669196654577 13.966442952863872,236.69903667480685 16.986577180679888,236.55856776237488 18.19463087199256,236.8395055725705 19.04026845563203,237.26091217901558 19.40268456330523,237.6823186550755 21.335570469964296,238.24419375241268 22.90604026801884,239.50841187033802 24.838926174212247,240.35122329450678 29.791946308221668,241.0535657479195 37.04026845609769,243.86293192452285 38.24832214741036,243.72246375400573 38.127516778651625,243.30105915444437 40.06040268391371,243.5819955689367 44.28859060397372,246.25088860059623 45.25503355683759,246.67229228350334 46.583892616909,246.67229228350334 48.275167785119265,246.110420676996 50.32885906007141,244.5652725599939 52.98657718114555,243.30105915444437 56.73154362430796,244.00340008107014 57.456375839188695,245.26761283143423 56.73154362430796,247.2341636568308 56.8523489930667,249.34117923490703 57.0939597315155,250.04351703356951 57.93959731515497,250.88632191182114 58.785234899260104,251.5886589109432 59.51006711414084,251.7291262667859 61.80536912707612,251.86959360842593 64.7046979861334,251.1672567554051 67.0,250.88632191182114" stroke="#4DD2FF" stroke-dasharray="none" stroke-linecap="round" stroke-linejoin="round" stroke-width="0.5"><title>2024-09-09 5.2km</title><desc>12366514575</desc></polyline><polyline fill="none" opacity="1" points="127.0,233.63705033855513 125.967495219782,232.79665149981156 125.55449330760166,232.19636624166742 124.93499043956399,231.59608067304362 123.07648183498532,231.23590918281116 122.25047801109031,231.355966358562 119.97896749526262,232.07630915299524 119.46271510515362,232.43648038210813 119.04971319297329,233.63705033855513 118.94646271457896,234.95767585455906 118.73996175872162,235.67801641079132 117.19120458886027,238.43931773118675 116.67495219875127,238.7994869836839 115.84894837485626,238.55937416106462 114.71319311670959,237.95909188699443 113.57743785856292,237.71897889033426 111.82217973237857,236.99863960186485 107.07265774393454,236.15824319981039 103.56214149110019,236.6384697899921 99.5353728486225,236.3983565197559 97.67686424450949,236.518413161044 93.03059273399413,237.47886584384833 91.99808795424178,237.23875274776947 88.38432122347876,235.07773264520802 86.31931166304275,233.03676551557146 84.77055449318141,232.79665149981156 82.80879541067407,233.03676551557146 81.98279158677906,232.79665149981156 81.05353728448972,231.9562520517502 81.05353728448972,230.75568035477772 81.56978967506438,230.5155658661388 81.36328871874139,230.39550860330928 78.6787762902677,229.79522210196592 76.09751434018835,229.91527942731045 75.37476099375635,229.1949352901429 74.23900573607534,230.27545132813975 74.032504780218,230.9957947935909 74.23900573607534,231.355966358562 74.032504780218,231.7161378117744 73.82600382436067,233.27687948208768 73.82600382436067,234.5975054082228 73.0,236.27829986589495 73.0,236.75852640648372 74.34225621400401,237.23875274776947 75.58126195054501,236.99863960186485 77.02676864247769,237.11869618122 79.81453154888004,238.55937416106462 81.36328871874139,239.87999406992458 83.32504780124873,240.7203877742868 86.52581261936575,240.96050014917273 88.69407265773043,243.12150928692427 89.41682600416243,243.12150928692427 90.3460803059861,242.7613413769286 91.99808795424178,242.88139735918958 93.34034416778013,243.36162116425112 96.95411089854315,243.2415652316995 99.63862332701683,243.72178888786584 101.70363288698718,244.68223560333718 104.8011472276412,243.84184477094095 106.24665391957387,242.7613413769286 108.31166348000988,242.16106127831154 110.06692160619423,243.12150928692427 110.58317399630323,243.60173299268354 110.6864244742319,244.9223471576115 110.6864244742319,247.56357097555883 111.2026768643409,249.2443466357654 112.95793499052525,250.3248439875897 113.26768642431125,250.80506470997352 113.68068833602592,250.80506470997352 114.19694072660059,250.6850095478585 114.71319311670959,250.20478877599817 116.88145315507427,249.1242913119495 119.35946462722495,248.76412526716013 120.3919694069773,249.36440194654278" stroke="#4DD2FF" stroke-dasharray="none" stroke-linecap="round" stroke-linejoin="round" stroke-width="0.5"><title>2024-09-08 5.3km</title><desc>12358368474</desc></polyline></svg>