<?xml version="1.0" encoding="utf-8" ?>
<svg baseProfile="full" height="300mm" version="1.1" viewBox="0,0,200,300" width="200mm" xmlns="http://www.w3.org/2000/svg" xmlns:ev="http://www.w3.org/2001/xml-events" xmlns:xlink="http://www.w3.org/1999/xlink"><defs /><rect fill="#222222" height="300" width="200" x="0" y="0" /><text fill="#FFFFFF" style="font-size:12px; font-family:Arial; font-weight:bold;" x="10" y="20">Over 5km Runs</text><text fill="#FFFFFF" style="font-size:4px; font-family:Arial" x="10" y="280">ATHLETE</text><text fill="#FFFFFF" style="font-size:9px; font-family:Arial" x="10" y="290">Mr. Error 追</text><text fill="#FFFFFF" style="font-size:4px; font-family:Arial" x="65" y="280">SPECIAL TRACKS</text><rect fill="yellow" height="2.6" width="2.6" x="65" y="283" /><text fill="#FFFFFF" style="font-size:3px; font-family:Arial" x="70" y="285.5">Over 20.0 km</text><rect fill="red" height="2.6" width="2.6" x="65" y="287" /><text fill="#FFFFFF" style="font-size:3px; font-family:Arial" x="70" y="289.5">Over 40.0 km</text><text fill="#FFFFFF" style="font-size:4px; font-family:Arial" x="120" y="280">STATISTICS</text><text fill="#FFFFFF" style="font-size:3px; font-family:Arial" x="120" y="285">Number: 5</text><text fill="#FFFFFF" style="font-size:3px; font-family:Arial" x="120" y="290">Weekly: 1.0</text><text fill="#FFFFFF" style="font-size:3px; font-family:Arial" x="141" y="285">Total: 26.8 km</text><text fill="#FFFFFF" style="font-size:3px; font-family:Arial" x="141" y="290">Avg: 5.4 km</text><text fill="#FFFFFF" style="font-size:3px; font-family:Arial" x="167" y="285">Min: 5.2 km</text><text fill="#FFFFFF" style="font-size:3px; font-family:Arial" x="167" y="290">Max: 5.5 km</text><polyline fill="none" points="75.8444846291095,93.91987771855202 76.88607594929636,94.07126680132933 77.6672694394365,93.76848861994222 78.96925858967006,92.25459677283652 80.27124773943797,86.65318330738228 81.18264014506713,83.6253833094379 81.31283905962482,82.56565182877239 82.35443037981167,79.6892339377664 83.9168173596263,76.20724681334104 85.86980108497664,70.60577186348382 86.0,69.6974225519225 85.73960216948763,68.48628925881349 84.43761302018538,66.51819551712833 83.13562386948615,65.15566752874292 81.31283905962482,64.2473148307763 79.49005424929783,63.94453047297429 77.40687160985544,62.43060774204787 74.41229656431824,61.21946842840407 72.06871609389782,60.76529092725832 69.33453887887299,59.70554287568666 68.03254972863942,58.64579405589029 66.33996383333579,58.04022295679897 63.4755877032876,57.58604446798563 58.1374321882613,55.769329101312906 56.57504520798102,54.86097057117149 55.27305605774745,54.70957742771134 55.14285714318976,54.406791094341315 53.3200723323971,53.64982498646714 50.32549728779122,52.741465139202774 48.37251356244087,52.5900717767654 47.33092224271968,52.5900717767654 45.50813743239269,51.833104728139006 44.07594936713576,51.98449816904031 42.773960216902196,51.681711271055974 39.12839059671387,50.167775841197 37.435804701875895,49.86498856707476 35.6130198915489,48.95662636868656 34.311030741315335,48.65383884345647 33.529837251175195,48.048263605334796 31.44665461126715,47.59408201172482 31.316455696243793,47.44268811575603 29.88426763145253,46.68571840215009 25.717902350705117,45.47456604440231 24.936708860564977,45.47456604440231 22.85352622065693,47.13990027748514 22.332730560563505,47.896869756281376 22.46292947558686,48.80523261381313 22.332730560563505,49.56220123008825 20.770343580283225,50.47056305233855 19.207956600468606,52.438678398146294 19.07775768544525,54.86097057117149 18.55696202488616,56.37490114092361 18.29656419530511,57.73743731318973 17.77576853474602,59.09997221559752 17.77576853474602,60.76529092725832 17.385171790141612,61.52225335093681 16.73417721502483,62.12782300775871 15.17179023521021,64.2473148307763 14.39059674507007,68.63768097513821 14.650994575116783,69.54603094526101 16.603978300001472,71.36272919178009 19.72875226009637,70.60577186348382 21.811934900470078,71.05994630779605 22.46292947558686,71.66551201348193 23.244122965727,72.57386010233313 25.717902350705117,74.39055458630901 28.191681735683233,75.45029199298006 31.186256780754775,75.75307396810967 32.748643761035055,76.35863773012534 34.18083182629198,77.41837371024303 36.65461121220142,78.62949960376136 37.045207956340164,78.62949960376136 38.08679927699268,79.38645277742762 39.90958408685401,80.29479606903624 39.779385171830654,79.99201503489166 40.03978300187737,79.99201503489166 43.94575045211241,79.6892339377664 45.898734176997095,80.74896750343032 48.37251356244087,81.0517483811127 50.32549728779122,82.56565182877239 51.62748643755913,83.0198225575732 53.45027124742046,82.71704208746087 54.75226039811969,81.0517483811127 56.57504520798102,79.6892339377664 57.22603978263214,79.53784336533863 58.397830018308014,79.23506217403337 61.392405063379556,79.6892339377664 62.69439421361312,80.9003579497803 63.21518987324089,81.80870030086953 62.82459312817082,83.17121276911348 62.173598553519696,83.77677345846314 62.173598553519696,84.68511402234435 62.954792043659836,86.04762380977627 63.735985533799976,86.95596296223812 66.07956600328907,88.16708095488138 67.9023508131504,88.16708095488138 71.02712477417663,87.25874255457893 73.76130198920146,87.71291182551067 75.8444846291095,88.62124994338956 76.10488245915622,88.46986029623076 77.40687160985544,88.46986029623076 78.31826401408762,87.71291182551067 78.70886075915769,87.1073527665576 78.70886075915769,86.65318330738228 80.66184448450804,84.23094381054398 81.44303797464818,82.56565182877239 82.22423146478832,79.6892339377664 83.26582278497517,77.11559208028484 83.26582278497517,76.51002863154281 84.56781193474308,74.2391634657979 85.60940325539559,70.75716336048208 85.60940325539559,70.00020571891218 84.69801084976643,67.72933044075035 84.04701627511531,66.6695874374127 83.26582278497517,65.76123568043113 80.92224231455475,64.5500991261797 79.35985533474013,64.2473148307763 73.50090415868908,61.6736457888037 71.4177215192467,61.37086089758668 71.02712477417663,60.76529092725832 64.90777576807886,57.88883014291059 62.564195298589766,57.73743731318973 59.960216998588294,56.07211515225936 56.18444846291095,54.55818426911719 51.49728752300143,53.64982498646714 47.33092224271968,51.833104728139006 46.54972875211388,51.681711271055974 44.9873417718336,52.1358915946912 41.602169981691986,51.3789243104402 40.430379746481776,50.924743752228096 35.74321880657226,48.19965743809007 31.576853525824845,47.59408201172482 30.405063291080296,46.988506334950216 25.19710669061169,45.47456604440231 22.85352622065693,46.53432441211771 22.202531645540148,47.13990027748514 22.332730560563505,47.59408201172482 21.68173598544672,48.95662636868656 21.551537070423365,50.924743752228096 20.24954792065546,51.833104728139006 19.72875226009637,52.741465139202774 19.207956600468606,54.55818426911719 18.817359855864197,54.86097057117149 18.426763110328466,55.617936052032746 18.166365280281752,56.829080006456934 17.385171790141612,57.28325872973073 16.603978300001472,58.49440130451694 16.603978300001472,59.09997221559752 17.254972875583917,60.76529092725832 16.34358047042042,62.73339241370559 16.083182639908046,63.94453047297429 15.432188065256923,64.5500991261797 15.17179023521021,67.72933044075035 14.520795659627765,68.48628925881349 14.78119349014014,70.15159727830905 15.432188065256923,71.66551201348193 16.994575045071542,72.57386010233313 17.77576853474602,73.48220762622077 19.598553345538676,74.39055458630901 24.41591320047155,77.72115527756978 25.327305605635047,78.17532751150429 27.93128390610218,78.47810892178677 32.748643761035055,79.6892339377664 34.83182640140876,80.29479606903624 37.045207956340164,81.50591957999859 37.95660036150366,81.3545291958144 39.12839059671387,81.96009063790552 40.69077757699415,81.96009063790552 41.08137432159856,82.41426155436784 41.732368897181004,82.41426155436784 42.513562387321144,82.86843233020045 44.33634719718248,82.86843233020045 45.898734176997095,83.47399314516224 47.72151898778975,83.77677345846314 49.54430379765108,85.13928409235086 51.62748643755913,85.13928409235086 52.40867992769927,85.74484396656044 52.929475587792695,86.65318330738228 54.36166365304962,86.95596296223812 55.27305605774745,87.56152208405547 61.001808318309486,89.22680837556254 62.04339963803068,89.22680837556254 63.21518987324089,90.28653502778616 63.21518987324089,90.74070335773285 64.64737793849781,91.0434821662493 65.55877034319565,91.64903959503863 66.33996383333579,91.3462609120179 69.20433996384963,92.10320750169922 70.37613019905984,93.01154289243277 72.19891500938684,93.46571037592366 74.28209764882922,94.52543395559769 76.23508137417957,94.07126680132933 77.14647377934307,93.16293206939008 77.27667269436643,92.55737526738085 78.05786618450657,91.49765026103705 78.05786618450657,91.0434821662493 78.96925858967006,90.28653502778616 78.96925858967006,89.22680837556254 80.66184448450804,86.95596296223812 81.44303797464818,84.0795537091326 82.8752260399051,79.84062449401245 83.52622061455622,77.41837371024303 84.43761302018538,75.6016829884611 85.21880651032552,72.27107746875845 85.86980108497664,71.05994630779605 86.0,69.6974225519225 85.21880651032552,68.03211401531007 84.43761302018538,67.72933044075035 83.65641953004524,66.51819551712833 83.39602169999853,65.60984366585035 78.96925858967006,63.49035381816793 78.31826401408762,63.03617702249903 77.92766726901755,62.43060774204787 76.36528028920293,61.6736457888037 68.94394213380292,60.15972070605494 68.03254972863942,59.70554287568666 66.86075949342921,58.79718679189682 64.51717902347445,58.34300853766035 59.69981916807592,56.37490114092361 57.87703435821459,55.31514990667347 53.84086799249053,53.64982498646714 52.538878842722625,53.4984317177441 51.62748643755913,52.89285848650616 48.8933092225343,52.28728500427678 44.46654611220583,51.681711271055974 39.6491862568073,50.47056305233855 36.91500904178247,50.31916945462581 34.96202531643212,49.259413830470294 32.358047015964985,48.65383884345647 31.707052441313863,48.19965743809007 31.576853525824845,47.745475892093964 25.58770343568176,45.62596014374867 24.546112115494907,45.77735422796104 23.895117540843785,46.231536385486834 21.811934900470078,47.13990027748514 21.160940325818956,48.048263605334796 19.989150090608746,48.65383884345647 19.989150090608746,49.4108075380791 20.770343580283225,49.86498856707476 20.770343580283225,51.076137287542224 20.50994575023651,51.98449816904031 19.989150090608746,52.28728500427678 19.72875226009637,52.89285848650616 19.85895117558539,53.80121823947411 19.85895117558539,54.86097057117149 19.07775768544525,56.37490114092361 18.166365280281752,57.58604446798563 17.51537070516497,59.40275757701602 17.645569620653987,60.613898395211436 16.473779385443777,63.03617702249903 15.692585894837976,64.70149125042371 14.520795659627765,65.76123568043113 14.0,66.82097934221383 14.0,67.88072223588824 14.39059674507007,69.39463932265062 15.301989149767905,71.05994630779605 16.473779385443777,71.51412061078008 19.46835443051532,71.36272919178009 22.723327305633575,72.27107746875845 26.108499095775187,74.2391634657979 28.972875225823373,74.84472785505932 30.144665461033583,75.6016829884611 30.795660035684705,75.45029199298006 31.186256780754775,75.904464932275 31.967450270894915,75.904464932275 33.00904159108177,76.6614195171278 34.18083182629198,76.6614195171278 35.74321880657226,77.41837371024303 38.21699819108471,79.6892339377664 40.169981916900724,80.5975770407822 44.20614828169346,79.6892339377664 45.50813743239269,79.84062449401245 46.679927667137235,80.5975770407822 47.72151898778975,81.0517483811127 49.023508137091994,82.11148095922545 50.06509945774451,82.41426155436784 52.66907775728032,82.11148095922545 55.9240506333299,80.74896750343032 56.70524412300438,80.74896750343032 56.96564195305109,80.14340556017123 58.007233273237944,79.53784336533863 58.788426763378084,79.53784336533863 59.960216998588294,79.6892339377664 62.564195298589766,80.9003579497803 62.954792043659836,81.3545291958144 62.43399638310075,84.68511402234435 63.4755877032876,86.35040358966216 64.64737793849781,87.25874255457893 65.688969258219,87.41013232700061 65.81916817370802,87.86430155101698 67.3815551539883,88.31847063323949 71.02712477417663,87.71291182551067 73.76130198920146,87.56152208405547 75.19349005445838,87.56152208405547 76.36528028920293,88.31847063323949 76.62567811924964,88.92402919090819 75.97468354459852,90.43792448670138 74.5424954793416,91.9518182153115 74.28209764882922,92.40598602802493 73.89150090422481,92.10320750169922" stroke="#4DD2FF" stroke-linecap="round" stroke-linejoin="round" stroke-width="0.5"><title>2024-11-16 5.2km</title><desc>12913950085</desc></polyline><polyline fill="none" points="146.2173913042061,74.39834452874493 147.13043478224427,75.3083328983048 147.9130434775725,75.61166222894099 148.56521739112213,75.45999757142272 150.2608695649542,75.76332687109243 153.91304347803816,75.45999757142272 155.47826086962596,74.2466797453817 156.13043478224427,72.88169598917011 156.91304347803816,72.57836609240621 157.30434782570228,72.88169598917011 157.17391304345801,73.48835559305735 157.30434782570228,73.48835559305735 159.26086956541985,73.18502582237124 161.73913043458015,74.09501494618598 162.39130434766412,74.70167404797394 162.7826086957939,75.76332687109243 162.7826086957939,78.18995900580194 163.69565217383206,80.61658711999189 163.30434782616794,80.91991535155103 163.95652173878625,81.52657162642572 166.69565217383206,82.5882195023587 167.73913043458015,82.5882195023587 169.82608695654199,81.6782356556505 172.69565217429772,81.52657162642572 173.60869565233588,81.52657162642572 176.21739130374044,82.5882195023587 177.91304347850382,82.43655556731392 178.69565217383206,82.13322764995974 179.08695652149618,80.76825124339666 180.39130434766412,78.4932877398096 182.47826086962596,73.18502582237124 183.0,70.91005054011475 184.9565217392519,66.81508612632751 186.0,63.63010588858742 185.4782608691603,62.87177623983007 184.9565217392519,62.720110263093375 182.08695652149618,63.32677407655865 181.30434782570228,63.175108146853745 180.78260869532824,62.720110263093375 180.39130434766412,61.20344963076059 179.8695652168244,60.445118725067005 176.73913043458015,59.535121120279655 175.69565217429772,59.68678742728662 173.21739130374044,60.74845113430638 173.21739130374044,61.20344963076059 171.13043478270993,64.38843514502514 170.99999999953434,66.66342055751011 171.13043478270993,67.42174824350514 170.08695652196184,68.1800755362492 153.52173912990838,67.42174824350514 152.34782608645037,67.57341373339295 142.17391304345801,67.72507920733187 138.0,66.20842375780921 136.82608695607632,65.29842973430641 135.39130434766412,63.32677407655865 133.4347826084122,62.568444270291366 132.0,62.568444270291366 131.34782608691603,62.26511223835405 130.4347826084122,61.81011407193728 128.99999999953434,60.445118725067005 127.43478260887787,60.74845113430638 126.26086956495419,60.293452497106045 126.13043478270993,60.74845113430638 124.95652173878625,60.596784937311895 122.86956521775573,59.68678742728662 122.47826086962596,58.92845573660452 122.47826086962596,58.47345653350931 121.69565217383206,58.018457189551555 120.65217391354963,57.86679070990067 120.0,58.17012365348637 118.30434782616794,58.018457189551555 115.95652173925191,56.95679150347132 115.04347826121375,59.99011999357026 114.52173913037404,62.26511223835405 114.52173913037404,64.23676932544913 115.04347826121375,65.90509247931186 115.82608695654199,66.20842375780921 116.73913043458015,66.36008937377483 117.91304347803816,65.90509247931186 119.47826086962596,66.05675812624395 121.69565217383206,67.11841721623205 123.65217391354963,68.48340634361375 127.17391304345801,70.15172466065269 132.5217391308397,70.45505505951587 136.82608695607632,73.03336091362871 139.69565217383206,73.94335013173986 141.52173913037404,74.39834452874493 143.4782608691603,73.64002045476809 144.52173913037404,73.7916853009956 145.4347826084122,74.09501494618598 145.56521739112213,74.55000929581001 147.65217391308397,75.76332687109243 149.34782608691603,75.61166222894099 151.43478260887787,76.06665610778145 154.30434782570228,75.3083328983048 156.78260869532824,73.64002045476809 158.08695652149618,73.48835559305735 160.95652173878625,73.64002045476809 162.26086956541985,74.55000929581001 162.7826086957939,75.3083328983048 162.65217391308397,76.52164984494448 162.26086956541985,77.12830794148613 162.65217391308397,79.09994501981419 162.39130434766412,79.85826626617927 162.65217391308397,80.61658711999189 164.34782608645037,81.6782356556505 166.56521739112213,82.43655556731392 170.86956521729007,80.91991535155103 173.21739130374044,81.2232435203623 175.30434782570228,82.28489161643665 177.2608695649542,82.28489161643665 179.8695652168244,81.2232435203623 180.0,80.31325882591773 180.91304347850382,78.34162338089664 182.34782608691603,73.3366907160962 184.30434782616794,69.54506367421709 185.4782608691603,65.75342681689654 185.8695652168244,64.23676932544913 185.60869565187022,63.32677407655865 184.9565217392519,62.87177623983007 182.08695652149618,63.02344220131636 179.47826086962596,60.74845113430638 178.04347826028243,60.293452497106045 176.99999999953434,60.293452497106045 173.34782608691603,60.596784937311895 172.17391304299235,61.355115764425136 170.99999999953434,63.175108146853745 170.73913043458015,64.38843514502514 170.73913043458015,66.96675167896319 170.2173913042061,67.72507920733187 169.82608695654199,68.02841010899283 155.34782608645037,67.72507920733187 148.43478260887787,68.02841010899283 142.82608695654199,67.72507920733187 140.2173913042061,67.27008273790125 138.91304347803816,65.75342681689654 136.69565217383206,64.99509826709982 136.3043478266336,64.84343251027167 135.91304347850382,64.08510348957498 134.34782608691603,63.32677407655865 132.91304347850382,63.32677407655865 131.08695652149618,62.568444270291366 126.52173913037404,61.50678188249003 123.26086956495419,59.68678742728662 120.13043478270993,58.92845573660452 118.82608695654199,58.47345653350931 117.7826086957939,57.5634577042656 116.60869565187022,57.5634577042656 116.08695652196184,57.86679070990067 115.69565217383206,60.596784937311895 114.7826086957939,63.32677407655865 115.30434782616794,64.84343251027167 116.08695652196184,65.75342681689654 118.82608695654199,66.05675812624395 122.08695652196184,67.57341373339295 124.04347826074809,67.87674466625322 125.86956521775573,69.09006776986644 128.47826087009162,69.69672894431278 129.65217391308397,69.69672894431278 131.47826086962596,70.3033898678841 134.2173913042061,70.60672023531515 134.8695652168244,71.21338078193367 138.91304347803816,73.3366907160962 140.60869565187022,73.48835559305735 141.39130434766412,73.3366907160962 143.2173913042061,73.48835559305735 146.34782608691603,74.39834452874493 147.9130434775725,75.61166222894099 149.86956521729007,76.52164984494448 154.30434782570228,75.15666820900515 157.43478260887787,73.64002045476809 160.43478260887787,73.7916853009956 162.65217391308397,74.39834452874493 163.0434782607481,74.70167404797394 163.17391304299235,75.0050035045715 162.52173913037404,77.58330134896096 162.7826086957939,80.1615946550155 163.30434782616794,81.07157944410574 164.08695652196184,81.82989966950845 165.39130434719846,82.5882195023587 166.30434782616794,82.73988342192024 168.0,82.43655556731392 170.86956521729007,81.2232435203623 173.21739130374044,80.91991535155103 173.99999999953434,81.07157944410574 174.52173913037404,81.98156366776675 175.30434782570228,82.28489161643665 176.73913043458015,82.28489161643665 177.78260869532824,82.5882195023587 178.56521739112213,82.28489161643665 180.52173912990838,78.94828072364908 181.17391304345801,77.2799724265933 182.08695652149618,74.39834452874493 183.13043478270993,72.12337113020476 183.7826086957939,69.39339838863816 184.69565217383206,68.02841010899283 186.0,63.02344220131636 185.60869565187022,62.416778262122534 184.9565217392519,62.26511223835405 183.0,62.87177623983007 182.47826086962596,62.720110263093375 181.69565217383206,62.416778262122534 180.78260869532824,61.355115764425136 178.9565217392519,59.99011999357026 176.08695652149618,59.99011999357026 175.17391304345801,60.1417862533126 171.91304347850382,61.81011407193728 171.78260869532824,62.568444270291366 170.60869565187022,64.38843514502514 170.60869565187022,66.66342055751011 170.34782608691603,67.42174824350514 169.17391304299235,68.1800755362492 163.17391304299235,68.1800755362492 158.47826086962596,67.57341373339295 157.56521739112213,67.72507920733187 155.60869565233588,67.42174824350514 144.13043478270993,68.1800755362492 139.82608695654199,67.27008273790125 138.6521739126183,66.81508612632751 138.39130434766412,66.5117549734423 138.0,65.45009544410277 135.6521739126183,63.175108146853745 133.56521739112213,63.02344220131636 132.5217391308397,62.416778262122534 130.69565217429772,62.26511223835405 129.13043478270993,61.50678188249003 128.08695652196184,61.658447985188104 126.52173913037404,61.50678188249003 125.34782608691603,60.90011731523555 124.17391304299235,59.23178846004885 123.26086956495419,58.92845573660452 119.08695652196184,58.47345653350931 118.04347826074809,58.018457189551555 117.26086956541985,57.10845807741862 115.69565217383206,58.018457189551555 115.43478260887787,58.92845573660452 115.56521739112213,59.99011999357026 115.69565217383206,60.293452497106045 114.0,63.78177177149337 115.30434782616794,65.75342681689654 117.91304347803816,65.60176113806665 119.47826086962596,66.20842375780921 121.30434782616794,66.96675167896319 125.73913043458015,70.00005943747237 126.52173913037404,70.00005943747237 128.34782608691603,70.91005054011475 131.47826086962596,70.7583853956312 133.82608695607632,71.97170611156616 135.0,71.97170611156616 135.7826086957939,73.03336091362871 138.6521739126183,74.2466797453817 140.60869565187022,74.2466797453817 142.6956521733664,73.7916853009956 143.86956521729007,73.7916853009956 145.6956521733664,74.39834452874493 148.0434782607481,75.91499149741139 149.4782608691603,76.52164984494448 150.52173913037404,76.52164984494448 154.17391304345801,75.61166222894099 154.9565217392519,75.3083328983048 155.73913043458015,74.39834452874493 157.17391304345801,73.7916853009956 158.73913043458015,73.64002045476809 160.69565217383206,73.94335013173986 162.52173913037404,75.45999757142272 162.65217391308397,75.91499149741139 162.26086956541985,77.73496578691993 162.91304347803816,80.61658711999189 163.82608695654199,82.13322764995974 165.0,83.04321121424437 165.39130434719846,83.19487508630846 167.08695652196184,82.89154732576571 167.86956521775573,82.5882195023587 168.2608695649542,82.13322764995974 170.4782608691603,81.37490758148488 172.43478260794654,81.37490758148488 175.69565217429772,81.82989966950845 177.52173912990838,81.6782356556505 178.82608695607632,81.07157944410574 180.78260869532824,78.34162338089664 181.56521739112213,75.61166222894099 183.0,72.88169598917011 183.2608695649542,70.3033898678841 184.04347826028243,69.54506367421709 184.5652173915878,67.42174824350514 185.60869565187022,64.84343251027167 185.8695652168244,63.478439990314655 185.73913043458015,63.175108146853745 185.2173913042061,62.720110263093375 184.30434782616794,62.568444270291366 182.34782608691603,63.32677407655865 180.52173912990838,62.26511223835405 179.7391304350458,61.355115764425136 178.56521739112213,60.596784937311895 177.78260869532824,60.293452497106045 176.21739130374044,60.293452497106045 173.60869565233588,61.051783480797894 171.52173913037404,62.720110263093375 170.86956521729007,64.84343251027167 170.86956521729007,67.57341373339295 170.2173913042061,68.1800755362492 169.69565217383206,68.33174094802234 167.86956521775573,68.02841010899283 161.47826086962596,68.1800755362492 156.52173912990838,67.57341373339295 149.86956521729007,67.87674466625322 143.86956521729007,67.57341373339295 140.86956521729007,68.1800755362492 139.5652173915878,67.72507920733187 138.6521739126183,66.81508612632751 137.8695652168244,66.36008937377483 136.3043478266336,66.20842375780921 135.6521739126183,65.90509247931186 134.08695652196184,64.23676932544913 132.5217391308397,64.08510348957498 131.47826086962596,63.32677407655865 127.43478260887787,61.81011407193728 126.65217391308397,60.90011731523555 123.65217391354963,58.32179010147229 122.47826086962596,56.80512491369154 121.56521739112213,57.10845807741862 120.26086956495419,56.95679150347132 119.2173913042061,57.71512421476655 118.04347826074809,57.260124635184184 117.39130434719846,56.80512491369154 117.7826086957939,57.10845807741862 117.0,57.5634577042656 116.73913043458015,58.47345653350931" stroke="#4DD2FF" stroke-linecap="round" stroke-linejoin="round" stroke-width="0.5"><title>2024-10-27 5.5km</title><desc>12753632530</desc></polyline><polyline fill="none" points="78.11678832117468,162.6800976319937 79.82481751823798,162.37455573689658 80.21897810185328,161.91624277608935 81.92700729938224,154.58321603492368 85.7372262775898,144.8057903490262 86.0,142.51419683010317 85.34306569350883,142.0558776994003 84.686131386552,142.0558776994003 82.97810218948871,142.8197428387357 82.4525547446683,142.66696984239388 81.00729926954955,140.83369265461806 79.69343065703288,139.91705320612527 78.64233576599509,139.61150659667328 75.48905109474435,139.45873326796573 74.56934306584299,139.76427990943193 72.72992700664327,140.98646584025118 71.5474452553317,142.51419683010317 71.15328467125073,144.34747192985378 71.15328467125073,146.18074475158937 71.4160583941266,147.25015284551773 71.02189781004563,147.4029253667686 69.5766423358582,147.5556978727691 62.350364963524044,147.4029253667686 58.540145984850824,147.5556978727691 53.15328467125073,147.4029253667686 44.61313868639991,147.86124283680692 42.773722627200186,148.16678773763124 39.75182481762022,146.79183518595528 37.518248175270855,145.4168813530123 35.94160583987832,145.11133588268422 33.8394160582684,143.58360758179333 32.13138686167076,142.66696984239388 31.21167883183807,142.66696984239388 28.97810218948871,142.2086507587228 28.321167883463204,141.75033153302502 24.510948905255646,140.22259975166526 22.408759124577045,139.76427990943193 18.598540146369487,138.08377260051202 17.28467153245583,137.9309991140617 16.496350365225226,137.16713144397363 15.576642335858196,138.08377260051202 15.576642335858196,139.45873326796573 14.788321167696267,141.2920121648349 14.262773722875863,143.73638048325665 14.262773722875863,144.65301755839027 15.576642335858196,146.4862900004955 16.364963504020125,146.4862900004955 18.99270072998479,145.87519943946972 20.832116788253188,146.02797210379504 25.82481751870364,148.77787734940648 27.795620437711477,148.93064971256536 35.416058394126594,151.06946113880258 38.437956204637885,153.2082694633864 40.93430656939745,154.27767246309668 45.13868613122031,154.12490065407474 47.63503649644554,155.19430298905354 48.81751824775711,156.26370454917196 50.78832116769627,156.87479080702178 51.576642335858196,156.72201926645357 53.678832116536796,155.9581613255432 55.91240875888616,154.43044425721746 56.569343065842986,154.43044425721746 58.540145984850824,153.36104136775248 60.37956204358488,153.66658512991853 61.82481751823798,154.27767246309668 63.66423357697204,155.49984637112357 63.00729927001521,156.4164761371212 62.87591240881011,157.1803338411264 63.00729927001521,157.9441911490867 62.21897810231894,158.8608193967957 62.21897810231894,159.31913330685347 63.13868613122031,161.15238752460573 63.532846715301275,161.6107007227838 65.10948905115947,162.52732669236138 66.686131386552,162.83286855614278 70.10218978114426,161.91624277608935 72.86131386831403,161.4579296723241 76.14598540123552,162.06901377881877 77.98540145950392,162.83286855614278 79.03649635007605,162.52732669236138 79.82481751823798,162.06901377881877 80.08759124111384,161.6107007227838 80.74452554713935,159.1663620194886 81.66423357650638,156.4164761371212 82.58394160540774,154.58321603492368 83.24087591189891,151.52777746890206 84.94890510942787,147.86124283680692 85.86861313832924,143.8891533690039 85.86861313832924,142.66696984239388 85.08029197063297,142.0558776994003 82.84671532828361,142.66696984239388 81.27007299289107,140.98646584025118 80.35036496352404,140.22259975166526 75.62043795594946,139.15318656375166 74.17518248176202,139.61150659667328 73.91240875935182,140.22259975166526 72.72992700664327,141.59755842585582 71.94160583941266,142.9725158190122 71.4160583941266,145.11133588268422 71.5474452553317,147.4029253667686 71.15328467125073,147.70847036258783 69.7080291970633,148.01401529530995 67.34306569350883,147.70847036258783 59.459854014683515,147.70847036258783 57.489051094744354,147.4029253667686 53.678832116536796,147.86124283680692 49.474452554713935,147.5556978727691 43.29927007295191,147.86124283680692 40.671532846521586,146.94460775516927 39.75182481762022,146.02797210379504 37.518248175270855,145.56965406413656 36.99270072998479,144.95856312382966 35.94160583987832,144.8057903490262 35.416058394126594,144.50024475215469 34.89051094837487,143.73638048325665 32.78832116769627,142.8197428387357 27.13868613122031,141.4447853033198 26.613138686399907,140.83369265461806 25.430656934622675,140.5281462345738 24.379562044050545,139.15318656375166 19.649635036475956,138.2365460715955 17.678832117002457,138.54209296556655 15.97080291993916,137.7782256117789 15.05109489010647,138.54209296556655 15.05109489010647,141.13923901040107 14.262773722875863,142.51419683010317 14.0,144.0419262383366 14.525547445751727,144.95856312382966 15.576642335858196,146.02797210379504 16.364963504020125,146.18074475158937 17.28467153245583,145.87519943946972 18.729927007108927,145.72242675954476 20.70072992751375,146.02797210379504 21.88321167882532,146.4862900004955 23.459854014683515,147.70847036258783 24.90510948887095,148.31956016400363 29.10948905115947,150.00005581323057 33.31386861298233,150.1528280499624 35.678832116536796,150.9166889966 38.17518248222768,152.44440970325377 39.88321167882532,153.2082694633864 44.61313868639991,153.66658512991853 47.10948905115947,154.88875954353716 48.554744525812566,155.9581613255432 49.8686131387949,156.56924770970363 51.97080291993916,156.56924770970363 53.678832116536796,155.80538968974724 56.17518248176202,154.12490065407474 57.88321167882532,153.51381325663533 59.32846715301275,153.2082694633864 60.773722627200186,153.51381325663533 62.61313868639991,154.58321603492368 63.00729927001521,155.49984637112357 62.481751825194806,156.87479080702178 62.61313868639991,159.1663620194886 63.27007299242541,160.69407418358605 64.18978102179244,161.4579296723241 65.50364963477477,161.91624277608935 67.34306569350883,162.06901377881877 69.31386861298233,161.6107007227838 71.81021897820756,161.4579296723241 73.78102189768106,161.6107007227838 77.45985401468351,162.52732669236138 78.64233576599509,162.22178476583213 79.56204379536211,161.76347175752744 80.08759124111384,160.84684531320818 80.21897810185328,159.77744707511738 81.00729926954955,158.0969625634607 82.4525547446683,153.66658512991853 84.02919708006084,150.1528280499624 84.1605839417316,149.083422060241 85.47445255424827,146.02797210379504 86.0,144.0419262383366 85.7372262775898,142.9725158190122 85.34306569350883,142.36142380244564 84.8175182477571,142.2086507587228 82.84671532828361,142.9725158190122 82.4525547446683,142.9725158190122 80.08759124111384,140.3753730012104 78.64233576599509,139.91705320612527 75.48905109474435,139.45873326796573 74.83211678825319,139.61150659667328 74.17518248176202,140.0698264867533 74.04379562055692,140.5281462345738 72.99270072998479,141.4447853033198 71.94160583941266,142.9725158190122 71.5474452553317,144.95856312382966 71.5474452553317,147.5556978727691 71.4160583941266,148.01401529530995 70.75912408716977,148.47233257512562 68.6569343060255,148.01401529530995 61.95620437944308,147.70847036258783 48.1605839417316,147.86124283680692 46.321167883463204,148.16678773763124 45.13868613122031,148.01401529530995 43.69343065703288,147.4029253667686 43.562043795362115,146.4862900004955 41.72262773709372,144.95856312382966 39.88321167882532,144.50024475215469 38.83211678825319,144.8057903490262 36.99270072998479,144.50024475215469 35.81021897820756,143.12528878322337 35.81021897820756,142.66696984239388 35.28467153292149,142.36142380244564 32.91970802936703,142.2086507587228 31.605839415919036,141.2920121648349 27.795620437711477,141.75033153302502 25.693430657032877,141.4447853033198 23.06569343060255,140.22259975166526 18.204379562288523,138.54209296556655 17.153284671716392,137.9309991140617 17.416058394126594,137.7782256117789 17.153284671716392,137.31990500935353 16.233576642349362,138.2365460715955 16.10218978114426,139.61150659667328 15.313868613447994,141.90310462436173 14.788321167696267,142.66696984239388 14.525547445751727,144.95856312382966 15.05109489010647,145.87519943946972 15.83941605873406,146.6390626009088 20.306569342967123,145.87519943946972 20.569343066308647,146.18074475158937 22.93430656939745,146.79183518595528 25.299270072951913,148.77787734940648 26.218978102318943,149.2361943917349 28.18978102179244,149.69451129203662 30.94890510942787,149.69451129203662 34.23357664234936,150.45837247616146 35.81021897820756,151.375005374779 37.649635036475956,151.9860936574405 38.96350364945829,153.05549754342064 40.93430656939745,153.66658512991853 46.18978102179244,153.81935698690359 46.84671532828361,154.7359877974959 49.7372262775898,156.4164761371212 51.05109489010647,156.87479080702178 52.364963504020125,156.72201926645357 56.96350364945829,153.81935698690359 58.14598540123552,153.36104136775248 59.19708029227331,153.05549754342064 60.64233576692641,153.36104136775248 61.69343065703288,154.12490065407474 62.481751825194806,155.19430298905354 62.350364963524044,158.70804806204978 63.00729927001521,160.69407418358605 63.79562043771148,162.06901377881877 64.7153284670785,162.52732669236138 67.34306569350883,162.6800976319937 70.75912408716977,161.76347175752744 72.72992700664327,161.4579296723241 74.83211678825319,161.76347175752744 76.40875912411138,162.52732669236138 77.72262773709372,162.6800976319937 79.82481751823798,161.6107007227838 80.35036496352404,160.99961642653216 80.74452554713935,159.77744707511738" stroke="#4DD2FF" stroke-linecap="round" stroke-linejoin="round" stroke-width="0.5"><title>2024-10-13 5.5km</title><desc>12641545700</desc></polyline><polyline fill="none" points="159.14808043884113,153.5967664642958 161.780621571932,154.36202275729738 162.3071297989227,154.97422750573605 162.43875685567036,155.89253415283747 161.91224862867966,157.57609485811554 161.91224862867966,158.80050143937115 162.043875685893,159.56575503724162 162.83363802544773,160.79015996993985 163.88665447896346,161.5554125382332 165.33455210225657,162.16761430737097 166.914076782763,162.32066470978316 172.70566727546975,161.70846300397534 176.52285191928968,162.47371509682853 178.8921389398165,162.16761430737097 179.41864716634154,161.5554125382332 179.6819012798369,159.87185636570211 181.65630712965503,154.82117634208407 182.05118829989806,152.67845839087386 183.1042047534138,150.99489210685715 184.28884826321155,148.08690946316347 185.73674588650465,143.6483986072708 185.60511882975698,143.18924155121204 184.94698354694992,142.73008435219526 182.44606946967542,142.88313676742837 180.3400365631096,140.74040150875226 174.8117001829669,139.66903271444608 173.49542961642146,140.2812435493106 172.0475319926627,141.50566445756704 170.99451553914696,142.73008435219526 170.46800731215626,144.71976451703813 170.46800731215626,147.62775378557853 169.80987202888355,148.2399613240268 161.25411334540695,147.32164992194157 155.33089579548687,147.32164992194157 152.96160877496004,147.01554599381052 146.1170018282719,147.01554599381052 141.11517367418855,147.78080569417216 140.06215722067282,147.4747018616181 139.79890310764313,147.01554599381052 138.35100548435003,146.86249400652014 137.4296160871163,146.25028589810245 136.90310786105692,145.6380775355501 136.77148080430925,145.02586891991086 137.0347349178046,144.41366005048621 136.77148080430925,143.801450927509 135.7184643507935,143.03618916729465 134.66544789774343,142.73008435219526 133.34917733073235,143.49534627085086 130.97989031067118,143.18924155121204 130.05850091390312,142.42397947364952 125.9780621570535,141.04650673642755 124.92504570400342,140.4342962182127 124.39853747701272,139.66903271444608 122.68738574022427,138.44461028464139 121.23948811693117,138.59766314353328 117.94881169963628,137.98545161180664 117.15904936008155,137.6793457500171 116.8957952465862,137.3732398255961 117.02742230379954,137.0671338379616 116.36928702006117,137.6793457500171 114.65813528327271,141.50566445756704 114.0,143.49534627085086 114.39488117024302,145.6380775355501 115.05301645305008,146.403337949072 118.3436928698793,146.25028589810245 119.65996343642473,146.55638998385984 120.5813528331928,147.01554599381052 120.97623400343582,147.4747018616181 123.0822669104673,148.08690946316347 124.79341864679009,149.4643756392179 126.89945155382156,150.38268571021035 132.2961608772166,151.14794366667047 140.19378427788615,154.20897153008264 141.51005484443158,154.05592028750107 141.37842778814957,153.5967664642958 143.48446069424972,153.90286902920343 148.09140767809004,156.8108402300859 149.1444241311401,157.2699930545641 150.59232175443321,157.2699930545641 152.435100548435,156.65778925665654 154.6727605117485,154.97422750573605 157.56855575880036,153.5967664642958 161.64899451564997,154.36202275729738 162.43875685567036,155.73948308487888 161.64899451564997,157.88219659845345 161.780621571932,160.17795763059985 162.043875685893,160.94321051542647 162.96526508172974,161.8615134540014 163.88665447896346,162.62676546769217 164.67641681898385,162.7798158224905 167.1773308957927,162.932866161922 170.33638025587425,162.16761430737097 172.8372943326831,161.8615134540014 174.68007312575355,162.01456388854422 177.31261425931007,162.932866161922 178.10237659979612,162.932866161922 178.8921389398165,161.70846300397534 178.8921389398165,159.87185636570211 179.55027422262356,159.10660292615648 181.12979890313,154.97422750573605 182.44606946967542,154.05592028750107 182.84095063945279,153.137612498831 182.70932358363643,152.52540698973462 183.1042047534138,152.06625269108918 183.89396709296852,150.2296340711182 184.42047531995922,148.08690946316347 184.8153564897366,147.4747018616181 186.0,143.49534627085086 185.73674588650465,142.88313676742837 184.8153564897366,142.27092701080255 182.97257769666612,143.03618916729465 182.44606946967542,143.03618916729465 180.07678245007992,140.58734887163155 178.23400365607813,139.82208544702735 174.41681901272386,139.3629272019025 172.70566727546975,140.89345413050614 171.52102376613766,142.57703192089684 170.86288848239928,145.33197325957008 170.99451553914696,147.78080569417216 170.46800731215626,148.2399613240268 163.09689213894308,147.62775378557853 153.48811700148508,147.62775378557853 150.72394881164655,147.93385758635122" stroke="#4DD2FF" stroke-linecap="round" stroke-linejoin="round" stroke-width="0.5"><title>2024-09-09 5.2km</title><desc>12366514575</desc></polyline><polyline fill="none" points="57.4098360654898,232.59246079123113 58.32786885229871,232.74495458055753 61.344262294936925,233.81241066439543 62.13114754110575,234.57487882243004 62.52459016395733,235.33734658523463 62.655737705063075,236.25230737926904 62.26229508174583,237.62474750517868 61.86885245889425,237.92973402608186 62.13114754110575,239.75965182471555 63.049180327448994,241.28458158660214 63.836065573152155,241.7420602076454 65.54098360659555,242.35203148040455 67.6393442619592,242.80950976978056 69.7377049177885,242.35203148040455 70.13114754110575,242.04704587580636 74.06557377055287,241.58956734952517 75.63934426242486,242.04704587580636 78.39344262238592,242.1995386860799 78.7868852452375,241.7420602076454 78.7868852452375,241.43707447568886 79.83606557315215,240.36962391878478 80.49180327821523,237.77724077331368 80.62295081932098,235.64233357983176 81.1475409832783,233.96490432799328 82.3278688522987,232.74495458055753 82.85245901579037,230.91502806544304 84.29508196702227,228.93260510766413 85.08196721225977,227.10267385467887 85.21311475383118,226.18770737526938 85.7377049177885,224.81525659107137 85.34426229493693,223.90028869046364 85.7377049177885,222.3753409262281 85.47540983557701,221.6128664520802 85.34426229493693,221.30787655175664 82.59016393404454,221.91785628919024 81.27868852438405,220.85039158328436 80.75409836042672,220.0879163191421 79.9672131142579,219.32544066070113 77.6065573762171,218.86795507615898 76.5573770487681,219.0204502865672 73.67213114723563,219.935421219212 73.01639344217256,220.3929064719705 72.49180327821523,221.91785628919024 72.36065573710948,223.59529926395044 72.09836065536365,224.51026735361665 70.13114754110575,228.0176397653995 69.47540983557701,228.47512250742875 68.42622950812802,228.17013402853627 66.98360655736178,227.40766255476046 65.54098360659555,227.10267385467887 63.31147541012615,226.18770737526938 57.27868852484971,225.12024576449767 52.8196721309796,225.73022392264102 47.70491803204641,225.4252348751761 45.344262294471264,225.57772940665018 39.442622950766236,226.79768509138376 38.131147540640086,226.49269626487512 33.540983606129885,223.7477939852979 30.918032786343247,221.15538157778792 28.950819672085345,220.85039158328436 26.459016392938793,221.15538157778792 25.4098360654898,220.85039158328436 24.229508196469396,219.782926103333 24.229508196469396,218.2579740753863 24.88524590153247,217.95298348017968 24.622950819320977,217.8004881591769 21.213114753831178,217.0380113159772 17.934426229447126,217.19050671637524 17.016393442172557,216.27553407824598 15.573770491871983,217.64799282245804 15.311475409660488,218.5629646073794 15.573770491871983,219.0204502865672 15.311475409660488,219.47793582407758 15.049180327914655,221.46037150966004 15.049180327914655,223.1378150054952 14.0,225.2727403275203 14.0,225.8827184229158 15.704918032512069,226.49269626487512 17.278688524849713,226.18770737526938 19.11475409846753,226.34020182827953 22.655737705063075,228.17013402853627 24.622950819320977,229.8475698811235 27.11475409846753,230.91502806544304 31.18032786855474,231.2200159757631 33.934426228981465,233.96490432799328 34.852459016256034,233.96490432799328 36.03278688527644,233.50742329109926 38.131147540640086,233.65991698566359 39.836065573152155,234.26989160617813 44.426229507662356,234.11739797482733 47.836065573617816,234.7273724063998 50.459016393404454,235.94732051121537 54.39344262285158,234.87986597500276 56.229508196469396,233.50742329109926 58.852459016721696,232.74495458055753 61.08196721319109,233.96490432799328 61.737704917788506,234.57487882243004 61.86885245889425,236.25230737926904 61.86885245889425,239.60715876193717 62.52459016395733,241.7420602076454 64.75409836089239,243.1144952167524 65.1475409832783,243.72446592175402 65.67213114676997,243.72446592175402 66.3278688522987,243.571973268874 66.98360655736178,242.96200250112452 69.7377049177885,241.58956734952517 72.88524590153247,241.13208868168294 74.19672131119296,241.89455304923467 77.34426229493693,242.1995386860799 78.26229508174583,242.04704587580636 79.049180327449,241.43707447568886 79.57377049140632,240.67460987146478 80.36065573757514,237.01477427384816 81.01639344217256,236.25230737926904 81.40983606502414,234.87986597500276 82.45901639340445,233.2024358540075 82.98360655736178,230.91502806544304 84.42622950766236,228.3226282754913 85.60655737668276,224.66276198008563 86.0,222.07035118388012 85.7377049177885,221.46037150966004 85.34426229493693,221.30787655175664 82.85245901579037,221.6128664520802 81.80327868834138,221.00288658833597 81.54098360659555,220.24041140370537 80.75409836042672,219.47793582407758 77.47540983557701,218.71545984980185 73.27868852438405,220.24041140370537 71.44262295076624,221.6128664520802 70.52459016349167,224.51026735361665 70.26229508174583,225.57772940665018 70.39344262238592,226.49269626487512 70.13114754110575,227.71265119162854 69.7377049177885,227.86514548654668 68.95081967208534,227.86514548654668 67.11475409800187,226.79768509138376 66.19672131119296,226.49269626487512 62.655737705063075,226.18770737526938 59.11475409846753,225.4252348751761 57.4098360654898,225.57772940665018 56.36065573710948,225.8827184229158 55.836065573617816,226.34020182827953 54.91803278680891,226.49269626487512" stroke="#4DD2FF" stroke-linecap="round" stroke-linejoin="round" stroke-width="0.5"><title>2024-09-08 5.3km</title><desc>12358368474</desc></polyline></svg>