<?xml version="1.0" encoding="utf-8" ?>
<svg baseProfile="full" height="300mm" version="1.1" viewBox="0,0,200,300" width="200mm" xmlns="http://www.w3.org/2000/svg" xmlns:ev="http://www.w3.org/2001/xml-events" xmlns:xlink="http://www.w3.org/1999/xlink"><defs /><rect fill="#222222" height="300" width="200" x="0" y="0" /><text fill="#FFFFFF" style="font-size:12px; font-family:Arial; font-weight:bold;" x="10" y="20">Over 5km Runs</text><text fill="#FFFFFF" style="font-size:4px; font-family:Arial" x="10" y="280">ATHLETE</text><text fill="#FFFFFF" style="font-size:9px; font-family:Arial" x="10" y="290">Mr. Error 追</text><text fill="#FFFFFF" style="font-size:4px; font-family:Arial" x="65" y="280">SPECIAL TRACKS</text><rect fill="yellow" height="2.6" width="2.6" x="65" y="283" /><text fill="#FFFFFF" style="font-size:3px; font-family:Arial" x="70" y="285.5">Over 20.0 km</text><rect fill="red" height="2.6" width="2.6" x="65" y="287" /><text fill="#FFFFFF" style="font-size:3px; font-family:Arial" x="70" y="289.5">Over 40.0 km</text><text fill="#FFFFFF" style="font-size:4px; font-family:Arial" x="120" y="280">STATISTICS</text><text fill="#FFFFFF" style="font-size:3px; font-family:Arial" x="120" y="285">Number: 6</text><text fill="#FFFFFF" style="font-size:3px; font-family:Arial" x="120" y="290">Weekly: 1.2</text><text fill="#FFFFFF" style="font-size:3px; font-family:Arial" x="141" y="285">Total: 32.3 km</text><text fill="#FFFFFF" style="font-size:3px; font-family:Arial" x="141" y="290">Avg: 5.4 km</text><text fill="#FFFFFF" style="font-size:3px; font-family:Arial" x="167" y="285">Min: 5.2 km</text><text fill="#FFFFFF" style="font-size:3px; font-family:Arial" x="167" y="290">Max: 5.5 km</text><polyline fill="none" points="75.8444846291095,93.91987771855202 76.88607594929636,94.07126680132933 77.6672694394365,93.76848861994222 78.96925858967006,92.25459677283652 80.27124773943797,86.65318330738228 81.18264014506713,83.6253833094379 81.31283905962482,82.56565182877239 82.35443037981167,79.6892339377664 83.9168173596263,76.20724681334104 85.86980108497664,70.60577186348382 86.0,69.6974225519225 85.73960216948763,68.48628925881349 84.43761302018538,66.51819551712833 83.13562386948615,65.15566752874292 81.31283905962482,64.2473148307763 79.49005424929783,63.94453047297429 77.40687160985544,62.43060774204787 74.41229656431824,61.21946842840407 72.06871609389782,60.76529092725832 69.33453887887299,59.70554287568666 68.03254972863942,58.64579405589029 66.33996383333579,58.04022295679897 63.4755877032876,57.58604446798563 58.1374321882613,55.769329101312906 56.57504520798102,54.86097057117149 55.27305605774745,54.70957742771134 55.14285714318976,54.406791094341315 53.3200723323971,53.64982498646714 50.32549728779122,52.741465139202774 48.37251356244087,52.5900717767654 47.33092224271968,52.5900717767654 45.50813743239269,51.833104728139006 44.07594936713576,51.98449816904031 42.773960216902196,51.681711271055974 39.12839059671387,50.167775841197 37.435804701875895,49.86498856707476 35.6130198915489,48.95662636868656 34.311030741315335,48.65383884345647 33.529837251175195,48.048263605334796 31.44665461126715,47.59408201172482 31.316455696243793,47.44268811575603 29.88426763145253,46.68571840215009 25.717902350705117,45.47456604440231 24.936708860564977,45.47456604440231 22.85352622065693,47.13990027748514 22.332730560563505,47.896869756281376 22.46292947558686,48.80523261381313 22.332730560563505,49.56220123008825 20.770343580283225,50.47056305233855 19.207956600468606,52.438678398146294 19.07775768544525,54.86097057117149 18.55696202488616,56.37490114092361 18.29656419530511,57.73743731318973 17.77576853474602,59.09997221559752 17.77576853474602,60.76529092725832 17.385171790141612,61.52225335093681 16.73417721502483,62.12782300775871 15.17179023521021,64.2473148307763 14.39059674507007,68.63768097513821 14.650994575116783,69.54603094526101 16.603978300001472,71.36272919178009 19.72875226009637,70.60577186348382 21.811934900470078,71.05994630779605 22.46292947558686,71.66551201348193 23.244122965727,72.57386010233313 25.717902350705117,74.39055458630901 28.191681735683233,75.45029199298006 31.186256780754775,75.75307396810967 32.748643761035055,76.35863773012534 34.18083182629198,77.41837371024303 36.65461121220142,78.62949960376136 37.045207956340164,78.62949960376136 38.08679927699268,79.38645277742762 39.90958408685401,80.29479606903624 39.779385171830654,79.99201503489166 40.03978300187737,79.99201503489166 43.94575045211241,79.6892339377664 45.898734176997095,80.74896750343032 48.37251356244087,81.0517483811127 50.32549728779122,82.56565182877239 51.62748643755913,83.0198225575732 53.45027124742046,82.71704208746087 54.75226039811969,81.0517483811127 56.57504520798102,79.6892339377664 57.22603978263214,79.53784336533863 58.397830018308014,79.23506217403337 61.392405063379556,79.6892339377664 62.69439421361312,80.9003579497803 63.21518987324089,81.80870030086953 62.82459312817082,83.17121276911348 62.173598553519696,83.77677345846314 62.173598553519696,84.68511402234435 62.954792043659836,86.04762380977627 63.735985533799976,86.95596296223812 66.07956600328907,88.16708095488138 67.9023508131504,88.16708095488138 71.02712477417663,87.25874255457893 73.76130198920146,87.71291182551067 75.8444846291095,88.62124994338956 76.10488245915622,88.46986029623076 77.40687160985544,88.46986029623076 78.31826401408762,87.71291182551067 78.70886075915769,87.1073527665576 78.70886075915769,86.65318330738228 80.66184448450804,84.23094381054398 81.44303797464818,82.56565182877239 82.22423146478832,79.6892339377664 83.26582278497517,77.11559208028484 83.26582278497517,76.51002863154281 84.56781193474308,74.2391634657979 85.60940325539559,70.75716336048208 85.60940325539559,70.00020571891218 84.69801084976643,67.72933044075035 84.04701627511531,66.6695874374127 83.26582278497517,65.76123568043113 80.92224231455475,64.5500991261797 79.35985533474013,64.2473148307763 73.50090415868908,61.6736457888037 71.4177215192467,61.37086089758668 71.02712477417663,60.76529092725832 64.90777576807886,57.88883014291059 62.564195298589766,57.73743731318973 59.960216998588294,56.07211515225936 56.18444846291095,54.55818426911719 51.49728752300143,53.64982498646714 47.33092224271968,51.833104728139006 46.54972875211388,51.681711271055974 44.9873417718336,52.1358915946912 41.602169981691986,51.3789243104402 40.430379746481776,50.924743752228096 35.74321880657226,48.19965743809007 31.576853525824845,47.59408201172482 30.405063291080296,46.988506334950216 25.19710669061169,45.47456604440231 22.85352622065693,46.53432441211771 22.202531645540148,47.13990027748514 22.332730560563505,47.59408201172482 21.68173598544672,48.95662636868656 21.551537070423365,50.924743752228096 20.24954792065546,51.833104728139006 19.72875226009637,52.741465139202774 19.207956600468606,54.55818426911719 18.817359855864197,54.86097057117149 18.426763110328466,55.617936052032746 18.166365280281752,56.829080006456934 17.385171790141612,57.28325872973073 16.603978300001472,58.49440130451694 16.603978300001472,59.09997221559752 17.254972875583917,60.76529092725832 16.34358047042042,62.73339241370559 16.083182639908046,63.94453047297429 15.432188065256923,64.5500991261797 15.17179023521021,67.72933044075035 14.520795659627765,68.48628925881349 14.78119349014014,70.15159727830905 15.432188065256923,71.66551201348193 16.994575045071542,72.57386010233313 17.77576853474602,73.48220762622077 19.598553345538676,74.39055458630901 24.41591320047155,77.72115527756978 25.327305605635047,78.17532751150429 27.93128390610218,78.47810892178677 32.748643761035055,79.6892339377664 34.83182640140876,80.29479606903624 37.045207956340164,81.50591957999859 37.95660036150366,81.3545291958144 39.12839059671387,81.96009063790552 40.69077757699415,81.96009063790552 41.08137432159856,82.41426155436784 41.732368897181004,82.41426155436784 42.513562387321144,82.86843233020045 44.33634719718248,82.86843233020045 45.898734176997095,83.47399314516224 47.72151898778975,83.77677345846314 49.54430379765108,85.13928409235086 51.62748643755913,85.13928409235086 52.40867992769927,85.74484396656044 52.929475587792695,86.65318330738228 54.36166365304962,86.95596296223812 55.27305605774745,87.56152208405547 61.001808318309486,89.22680837556254 62.04339963803068,89.22680837556254 63.21518987324089,90.28653502778616 63.21518987324089,90.74070335773285 64.64737793849781,91.0434821662493 65.55877034319565,91.64903959503863 66.33996383333579,91.3462609120179 69.20433996384963,92.10320750169922 70.37613019905984,93.01154289243277 72.19891500938684,93.46571037592366 74.28209764882922,94.52543395559769 76.23508137417957,94.07126680132933 77.14647377934307,93.16293206939008 77.27667269436643,92.55737526738085 78.05786618450657,91.49765026103705 78.05786618450657,91.0434821662493 78.96925858967006,90.28653502778616 78.96925858967006,89.22680837556254 80.66184448450804,86.95596296223812 81.44303797464818,84.0795537091326 82.8752260399051,79.84062449401245 83.52622061455622,77.41837371024303 84.43761302018538,75.6016829884611 85.21880651032552,72.27107746875845 85.86980108497664,71.05994630779605 86.0,69.6974225519225 85.21880651032552,68.03211401531007 84.43761302018538,67.72933044075035 83.65641953004524,66.51819551712833 83.39602169999853,65.60984366585035 78.96925858967006,63.49035381816793 78.31826401408762,63.03617702249903 77.92766726901755,62.43060774204787 76.36528028920293,61.6736457888037 68.94394213380292,60.15972070605494 68.03254972863942,59.70554287568666 66.86075949342921,58.79718679189682 64.51717902347445,58.34300853766035 59.69981916807592,56.37490114092361 57.87703435821459,55.31514990667347 53.84086799249053,53.64982498646714 52.538878842722625,53.4984317177441 51.62748643755913,52.89285848650616 48.8933092225343,52.28728500427678 44.46654611220583,51.681711271055974 39.6491862568073,50.47056305233855 36.91500904178247,50.31916945462581 34.96202531643212,49.259413830470294 32.358047015964985,48.65383884345647 31.707052441313863,48.19965743809007 31.576853525824845,47.745475892093964 25.58770343568176,45.62596014374867 24.546112115494907,45.77735422796104 23.895117540843785,46.231536385486834 21.811934900470078,47.13990027748514 21.160940325818956,48.048263605334796 19.989150090608746,48.65383884345647 19.989150090608746,49.4108075380791 20.770343580283225,49.86498856707476 20.770343580283225,51.076137287542224 20.50994575023651,51.98449816904031 19.989150090608746,52.28728500427678 19.72875226009637,52.89285848650616 19.85895117558539,53.80121823947411 19.85895117558539,54.86097057117149 19.07775768544525,56.37490114092361 18.166365280281752,57.58604446798563 17.51537070516497,59.40275757701602 17.645569620653987,60.613898395211436 16.473779385443777,63.03617702249903 15.692585894837976,64.70149125042371 14.520795659627765,65.76123568043113 14.0,66.82097934221383 14.0,67.88072223588824 14.39059674507007,69.39463932265062 15.301989149767905,71.05994630779605 16.473779385443777,71.51412061078008 19.46835443051532,71.36272919178009 22.723327305633575,72.27107746875845 26.108499095775187,74.2391634657979 28.972875225823373,74.84472785505932 30.144665461033583,75.6016829884611 30.795660035684705,75.45029199298006 31.186256780754775,75.904464932275 31.967450270894915,75.904464932275 33.00904159108177,76.6614195171278 34.18083182629198,76.6614195171278 35.74321880657226,77.41837371024303 38.21699819108471,79.6892339377664 40.169981916900724,80.5975770407822 44.20614828169346,79.6892339377664 45.50813743239269,79.84062449401245 46.679927667137235,80.5975770407822 47.72151898778975,81.0517483811127 49.023508137091994,82.11148095922545 50.06509945774451,82.41426155436784 52.66907775728032,82.11148095922545 55.9240506333299,80.74896750343032 56.70524412300438,80.74896750343032 56.96564195305109,80.14340556017123 58.007233273237944,79.53784336533863 58.788426763378084,79.53784336533863 59.960216998588294,79.6892339377664 62.564195298589766,80.9003579497803 62.954792043659836,81.3545291958144 62.43399638310075,84.68511402234435 63.4755877032876,86.35040358966216 64.64737793849781,87.25874255457893 65.688969258219,87.41013232700061 65.81916817370802,87.86430155101698 67.3815551539883,88.31847063323949 71.02712477417663,87.71291182551067 73.76130198920146,87.56152208405547 75.19349005445838,87.56152208405547 76.36528028920293,88.31847063323949 76.62567811924964,88.92402919090819 75.97468354459852,90.43792448670138 74.5424954793416,91.9518182153115 74.28209764882922,92.40598602802493 73.89150090422481,92.10320750169922" stroke="#4DD2FF" stroke-linecap="round" stroke-linejoin="round" stroke-width="0.5"><title>2024-11-16 5.2km</title><desc>12913950085</desc></polyline><polyline fill="none" points="138.0,71.97170611156616 137.47826086962596,72.7300310486462 137.8695652168244,72.7300310486462 137.7391304350458,72.88169598917011 139.0434782607481,72.7300310486462 139.9565217392519,73.3366907160962 140.08695652103052,73.94335013173986 141.7826086957939,73.94335013173986 144.7826086957939,73.3366907160962 145.95652173878625,73.94335013173986 147.13043478224427,75.3083328983048 149.73913043458015,75.76332687109243 154.17391304345801,75.45999757142272 155.47826086962596,74.2466797453817 156.13043478224427,72.88169598917011 156.52173912990838,72.7300310486462 156.91304347803816,72.57836609240621 157.30434782570228,72.88169598917011 157.17391304345801,73.48835559305735 157.30434782570228,73.48835559305735 159.26086956541985,73.18502582237124 161.73913043458015,74.09501494618598 162.39130434766412,74.70167404797394 162.7826086957939,75.76332687109243 162.7826086957939,78.18995900580194 163.69565217383206,80.61658711999189 163.30434782616794,80.91991535155103 163.95652173878625,81.52657162642572 166.69565217383206,82.5882195023587 167.73913043458015,82.5882195023587 169.82608695654199,81.6782356556505 172.69565217429772,81.52657162642572 173.60869565233588,81.52657162642572 176.21739130374044,82.5882195023587 177.52173912990838,82.43655556731392 178.69565217383206,82.13322764995974 179.08695652149618,80.76825124339666 180.39130434766412,78.4932877398096 182.47826086962596,73.18502582237124 183.0,70.91005054011475 184.9565217392519,66.81508612632751 186.0,63.63010588858742 185.4782608691603,62.87177623983007 184.9565217392519,62.720110263093375 182.08695652149618,63.32677407655865 181.30434782570228,63.175108146853745 180.78260869532824,62.720110263093375 180.52173912990838,61.20344963076059 179.8695652168244,60.445118725067005 176.73913043458015,59.535121120279655 175.69565217429772,59.68678742728662 173.21739130374044,60.74845113430638 173.21739130374044,61.20344963076059 171.13043478270993,64.38843514502514 170.99999999953434,66.66342055751011 171.13043478270993,67.42174824350514 170.08695652196184,68.1800755362492 153.52173912990838,67.42174824350514 152.34782608645037,67.57341373339295 142.17391304345801,67.72507920733187 138.0,66.20842375780921 136.82608695607632,65.29842973430641 135.39130434766412,63.32677407655865 133.4347826084122,62.568444270291366 132.0,62.568444270291366 131.34782608691603,62.26511223835405 130.4347826084122,61.81011407193728 128.99999999953434,60.445118725067005 127.43478260887787,60.74845113430638 126.26086956495419,60.293452497106045 126.13043478270993,60.74845113430638 124.95652173878625,60.596784937311895 122.86956521775573,59.68678742728662 122.47826086962596,58.92845573660452 122.47826086962596,58.47345653350931 121.69565217383206,58.018457189551555 120.65217391354963,57.86679070990067 120.0,58.17012365348637 118.30434782616794,58.018457189551555 117.0,57.5634577042656 116.08695652196184,56.80512491369154 115.95652173925191,56.95679150347132 115.04347826121375,59.99011999357026 114.52173913037404,62.26511223835405 114.52173913037404,64.23676932544913 115.04347826121375,65.90509247931186 115.82608695654199,66.20842375780921 116.73913043458015,66.36008937377483 117.91304347803816,65.90509247931186 119.34782608691603,66.05675812624395 121.69565217383206,66.96675167896319 123.65217391354963,68.48340634361375 127.17391304345801,70.15172466065269 132.5217391308397,70.45505505951587 136.82608695607632,73.03336091362871 139.69565217383206,73.94335013173986 141.52173913037404,74.39834452874493 143.4782608691603,73.64002045476809 144.52173913037404,73.7916853009956 145.4347826084122,74.09501494618598 145.56521739112213,74.55000929581001 147.65217391308397,75.76332687109243 149.34782608691603,75.61166222894099 151.43478260887787,76.06665610778145 154.30434782570228,75.3083328983048 156.78260869532824,73.64002045476809 158.08695652149618,73.48835559305735 160.95652173878625,73.64002045476809 162.26086956541985,74.55000929581001 162.7826086957939,75.3083328983048 162.65217391308397,76.52164984494448 162.26086956541985,77.12830794148613 162.65217391308397,79.09994501981419 162.39130434766412,79.85826626617927 162.65217391308397,80.61658711999189 164.34782608645037,81.6782356556505 166.56521739112213,82.43655556731392 170.86956521729007,80.91991535155103 173.21739130374044,81.2232435203623 175.30434782570228,82.28489161643665 177.2608695649542,82.28489161643665 179.8695652168244,81.2232435203623 180.0,80.31325882591773 180.91304347850382,78.34162338089664 182.34782608691603,73.3366907160962 184.30434782616794,69.54506367421709 185.4782608691603,65.75342681689654 185.8695652168244,64.23676932544913 185.60869565187022,63.32677407655865 184.9565217392519,62.87177623983007 182.08695652149618,63.02344220131636 179.47826086962596,60.74845113430638 178.04347826028243,60.293452497106045 176.99999999953434,60.293452497106045 173.34782608691603,60.596784937311895 172.17391304299235,61.355115764425136 170.99999999953434,63.175108146853745 170.73913043458015,64.38843514502514 170.73913043458015,66.96675167896319 170.2173913042061,67.72507920733187 169.82608695654199,68.02841010899283 155.34782608645037,67.72507920733187 148.43478260887787,68.02841010899283 142.82608695654199,67.72507920733187 140.2173913042061,67.27008273790125 138.91304347803816,65.75342681689654 136.69565217383206,64.99509826709982 136.3043478266336,64.84343251027167 135.91304347850382,64.08510348957498 134.34782608691603,63.32677407655865 132.6521739126183,63.32677407655865 131.08695652149618,62.568444270291366 126.52173913037404,61.50678188249003 123.26086956495419,59.68678742728662 119.08695652196184,58.47345653350931 117.7826086957939,57.5634577042656 116.60869565187022,57.5634577042656 116.08695652196184,57.86679070990067 115.69565217383206,60.596784937311895 114.7826086957939,63.32677407655865 115.30434782616794,64.84343251027167 116.08695652196184,65.75342681689654 118.82608695654199,66.05675812624395 122.08695652196184,67.57341373339295 124.04347826074809,67.87674466625322 125.86956521775573,69.09006776986644 128.47826087009162,69.69672894431278 129.65217391308397,69.69672894431278 131.47826086962596,70.3033898678841 133.30434782570228,70.45505505951587 134.2173913042061,70.60672023531515 134.8695652168244,71.21338078193367 138.91304347803816,73.3366907160962 140.60869565187022,73.48835559305735 141.39130434766412,73.3366907160962 143.2173913042061,73.48835559305735 146.34782608691603,74.39834452874493 147.9130434775725,75.61166222894099 149.86956521729007,76.52164984494448 154.30434782570228,75.15666820900515 157.43478260887787,73.64002045476809 160.43478260887787,73.7916853009956 162.65217391308397,74.39834452874493 163.0434782607481,74.70167404797394 163.17391304299235,75.0050035045715 162.52173913037404,77.58330134896096 162.7826086957939,80.1615946550155 163.30434782616794,81.07157944410574 164.08695652196184,81.82989966950845 165.91304347803816,82.73988342192024 167.2173913042061,82.73988342192024 170.86956521729007,81.2232435203623 173.21739130374044,80.91991535155103 173.99999999953434,81.07157944410574 174.52173913037404,81.98156366776675 175.30434782570228,82.28489161643665 176.73913043458015,82.28489161643665 177.78260869532824,82.5882195023587 178.56521739112213,82.28489161643665 180.52173912990838,78.94828072364908 181.17391304345801,77.2799724265933 182.08695652149618,74.39834452874493 183.13043478270993,72.12337113020476 183.7826086957939,69.39339838863816 184.69565217383206,68.02841010899283 186.0,63.02344220131636 185.60869565187022,62.416778262122534 184.9565217392519,62.26511223835405 183.0,62.87177623983007 182.47826086962596,62.720110263093375 181.69565217383206,62.416778262122534 180.78260869532824,61.355115764425136 178.9565217392519,59.99011999357026 176.08695652149618,59.99011999357026 175.17391304345801,60.1417862533126 171.91304347850382,61.81011407193728 171.78260869532824,62.568444270291366 170.60869565187022,64.38843514502514 170.60869565187022,66.66342055751011 170.34782608691603,67.42174824350514 169.17391304299235,68.1800755362492 162.65217391308397,68.1800755362492 158.47826086962596,67.57341373339295 157.56521739112213,67.72507920733187 155.60869565233588,67.42174824350514 144.13043478270993,68.1800755362492 139.82608695654199,67.27008273790125 138.6521739126183,66.81508612632751 138.39130434766412,66.5117549734423 138.0,65.45009544410277 137.60869565187022,64.99509826709982 135.6521739126183,63.175108146853745 133.56521739112213,63.02344220131636 132.5217391308397,62.416778262122534 130.69565217429772,62.26511223835405 129.13043478270993,61.50678188249003 128.08695652196184,61.658447985188104 126.52173913037404,61.50678188249003 125.34782608691603,60.90011731523555 124.17391304299235,59.23178846004885 122.2173913042061,58.776789351250045 119.08695652196184,58.47345653350931 118.04347826074809,58.018457189551555 117.26086956541985,57.10845807741862 115.69565217383206,58.018457189551555 115.43478260887787,58.92845573660452 115.56521739112213,59.99011999357026 115.69565217383206,60.293452497106045 114.0,63.78177177149337 115.30434782616794,65.75342681689654 117.91304347803816,65.60176113806665 119.47826086962596,66.20842375780921 121.30434782616794,66.96675167896319 125.73913043458015,70.00005943747237 126.52173913037404,70.00005943747237 128.34782608691603,70.91005054011475 131.47826086962596,70.7583853956312 133.82608695607632,71.97170611156616 135.0,71.97170611156616 135.7826086957939,73.03336091362871 138.6521739126183,74.2466797453817 140.60869565187022,74.2466797453817 142.6956521733664,73.7916853009956 143.86956521729007,73.7916853009956 145.6956521733664,74.39834452874493 148.0434782607481,75.91499149741139 149.4782608691603,76.52164984494448 150.52173913037404,76.52164984494448 154.17391304345801,75.61166222894099 154.9565217392519,75.3083328983048 155.73913043458015,74.39834452874493 157.17391304345801,73.7916853009956 158.73913043458015,73.64002045476809 160.69565217383206,73.94335013173986 162.13043478224427,75.0050035045715 162.52173913037404,75.45999757142272 162.65217391308397,75.91499149741139 162.26086956541985,77.73496578691993 162.91304347803816,80.61658711999189 163.82608695654199,82.13322764995974 165.0,83.04321121424437 165.39130434719846,83.19487508630846 167.08695652196184,82.89154732576571 167.86956521775573,82.5882195023587 168.2608695649542,82.13322764995974 170.4782608691603,81.37490758148488 172.43478260794654,81.37490758148488 175.69565217429772,81.82989966950845 177.52173912990838,81.6782356556505 178.82608695607632,81.07157944410574 180.78260869532824,78.34162338089664 181.56521739112213,75.61166222894099 183.0,72.88169598917011 183.2608695649542,70.3033898678841 184.04347826028243,69.54506367421709 185.8695652168244,63.478439990314655 185.2173913042061,62.720110263093375 184.5652173915878,62.568444270291366 182.08695652149618,63.175108146853745 180.52173912990838,62.26511223835405 179.7391304350458,61.355115764425136 178.56521739112213,60.596784937311895 177.78260869532824,60.293452497106045 176.21739130374044,60.293452497106045 173.60869565233588,61.051783480797894 171.52173913037404,62.720110263093375 170.86956521729007,64.84343251027167 170.86956521729007,67.57341373339295 170.2173913042061,68.1800755362492 169.69565217383206,68.33174094802234 167.86956521775573,68.02841010899283 161.47826086962596,68.1800755362492 156.52173912990838,67.57341373339295 149.86956521729007,67.87674466625322 143.86956521729007,67.57341373339295 140.86956521729007,68.1800755362492 139.5652173915878,67.72507920733187 138.6521739126183,66.81508612632751 137.8695652168244,66.36008937377483 136.3043478266336,66.20842375780921 135.6521739126183,65.90509247931186 134.08695652196184,64.23676932544913 132.5217391308397,64.08510348957498 131.47826086962596,63.32677407655865 127.43478260887787,61.81011407193728 126.65217391308397,60.90011731523555 123.65217391354963,58.32179010147229 122.47826086962596,56.80512491369154 121.56521739112213,57.10845807741862 120.26086956495419,56.95679150347132 119.2173913042061,57.71512421476655 118.04347826074809,57.41179117723368 117.39130434719846,56.80512491369154 117.7826086957939,57.10845807741862 117.0,57.5634577042656 115.82608695654199,61.051783480797894 114.91304347803816,62.113446198403835 114.65217391308397,63.63010588858742 115.43478260887787,64.99509826709982 116.60869565187022,65.75342681689654 117.7826086957939,67.42174824350514 119.34782608691603,67.87674466625322 120.7826086957939,68.63507172348909 121.30434782616794,70.15172466065269 122.08695652196184,71.36504587961826 122.86956521775573,72.12337113020476 126.65217391308397,72.27503613370936 128.08695652196184,72.88169598917011 130.82608695607632,73.48835559305735 134.47826086962596,75.0050035045715 140.86956521729007,76.21832070266828 141.39130434766412,76.36998528172262 142.0434782607481,77.2799724265933" stroke="#4DD2FF" stroke-linecap="round" stroke-linejoin="round" stroke-width="0.5"><title>2024-10-27 5.5km</title><desc>13388431337</desc></polyline><polyline fill="none" points="46.2173913042061,154.39834452874493 47.130434782244265,155.3083328983048 47.9130434775725,155.611662228941 48.56521739112213,155.45999757142272 50.26086956495419,155.76332687109243 53.91304347803816,155.45999757142272 55.478260869625956,154.2466797453817 56.130434782244265,152.8816959891701 56.91304347803816,152.5783660924062 57.30434782570228,152.8816959891701 57.173913043458015,153.48835559305735 57.30434782570228,153.48835559305735 59.26086956541985,153.18502582237124 61.73913043458015,154.09501494618598 62.39130434766412,154.70167404797394 62.7826086957939,155.76332687109243 62.7826086957939,158.18995900580194 63.69565217383206,160.6165871199919 63.30434782616794,160.91991535155103 63.95652173878625,161.52657162642572 66.69565217383206,162.5882195023587 67.73913043458015,162.5882195023587 69.82608695654199,161.6782356556505 72.69565217429772,161.52657162642572 73.60869565233588,161.52657162642572 76.21739130374044,162.5882195023587 77.91304347850382,162.43655556731392 78.69565217383206,162.13322764995974 79.08695652149618,160.76825124339666 80.39130434766412,158.4932877398096 82.47826086962596,153.18502582237124 83.0,150.91005054011475 84.95652173925191,146.81508612632751 86.0,143.63010588858742 85.4782608691603,142.87177623983007 84.95652173925191,142.72011026309337 82.08695652149618,143.32677407655865 81.30434782570228,143.17510814685374 80.78260869532824,142.72011026309337 80.39130434766412,141.2034496307606 79.86956521682441,140.445118725067 76.73913043458015,139.53512112027965 75.69565217429772,139.68678742728662 73.21739130374044,140.74845113430638 73.21739130374044,141.2034496307606 71.13043478270993,144.38843514502514 70.99999999953434,146.6634205575101 71.13043478270993,147.42174824350514 70.08695652196184,148.1800755362492 53.52173912990838,147.42174824350514 52.34782608645037,147.57341373339295 42.173913043458015,147.72507920733187 38.0,146.20842375780921 36.826086956076324,145.2984297343064 35.39130434766412,143.32677407655865 33.434782608412206,142.56844427029137 32.0,142.56844427029137 31.34782608691603,142.26511223835405 30.434782608412206,141.81011407193728 28.99999999953434,140.445118725067 27.434782608877867,140.74845113430638 26.26086956495419,140.29345249710605 26.130434782709926,140.74845113430638 24.95652173878625,140.5967849373119 22.869565217755735,139.68678742728662 22.478260869625956,138.92845573660452 22.478260869625956,138.4734565335093 21.69565217383206,138.01845718955155 20.652173913549632,137.86679070990067 20.0,138.17012365348637 18.30434782616794,138.01845718955155 15.956521739251912,136.95679150347132 15.04347826121375,139.99011999357026 14.521739130374044,142.26511223835405 14.521739130374044,144.23676932544913 15.04347826121375,145.90509247931186 15.826086956541985,146.20842375780921 16.739130434580147,146.36008937377483 17.913043478038162,145.90509247931186 19.478260869625956,146.05675812624395 21.69565217383206,147.11841721623205 23.652173913549632,148.48340634361375 27.173913043458015,150.1517246606527 32.521739130839705,150.45505505951587 36.826086956076324,153.0333609136287 39.69565217383206,153.94335013173986 41.521739130374044,154.39834452874493 43.478260869160295,153.6400204547681 44.521739130374044,153.7916853009956 45.434782608412206,154.09501494618598 45.56521739112213,154.55000929581 47.65217391308397,155.76332687109243 49.34782608691603,155.611662228941 51.43478260887787,156.06665610778145 54.30434782570228,155.3083328983048 56.782608695328236,153.6400204547681 58.08695652149618,153.48835559305735 60.95652173878625,153.6400204547681 62.26086956541985,154.55000929581 62.7826086957939,155.3083328983048 62.65217391308397,156.52164984494448 62.26086956541985,157.12830794148613 62.65217391308397,159.0999450198142 62.39130434766412,159.85826626617927 62.65217391308397,160.6165871199919 64.34782608645037,161.6782356556505 66.56521739112213,162.43655556731392 70.86956521729007,160.91991535155103 73.21739130374044,161.2232435203623 75.30434782570228,162.28489161643665 77.26086956495419,162.28489161643665 79.86956521682441,161.2232435203623 80.0,160.31325882591773 80.91304347850382,158.34162338089664 82.34782608691603,153.3366907160962 84.30434782616794,149.5450636742171 85.4782608691603,145.75342681689654 85.86956521682441,144.23676932544913 85.60869565187022,143.32677407655865 84.95652173925191,142.87177623983007 82.08695652149618,143.02344220131636 79.47826086962596,140.74845113430638 78.04347826028243,140.29345249710605 76.99999999953434,140.29345249710605 73.34782608691603,140.5967849373119 72.17391304299235,141.35511576442514 70.99999999953434,143.17510814685374 70.73913043458015,144.38843514502514 70.73913043458015,146.9667516789632 70.2173913042061,147.72507920733187 69.82608695654199,148.02841010899283 55.34782608645037,147.72507920733187 48.43478260887787,148.02841010899283 42.826086956541985,147.72507920733187 40.2173913042061,147.27008273790125 38.91304347803816,145.75342681689654 36.69565217383206,144.99509826709982 36.3043478266336,144.84343251027167 35.91304347850382,144.08510348957498 34.34782608691603,143.32677407655865 32.91304347850382,143.32677407655865 31.086956521496177,142.56844427029137 26.521739130374044,141.50678188249003 23.26086956495419,139.68678742728662 20.130434782709926,138.92845573660452 18.826086956541985,138.4734565335093 17.782608695793897,137.5634577042656 16.60869565187022,137.5634577042656 16.086956521961838,137.86679070990067 15.695652173832059,140.5967849373119 14.782608695793897,143.32677407655865 15.304347826167941,144.84343251027167 16.086956521961838,145.75342681689654 18.826086956541985,146.05675812624395 22.086956521961838,147.57341373339295 24.04347826074809,147.87674466625322 25.869565217755735,149.09006776986644 28.478260870091617,149.69672894431278 29.65217391308397,149.69672894431278 31.478260869625956,150.3033898678841 34.2173913042061,150.60672023531515 34.86956521682441,151.21338078193367 38.91304347803816,153.3366907160962 40.60869565187022,153.48835559305735 41.39130434766412,153.3366907160962 43.2173913042061,153.48835559305735 46.34782608691603,154.39834452874493 47.9130434775725,155.611662228941 49.869565217290074,156.52164984494448 54.30434782570228,155.15666820900515 57.43478260887787,153.6400204547681 60.43478260887787,153.7916853009956 62.65217391308397,154.39834452874493 63.04347826074809,154.70167404797394 63.17391304299235,155.0050035045715 62.521739130374044,157.58330134896096 62.7826086957939,160.1615946550155 63.30434782616794,161.07157944410574 64.08695652196184,161.82989966950845 65.39130434719846,162.5882195023587 66.30434782616794,162.73988342192024 68.0,162.43655556731392 70.86956521729007,161.2232435203623 73.21739130374044,160.91991535155103 73.99999999953434,161.07157944410574 74.52173913037404,161.98156366776675 75.30434782570228,162.28489161643665 76.73913043458015,162.28489161643665 77.78260869532824,162.5882195023587 78.56521739112213,162.28489161643665 80.52173912990838,158.94828072364908 81.17391304345801,157.2799724265933 82.08695652149618,154.39834452874493 83.13043478270993,152.12337113020476 83.7826086957939,149.39339838863816 84.69565217383206,148.02841010899283 86.0,143.02344220131636 85.60869565187022,142.41677826212253 84.95652173925191,142.26511223835405 83.0,142.87177623983007 82.47826086962596,142.72011026309337 81.69565217383206,142.41677826212253 80.78260869532824,141.35511576442514 78.95652173925191,139.99011999357026 76.08695652149618,139.99011999357026 75.17391304345801,140.1417862533126 71.91304347850382,141.81011407193728 71.78260869532824,142.56844427029137 70.60869565187022,144.38843514502514 70.60869565187022,146.6634205575101 70.34782608691603,147.42174824350514 69.17391304299235,148.1800755362492 63.17391304299235,148.1800755362492 58.478260869625956,147.57341373339295 57.56521739112213,147.72507920733187 55.60869565233588,147.42174824350514 44.130434782709926,148.1800755362492 39.826086956541985,147.27008273790125 38.65217391261831,146.81508612632751 38.39130434766412,146.5117549734423 38.0,145.45009544410277 35.65217391261831,143.17510814685374 33.56521739112213,143.02344220131636 32.521739130839705,142.41677826212253 30.69565217429772,142.26511223835405 29.130434782709926,141.50678188249003 28.086956521961838,141.6584479851881 26.521739130374044,141.50678188249003 25.34782608691603,140.90011731523555 24.173913042992353,139.23178846004885 23.26086956495419,138.92845573660452 19.086956521961838,138.4734565335093 18.04347826074809,138.01845718955155 17.260869565419853,137.10845807741862 15.695652173832059,138.01845718955155 15.434782608877867,138.92845573660452 15.565217391122133,139.99011999357026 15.695652173832059,140.29345249710605 14.0,143.78177177149337 15.304347826167941,145.75342681689654 17.913043478038162,145.60176113806665 19.478260869625956,146.20842375780921 21.30434782616794,146.9667516789632 25.739130434580147,150.00005943747237 26.521739130374044,150.00005943747237 28.34782608691603,150.91005054011475 31.478260869625956,150.7583853956312 33.826086956076324,151.97170611156616 35.0,151.97170611156616 35.7826086957939,153.0333609136287 38.65217391261831,154.2466797453817 40.60869565187022,154.2466797453817 42.6956521733664,153.7916853009956 43.869565217290074,153.7916853009956 45.6956521733664,154.39834452874493 48.04347826074809,155.9149914974114 49.478260869160295,156.52164984494448 50.521739130374044,156.52164984494448 54.173913043458015,155.611662228941 54.95652173925191,155.3083328983048 55.73913043458015,154.39834452874493 57.173913043458015,153.7916853009956 58.73913043458015,153.6400204547681 60.69565217383206,153.94335013173986 62.521739130374044,155.45999757142272 62.65217391308397,155.9149914974114 62.26086956541985,157.73496578691993 62.91304347803816,160.6165871199919 63.826086956541985,162.13322764995974 65.0,163.04321121424437 65.39130434719846,163.19487508630846 67.08695652196184,162.8915473257657 67.86956521775573,162.5882195023587 68.26086956495419,162.13322764995974 70.4782608691603,161.37490758148488 72.43478260794654,161.37490758148488 75.69565217429772,161.82989966950845 77.52173912990838,161.6782356556505 78.82608695607632,161.07157944410574 80.78260869532824,158.34162338089664 81.56521739112213,155.611662228941 83.0,152.8816959891701 83.26086956495419,150.3033898678841 84.04347826028243,149.5450636742171 84.5652173915878,147.42174824350514 85.60869565187022,144.84343251027167 85.86956521682441,143.47843999031466 85.73913043458015,143.17510814685374 85.2173913042061,142.72011026309337 84.30434782616794,142.56844427029137 82.34782608691603,143.32677407655865 80.52173912990838,142.26511223835405 79.73913043504581,141.35511576442514 78.56521739112213,140.5967849373119 77.78260869532824,140.29345249710605 76.21739130374044,140.29345249710605 73.60869565233588,141.0517834807979 71.52173913037404,142.72011026309337 70.86956521729007,144.84343251027167 70.86956521729007,147.57341373339295 70.2173913042061,148.1800755362492 69.69565217383206,148.33174094802234 67.86956521775573,148.02841010899283 61.478260869625956,148.1800755362492 56.52173912990838,147.57341373339295 49.869565217290074,147.87674466625322 43.869565217290074,147.57341373339295 40.869565217290074,148.1800755362492 39.565217391587794,147.72507920733187 38.65217391261831,146.81508612632751 37.86956521682441,146.36008937377483 36.3043478266336,146.20842375780921 35.65217391261831,145.90509247931186 34.08695652196184,144.23676932544913 32.521739130839705,144.08510348957498 31.478260869625956,143.32677407655865 27.434782608877867,141.81011407193728 26.65217391308397,140.90011731523555 23.652173913549632,138.3217901014723 22.478260869625956,136.80512491369154 21.565217391122133,137.10845807741862 20.26086956495419,136.95679150347132 19.217391304206103,137.71512421476655 18.04347826074809,137.26012463518418 17.391304347198457,136.80512491369154 17.782608695793897,137.10845807741862 17.0,137.5634577042656 16.739130434580147,138.4734565335093" stroke="#4DD2FF" stroke-linecap="round" stroke-linejoin="round" stroke-width="0.5"><title>2024-10-27 5.5km</title><desc>12753632530</desc></polyline><polyline fill="none" points="178.11678832117468,162.6800976319937 179.82481751823798,162.37455573689658 180.21897810185328,161.91624277608935 181.92700729938224,154.58321603492368 185.7372262775898,144.8057903490262 186.0,142.51419683010317 185.34306569350883,142.0558776994003 184.686131386552,142.0558776994003 182.9781021894887,142.8197428387357 182.4525547446683,142.66696984239388 181.00729926954955,140.83369265461806 179.69343065703288,139.91705320612527 178.64233576599509,139.61150659667328 175.48905109474435,139.45873326796573 174.569343065843,139.76427990943193 172.72992700664327,140.98646584025118 171.5474452553317,142.51419683010317 171.15328467125073,144.34747192985378 171.15328467125073,146.18074475158937 171.4160583941266,147.25015284551773 171.02189781004563,147.4029253667686 169.5766423358582,147.5556978727691 162.35036496352404,147.4029253667686 158.54014598485082,147.5556978727691 153.15328467125073,147.4029253667686 144.6131386863999,147.86124283680692 142.7737226272002,148.16678773763124 139.75182481762022,146.79183518595528 137.51824817527086,145.4168813530123 135.94160583987832,145.11133588268422 133.8394160582684,143.58360758179333 132.13138686167076,142.66696984239388 131.21167883183807,142.66696984239388 128.9781021894887,142.2086507587228 128.3211678834632,141.75033153302502 124.51094890525565,140.22259975166526 122.40875912457705,139.76427990943193 118.59854014636949,138.08377260051202 117.28467153245583,137.9309991140617 116.49635036522523,137.16713144397363 115.5766423358582,138.08377260051202 115.5766423358582,139.45873326796573 114.78832116769627,141.2920121648349 114.26277372287586,143.73638048325665 114.26277372287586,144.65301755839027 115.5766423358582,146.4862900004955 116.36496350402012,146.4862900004955 118.99270072998479,145.87519943946972 120.83211678825319,146.02797210379504 125.82481751870364,148.77787734940648 127.79562043771148,148.93064971256536 135.4160583941266,151.06946113880258 138.43795620463789,153.2082694633864 140.93430656939745,154.27767246309668 145.1386861312203,154.12490065407474 147.63503649644554,155.19430298905354 148.8175182477571,156.26370454917196 150.78832116769627,156.87479080702178 151.5766423358582,156.72201926645357 153.6788321165368,155.9581613255432 155.91240875888616,154.43044425721746 156.569343065843,154.43044425721746 158.54014598485082,153.36104136775248 160.37956204358488,153.66658512991853 161.82481751823798,154.27767246309668 163.66423357697204,155.49984637112357 163.0072992700152,156.4164761371212 162.8759124088101,157.1803338411264 163.0072992700152,157.9441911490867 162.21897810231894,158.8608193967957 162.21897810231894,159.31913330685347 163.1386861312203,161.15238752460573 163.53284671530128,161.6107007227838 165.10948905115947,162.52732669236138 166.686131386552,162.83286855614278 170.10218978114426,161.91624277608935 172.86131386831403,161.4579296723241 176.14598540123552,162.06901377881877 177.98540145950392,162.83286855614278 179.03649635007605,162.52732669236138 179.82481751823798,162.06901377881877 180.08759124111384,161.6107007227838 180.74452554713935,159.1663620194886 181.66423357650638,156.4164761371212 182.58394160540774,154.58321603492368 183.2408759118989,151.52777746890206 184.94890510942787,147.86124283680692 185.86861313832924,143.8891533690039 185.86861313832924,142.66696984239388 185.08029197063297,142.0558776994003 182.8467153282836,142.66696984239388 181.27007299289107,140.98646584025118 180.35036496352404,140.22259975166526 175.62043795594946,139.15318656375166 174.17518248176202,139.61150659667328 173.91240875935182,140.22259975166526 172.72992700664327,141.59755842585582 171.94160583941266,142.9725158190122 171.4160583941266,145.11133588268422 171.5474452553317,147.4029253667686 171.15328467125073,147.70847036258783 169.7080291970633,148.01401529530995 167.34306569350883,147.70847036258783 159.45985401468351,147.70847036258783 157.48905109474435,147.4029253667686 153.6788321165368,147.86124283680692 149.47445255471393,147.5556978727691 143.2992700729519,147.86124283680692 140.6715328465216,146.94460775516927 139.75182481762022,146.02797210379504 137.51824817527086,145.56965406413656 136.9927007299848,144.95856312382966 135.94160583987832,144.8057903490262 135.4160583941266,144.50024475215469 134.89051094837487,143.73638048325665 132.78832116769627,142.8197428387357 127.13868613122031,141.4447853033198 126.6131386863999,140.83369265461806 125.43065693462268,140.5281462345738 124.37956204405054,139.15318656375166 119.64963503647596,138.2365460715955 117.67883211700246,138.54209296556655 115.97080291993916,137.7782256117789 115.05109489010647,138.54209296556655 115.05109489010647,141.13923901040107 114.26277372287586,142.51419683010317 114.0,144.0419262383366 114.52554744575173,144.95856312382966 115.5766423358582,146.02797210379504 116.36496350402012,146.18074475158937 117.28467153245583,145.87519943946972 118.72992700710893,145.72242675954476 120.70072992751375,146.02797210379504 121.88321167882532,146.4862900004955 123.45985401468351,147.70847036258783 124.90510948887095,148.31956016400363 129.10948905115947,150.00005581323057 133.31386861298233,150.1528280499624 135.6788321165368,150.9166889966 138.17518248222768,152.44440970325377 139.88321167882532,153.2082694633864 144.6131386863999,153.66658512991853 147.10948905115947,154.88875954353716 148.55474452581257,155.9581613255432 149.8686131387949,156.56924770970363 151.97080291993916,156.56924770970363 153.6788321165368,155.80538968974724 156.17518248176202,154.12490065407474 157.88321167882532,153.51381325663533 159.32846715301275,153.2082694633864 160.7737226272002,153.51381325663533 162.6131386863999,154.58321603492368 163.0072992700152,155.49984637112357 162.4817518251948,156.87479080702178 162.6131386863999,159.1663620194886 163.2700729924254,160.69407418358605 164.18978102179244,161.4579296723241 165.50364963477477,161.91624277608935 167.34306569350883,162.06901377881877 169.31386861298233,161.6107007227838 171.81021897820756,161.4579296723241 173.78102189768106,161.6107007227838 177.45985401468351,162.52732669236138 178.64233576599509,162.22178476583213 179.56204379536211,161.76347175752744 180.08759124111384,160.84684531320818 180.21897810185328,159.77744707511738 181.00729926954955,158.0969625634607 182.4525547446683,153.66658512991853 184.02919708006084,150.1528280499624 184.1605839417316,149.083422060241 185.47445255424827,146.02797210379504 186.0,144.0419262383366 185.7372262775898,142.9725158190122 185.34306569350883,142.36142380244564 184.8175182477571,142.2086507587228 182.8467153282836,142.9725158190122 182.4525547446683,142.9725158190122 180.08759124111384,140.3753730012104 178.64233576599509,139.91705320612527 175.48905109474435,139.45873326796573 174.8321167882532,139.61150659667328 174.17518248176202,140.0698264867533 174.04379562055692,140.5281462345738 172.9927007299848,141.4447853033198 171.94160583941266,142.9725158190122 171.5474452553317,144.95856312382966 171.5474452553317,147.5556978727691 171.4160583941266,148.01401529530995 170.75912408716977,148.47233257512562 168.6569343060255,148.01401529530995 161.95620437944308,147.70847036258783 148.1605839417316,147.86124283680692 146.3211678834632,148.16678773763124 145.1386861312203,148.01401529530995 143.69343065703288,147.4029253667686 143.56204379536211,146.4862900004955 141.72262773709372,144.95856312382966 139.88321167882532,144.50024475215469 138.8321167882532,144.8057903490262 136.9927007299848,144.50024475215469 135.81021897820756,143.12528878322337 135.81021897820756,142.66696984239388 135.2846715329215,142.36142380244564 132.91970802936703,142.2086507587228 131.60583941591904,141.2920121648349 127.79562043771148,141.75033153302502 125.69343065703288,141.4447853033198 123.06569343060255,140.22259975166526 118.20437956228852,138.54209296556655 117.15328467171639,137.9309991140617 117.4160583941266,137.7782256117789 117.15328467171639,137.31990500935353 116.23357664234936,138.2365460715955 116.10218978114426,139.61150659667328 115.313868613448,141.90310462436173 114.78832116769627,142.66696984239388 114.52554744575173,144.95856312382966 115.05109489010647,145.87519943946972 115.83941605873406,146.6390626009088 120.30656934296712,145.87519943946972 120.56934306630865,146.18074475158937 122.93430656939745,146.79183518595528 125.29927007295191,148.77787734940648 126.21897810231894,149.2361943917349 128.18978102179244,149.69451129203662 130.94890510942787,149.69451129203662 134.23357664234936,150.45837247616146 135.81021897820756,151.375005374779 137.64963503647596,151.9860936574405 138.9635036494583,153.05549754342064 140.93430656939745,153.66658512991853 146.18978102179244,153.81935698690359 146.8467153282836,154.7359877974959 149.7372262775898,156.4164761371212 151.05109489010647,156.87479080702178 152.36496350402012,156.72201926645357 156.9635036494583,153.81935698690359 158.14598540123552,153.36104136775248 159.1970802922733,153.05549754342064 160.6423357669264,153.36104136775248 161.69343065703288,154.12490065407474 162.4817518251948,155.19430298905354 162.35036496352404,158.70804806204978 163.0072992700152,160.69407418358605 163.79562043771148,162.06901377881877 164.7153284670785,162.52732669236138 167.34306569350883,162.6800976319937 170.75912408716977,161.76347175752744 172.72992700664327,161.4579296723241 174.8321167882532,161.76347175752744 176.40875912411138,162.52732669236138 177.72262773709372,162.6800976319937 179.82481751823798,161.6107007227838 180.35036496352404,160.99961642653216 180.74452554713935,159.77744707511738" stroke="#4DD2FF" stroke-linecap="round" stroke-linejoin="round" stroke-width="0.5"><title>2024-10-13 5.5km</title><desc>12641545700</desc></polyline><polyline fill="none" points="59.148080438841134,233.5967664642958 61.78062157193199,234.36202275729738 62.30712979892269,234.97422750573605 62.43875685567036,235.89253415283747 61.91224862867966,237.57609485811554 61.91224862867966,238.80050143937115 62.043875685893,239.56575503724162 62.833638025447726,240.79015996993985 63.886654478963464,241.5554125382332 65.33455210225657,242.16761430737097 66.914076782763,242.32066470978316 72.70566727546975,241.70846300397534 76.52285191928968,242.47371509682853 78.8921389398165,242.16761430737097 79.41864716634154,241.5554125382332 79.6819012798369,239.87185636570211 81.65630712965503,234.82117634208407 82.05118829989806,232.67845839087386 83.1042047534138,230.99489210685715 84.28884826321155,228.08690946316347 85.73674588650465,223.6483986072708 85.60511882975698,223.18924155121204 84.94698354694992,222.73008435219526 82.44606946967542,222.88313676742837 80.3400365631096,220.74040150875226 74.81170018296689,219.66903271444608 73.49542961642146,220.2812435493106 72.0475319926627,221.50566445756704 70.99451553914696,222.73008435219526 70.46800731215626,224.71976451703813 70.46800731215626,227.62775378557853 69.80987202888355,228.2399613240268 61.25411334540695,227.32164992194157 55.33089579548687,227.32164992194157 52.96160877496004,227.01554599381052 46.117001828271896,227.01554599381052 41.115173674188554,227.78080569417216 40.062157220672816,227.4747018616181 39.79890310764313,227.01554599381052 38.351005484350026,226.86249400652014 37.4296160871163,226.25028589810245 36.903107861056924,225.6380775355501 36.77148080430925,225.02586891991086 37.0347349178046,224.41366005048621 36.77148080430925,223.801450927509 35.71846435079351,223.03618916729465 34.665447897743434,222.73008435219526 33.349177330732346,223.49534627085086 30.97989031067118,223.18924155121204 30.058500913903117,222.42397947364952 25.9780621570535,221.04650673642755 24.925045704003423,220.4342962182127 24.398537477012724,219.66903271444608 22.687385740224272,218.44461028464139 21.23948811693117,218.59766314353328 17.94881169963628,217.98545161180664 17.159049360081553,217.6793457500171 16.895795246586204,217.3732398255961 17.02742230379954,217.0671338379616 16.369287020061165,217.6793457500171 14.658135283272713,221.50566445756704 14.0,223.49534627085086 14.394881170243025,225.6380775355501 15.053016453050077,226.403337949072 18.343692869879305,226.25028589810245 19.659963436424732,226.55638998385984 20.581352833192796,227.01554599381052 20.97623400343582,227.4747018616181 23.082266910467297,228.08690946316347 24.793418646790087,229.4643756392179 26.899451553821564,230.38268571021035 32.29616087721661,231.14794366667047 40.19378427788615,234.20897153008264 41.51005484443158,234.05592028750107 41.378427788149565,233.5967664642958 43.48446069424972,233.90286902920343 48.091407678090036,236.8108402300859 49.14442413114011,237.2699930545641 50.592321754433215,237.2699930545641 52.435100548435,236.65778925665654 54.67276051174849,234.97422750573605 57.56855575880036,233.5967664642958 61.648994515649974,234.36202275729738 62.43875685567036,235.73948308487888 61.648994515649974,237.88219659845345 61.78062157193199,240.17795763059985 62.043875685893,240.94321051542647 62.96526508172974,241.8615134540014 63.886654478963464,242.62676546769217 64.67641681898385,242.7798158224905 67.1773308957927,242.932866161922 70.33638025587425,242.16761430737097 72.83729433268309,241.8615134540014 74.68007312575355,242.01456388854422 77.31261425931007,242.932866161922 78.10237659979612,242.932866161922 78.8921389398165,241.70846300397534 78.8921389398165,239.87185636570211 79.55027422262356,239.10660292615648 81.12979890313,234.97422750573605 82.44606946967542,234.05592028750107 82.84095063945279,233.137612498831 82.70932358363643,232.52540698973462 83.1042047534138,232.06625269108918 83.89396709296852,230.2296340711182 84.42047531995922,228.08690946316347 84.81535648973659,227.4747018616181 86.0,223.49534627085086 85.73674588650465,222.88313676742837 84.81535648973659,222.27092701080255 82.97257769666612,223.03618916729465 82.44606946967542,223.03618916729465 80.07678245007992,220.58734887163155 78.23400365607813,219.82208544702735 74.41681901272386,219.3629272019025 72.70566727546975,220.89345413050614 71.52102376613766,222.57703192089684 70.86288848239928,225.33197325957008 70.99451553914696,227.78080569417216 70.46800731215626,228.2399613240268 63.096892138943076,227.62775378557853 53.48811700148508,227.62775378557853 50.72394881164655,227.93385758635122" stroke="#4DD2FF" stroke-linecap="round" stroke-linejoin="round" stroke-width="0.5"><title>2024-09-09 5.2km</title><desc>12366514575</desc></polyline><polyline fill="none" points="157.4098360654898,232.59246079123113 158.3278688522987,232.74495458055753 161.34426229493693,233.81241066439543 162.13114754110575,234.57487882243004 162.52459016395733,235.33734658523463 162.65573770506307,236.25230737926904 162.26229508174583,237.62474750517868 161.86885245889425,237.92973402608186 162.13114754110575,239.75965182471555 163.049180327449,241.28458158660214 163.83606557315215,241.7420602076454 165.54098360659555,242.35203148040455 167.6393442619592,242.80950976978056 169.7377049177885,242.35203148040455 170.13114754110575,242.04704587580636 174.06557377055287,241.58956734952517 175.63934426242486,242.04704587580636 178.39344262238592,242.1995386860799 178.7868852452375,241.7420602076454 178.7868852452375,241.43707447568886 179.83606557315215,240.36962391878478 180.49180327821523,237.77724077331368 180.62295081932098,235.64233357983176 181.1475409832783,233.96490432799328 182.3278688522987,232.74495458055753 182.85245901579037,230.91502806544304 184.29508196702227,228.93260510766413 185.08196721225977,227.10267385467887 185.21311475383118,226.18770737526938 185.7377049177885,224.81525659107137 185.34426229493693,223.90028869046364 185.7377049177885,222.3753409262281 185.475409835577,221.6128664520802 185.34426229493693,221.30787655175664 182.59016393404454,221.91785628919024 181.27868852438405,220.85039158328436 180.75409836042672,220.0879163191421 179.9672131142579,219.32544066070113 177.6065573762171,218.86795507615898 176.5573770487681,219.0204502865672 173.67213114723563,219.935421219212 173.01639344217256,220.3929064719705 172.49180327821523,221.91785628919024 172.36065573710948,223.59529926395044 172.09836065536365,224.51026735361665 170.13114754110575,228.0176397653995 169.475409835577,228.47512250742875 168.42622950812802,228.17013402853627 166.98360655736178,227.40766255476046 165.54098360659555,227.10267385467887 163.31147541012615,226.18770737526938 157.2786885248497,225.12024576449767 152.8196721309796,225.73022392264102 147.7049180320464,225.4252348751761 145.34426229447126,225.57772940665018 139.44262295076624,226.79768509138376 138.1311475406401,226.49269626487512 133.54098360612988,223.7477939852979 130.91803278634325,221.15538157778792 128.95081967208534,220.85039158328436 126.45901639293879,221.15538157778792 125.4098360654898,220.85039158328436 124.2295081964694,219.782926103333 124.2295081964694,218.2579740753863 124.88524590153247,217.95298348017968 124.62295081932098,217.8004881591769 121.21311475383118,217.0380113159772 117.93442622944713,217.19050671637524 117.01639344217256,216.27553407824598 115.57377049187198,217.64799282245804 115.31147540966049,218.5629646073794 115.57377049187198,219.0204502865672 115.31147540966049,219.47793582407758 115.04918032791466,221.46037150966004 115.04918032791466,223.1378150054952 114.0,225.2727403275203 114.0,225.8827184229158 115.70491803251207,226.49269626487512 117.27868852484971,226.18770737526938 119.11475409846753,226.34020182827953 122.65573770506307,228.17013402853627 124.62295081932098,229.8475698811235 127.11475409846753,230.91502806544304 131.18032786855474,231.2200159757631 133.93442622898147,233.96490432799328 134.85245901625603,233.96490432799328 136.03278688527644,233.50742329109926 138.1311475406401,233.65991698566359 139.83606557315215,234.26989160617813 144.42622950766236,234.11739797482733 147.83606557361782,234.7273724063998 150.45901639340445,235.94732051121537 154.39344262285158,234.87986597500276 156.2295081964694,233.50742329109926 158.8524590167217,232.74495458055753 161.0819672131911,233.96490432799328 161.7377049177885,234.57487882243004 161.86885245889425,236.25230737926904 161.86885245889425,239.60715876193717 162.52459016395733,241.7420602076454 164.75409836089239,243.1144952167524 165.1475409832783,243.72446592175402 165.67213114676997,243.72446592175402 166.3278688522987,243.571973268874 166.98360655736178,242.96200250112452 169.7377049177885,241.58956734952517 172.88524590153247,241.13208868168294 174.19672131119296,241.89455304923467 177.34426229493693,242.1995386860799 178.26229508174583,242.04704587580636 179.049180327449,241.43707447568886 179.57377049140632,240.67460987146478 180.36065573757514,237.01477427384816 181.01639344217256,236.25230737926904 181.40983606502414,234.87986597500276 182.45901639340445,233.2024358540075 182.98360655736178,230.91502806544304 184.42622950766236,228.3226282754913 185.60655737668276,224.66276198008563 186.0,222.07035118388012 185.7377049177885,221.46037150966004 185.34426229493693,221.30787655175664 182.85245901579037,221.6128664520802 181.80327868834138,221.00288658833597 181.54098360659555,220.24041140370537 180.75409836042672,219.47793582407758 177.475409835577,218.71545984980185 173.27868852438405,220.24041140370537 171.44262295076624,221.6128664520802 170.52459016349167,224.51026735361665 170.26229508174583,225.57772940665018 170.39344262238592,226.49269626487512 170.13114754110575,227.71265119162854 169.7377049177885,227.86514548654668 168.95081967208534,227.86514548654668 167.11475409800187,226.79768509138376 166.19672131119296,226.49269626487512 162.65573770506307,226.18770737526938 159.11475409846753,225.4252348751761 157.4098360654898,225.57772940665018 156.36065573710948,225.8827184229158 155.83606557361782,226.34020182827953 154.9180327868089,226.49269626487512" stroke="#4DD2FF" stroke-linecap="round" stroke-linejoin="round" stroke-width="0.5"><title>2024-09-08 5.3km</title><desc>12358368474</desc></polyline></svg>