<?xml version="1.0" encoding="utf-8" ?>
<svg baseProfile="full" height="300mm" version="1.1" viewBox="0,0,200,300" width="200mm" xmlns="http://www.w3.org/2000/svg" xmlns:ev="http://www.w3.org/2001/xml-events" xmlns:xlink="http://www.w3.org/1999/xlink"><defs /><rect fill="#222222" height="300" width="200" x="0" y="0" /><text fill="#FFFFFF" style="font-size:12px; font-family:Arial; font-weight:bold;" x="10" y="20">Over 5km Runs</text><text fill="#FFFFFF" style="font-size:4px; font-family:Arial" x="10" y="280">ATHLETE</text><text fill="#FFFFFF" style="font-size:9px; font-family:Arial" x="10" y="290">Mr. Error 追</text><text fill="#FFFFFF" style="font-size:4px; font-family:Arial" x="65" y="280">SPECIAL TRACKS</text><rect fill="yellow" height="2.6" width="2.6" x="65" y="283" /><text fill="#FFFFFF" style="font-size:3px; font-family:Arial" x="70" y="285.5">Over 20.0 km</text><rect fill="red" height="2.6" width="2.6" x="65" y="287" /><text fill="#FFFFFF" style="font-size:3px; font-family:Arial" x="70" y="289.5">Over 40.0 km</text><text fill="#FFFFFF" style="font-size:4px; font-family:Arial" x="120" y="280">STATISTICS</text><text fill="#FFFFFF" style="font-size:3px; font-family:Arial" x="120" y="285">Number: 1</text><text fill="#FFFFFF" style="font-size:3px; font-family:Arial" x="120" y="290">Weekly: 1.0</text><text fill="#FFFFFF" style="font-size:3px; font-family:Arial" x="141" y="285">Total: 5.3 km</text><text fill="#FFFFFF" style="font-size:3px; font-family:Arial" x="141" y="290">Avg: 5.3 km</text><text fill="#FFFFFF" style="font-size:3px; font-family:Arial" x="167" y="285">Min: 5.3 km</text><text fill="#FFFFFF" style="font-size:3px; font-family:Arial" x="167" y="290">Max: 5.3 km</text><polyline fill="none" points="116.67213114816695,155.83303678035736 118.7377049177885,156.1761478059925 125.52459016442299,158.57792399497703 127.29508196748793,160.29347735038027 128.1803278690204,162.0090298166033 128.47540983650833,164.06769160320982 127.59016393497586,167.1556818864774 126.70491803251207,167.84190155845135 127.29508196748793,171.95921660540625 129.36065573710948,175.3903085696511 131.13114754017442,176.41963546699844 134.96721311565489,177.79207083093934 139.68852458987385,178.82139698183164 144.40983606595546,177.79207083093934 145.29508196748793,177.1058532204479 154.14754098374397,176.07652653637342 157.68852459080517,177.1058532204479 163.88524590060115,177.44896204350516 164.77049180306494,176.41963546699844 164.77049180306494,175.73341757035814 167.13114754017442,173.33165381709114 168.60655737668276,167.49879173981026 168.90163934323937,162.69525055447593 170.0819672131911,158.92103473795578 172.73770491871983,156.1761478059925 173.91803278587759,152.058813147014 177.16393442638218,147.59836149215698 178.9344262285158,143.48101617279463 179.22950819693506,141.4223415942397 180.40983606502414,138.33432732964866 179.524590164423,136.2756495536305 180.40983606502414,132.84451708383858 179.81967213004827,131.12894951715134 179.524590164423,130.44272224139422 173.32786885183305,131.81517665064894 170.3770491797477,129.41338106244802 169.19672131165862,127.69781171786599 167.42622950766236,125.98224148643203 162.1147540975362,124.95289892121218 159.75409836042672,125.29601314477623 153.2622950822115,127.35469774296507 151.78688524570316,128.3840395619627 150.60655737668276,131.81517665064894 150.31147540919483,135.5894233440049 149.7213114751503,137.64810154563747 145.29508196748793,145.53968947194517 143.8196721309796,146.5690256417729 141.45901639387012,145.8828015641775 138.21311475429684,144.16724074818194 134.96721311565489,143.48101617279463 129.95081967301667,141.4223415942397 116.37704918067902,139.02055297000334 106.34426229447126,140.3930038260296 94.8360655726865,139.7067784690298 89.52459016349167,140.049891164992 76.24590163957328,142.79479145538062 73.29508196748793,142.10856659593992 62.96721311379224,135.93253646674566 57.06557376962155,130.0996085498482 52.639344261959195,129.41338106244802 47.03278688527644,130.0996085498482 44.67213114723563,129.41338106244802 42.01639344263822,127.01158373244107 42.01639344263822,123.58044166956097 43.49180327914655,122.89421283034608 42.90163934417069,122.5510983581189 35.229508196003735,120.83552546077408 27.852459016256034,121.17864011181518 25.786885244771838,119.11995167611167 22.540983607061207,122.20798385050148 21.950819672085345,124.26667036651634 22.540983607061207,125.29601314477623 21.950819672085345,126.32535560405813 21.360655738040805,130.78583589661866 21.360655738040805,134.56008376227692 19.0,139.36366573697887 19.0,140.7361164514441 22.836065573617816,142.10856659593992 26.377049180679023,141.4223415942397 30.50819672178477,141.76545411348343 38.475409836508334,145.8828015641775 42.90163934417069,149.65703223249875 48.50819672178477,152.058813147014 57.65573770459741,152.74503594543785 63.852459016256034,158.92103473795578 65.91803278774023,158.92103473795578 68.57377049326897,157.89170240494423 73.29508196748793,158.23481321753934 77.13114754017442,159.60725611401722 87.45901639293879,159.2641454434488 95.13114754110575,160.63658791431226 101.03278688527644,163.3814711503219 109.88524590153247,160.97969844355248 114.01639344263822,157.89170240494423 119.91803278774023,156.1761478059925 124.93442623037845,158.92103473795578 126.40983606595546,160.29347735038027 126.70491803251207,164.06769160320982 126.70491803251207,171.61610721424222 128.1803278690204,176.41963546699844 133.19672131165862,179.507614237722 134.08196721225977,180.88004832388833 135.26229508128017,180.88004832388833 136.7377049177885,180.53693985496648 138.21311475429684,179.16450562747195 144.40983606595546,176.07652653637342 151.49180327821523,175.04719953378662 154.44262295030057,176.76274436083622 161.52459016349167,177.44896204350516 163.59016393404454,177.1058532204479 165.3606557380408,175.73341757035814 166.54098360612988,174.01787221082486 168.31147541012615,165.78324211621657 169.78688524477184,164.06769160320982 170.67213114723563,160.97969844355248 173.03278688527644,157.20548067148775 174.21311475429684,152.058813147014 177.4590163929388,146.22591361985542 180.11475409846753,137.99121445510536 181.0,132.1582901638467 180.40983606502414,130.78583589661866 179.524590164423,130.44272224139422 173.91803278587759,131.12894951715134 171.5573770487681,129.75649482384324 170.96721311472356,128.04092565830797 169.19672131165862,126.32535560405813 161.8196721309796,124.60978466179222 152.37704918067902,128.04092565830797 148.24590163957328,131.12894951715134 146.18032786808908,137.64810154563747 145.59016393404454,140.049891164992 145.88524590153247,142.10856659593992 145.29508196748793,144.8534651810769 144.40983606595546,145.1965773445554 142.6393442619592,145.1965773445554 138.50819672178477,142.79479145538062 136.4426229512319,142.10856659593992 128.47540983650833,141.4223415942397 120.50819672178477,139.7067784690298 116.67213114816695,140.049891164992 114.31147540919483,140.7361164514441 113.13114754110575,141.76545411348343 111.06557377055287,142.10856659593992" stroke="#4DD2FF" stroke-linecap="round" stroke-linejoin="round" stroke-width="0.5"><title>2024-09-08 5.3km</title><desc>12358368474</desc></polyline></svg>