<?xml version="1.0" encoding="utf-8" ?>
<svg baseProfile="full" height="300mm" version="1.1" viewBox="0,0,200,300" width="200mm" xmlns="http://www.w3.org/2000/svg" xmlns:ev="http://www.w3.org/2001/xml-events" xmlns:xlink="http://www.w3.org/1999/xlink"><defs /><rect fill="#222222" height="300" width="200" x="0" y="0" /><text fill="#FFFFFF" style="font-size:12px; font-family:Arial; font-weight:bold;" x="10" y="20">Over 5km Runs</text><text fill="#FFFFFF" style="font-size:4px; font-family:Arial" x="10" y="280">ATHLETE</text><text fill="#FFFFFF" style="font-size:9px; font-family:Arial" x="10" y="290">Mr. Error 追</text><text fill="#FFFFFF" style="font-size:4px; font-family:Arial" x="65" y="280">SPECIAL TRACKS</text><rect fill="yellow" height="2.6" width="2.6" x="65" y="283" /><text fill="#FFFFFF" style="font-size:3px; font-family:Arial" x="70" y="285.5">Over 20.0 km</text><rect fill="red" height="2.6" width="2.6" x="65" y="287" /><text fill="#FFFFFF" style="font-size:3px; font-family:Arial" x="70" y="289.5">Over 40.0 km</text><text fill="#FFFFFF" style="font-size:4px; font-family:Arial" x="120" y="280">STATISTICS</text><text fill="#FFFFFF" style="font-size:3px; font-family:Arial" x="120" y="285">Number: 2</text><text fill="#FFFFFF" style="font-size:3px; font-family:Arial" x="120" y="290">Weekly: 2.0</text><text fill="#FFFFFF" style="font-size:3px; font-family:Arial" x="141" y="285">Total: 10.6 km</text><text fill="#FFFFFF" style="font-size:3px; font-family:Arial" x="141" y="290">Avg: 5.3 km</text><text fill="#FFFFFF" style="font-size:3px; font-family:Arial" x="167" y="285">Min: 5.3 km</text><text fill="#FFFFFF" style="font-size:3px; font-family:Arial" x="167" y="290">Max: 5.3 km</text><polyline fill="none" points="111.11475409846753,93.88869118667208 112.49180327821523,94.11743187042885 117.01639344263822,95.71861599641852 118.19672131165862,96.86231823335402 118.78688524570316,98.0060198775027 118.98360655736178,99.37846106872894 118.39344262238592,101.43712125741877 117.80327868834138,101.89460103865713 118.19672131165862,104.63947773678228 119.57377049140632,106.92687237961218 120.75409836042672,107.61309031117707 123.31147541012615,108.52804722031578 126.45901639293879,109.2142646543216 129.60655737668276,108.52804722031578 130.19672131165862,108.07056881347671 136.0983606558293,107.3843510239385 138.45901639387012,108.07056881347671 142.59016393404454,108.29930802877061 143.18032786808908,107.61309031117707 143.18032786808908,107.15561171318404 144.7540983594954,105.55443587782793 145.7377049177885,101.66586115956306 145.9344262285158,98.46350036934018 146.7213114751503,95.9473564918153 148.49180327914655,94.11743187042885 149.2786885239184,91.37254209793173 151.44262295030057,88.39890766120516 152.62295081838965,85.65401078155264 152.8196721309796,84.28156106267124 153.60655737668276,82.22288488619961 153.01639344263822,80.85043303552084 153.60655737668276,78.56301138899289 153.21311475336552,77.41929967794567 153.01639344263822,76.9618148272857 148.88524590153247,77.8767844333779 146.9180327868089,76.2755873745773 146.13114754110575,75.1318744784221 144.95081967208534,73.98816099064425 141.40983606502414,73.30193261406384 139.8360655726865,73.53067542961799 135.50819672085345,74.90313182841055 134.52459016349167,75.5893597076647 133.7377049177885,77.8767844333779 133.54098360519856,80.39294889569283 133.14754098281264,81.76540103019215 130.19672131165862,87.02645964780822 129.21311475336552,87.71268376079388 127.6393442619592,87.25520104239695 125.47540983650833,86.11149383173324 123.31147541012615,85.65401078155264 119.96721311472356,84.28156106267124 110.91803278680891,82.68036864651367 104.22950819600374,83.5953358837869 96.5573770487681,83.13785231253132 93.0163934417069,83.36659410968423 84.16393442638218,85.19652763660997 82.19672131165862,84.73904439690523 75.31147540919483,80.62169097759761 71.3770491797477,76.73307236633264 68.42622950766236,76.2755873745773 64.68852458987385,76.73307236633264 63.11475409846753,76.2755873745773 61.344262294471264,74.67438915465027 61.344262294471264,72.3869611127302 62.32786885276437,71.92947522015311 61.934426229447126,71.70073223859072 56.8196721309796,70.55701697361656 51.90163934417069,70.78576007438824 50.524590162560344,69.41330111725256 48.360655738040805,71.4719892332796 47.96721311472356,72.84444691077806 48.360655738040805,73.53067542961799 47.96721311472356,74.21690373588353 47.573770492337644,77.19055726425722 47.573770492337644,79.70672250795178 46.0,82.9091104909312 46.0,83.82407763390802 48.5573770487681,84.73904439690523 50.91803278680891,84.28156106267124 53.67213114723563,84.51030274201185 58.98360655736178,87.25520104239695 61.934426229447126,89.77135482151061 65.67213114723563,91.37254209793173 71.77049180306494,91.83002396347001 75.90163934323937,95.9473564918153 77.27868852484971,95.9473564918153 79.04918032791466,95.26113493647426 82.19672131165862,95.48987547820434 84.7540983594954,96.40483740903437 91.6393442619592,96.17609696206637 96.75409836042672,97.09105860930867 100.68852458987385,98.92098076664843 106.59016393404454,97.3197989622131 109.34426229447126,95.26113493647426 113.27868852484971,94.11743187042885 116.6229508202523,95.9473564918153 117.60655737668276,96.86231823335402 117.80327868834138,99.37846106872894 117.80327868834138,104.41073814267293 118.78688524570316,107.61309031117707 122.13114754110575,109.67174282483757 122.72131147515029,110.58669888251461 123.50819672085345,110.58669888251461 124.49180327821523,110.35795990307815 125.47540983650833,109.44300375133753 129.60655737668276,107.3843510239385 134.32786885183305,106.69813302229159 136.2950819665566,107.8418295737356 141.0163934417069,108.29930802877061 142.39344262238592,108.07056881347671 143.57377049140632,107.15561171318404 144.36065573710948,106.01191480690613 145.54098360612988,100.522161410423 146.52459016349167,99.37846106872894 147.1147540975362,97.3197989622131 148.68852458987385,94.80365378060378 149.475409835577,91.37254209793173 151.6393442619592,87.48394241300412 153.40983606502414,81.99414296983741 154.0,78.10552677558735 153.60655737668276,77.19055726425722 153.01639344263822,76.9618148272857 149.2786885239184,77.41929967794567 147.70491803251207,76.50432988232933 147.31147541012615,75.36061710538343 146.13114754110575,74.21690373588353 141.21311475336552,73.07318977429532 134.9180327868089,75.36061710538343 132.16393442638218,77.41929967794567 130.78688524477184,81.76540103019215 130.39344262238592,83.36659410968423 130.59016393404454,84.73904439690523 130.19672131165862,86.56897678715177 129.60655737668276,86.79771822947077 128.42622950766236,86.79771822947077 125.67213114723563,85.19652763660997 124.29508196748793,84.73904439690523 118.98360655736178,84.28156106267124 113.67213114723563,83.13785231253132 111.11475409846753,83.36659410968423 109.54098360612988,83.82407763390802 108.75409836042672,84.51030274201185 107.3770491797477,84.73904439690523" stroke="#4DD2FF" stroke-linecap="round" stroke-linejoin="round" stroke-width="0.5"><title>2024-09-08 5.3km</title><desc>12358969802</desc></polyline><polyline fill="none" points="111.11475409846753,213.88869118667208 112.49180327821523,214.11743187042885 117.01639344263822,215.71861599641852 118.19672131165862,216.86231823335402 118.78688524570316,218.0060198775027 118.98360655736178,219.37846106872894 118.39344262238592,221.43712125741877 117.80327868834138,221.89460103865713 118.19672131165862,224.63947773678228 119.57377049140632,226.92687237961218 120.75409836042672,227.61309031117707 123.31147541012615,228.52804722031578 126.45901639293879,229.2142646543216 129.60655737668276,228.52804722031578 130.19672131165862,228.0705688134767 136.0983606558293,227.3843510239385 138.45901639387012,228.0705688134767 142.59016393404454,228.2993080287706 143.18032786808908,227.61309031117707 143.18032786808908,227.15561171318404 144.7540983594954,225.55443587782793 145.7377049177885,221.66586115956306 145.9344262285158,218.46350036934018 146.7213114751503,215.9473564918153 148.49180327914655,214.11743187042885 149.2786885239184,211.37254209793173 151.44262295030057,208.39890766120516 152.62295081838965,205.65401078155264 152.8196721309796,204.28156106267124 153.60655737668276,202.2228848861996 153.01639344263822,200.85043303552084 153.60655737668276,198.5630113889929 153.21311475336552,197.41929967794567 153.01639344263822,196.9618148272857 148.88524590153247,197.8767844333779 146.9180327868089,196.2755873745773 146.13114754110575,195.1318744784221 144.95081967208534,193.98816099064425 141.40983606502414,193.30193261406384 139.8360655726865,193.530675429618 135.50819672085345,194.90313182841055 134.52459016349167,195.5893597076647 133.7377049177885,197.8767844333779 133.54098360519856,200.39294889569283 133.14754098281264,201.76540103019215 130.19672131165862,207.02645964780822 129.21311475336552,207.71268376079388 127.6393442619592,207.25520104239695 125.47540983650833,206.11149383173324 123.31147541012615,205.65401078155264 119.96721311472356,204.28156106267124 110.91803278680891,202.68036864651367 104.22950819600374,203.5953358837869 96.5573770487681,203.13785231253132 93.0163934417069,203.36659410968423 84.16393442638218,205.19652763660997 82.19672131165862,204.73904439690523 75.31147540919483,200.6216909775976 71.3770491797477,196.73307236633264 68.42622950766236,196.2755873745773 64.68852458987385,196.73307236633264 63.11475409846753,196.2755873745773 61.344262294471264,194.67438915465027 61.344262294471264,192.3869611127302 62.32786885276437,191.9294752201531 61.934426229447126,191.70073223859072 56.8196721309796,190.55701697361656 51.90163934417069,190.78576007438824 50.524590162560344,189.41330111725256 48.360655738040805,191.4719892332796 47.96721311472356,192.84444691077806 48.360655738040805,193.530675429618 47.96721311472356,194.21690373588353 47.573770492337644,197.19055726425722 47.573770492337644,199.70672250795178 46.0,202.9091104909312 46.0,203.82407763390802 48.5573770487681,204.73904439690523 50.91803278680891,204.28156106267124 53.67213114723563,204.51030274201185 58.98360655736178,207.25520104239695 61.934426229447126,209.7713548215106 65.67213114723563,211.37254209793173 71.77049180306494,211.83002396347 75.90163934323937,215.9473564918153 77.27868852484971,215.9473564918153 79.04918032791466,215.26113493647426 82.19672131165862,215.48987547820434 84.7540983594954,216.40483740903437 91.6393442619592,216.17609696206637 96.75409836042672,217.09105860930867 100.68852458987385,218.92098076664843 106.59016393404454,217.3197989622131 109.34426229447126,215.26113493647426 113.27868852484971,214.11743187042885 116.6229508202523,215.9473564918153 117.60655737668276,216.86231823335402 117.80327868834138,219.37846106872894 117.80327868834138,224.41073814267293 118.78688524570316,227.61309031117707 122.13114754110575,229.67174282483757 122.72131147515029,230.5866988825146 123.50819672085345,230.5866988825146 124.49180327821523,230.35795990307815 125.47540983650833,229.44300375133753 129.60655737668276,227.3843510239385 134.32786885183305,226.6981330222916 136.2950819665566,227.8418295737356 141.0163934417069,228.2993080287706 142.39344262238592,228.0705688134767 143.57377049140632,227.15561171318404 144.36065573710948,226.01191480690613 145.54098360612988,220.522161410423 146.52459016349167,219.37846106872894 147.1147540975362,217.3197989622131 148.68852458987385,214.80365378060378 149.475409835577,211.37254209793173 151.6393442619592,207.48394241300412 153.40983606502414,201.9941429698374 154.0,198.10552677558735 153.60655737668276,197.19055726425722 153.01639344263822,196.9618148272857 149.2786885239184,197.41929967794567 147.70491803251207,196.50432988232933 147.31147541012615,195.36061710538343 146.13114754110575,194.21690373588353 141.21311475336552,193.07318977429532 134.9180327868089,195.36061710538343 132.16393442638218,197.41929967794567 130.78688524477184,201.76540103019215 130.39344262238592,203.36659410968423 130.59016393404454,204.73904439690523 130.19672131165862,206.56897678715177 129.60655737668276,206.79771822947077 128.42622950766236,206.79771822947077 125.67213114723563,205.19652763660997 124.29508196748793,204.73904439690523 118.98360655736178,204.28156106267124 113.67213114723563,203.13785231253132 111.11475409846753,203.36659410968423 109.54098360612988,203.82407763390802 108.75409836042672,204.51030274201185 107.3770491797477,204.73904439690523" stroke="#4DD2FF" stroke-linecap="round" stroke-linejoin="round" stroke-width="0.5"><title>2024-09-08 5.3km</title><desc>12358368474</desc></polyline></svg>