<?xml version="1.0" encoding="utf-8" ?>
<svg baseProfile="full" height="300mm" version="1.1" viewBox="0,0,200,300" width="200mm" xmlns="http://www.w3.org/2000/svg" xmlns:ev="http://www.w3.org/2001/xml-events" xmlns:xlink="http://www.w3.org/1999/xlink"><defs /><rect fill="#222222" height="300" width="200" x="0" y="0" /><text fill="#FFFFFF" style="font-size:12px; font-family:Arial; font-weight:bold;" x="10" y="20">Over 5km Runs</text><text fill="#FFFFFF" style="font-size:4px; font-family:Arial" x="10" y="280">Runner</text><text fill="#FFFFFF" style="font-size:9px; font-family:Arial" x="10" y="290">𝓗𝓶𝓸𝓻𝓪</text><text fill="#FFFFFF" style="font-size:4px; font-family:Arial" x="65" y="280">SPECIAL TRACKS</text><rect fill="yellow" height="2.6" width="2.6" x="65" y="283" /><text fill="#FFFFFF" style="font-size:3px; font-family:Arial" x="70" y="285.5">Over 20.0 km</text><rect fill="red" height="2.6" width="2.6" x="65" y="287" /><text fill="#FFFFFF" style="font-size:3px; font-family:Arial" x="70" y="289.5">Over 40.0 km</text><text fill="#FFFFFF" style="font-size:4px; font-family:Arial" x="120" y="280">STATISTICS</text><text fill="#FFFFFF" style="font-size:3px; font-family:Arial" x="120" y="285">Number: 9</text><text fill="#FFFFFF" style="font-size:3px; font-family:Arial" x="120" y="290">Weekly: 1.1</text><text fill="#FFFFFF" style="font-size:3px; font-family:Arial" x="141" y="285">Total: 47.8 km</text><text fill="#FFFFFF" style="font-size:3px; font-family:Arial" x="141" y="290">Avg: 5.3 km</text><text fill="#FFFFFF" style="font-size:3px; font-family:Arial" x="167" y="285">Min: 5.0 km</text><text fill="#FFFFFF" style="font-size:3px; font-family:Arial" x="167" y="290">Max: 5.5 km</text><polyline fill="none" points="56.259668509010226,63.642612514435314 56.7569060777314,61.79245815251488 57.453038674313575,60.52047525101807 58.04972375743091,59.826665784581564 59.04419889533892,59.71103083190974 59.6408839779906,59.47976088966243 59.54143646452576,59.13285588717554 58.646408840082586,57.74523479945492 58.546961326152086,56.93578836857341 58.04972375743091,56.35761198680848 57.25414364691824,56.01070601446554 55.56353591196239,55.6637999342056 53.77348066307604,54.85435199411586 49.198895027861,53.351089978124946 43.92817679606378,51.26964692212641 41.44198895059526,50.69146760669537 40.546961326152086,50.113287992193364 39.154696132522076,49.650744085083716 38.65745856333524,49.53510807827115 36.668508287053555,48.841291786171496 32.29281767969951,47.91620272642467 29.209944751579314,46.75984032393899 27.917127071879804,46.528567699482664 27.320441988762468,45.95038592966739 26.922651933971792,45.719113137573004 21.154696132522076,43.75329247233458 19.861878453288227,44.44711192592513 19.26519337017089,45.14093094796408 18.867403314914554,45.95038592966739 18.469613259658217,47.80056653986685 17.375690607354045,49.99765203346033 16.87845303863287,51.38528274919372 16.77900552470237,52.19473320362158 14.591160221025348,58.20777535357047 13.895027623977512,59.71103083190974 13.198895027395338,61.79245815251488 13.298342541791499,62.83317035832442 13.795580110512674,63.52697795641143 14.39226519363001,63.642612514435314 15.983425414189696,63.064439605455846 18.07182320440188,63.18007421132643 19.861878453288227,64.33641960972454 21.751381215639412,64.91459185956046 23.3425414361991,65.83966683712788 27.419889502692968,66.30220403859857 28.812154696322978,66.99600948137231 31.198895027395338,67.68981449306011 33.18784530367702,69.0774232231779 34.182320442050695,69.19305720599368 35.27624309388921,68.96178922848776 35.77348066307604,68.96178922848776 37.06629834277555,69.53995908342768 37.86187845328823,70.11812863929663 38.65745856333524,70.11812863929663 40.14917127089575,70.81193171138875 41.44198895059526,70.69629789586179 42.33701657457277,70.46503022930119 42.83425414375961,70.11812863929663 43.53038674034178,70.23376251477748 44.524861878715456,69.88686085282825 45.32044198922813,69.0774232231779 45.718232044484466,68.84615522110835 49.0994475139305,69.30869117716793 49.696132597047836,69.88686085282825 49.795580110512674,70.3493963778019 49.596685083117336,72.77770474087447 49.696132597047836,73.47150616056751 50.79005524888635,74.74347430979833 51.68508287286386,75.20600782323163 54.46961326012388,75.09037446300499 56.85635359119624,74.74347430979833 59.34254143666476,74.97474109043833 60.43646408850327,74.74347430979833 62.02762430999428,73.9340402004309 63.51933701708913,72.19953656184953 63.917127071879804,71.0431993061211 64.51381215499714,68.96178922848776 66.30386740388349,64.22078512364533 67.0,62.25499703036621 67.0,61.79245815251488 66.80110497260466,61.32991908339318 66.30386740388349,61.09864947688766 65.80662983469665,60.9830146554159 64.71270718285814,61.44555386854336 64.41436464106664,61.32991908339318 63.61878453055397,60.173570571583696 62.82320442004129,59.59539586666506 61.331491712946445,58.90158582595177 60.33701657503843,58.90158582595177 59.14364640926942,59.36412590078544 57.85082872956991,59.47976088966243 57.05524861859158,60.05793565453496 56.359116022475064,61.44555386854336 56.060773481149226,62.48626639752183 56.160220994614065,64.45205408358015 55.86187845328823,64.91459185956046 55.06629834277555,65.030226273695 40.44751381222159,65.030226273695 34.77900552516803,65.1458606760716 32.988950276281685,64.79895743355155 31.497237569186836,64.10515062557533 28.911602209787816,63.411343386396766 28.016574585810304,62.94880498794373 26.226519336923957,62.48626639752183 22.348066298291087,60.9830146554159 21.353591159917414,60.75174497696571 15.088397789746523,58.32341046212241 14.39226519363001,58.439045558683574 13.994475138373673,58.6703157160664 13.795580110512674,59.71103083190974 13.0,61.67682340333704 13.596685083117336,62.94880498794373 13.994475138373673,63.411343386396766 14.889502762351185,63.52697795641143 14.988950276281685,63.295708804856986 16.381215469911695,63.064439605455846 18.767955800984055,63.411343386396766 19.56353591149673,63.98951611586381 20.060773480683565,64.45205408358015 21.353591159917414,65.1458606760716 23.54143646452576,65.7240325070452 26.226519336923957,66.07093546178658 29.209944751579314,67.11164367990568 32.59116022149101,69.0774232231779 36.56906077358872,69.19305720599368 38.060773480683565,70.00249475229066 39.453038674313575,71.15883308567572 40.546961326152086,71.39010060857981 41.14364640880376,71.39010060857981 42.73480663029477,70.69629789586179 43.72928176820278,70.11812863929663 45.22099447529763,68.96178922848776 46.71270718239248,68.73052120232023 48.502762431278825,69.0774232231779 49.0994475139305,69.30869117716793 49.795580110512674,70.00249475229066 49.397790055722,71.96826920669992 49.49723756918684,72.5464375052834 50.19337016623467,74.16530714882538 51.08839778974652,75.20600782323163 52.08287292858586,75.4372745079454 55.06629834277555,74.97474109043833 57.75138121563941,74.85910770623013 60.038674033712596,75.66854114504531 61.23204419948161,75.78417444543447 61.92817679559812,75.55290783266537 62.425414364784956,75.20600782323163 65.01104972371832,66.99600948137231 66.00552486255765,64.91459185956046 65.90607734816149,64.68332299531903 67.0,61.79245815251488 66.90055248700082,61.21428428613581 66.30386740388349,60.86737982230261 64.71270718285814,61.32991908339318 63.51933701708913,59.94230072549544 62.922651934437454,59.47976088966243 62.02762430999428,59.01722086255904 60.33701657503843,58.78595077700447 58.24861878482625,59.59539586666506 57.75138121563941,59.94230072549544 56.9558011055924,60.86737982230261 56.359116022475064,62.370631719822995 56.359116022475064,63.18007421132643 56.6574585638009,63.642612514435314 56.6574585638009,63.98951611586381 56.45856353640556,64.68332299531903 55.961325966753066,65.030226273695 54.27071823226288,64.79895743355155 49.00000000046566,65.030226273695 45.41988950315863,65.26149506599177 39.05524861905724,65.26149506599177 34.77900552516803,65.60839816462249 28.712707182392478,63.295708804856986 26.922651933971792,62.370631719822995 26.02762430952862,62.25499703036621 22.348066298291087,60.75174497696571 20.458563535939902,60.28920547652524 18.767955800984055,59.59539586666506 15.486187845468521,58.439045558683574 14.491712707094848,58.554680643603206 13.994475138373673,59.13285588717554 13.298342541791499,60.404840369708836 13.198895027395338,61.561188641702756 13.298342541791499,62.13936232891865 13.596685083117336,62.48626639752183 13.795580110512674,63.295708804856986 14.19337016576901,63.52697795641143 14.889502762351185,63.642612514435314 15.685082872863859,63.18007421132643 16.182320442050695,63.064439605455846 18.767955800984055,63.411343386396766 20.160220994614065,64.5676885455614 21.552486188244075,65.1458606760716 23.3425414361991,65.7240325070452 24.933701657690108,65.83966683712788 28.21546961320564,66.4178383089602 32.29281767969951,68.61488717154134 34.082872928120196,69.0774232231779 35.87292817700654,68.96178922848776 37.36464088410139,69.42432513658423 39.05524861905724,70.92756551480852 40.546961326152086,71.39010060857981 41.24309392273426,71.39010060857981 43.03314917162061,70.23376251477748 44.82320442004129,69.42432513658423 46.81215469678864,68.84615522110835 47.90607734862715,68.84615522110835 50.39226519363001,69.77122694207355 52.08287292858586,69.77122694207355 53.97237569047138,70.11812863929663 54.56906077358872,70.11812863929663 55.86187845328823,69.42432513658423 57.65193370170891,68.84615522110835 58.04972375743091,68.96178922848776 58.944751381874084,69.42432513658423 59.6408839779906,69.42432513658423 61.13259668555111,68.84615522110835 62.524861878715456,67.92108273447957 63.817679558414966,67.45854620391037 64.3149171276018,67.57418035436422 64.41436464106664,68.15235092805233 62.72375690611079,74.85910770623013 62.32596685132012,75.4372745079454 61.331491712946445,76.24670752766542" stroke="#4DD2FF" stroke-linecap="round" stroke-linejoin="round" stroke-width="0.5"><title>2025-05-10 5.0km</title><desc>14430932480</desc></polyline><polyline fill="none" points="99.40875912411138,65.04152123699896 100.0,65.38525763060898 101.77372262720019,65.04152123699896 102.95620437944308,64.58320587943308 104.63138686073944,63.32283766637556 105.7153284670785,62.864521596580744 108.08029197063297,62.979100632015616 109.16423357650638,63.32283766637556 109.45985401421785,63.66657459398266 109.65693430649117,64.35404812905472 109.36131386831403,65.61441516724881 109.26277372287586,66.7602021379862 109.65693430649117,67.90598792210221 110.93795620463789,68.93719411350321 112.02189781004563,69.28092929685954 113.69708029180765,69.28092929685954 114.97810218995437,68.93719411350321 116.75182481715456,68.82261569518596 120.39781021885574,69.62466437392868 121.48175182472914,69.51008602662478 122.27007299242541,68.93719411350321 122.46715328469872,67.67683085997123 124.43795620463789,62.63536349055357 124.53649635054171,61.94788888795301 125.0291970805265,60.9166761826491 125.0291970805265,60.00004186038859 126.3102189777419,56.90639541554265 127.0,55.87517801148351 126.70437956228852,55.302279038587585 126.21167883230373,54.95853951247409 125.62043795594946,54.95853951247409 124.53649635054171,55.302279038587585 122.86131386877969,53.698160336352885 120.69343065656722,52.666939942515455 120.20072992704809,52.666939942515455 119.01824817527086,53.01068018050864 117.73722627712414,53.125260236207396 116.94890510896221,53.812740320921876 116.1605839417316,55.41685885703191 116.1605839417316,58.16677093692124 116.06204379536211,58.39592996845022 115.56934306537732,58.62508895259816 112.51459854003042,58.62508895259816 107.48905109474435,58.854247889248654 106.70072992704809,58.73966842668597 102.46350364945829,59.08340677828528 95.17153284652159,58.854247889248654 89.94890510942787,57.82303230080288 84.72627737186849,55.98975777067244 82.85401459829882,55.646018457831815 82.06569343013689,55.187699208268896 78.91240875888616,54.385640064720064 78.22262773662806,53.698160336352885 75.56204379536211,52.552359839202836 74.67518248176202,51.40655815589707 74.18248175131157,51.17739767674357 73.98540145950392,51.40655815589707 73.49270072951913,54.27106013975572 73.0,55.646018457831815 73.09854014590383,55.98975777067244 73.49270072951913,56.333496976294555 73.59124087588862,56.79181575123221 73.98540145950392,57.13555470784195 74.37956204358488,57.250134336180054 76.74452554713935,56.79181575123221 77.63138686073944,56.90639541554265 78.7153284670785,57.250134336180054 80.58759124064818,58.73966842668597 81.86861313832924,59.42714502301533 86.20437956182286,60.00004186038859 87.5839416058734,60.80209693405777 88.76642335765064,61.14583464479074 90.54014598531649,61.37499305931851 91.72262773709372,62.062468017917126 93.59489051066339,62.749942549620755 96.6496350360103,62.749942549620755 99.21167883183807,64.35404812905472 100.88686131406575,64.81236358184833 102.75912408763543,64.46862701012287 106.30656934250146,62.520784419961274 107.98175182426348,62.63536349055357 109.16423357650638,62.979100632015616 109.65693430649117,63.43741665419657 109.75547445239499,64.12489033141173 108.96715328469872,65.72899391769897 108.96715328469872,66.30188749183435 110.34671532828361,68.02056643541437 111.03649635007605,68.59345882292837 111.82481751823798,68.93719411350321 113.20437956228852,68.82261569518596 115.07664233539253,68.47888036910444 117.83576642349362,68.59345882292837 119.31386861298233,69.16635091439821 120.79197080247104,69.39550766744651 121.77737226244062,68.93719411350321 122.36861313832924,68.02056643541437 122.86131386877969,66.64562349417247 123.05839416058734,65.72899391769897 124.83211678778753,61.37499305931851 125.22627737233415,59.65630379342474 125.81751824822277,58.510509466635995 126.50729926954955,55.98975777067244 126.40875912411138,55.41685885703191 126.01459854003042,54.95853951247409 126.01459854003042,54.72937976906542 125.0291970805265,53.92732029338367 124.93065693415701,53.354420311632566 124.3394160582684,52.666939942515455 123.35401459876448,52.094039308140054 121.08759124111384,51.40655815589707 119.41240875935182,50.48991595453117 118.8211678834632,50.37533562607132 118.52554744528607,50.48991595453117 118.22992700710893,51.06281741918065 118.42700729891658,51.86487897171173 118.1313868612051,52.666939942515455 116.75182481715456,54.04190025385469 116.1605839417316,55.187699208268896 116.1605839417316,57.93761185789481 116.06204379536211,58.281350458506495 115.56934306537732,58.62508895259816 109.16423357650638,58.854247889248654 105.41970802890137,59.19798620522488 99.60583941591904,58.96882733958773 97.14233576646075,59.312565620057285 93.00364963477477,58.510509466635995 89.25912408716977,57.250134336180054 88.37226277356967,56.677236075280234 85.4160583941266,55.646018457831815 83.74087591236457,54.84395964664873 80.98175182472914,54.27106013975572 78.61678832117468,53.125260236207396 76.25182481715456,52.552359839202836 74.87226277310401,52.094039308140054 74.18248175131157,51.97945914580487 73.78832116769627,52.20861945883371 73.78832116769627,52.89610011293553 73.3941605836153,54.156480202567764 73.19708029134199,54.50021997815929 73.19708029134199,55.073119366308674 73.68978102132678,56.79181575123221 74.18248175131157,57.250134336180054 74.87226277310401,57.250134336180054 76.35036496352404,56.562656387570314 78.7153284670785,57.13555470784195 80.39051094884053,58.510509466635995 82.85401459829882,59.42714502301533 86.8941605836153,59.88546251645312 89.85036496352404,60.9166761826491 91.13138686073944,61.71873059193604 93.20072992704809,62.520784419961274 96.84671532828361,62.63536349055357 97.53649635007605,62.979100632015616 99.40875912411138,64.69778473628685 100.78832116769627,65.04152123699896 102.06934306584299,64.9269424151862 105.12408759118989,63.32283766637556 107.78467153245583,62.749942549620755 108.67153284652159,62.864521596580744 109.45985401421785,63.43741665419657 109.65693430649117,63.78115354641341 109.26277372287586,65.15610004658811 109.36131386831403,66.53104483871721 109.85401459829882,67.33309517835733 111.03649635007605,68.36430190352257 111.72627737233415,68.59345882292837 113.40145985409617,68.70803726499435 115.07664233539253,68.47888036910444 117.34306569350883,68.59345882292837 118.72262773709372,68.82261569518596 120.39781021885574,69.39550766744651 121.77737226244062,69.39550766744651 122.17153284698725,69.0517725199461 122.56569343013689,68.24972342618275 123.1569343060255,66.0727300979197 124.24087591236457,63.43741665419657 125.32481751823798,59.88546251645312 125.81751824822277,58.96882733958773 126.40875912411138,57.02097506751306 126.40875912411138,55.87517801148351 125.62043795594946,55.302279038587585 124.04379562009126,54.95853951247409 123.45255474420264,54.27106013975572 122.17153284698725,53.125260236207396 121.08759124111384,52.666939942515455 120.1021897806786,52.552359839202836 119.41240875935182,53.125260236207396 118.03284671530128,53.125260236207396 117.34306569350883,53.469000331824645 116.65328467125073,54.27106013975572 116.06204379536211,55.187699208268896 115.86496350355446,56.677236075280234 116.06204379536211,57.93761185789481 115.66788321174681,58.39592996845022 110.14963503647596,58.62508895259816 107.88321167882532,58.62508895259816 104.33576642302796,58.854247889248654 99.60583941591904,58.73966842668597 95.36861313832924,58.73966842668597 93.39781021839008,58.510509466635995 88.27372262766585,56.4480766877532 85.21897810185328,55.98975777067244 83.4452554746531,55.531438663369045 82.95255474420264,55.073119366308674 81.5729927001521,54.95853951247409 81.1788321165368,54.72937976906542 80.88321167882532,54.156480202567764 80.39051094884053,53.583580339793116 79.99635036475956,53.354420311632566 78.91240875888616,53.354420311632566 77.43430656893179,52.666939942515455 75.3649635030888,52.323199597653 75.06934306537732,51.97945914580487 74.87226277310401,51.17739767674357 74.47810218948871,51.06281741918065 74.08394160540774,51.750298785278574 73.78832116769627,53.01068018050864 73.78832116769627,53.92732029338367 73.98540145950392,54.50021997815929 73.78832116769627,55.073119366308674 73.78832116769627,55.646018457831815 74.08394160540774,57.02097506751306 74.67518248176202,57.250134336180054 76.35036496352404,56.677236075280234 77.53284671483561,56.677236075280234 78.5182481748052,57.13555470784195 80.686131386552,58.73966842668597 82.75547445239499,59.42714502301533 84.23357664234936,59.65630379342474 85.3175182477571,59.54172441386618 87.18978102179244,60.11462119210046 89.45620437897742,60.9166761826491 91.52554744528607,62.062468017917126 92.60948905069381,62.40620533726178 93.89051094884053,62.520784419961274 96.25547445239499,62.520784419961274 98.0291970805265,63.43741665419657 100.0,65.27067884476855 100.68978102132678,65.27067884476855 101.77372262720019,64.9269424151862 103.94160583941266,63.43741665419657 105.12408759118989,62.979100632015616 106.89781021885574,62.520784419961274 108.77007299242541,62.864521596580744 109.26277372287586,63.093679655576125 109.95255474420264,63.78115354641341 109.26277372287586,66.0727300979197 109.75547445239499,67.21851659391541 110.44525547418743,67.56225231150165 111.72627737233415,68.93719411350321 112.51459854003042,69.28092929685954 113.5,69.28092929685954 114.97810218995437,68.70803726499435 116.25912408763543,68.59345882292837 118.52554744528607,68.82261569518596 120.89051094837487,69.39550766744651 122.17153284698725,69.0517725199461 122.27007299242541,68.82261569518596 122.36861313832924,68.02056643541437 123.55109489057213,65.72899391769897 123.84671532828361,64.35404812905472 124.24087591236457,63.66657459398266 125.22627737233415,59.88546251645312 126.1131386863999,57.93761185789481 126.70437956228852,55.646018457831815 126.40875912411138,55.073119366308674 125.71897810185328,54.95853951247409 125.0291970805265,55.073119366308674 124.04379562009126,54.95853951247409 122.46715328469872,53.354420311632566 121.08759124111384,52.666939942515455 120.29927007295191,52.552359839202836 118.91970802936703,53.01068018050864 118.03284671530128,53.01068018050864 116.85036496352404,53.92732029338367 116.1605839417316,55.41685885703191 116.1605839417316,56.333496976294555 115.96350364945829,57.36471395299304 116.1605839417316,57.70845273172017 116.06204379536211,58.39592996845022 115.4708029194735,58.73966842668597 114.28832116769627,58.62508895259816 113.40145985409617,58.854247889248654 111.82481751823798,58.73966842668597 110.64233576646075,58.96882733958773 108.1788321165368,58.62508895259816 100.49270072998479,58.96882733958773 96.1569343060255,58.96882733958773 93.10218978114426,58.39592996845022 90.24452554713935,57.13555470784195 89.16058394126594,57.02097506751306 87.68248175131157,56.10433751787059 84.62773722596467,55.302279038587585 82.55839416058734,55.073119366308674 79.50364963524044,53.92732029338367 77.72992700710893,53.01068018050864 76.54744525486603,52.781520033604465 76.44890510896221,52.89610011293553 75.85766423307359,52.666939942515455 74.87226277310401,51.750298785278574 74.28102189768106,51.63571858743671 73.98540145950392,51.86487897171173 73.19708029134199,55.073119366308674 73.29562043771148,56.10433751787059 73.78832116769627,57.02097506751306 74.87226277310401,57.36471395299304 76.64598540123552,58.281350458506495 78.5182481748052,58.73966842668597 86.99270072951913,61.37499305931851" stroke="#4DD2FF" stroke-linecap="round" stroke-linejoin="round" stroke-width="0.5"><title>2025-04-20 5.0km</title><desc>14232395834</desc></polyline><polyline fill="none" points="187.0,54.74834587483201 187.0,54.055812582722865 186.40441176481545,53.47870117716957 185.2132352939807,53.82496805628762 184.61764705879614,53.70954577496741 183.72426470555365,53.13243419013452 182.53308823518455,51.978210124070756 180.44852941203862,51.28567511041183 178.86029411759228,52.0936325842049 177.6691176467575,51.978210124070756 176.87499999953434,52.786167095880955 176.27941176481545,53.59412348200567 175.9816176467575,54.40207928256132 175.78308823518455,55.440878737019375 175.9816176467575,56.825943169998936 175.68382352916524,57.51847474137321 171.9117647060193,57.633896627812646 169.82720588194206,57.40305284282658 167.2463235296309,57.749318502726965 160.39705882314593,57.633896627812646 157.22058823518455,57.864740365417674 153.05147058796138,57.633896627812646 151.36397058796138,56.825943169998936 149.18014705833048,56.24883319879882 146.5,55.09461235976778 141.0404411763884,53.36327885999344 137.76470588194206,51.862787651713006 136.07720588194206,51.401097642374225 134.9852941171266,50.362294423161075 134.5882352939807,50.477717050816864 134.5882352939807,50.70856227062177 133.7941176467575,51.74736516724806 133.0,54.055812582722865 133.69485294120386,55.67172292876057 134.0919117643498,56.01798912649974 134.9852941171266,56.01798912649974 136.07720588194206,55.67172292876057 136.97058823518455,55.67172292876057 137.9632352939807,55.78714500681963 138.85661764722317,56.24883319879882 140.04779411759228,57.287630932289176 142.43014705879614,58.44184950029012 144.51470588240772,59.13438006734941 145.80514705833048,59.36522349412553 147.39338235277683,60.17317511118017 149.57720588240772,60.28859672311228 152.2573529407382,61.55823366402183 153.44852941157296,61.90449803334195 156.12867647083476,61.78907658858225 157.31985294120386,62.1353408859577 159.30514705879614,63.17413313337602 161.19117647083476,63.289554434246384 162.58088235277683,62.82786915835459 163.57352941157296,62.71244780998677 164.9632352939807,62.0199194655288 166.55147058842704,61.78907658858225 167.5441176467575,61.67365513218101 168.93382352916524,62.0199194655288 169.33088235277683,62.25076229462866 169.6286764703691,62.94329049543012 169.33088235277683,65.48255688312929 169.52941176481545,66.5213460107334 170.5220588236116,67.67555501696188 172.2095588236116,68.13723828503862 174.39338235277683,67.9063966749236 175.2867647060193,67.56013416999485 176.57720588240772,67.44471331126988 178.26470588240772,67.67555501696188 180.6470588236116,68.59892136172857 181.5404411763884,68.59892136172857 182.13602941203862,68.36807984719053 182.4338235296309,68.13723828503862 182.73161764722317,67.09845066338312 183.2279411763884,65.02087251562625 183.2279411763884,64.3283456057543 184.61764705879614,60.40401832317002 185.8088235296309,58.095584055408835 186.80147058796138,54.863768048468046 186.9007352939807,54.17123482807074 186.6029411763884,53.82496805628762 186.20588235277683,53.70954577496741 184.61764705879614,54.055812582722865 183.3272058828734,52.67074470734224 182.23529411759228,51.862787651713006 181.04411764722317,51.401097642374225 180.25,51.401097642374225 178.9595588236116,51.978210124070756 177.7683823532425,52.0936325842049 177.07352941203862,52.67074470734224 176.18014705879614,54.286657061311416 176.0808823532425,55.440878737019375 176.27941176481545,57.0567870750092 176.0808823532425,57.40305284282658 175.5845588236116,57.51847474137321 167.2463235296309,57.749318502726965 165.1617647060193,57.51847474137321 154.8382352939807,57.980162216350436 151.76102941157296,57.287630932289176 147.1948529407382,55.440878737019375 144.61397058842704,54.632923689554445 141.0404411763884,53.0170118373353 135.77941176481545,51.28567511041183 135.38235294120386,51.054830010281876 135.1838235296309,50.593139666481875 134.78676470555365,50.24687178328168 134.38970588240772,50.93940744223073 133.7941176467575,52.32447746919934 133.2977941171266,54.40207928256132 133.4963235296309,55.21003449743148 134.1911764703691,56.01798912649974 135.1838235296309,56.01798912649974 136.57352941157296,55.67172292876057 138.26102941157296,56.01798912649974 139.94852941157296,56.825943169998936 141.73529411759228,58.211005882243626 145.01102941157296,59.13438006734941 147.29411764722317,59.24980178673286 149.7757352939807,59.82691020425409 152.8529411763884,61.55823366402183 153.6470588236116,61.67365513218101 155.3345588236116,61.55823366402183 156.32720588240772,61.67365513218101 159.4044117643498,63.635818265611306 160.99264705879614,63.75123951898422 161.7867647060193,63.52039700048044 164.36764705879614,61.90449803334195 165.65808823518455,61.55823366402183 169.03308823518455,62.0199194655288 169.7279411763884,62.82786915835459 169.82720588194206,63.289554434246384 169.43014705879614,64.79003026010469 169.6286764703691,65.94424105912913 170.02573529444635,66.63676696503535 170.5220588236116,67.32929244078696 171.3161764703691,67.79097585217096 172.50735294120386,67.9063966749236 176.57720588240772,67.44471331126988 178.6617647060193,67.67555501696188 181.34191176481545,67.09845066338312 182.13602941203862,66.5213460107334 183.2279411763884,64.67460911453236 184.22058823518455,61.78907658858225 184.71691176481545,60.981126142665744 186.30514705879614,56.4796772232512 186.6029411763884,55.440878737019375 186.9007352939807,54.632923689554445 186.9007352939807,54.055812582722865 186.6029411763884,53.70954577496741 186.30514705879614,53.59412348200567 184.61764705879614,54.055812582722865 183.92279411759228,53.47870117716957 182.73161764722317,52.20905503258109 181.9375,51.74736516724806 180.34926470555365,51.401097642374225 179.05882352916524,51.978210124070756 178.0661764703691,52.0936325842049 177.47058823518455,52.43989989371039 176.77573529444635,53.36327885999344 176.27941176481545,54.286657061311416 176.18014705879614,54.74834587483201 176.0808823532425,56.01798912649974 176.27941176481545,57.17220900952816 175.78308823518455,57.633896627812646 173.69852941157296,57.51847474137321 169.6286764703691,57.633896627812646 163.97058823518455,57.51847474137321 161.88602941157296,57.749318502726965 155.8308823532425,57.749318502726965 152.15808823518455,57.40305284282658 150.17279411759228,56.710521199856885 147.1948529407382,55.440878737019375 143.62132352916524,54.17123482807074 141.3382352939807,53.13243419013452 136.17647058796138,51.401097642374225 135.28308823518455,51.054830010281876 134.88602941157296,50.362294423161075 134.1911764703691,50.593139666481875 133.69485294120386,51.74736516724806 133.19852941203862,54.286657061311416 133.7941176467575,56.13341116881929 134.5882352939807,56.24883319879882 135.8786764703691,55.902567072655074 136.07720588194206,55.55630083871074 137.06985294120386,55.55630083871074 137.36764705879614,55.902567072655074 139.2536764703691,56.36425521678757 139.84926470555365,57.0567870750092 141.83455882314593,57.980162216350436 146.1029411763884,59.018958335975185 147.59191176481545,60.05775348760653 148.78308823518455,60.51943991088774 150.37132352916524,60.750283050583676 152.7536764703691,61.90449803334195 153.84558823518455,62.0199194655288 155.03676470555365,61.67365513218101 156.12867647083476,61.90449803334195 159.80147058842704,63.982081989524886 162.08455882314593,63.635818265611306 163.57352941157296,62.94329049543012 165.4595588236116,61.55823366402183 166.55147058842704,61.44281218352262 168.4375,61.78907658858225 169.7279411763884,62.5970264490461 169.7279411763884,63.05871182016563 169.23161764722317,64.79003026010469 169.23161764722317,65.36713580903597 169.52941176481545,66.40592504455708 170.2242647060193,67.32929244078696 171.3161764703691,68.02181748615112 175.08823529444635,68.13723828503862 176.27941176481545,68.59892136172857 178.46323529444635,69.75312821660191 181.73897058796138,68.48350061068777 182.4338235296309,67.9063966749236 182.93014705879614,66.05966207350139 183.82352941203862,63.86666076036636 184.41911764722317,61.67365513218101 185.01470588240772,60.28859672311228 186.30514705879614,56.01798912649974 186.9007352939807,54.74834587483201 186.9007352939807,54.055812582722865 186.6029411763884,53.82496805628762 186.00735294120386,53.70954577496741 185.01470588240772,54.055812582722865 184.71691176481545,54.286657061311416 184.8161764703691,54.51750149182044 184.1213235296309,55.09461235976778 184.0220588236116,55.67172292876057 182.8308823532425,55.67172292876057 182.63235294120386,56.01798912649974 181.5404411763884,56.36425521678757 180.54779411759228,57.17220900952816 179.15808823518455,57.40305284282658 178.0661764703691,56.94136512861587 177.56985294120386,57.0567870750092 176.9742647060193,57.51847474137321 175.68382352916524,57.749318502726965 171.61397058842704,57.51847474137321 168.0404411763884,57.864740365417674 160.0992647060193,57.864740365417674 155.53308823518455,58.095584055408835 153.25,57.749318502726965 137.6654411763884,52.0936325842049 137.36764705879614,52.0936325842049 136.57352941157296,51.74736516724806 136.2757352939807,51.74736516724806 135.4816176467575,51.054830010281876 135.28308823518455,50.593139666481875 134.78676470555365,50.362294423161075 134.1911764703691,50.823984862305224" stroke="#4DD2FF" stroke-linecap="round" stroke-linejoin="round" stroke-width="0.5"><title>2025-02-08 5.5km</title><desc>13569967175</desc></polyline><polyline fill="none" points="59.383363471832126,167.9399082888849 60.164556961972266,168.0534501009388 60.75045207934454,167.82636646495666 61.72694394225255,166.6909475796856 62.70343580469489,162.4898874805076 63.38698010891676,160.21903748204932 63.48462929483503,159.4242388715502 64.26582278497517,157.2669254533248 65.43761301971972,154.65543510997668 66.90235081361607,150.45432889764197 67.0,149.77306691394188 66.80470162723213,148.8647169440519 65.82820976525545,147.38864663790446 64.85171790234745,146.36675064649899 63.48462929483503,145.68548612308223 62.117540686856955,145.45839785470162 60.555153707508,144.3229558065068 58.30922242347151,143.41460132133216 56.551537070423365,143.07396819547284 54.50090415915474,142.2791571568232 53.5244122967124,141.48434554191772 52.254972875118256,141.03016721759923 50.1066907774657,140.68953335098922 46.10307414131239,139.32699682598468 44.93128390610218,138.64572792837862 43.954792043659836,138.5321830707835 43.8571428572759,138.3050933207851 42.49005424929783,137.73736873979215 40.244122965727,137.05609885440208 38.779385171830654,136.94255383254495 37.998191682156175,136.94255383254495 36.6311030741781,136.37482854607515 35.55696202535182,136.48837362683844 34.58047016290948,136.26128345332108 31.84629294788465,135.12583188095596 30.576853526290506,134.89874142524786 29.20976491877809,134.21746977651492 28.233273056335747,133.99037913256325 27.64737793849781,133.53619770391379 26.08499095821753,133.1955615087645 25.98734177229926,133.08201608678792 24.913200723472983,132.51428880158346 21.788426762912422,131.60592453333084 21.202531645540148,131.60592453333084 19.64014466572553,132.85492520814296 19.249547920189798,133.42265231721103 19.347197107039392,134.10392446035985 19.249547920189798,134.6716509226244 18.077757684979588,135.35292228928301 16.90596745023504,136.82900879858062 16.808318264316767,138.64572792837862 16.417721518781036,139.7811758556636 16.22242314647883,140.8030779848341 15.8318264009431,141.82497916172724 15.8318264009431,143.07396819547284 15.538878842722625,143.6416900131153 15.050632911268622,144.09586725581903 13.878842676524073,145.68548612308223 13.292947558686137,148.97826073132455 13.488245931454003,149.65952320897486 14.952983724884689,151.02204689383507 17.29656419530511,150.45432889764197 18.85895117558539,150.79495973081794 19.347197107039392,151.24913401016966 19.933092224411666,151.93039507674985 21.788426762912422,153.29291593970265 23.64376130187884,154.08771899470594 25.889692585915327,154.31480547611136 27.061482821125537,154.768978297594 28.135623869486153,155.56378028262407 29.99095840891823,156.47212470287923 30.28390596760437,156.47212470287923 31.06509945774451,157.0398395829834 32.43218806525692,157.72109705174807 32.33453887887299,157.49401127616875 32.529837251640856,157.49401127616875 35.45931283896789,157.2669254533248 36.92405063286424,158.06172562751453 38.779385171830654,158.28881128586363 40.244122965727,159.4242388715502 41.220614828169346,159.764866918209 42.58770343568176,159.53778156568296 43.564195298589766,158.28881128586363 44.93128390610218,157.2669254533248 45.41952983709052,157.15338252391666 46.298372513614595,156.92629663052503 48.54430379765108,157.2669254533248 49.52079566009343,158.17526846239343 49.9113924051635,158.85652522556484 49.61844484647736,159.8784095768351 49.13019891502336,160.33258009387646 49.13019891502336,161.01383551675826 49.71609403286129,162.0357178573031 50.30198915023357,162.7169722217368 52.05967450235039,163.62531071621925 53.426763109862804,163.62531071621925 55.770343580748886,162.9440569159342 57.82097649201751,163.2846838691039 59.383363471832126,163.96593745751306 59.57866184413433,163.85239522217307 60.555153707508,163.85239522217307 61.238698010798544,163.2846838691039 61.53164556948468,162.8305145748891 61.53164556948468,162.4898874805076 62.99638336338103,160.6732078579953 63.582278481218964,159.4242388715502 64.16817359859124,157.2669254533248 64.94936708873138,155.33669406024273 64.94936708873138,154.8825214736862 65.92585895117372,153.17937259934843 66.70705244131386,150.56787252030335 66.70705244131386,150.00015428918414 66.02350813755766,148.29699783050455 65.53526220610365,147.50219057803042 64.94936708873138,146.82092676032335 63.19168173568323,145.91257434454747 62.019891500938684,145.68548612308223 57.62567811924964,143.75523434160277 56.06329113943502,143.52814567321911 55.770343580748886,143.07396819547284 51.18083182629198,140.91662260715384 49.423146474175155,140.8030779848341 47.470162748824805,139.55408636422362 44.63833634741604,138.4186382017797 41.122965642251074,137.73736873979215 37.998191682156175,136.37482854607515 37.41229656431824,136.26128345332108 36.24050632910803,136.6019186959602 33.701627486385405,136.03419323277194 32.82278480986133,135.69355781411286 29.307414104696363,133.64974307850935 26.182640144601464,133.1955615087645 25.303797468543053,132.74137975124177 21.397830018308014,131.60592453333084 19.64014466572553,132.40074330905918 19.151898734271526,132.85492520814296 19.249547920189798,133.1955615087645 18.761301989201456,134.21746977651492 18.663652802817523,135.69355781411286 17.68716094037518,136.37482854607515 17.29656419530511,137.05609885440208 16.90596745023504,138.4186382017797 16.613019892014563,138.64572792837862 16.320072332397103,139.21345203905366 16.12477396056056,140.1218100048136 15.538878842722625,140.46244404732715 14.952983724884689,141.3708009783877 14.952983724884689,141.82497916172724 15.441229656804353,143.07396819547284 14.757685353048146,144.5500443102792 14.56238698028028,145.45839785470162 14.074141048826277,145.91257434454747 13.878842676524073,148.29699783050455 13.39059674507007,148.8647169440519 13.585895117372274,150.1136979587609 14.074141048826277,151.24913401016966 15.245931284036487,151.93039507674985 15.8318264009431,152.61165571969468 17.198915008921176,153.29291593970265 20.811934900470078,155.79086645809002 21.495479204226285,156.13149563362822 23.448462929576635,156.35858169128187 27.061482821125537,157.2669254533248 28.623869800940156,157.72109705174807 30.28390596760437,158.62943968502805 30.967450271360576,158.5158968968317 31.84629294788465,158.97006797848735 33.01808318309486,158.97006797848735 33.311030741315335,159.31069616577588 33.79927667276934,159.31069616577588 34.385171790607274,159.65132424759213 35.75226039811969,159.65132424759213 36.92405063286424,160.10549485881347 38.29113924084231,160.33258009387646 39.65822784835473,161.35446306923404 41.220614828169346,161.35446306923404 41.80650994554162,161.80863297486212 42.19710669107735,162.4898874805076 43.27124773990363,162.7169722217368 43.954792043659836,163.1711415629834 48.251356238964945,164.4201062816428 49.032549728639424,164.4201062816428 49.9113924051635,165.21490127081051 49.9113924051635,165.55552751827054 50.985533453989774,165.78261162468698 51.66907775774598,166.23677969619166 52.254972875118256,166.00969568395521 54.40325497323647,166.57740562630352 55.28209764929488,167.25865716929547 56.6491862568073,167.59928278194275 58.211573236621916,168.39407546666916 59.676311030983925,168.0534501009388 60.35985533474013,167.37219905201346 60.457504520658404,166.91803145047743 61.04339963849634,166.1232376957778 61.04339963849634,165.78261162468698 61.72694394225255,165.21490127081051 61.72694394225255,164.4201062816428 62.99638336338103,162.7169722217368 63.582278481218964,160.55966528179124 64.65641953004524,157.38046837050933 65.14466546103358,155.56378028262407 65.82820976525545,154.20126224134583 66.41410488262773,151.70330810162704 66.90235081361607,150.79495973081794 67.0,149.77306691394188 66.41410488262773,148.52408551145345 65.82820976525545,148.29699783050455 65.24231464741752,147.38864663790446 65.04701627511531,146.70738274930045 61.72694394225255,145.11776536365505 61.238698010798544,144.77713276690338 60.945750451646745,144.3229558065068 59.773960216902196,143.75523434160277 54.207956600468606,142.6197905295994 53.5244122967124,142.2791571568232 52.645569620188326,141.59789009392262 50.88788426760584,141.25725640321616 47.27486437605694,139.7811758556636 45.907775768544525,138.9863624300342 42.8806509943679,137.73736873979215 41.904159132391214,137.62382378836628 41.220614828169346,137.1696438648505 39.169981916900724,136.7154637532076 35.84990958403796,136.26128345332108 32.23688969248906,135.35292228928301 30.186256781220436,135.23937709094025 28.72151898732409,134.44456037285272 26.76853526197374,133.99037913256325 26.280289330985397,133.64974307850935 26.182640144601464,133.30910691909958 21.69077757699415,131.7194701078115 20.90958408685401,131.83301567099988 20.421338155400008,132.17365228908602 18.85895117558539,132.85492520814296 18.370705244131386,133.53619770391379 17.491862568072975,133.99037913256325 17.491862568072975,134.55810565361753 18.077757684979588,134.89874142524786 18.077757684979588,135.80710296565667 17.882459312677383,136.48837362683844 17.491862568072975,136.7154637532076 17.29656419530511,137.1696438648505 17.394213381689042,137.85091367957648 17.394213381689042,138.64572792837862 16.808318264316767,139.7811758556636 16.12477396056056,140.68953335098922 15.636528028640896,142.0520681827329 15.73417721549049,142.96042379643768 14.855334538966417,144.77713276690338 14.269439421128482,146.02611843775958 13.39059674507007,146.82092676032335 13.0,147.61573450674769 13.0,148.41054167691618 13.292947558686137,149.54597949190065 13.976491862442344,150.79495973081794 14.855334538966417,151.13559045805596 17.101265823002905,151.02204689383507 19.542495479341596,151.70330810162704 22.08137432206422,153.17937259934843 24.229656419251114,153.63354589126538 25.108499095775187,154.20126224134583 25.59674502676353,154.08771899470594 25.889692585915327,154.42834869923536 26.4755877032876,154.42834869923536 27.25678119342774,154.99606463790406 28.135623869486153,154.99606463790406 29.307414104696363,155.56378028262407 31.16274864366278,157.2669254533248 32.62748643755913,157.94818278052844 35.654611211270094,157.2669254533248 36.6311030741781,157.38046837050933 37.50994575023651,157.94818278052844 38.29113924084231,158.28881128586363 39.267631102818996,159.08361071941908 40.0488245934248,159.31069616577588 42.001808317843825,159.08361071941908 44.44303797511384,158.06172562751453 45.02893309202045,158.06172562751453 45.22423146478832,157.60755417007022 46.00542495492846,157.15338252391666 46.59132007230073,157.15338252391666 47.470162748824805,157.2669254533248 49.423146474175155,158.17526846239343 49.71609403286129,158.5158968968317 49.32549728732556,161.01383551675826 50.1066907774657,162.26280269224662 50.985533453989774,162.9440569159342 51.76672694366425,163.05759924522135 51.864376130048186,163.39822616323363 53.03616636572406,163.73885297495872 55.770343580748886,163.2846838691039 57.82097649201751,163.1711415629834 58.895117540843785,163.1711415629834 59.773960216902196,163.73885297495872 59.96925858967006,164.19302189315204 59.48101265868172,165.32844336493872 58.40687160938978,166.46386366139632 58.211573236621916,166.8044895209605 57.91862567840144,166.57740562630352" stroke="#4DD2FF" stroke-linecap="round" stroke-linejoin="round" stroke-width="0.5"><title>2024-11-16 5.2km</title><desc>12913950085</desc></polyline><polyline fill="none" points="91.0,151.47877958370373 90.60869565233588,152.04752328654286 90.90217391261831,152.04752328654286 90.80434782616794,152.1612719919067 91.78260869532824,152.04752328654286 92.46739130467176,152.50251803710125 92.56521739112213,152.957512598834 93.83695652196184,152.957512598834 96.08695652196184,152.50251803710125 96.9673913042061,152.957512598834 97.84782608645037,153.9812496737577 99.80434782616794,154.32249515340663 103.13043478270993,154.09499817865435 104.10869565187022,153.18500980897807 104.59782608645037,152.1612719919067 104.89130434766412,152.04752328654286 105.1847826084122,151.93377456930466 105.47826086962596,152.1612719919067 105.38043478270993,152.61626669485122 105.47826086962596,152.61626669485122 106.94565217383206,152.38876936677843 108.80434782570228,153.0712612096686 109.29347826074809,153.52625553600956 109.58695652196184,154.32249515340663 109.58695652196184,156.14246925432235 110.27173913037404,157.96244033996481 109.97826086962596,158.18993651366327 110.4673913042061,158.6449287198484 112.52173913037404,159.44116462673992 113.30434782616794,159.44116462673992 114.86956521729007,158.75867674173787 117.02173913037404,158.6449287198484 117.70652173925191,158.6449287198484 119.66304347803816,159.44116462673992 120.64130434766412,159.32741667551454 121.52173913037404,159.0999207375571 121.81521739112213,158.0761884325184 122.79347826074809,156.3699658048572 124.35869565233588,152.38876936677843 124.75,150.68253790505696 126.2173913042061,147.61131459474564 127.0,145.22257941646967 126.60869565187022,144.65383217984345 126.2173913042061,144.54008269729093 124.06521739112213,144.995080557419 123.47826086962596,144.8813311101403 123.08695652149618,144.54008269729093 122.89130434766412,143.40258722309954 122.40217391261831,142.83383904374205 120.05434782616794,142.15134084026795 119.27173913037404,142.26509057043586 117.41304347803816,143.0613383507589 117.41304347803816,143.40258722309954 115.84782608691603,145.79132635879796 115.74999999953434,147.49756541813258 115.84782608691603,148.06631118257064 115.0652173915878,148.6350566522451 102.64130434766412,148.06631118257064 101.76086956495419,148.18006030004472 94.13043478270993,148.293809405528 91.0,147.15631781844422 90.11956521729007,146.47382230078802 89.04347826074809,144.995080557419 87.57608695607632,144.42633320274763 86.5,144.42633320274763 86.01086956541985,144.19883417885285 85.32608695607632,143.85758555401117 84.25,142.83383904374205 83.07608695654199,143.0613383507589 82.19565217383206,142.72008937282953 82.09782608691603,143.0613383507589 81.2173913042061,142.94758870301303 79.65217391308397,142.26509057043586 79.35869565233588,141.6963418024825 79.35869565233588,141.3550924002193 78.77173913037404,141.01384289213456 77.98913043504581,140.9000930323964 77.5,141.12759274011478 76.22826086962596,141.01384289213456 75.25,140.6725932782283 74.56521739112213,140.10384368523955 74.46739130467176,140.2175936276326 73.7826086957939,142.4925899951486 73.39130434766412,144.19883417885285 73.39130434766412,145.67757699417416 73.7826086957939,146.928819359513 74.36956521729007,147.15631781844422 75.05434782570228,147.27006703033112 75.9347826084122,146.928819359513 77.01086956495419,147.04256859468296 78.77173913037404,147.7250637592515 80.23913043504581,148.86255475773942 82.88043478224427,150.11379349557683 86.89130434812978,150.341291294666 90.11956521729007,152.27502068527974 92.27173913037404,152.957512598834 93.64130434766412,153.298758396646 95.10869565187022,152.73001534107607 95.89130434766412,152.8437639757758 96.57608695654199,153.0712612096686 96.67391304345801,153.4125069718575 98.23913043458015,154.32249515340663 99.51086956495419,154.20874667179305 101.07608695654199,154.54999208077788 103.2282608691603,153.9812496737577 105.08695652149618,152.73001534107607 106.06521739112213,152.61626669485122 108.2173913042061,152.73001534107607 109.19565217383206,153.4125069718575 109.58695652196184,153.9812496737577 109.48913043504581,154.89123738370836 109.19565217383206,155.3462309561437 109.48913043504581,156.82495876494795 109.29347826074809,157.39369969966356 109.48913043504581,157.96244033996481 110.76086956495419,158.75867674173787 112.42391304345801,159.32741667551454 115.65217391261831,158.18993651366327 117.41304347803816,158.41743264032993 118.9782608691603,159.2136687124148 120.44565217383206,159.2136687124148 122.40217391261831,158.41743264032993 122.5,157.7349441194674 123.18478260887787,156.25621753570158 124.26086956541985,152.50251803710125 125.72826086962596,149.65879775572103 126.60869565187022,146.8150701127015 126.90217391261831,145.67757699417416 126.70652173925191,144.995080557419 126.2173913042061,144.65383217984345 124.06521739112213,144.76758165098727 122.10869565187022,143.0613383507589 121.03260869532824,142.72008937282953 120.25,142.72008937282953 117.51086956495419,142.94758870301303 116.63043478224427,143.51633682334796 115.74999999953434,144.8813311101403 115.55434782616794,145.79132635879796 115.55434782616794,147.7250637592515 115.16304347803816,148.293809405528 114.86956521729007,148.52130758180283 104.01086956495419,148.293809405528 98.82608695654199,148.52130758180283 94.61956521729007,148.293809405528 92.66304347803816,147.95256205345504 91.6847826084122,146.8150701127015 90.02173913037404,146.24632370041218 89.72826086962596,146.13257438270375 89.43478260887787,145.56382761721034 88.26086956541985,144.995080557419 86.98913043458015,144.995080557419 85.81521739112213,144.42633320274763 82.39130434766412,143.63008641195484 79.94565217383206,142.26509057043586 76.8152173915878,141.3550924002193 75.83695652196184,140.6725932782283 74.95652173925191,140.6725932782283 74.56521739112213,140.9000930323964 74.27173913037404,142.94758870301303 73.58695652196184,144.995080557419 73.97826086962596,146.13257438270375 74.56521739112213,146.8150701127015 76.61956521729007,147.04256859468296 79.0652173915878,148.18006030004472 80.5326086957939,148.40755849971902 81.90217391308397,149.31755082739983 83.85869565233588,149.7725467082346 84.73913043458015,149.7725467082346 86.10869565187022,150.22754240094218 87.47826086962596,150.341291294666 88.16304347803816,150.45504017651547 88.65217391261831,150.91003558645025 91.6847826084122,152.50251803710125 92.95652173925191,152.61626669485122 93.54347826074809,152.50251803710125 94.91304347803816,152.61626669485122 97.26086956495419,153.298758396646 98.4347826084122,154.20874667179305 99.90217391308397,154.89123738370836 103.2282608691603,153.86750115675386 105.57608695654199,152.73001534107607 107.82608695654199,152.8437639757758 109.48913043504581,153.298758396646 109.78260869532824,153.52625553600956 109.88043478224427,153.75375262845773 109.39130434766412,155.68747601169161 109.58695652196184,157.62119599129073 109.97826086962596,158.3036845830502 110.56521739112213,158.87242475210223 111.9347826084122,159.55491256644018 112.91304347803816,159.55491256644018 115.65217391261831,158.41743264032993 117.41304347803816,158.18993651366327 117.99999999953434,158.3036845830502 118.39130434766412,158.98617275094148 118.9782608691603,159.2136687124148 120.05434782616794,159.2136687124148 120.83695652149618,159.44116462673992 121.42391304345801,159.2136687124148 122.89130434766412,156.71121054282412 123.38043478270993,155.45997931994498 124.06521739112213,153.298758396646 124.84782608691603,151.59252834774088 125.33695652149618,149.54504879144952 126.02173913037404,148.52130758180283 127.0,144.76758165098727 126.70652173925191,144.3125836966792 126.2173913042061,144.19883417885285 124.75,144.65383217984345 124.35869565233588,144.54008269729093 123.77173913037404,144.3125836966792 123.08695652149618,143.51633682334796 121.7173913042061,142.4925899951486 119.56521739112213,142.4925899951486 118.88043478224427,142.60633969004266 116.43478260887787,143.85758555401117 116.33695652149618,144.42633320274763 115.45652173878625,145.79132635879796 115.45652173878625,147.49756541813258 115.26086956495419,148.06631118257064 114.38043478224427,148.6350566522451 109.48913043504581,148.6350566522451 106.35869565233588,148.18006030004472 105.67391304345801,148.293809405528 104.20652173925191,148.06631118257064 95.59782608691603,148.6350566522451 92.36956521729007,147.95256205345504 91.48913043458015,147.61131459474564 91.29347826074809,147.38381623011082 91.0,146.58757158310618 90.70652173925191,146.24632370041218 89.23913043458015,144.8813311101403 87.67391304345801,144.76758165098727 86.89130434812978,144.3125836966792 85.5217391308397,144.19883417885285 84.34782608691603,143.63008641195484 83.5652173915878,143.74383598892018 82.39130434766412,143.63008641195484 81.51086956495419,143.17508798639756 80.63043478224427,141.92384134500753 79.16304347803816,141.58259201340843 76.8152173915878,141.3550924002193 76.03260869532824,141.01384289213456 75.44565217383206,140.33134355803486 74.27173913037404,141.01384289213456 74.07608695654199,141.6963418024825 74.17391304299235,142.4925899951486 74.27173913037404,142.72008937282953 73.0,145.33632882870734 73.97826086962596,146.8150701127015 75.9347826084122,146.70132085355 77.10869565233588,147.15631781844422 78.47826086962596,147.7250637592515 81.80434782616794,150.0000445782207 82.39130434766412,150.0000445782207 83.76086956541985,150.68253790505696 86.10869565187022,150.5687890467234 87.86956521729007,151.47877958370373 88.75,151.47877958370373 89.33695652149618,152.27502068527974 91.48913043458015,153.18500980897807 92.95652173925191,153.18500980897807 94.52173912990838,152.8437639757758 95.40217391261831,152.8437639757758 96.77173912990838,153.298758396646 98.5326086957939,154.43624362302944 99.60869565187022,154.89123738370836 100.39130434766412,154.89123738370836 103.13043478270993,154.20874667179305 103.7173913042061,153.9812496737577 104.30434782570228,153.298758396646 105.38043478270993,152.8437639757758 106.55434782570228,152.73001534107607 108.02173913037404,152.957512598834 109.09782608691603,153.75375262845773 109.39130434766412,154.09499817865435 109.48913043504581,154.43624362302944 109.19565217383206,155.80122434021905 109.6847826084122,157.96244033996481 110.36956521729007,159.0999207375571 111.25,159.78240841068327 111.54347826028243,159.89615631476045 112.8152173915878,159.6686604943825 113.40217391308397,159.44116462673992 113.69565217383206,159.0999207375571 115.35869565187022,158.53118068620097 116.82608695607632,158.53118068620097 119.27173913037404,158.87242475210223 120.64130434766412,158.75867674173787 121.61956521729007,158.3036845830502 123.08695652149618,156.25621753570158 123.67391304345801,154.20874667179305 124.75,152.1612719919067 124.9456521733664,150.22754240094218 125.53260869532824,149.65879775572103 126.90217391261831,145.1088299928233 126.41304347803816,144.54008269729093 125.92391304345801,144.42633320274763 124.06521739112213,144.8813311101403 122.89130434766412,144.19883417885285 122.30434782616794,143.51633682334796 121.42391304345801,142.94758870301303 120.83695652149618,142.72008937282953 119.66304347803816,142.72008937282953 117.70652173925191,143.28883761062752 116.14130434766412,144.54008269729093 115.65217391261831,146.13257438270375 115.65217391261831,148.18006030004472 115.16304347803816,148.6350566522451 114.77173913037404,148.74880571104586 113.40217391308397,148.52130758180283 108.60869565233588,148.6350566522451 104.89130434766412,148.18006030004472 99.90217391308397,148.40755849971902 95.40217391261831,148.18006030004472 93.15217391308397,148.6350566522451 92.17391304345801,148.293809405528 91.48913043458015,147.61131459474564 90.90217391261831,147.27006703033112 89.72826086962596,147.15631781844422 89.23913043458015,146.928819359513 88.0652173915878,145.67757699417416 86.89130434812978,145.56382761721034 86.10869565187022,144.995080557419 83.07608695654199,143.85758555401117 82.48913043458015,143.17508798639756 80.23913043504581,141.24134257610422 79.35869565233588,140.10384368523955 78.67391304345801,140.33134355803486 77.69565217383206,140.2175936276326 76.91304347803816,140.78634316113312 76.03260869532824,140.55884338298347 75.54347826028243,140.10384368523955 75.83695652196184,140.33134355803486 75.25,140.6725932782283 74.36956521729007,143.28883761062752 73.6847826084122,144.0850846489193 73.48913043504581,145.22257941646967 74.07608695654199,146.24632370041218 74.95652173925191,146.8150701127015 75.83695652196184,148.06631118257064 77.01086956495419,148.40755849971902 78.08695652196184,148.9763037925586 78.47826086962596,150.11379349557683 79.0652173915878,151.0237844097428 79.65217391308397,151.59252834774088 82.48913043458015,151.70627710025292 83.5652173915878,152.1612719919067 85.61956521729007,152.61626669485122 88.35869565233588,153.75375262845773 93.15217391308397,154.6637405270012 93.54347826074809,154.77748896135017 94.03260869532824,155.45997931994498" stroke="#4DD2FF" stroke-linecap="round" stroke-linejoin="round" stroke-width="0.5"><title>2024-10-27 5.5km</title><desc>13388431337</desc></polyline><polyline fill="none" points="157.16304347803816,153.298758396646 157.84782608645037,153.9812496737577 158.4347826084122,154.20874667179305 158.92391304345801,154.09499817865435 160.19565217383206,154.32249515340663 162.9347826084122,154.09499817865435 164.10869565187022,153.18500980897807 164.59782608645037,152.1612719919067 165.1847826084122,151.93377456930466 165.47826086962596,152.1612719919067 165.38043478270993,152.61626669485122 165.47826086962596,152.61626669485122 166.94565217383206,152.38876936677843 168.80434782570228,153.0712612096686 169.2934782607481,153.52625553600956 169.58695652196184,154.32249515340663 169.58695652196184,156.14246925432235 170.27173913037404,157.96244033996481 169.97826086962596,158.18993651366327 170.4673913042061,158.6449287198484 172.52173913037404,159.44116462673992 173.30434782616794,159.44116462673992 174.86956521729007,158.75867674173787 177.02173913037404,158.6449287198484 177.7065217392519,158.6449287198484 179.66304347803816,159.44116462673992 180.93478260887787,159.32741667551454 181.52173913037404,159.0999207375571 181.81521739112213,158.0761884325184 182.7934782607481,156.3699658048572 184.35869565233588,152.38876936677843 184.75,150.68253790505696 186.2173913042061,147.61131459474564 187.0,145.22257941646967 186.60869565187022,144.65383217984345 186.2173913042061,144.54008269729093 184.06521739112213,144.995080557419 183.47826086962596,144.8813311101403 183.08695652149618,144.54008269729093 182.7934782607481,143.40258722309954 182.4021739126183,142.83383904374205 180.05434782616794,142.15134084026795 179.27173913037404,142.26509057043586 177.41304347803816,143.0613383507589 177.41304347803816,143.40258722309954 175.84782608691603,145.79132635879796 175.74999999953434,147.49756541813258 175.84782608691603,148.06631118257064 175.0652173915878,148.6350566522451 162.64130434766412,148.06631118257064 161.7608695649542,148.18006030004472 154.13043478270993,148.293809405528 151.0,147.15631781844422 150.11956521729007,146.47382230078802 149.0434782607481,144.995080557419 147.57608695607632,144.42633320274763 146.5,144.42633320274763 146.01086956541985,144.19883417885285 145.32608695607632,143.85758555401117 144.25,142.83383904374205 143.07608695654199,143.0613383507589 142.19565217383206,142.72008937282953 142.09782608691603,143.0613383507589 141.2173913042061,142.94758870301303 139.65217391308397,142.26509057043586 139.35869565233588,141.6963418024825 139.35869565233588,141.3550924002193 138.77173913037404,141.01384289213456 137.9891304350458,140.9000930323964 137.5,141.12759274011478 136.22826086962596,141.01384289213456 134.46739130467176,140.2175936276326 133.7826086957939,142.4925899951486 133.39130434766412,144.19883417885285 133.39130434766412,145.67757699417416 133.7826086957939,146.928819359513 134.36956521729007,147.15631781844422 135.05434782570228,147.27006703033112 135.9347826084122,146.928819359513 137.10869565233588,147.04256859468296 138.77173913037404,147.83881291223224 140.2391304350458,148.86255475773942 142.88043478224427,150.11379349557683 146.89130434812978,150.341291294666 150.11956521729007,152.27502068527974 152.27173913037404,152.957512598834 153.64130434766412,153.298758396646 155.10869565187022,152.73001534107607 155.89130434766412,152.8437639757758 156.57608695654199,153.0712612096686 156.67391304345801,153.4125069718575 158.23913043458015,154.32249515340663 159.5108695649542,154.20874667179305 161.07608695654199,154.54999208077788 163.2282608691603,153.9812496737577 165.08695652149618,152.73001534107607 166.06521739112213,152.61626669485122 168.2173913042061,152.73001534107607 169.19565217383206,153.4125069718575 169.58695652196184,153.9812496737577 169.4891304350458,154.89123738370836 169.19565217383206,155.3462309561437 169.4891304350458,156.82495876494795 169.2934782607481,157.39369969966356 169.4891304350458,157.96244033996481 170.7608695649542,158.75867674173787 172.42391304345801,159.32741667551454 175.6521739126183,158.18993651366327 177.41304347803816,158.41743264032993 178.9782608691603,159.2136687124148 180.44565217383206,159.2136687124148 182.4021739126183,158.41743264032993 182.5,157.7349441194674 183.18478260887787,156.25621753570158 184.26086956541985,152.50251803710125 185.72826086962596,149.65879775572103 186.60869565187022,146.8150701127015 186.9021739126183,145.67757699417416 186.7065217392519,144.995080557419 186.2173913042061,144.65383217984345 184.06521739112213,144.76758165098727 182.10869565187022,143.0613383507589 181.03260869532824,142.72008937282953 180.25,142.72008937282953 177.5108695649542,142.94758870301303 176.63043478224427,143.51633682334796 175.74999999953434,144.8813311101403 175.55434782616794,145.79132635879796 175.55434782616794,147.7250637592515 175.16304347803816,148.293809405528 174.86956521729007,148.52130758180283 164.0108695649542,148.293809405528 158.82608695654199,148.52130758180283 154.61956521729007,148.293809405528 152.66304347803816,147.95256205345504 151.6847826084122,146.8150701127015 150.02173913037404,146.24632370041218 149.72826086962596,146.13257438270375 149.43478260887787,145.56382761721034 148.26086956541985,144.995080557419 147.18478260887787,144.995080557419 145.81521739112213,144.42633320274763 142.39130434766412,143.63008641195484 139.94565217383206,142.26509057043586 137.59782608691603,141.6963418024825 136.61956521729007,141.3550924002193 135.83695652196184,140.6725932782283 134.9565217392519,140.6725932782283 134.56521739112213,140.9000930323964 134.27173913037404,142.94758870301303 133.58695652196184,144.995080557419 133.97826086962596,146.13257438270375 134.56521739112213,146.8150701127015 136.61956521729007,147.04256859468296 139.0652173915878,148.18006030004472 140.5326086957939,148.40755849971902 141.90217391308397,149.31755082739983 143.85869565233588,149.7725467082346 144.73913043458015,149.7725467082346 146.10869565187022,150.22754240094218 148.16304347803816,150.45504017651547 148.6521739126183,150.91003558645025 151.6847826084122,152.50251803710125 152.9565217392519,152.61626669485122 153.5434782607481,152.50251803710125 154.91304347803816,152.61626669485122 157.2608695649542,153.298758396646 158.4347826084122,154.20874667179305 159.90217391308397,154.89123738370836 163.2282608691603,153.86750115675386 165.57608695654199,152.73001534107607 167.82608695654199,152.8437639757758 169.4891304350458,153.298758396646 169.78260869532824,153.52625553600956 169.88043478224427,153.75375262845773 169.39130434766412,155.68747601169161 169.58695652196184,157.62119599129073 169.97826086962596,158.3036845830502 170.56521739112213,158.87242475210223 171.54347826028243,159.44116462673992 172.22826086962596,159.55491256644018 173.5,159.32741667551454 175.6521739126183,158.41743264032993 177.41304347803816,158.18993651366327 177.99999999953434,158.3036845830502 178.39130434766412,158.98617275094148 178.9782608691603,159.2136687124148 180.05434782616794,159.2136687124148 180.83695652149618,159.44116462673992 181.42391304345801,159.2136687124148 182.89130434766412,156.71121054282412 183.38043478270993,155.45997931994498 184.06521739112213,153.298758396646 184.84782608691603,151.59252834774088 185.33695652149618,149.54504879144952 186.02173913037404,148.52130758180283 187.0,144.76758165098727 186.7065217392519,144.3125836966792 186.2173913042061,144.19883417885285 184.75,144.65383217984345 184.35869565233588,144.54008269729093 183.77173913037404,144.3125836966792 183.08695652149618,143.51633682334796 181.7173913042061,142.4925899951486 179.56521739112213,142.4925899951486 178.88043478224427,142.60633969004266 176.43478260887787,143.85758555401117 176.33695652149618,144.42633320274763 175.45652173878625,145.79132635879796 175.45652173878625,147.49756541813258 175.2608695649542,148.06631118257064 174.38043478224427,148.6350566522451 169.88043478224427,148.6350566522451 166.35869565233588,148.18006030004472 165.67391304345801,148.293809405528 164.2065217392519,148.06631118257064 155.59782608691603,148.6350566522451 152.36956521729007,147.95256205345504 151.48913043458015,147.61131459474564 151.2934782607481,147.38381623011082 151.0,146.58757158310618 149.23913043458015,144.8813311101403 147.67391304345801,144.76758165098727 146.89130434812978,144.3125836966792 145.5217391308397,144.19883417885285 144.34782608691603,143.63008641195484 143.5652173915878,143.74383598892018 142.39130434766412,143.63008641195484 141.5108695649542,143.17508798639756 140.63043478224427,141.92384134500753 139.94565217383206,141.6963418024825 136.8152173915878,141.3550924002193 136.03260869532824,141.01384289213456 135.44565217383206,140.33134355803486 134.27173913037404,141.01384289213456 134.07608695654199,141.6963418024825 134.17391304299235,142.4925899951486 134.27173913037404,142.72008937282953 133.0,145.33632882870734 133.97826086962596,146.8150701127015 135.9347826084122,146.70132085355 137.10869565233588,147.15631781844422 138.47826086962596,147.7250637592515 141.80434782616794,150.0000445782207 142.39130434766412,150.0000445782207 143.76086956541985,150.68253790505696 146.10869565187022,150.5687890467234 147.86956521729007,151.47877958370373 148.75,151.47877958370373 149.33695652149618,152.27502068527974 151.48913043458015,153.18500980897807 152.9565217392519,153.18500980897807 154.52173912990838,152.8437639757758 155.4021739126183,152.8437639757758 156.77173912990838,153.298758396646 158.5326086957939,154.43624362302944 159.60869565187022,154.89123738370836 160.39130434766412,154.89123738370836 163.13043478270993,154.20874667179305 163.7173913042061,153.9812496737577 164.30434782570228,153.298758396646 165.38043478270993,152.8437639757758 166.55434782570228,152.73001534107607 168.02173913037404,152.957512598834 169.39130434766412,154.09499817865435 169.4891304350458,154.43624362302944 169.19565217383206,155.80122434021905 169.6847826084122,157.96244033996481 170.36956521729007,159.0999207375571 171.25,159.78240841068327 171.54347826028243,159.89615631476045 172.8152173915878,159.6686604943825 173.40217391308397,159.44116462673992 173.69565217383206,159.0999207375571 175.35869565187022,158.53118068620097 176.82608695607632,158.53118068620097 179.27173913037404,158.87242475210223 180.64130434766412,158.75867674173787 181.61956521729007,158.3036845830502 183.08695652149618,156.25621753570158 183.67391304345801,154.20874667179305 184.75,152.1612719919067 184.9456521733664,150.22754240094218 185.53260869532824,149.65879775572103 185.92391304345801,148.06631118257064 186.7065217392519,146.13257438270375 186.9021739126183,145.1088299928233 186.80434782570228,144.8813311101403 186.41304347803816,144.54008269729093 185.72826086962596,144.42633320274763 184.26086956541985,144.995080557419 182.89130434766412,144.19883417885285 182.30434782616794,143.51633682334796 181.42391304345801,142.94758870301303 180.83695652149618,142.72008937282953 179.66304347803816,142.72008937282953 177.7065217392519,143.28883761062752 176.14130434766412,144.54008269729093 175.6521739126183,146.13257438270375 175.6521739126183,148.18006030004472 175.16304347803816,148.6350566522451 174.77173913037404,148.74880571104586 173.40217391308397,148.52130758180283 168.60869565233588,148.6350566522451 164.89130434766412,148.18006030004472 159.90217391308397,148.40755849971902 155.4021739126183,148.18006030004472 153.15217391308397,148.6350566522451 152.17391304345801,148.293809405528 151.48913043458015,147.61131459474564 150.9021739126183,147.27006703033112 149.72826086962596,147.15631781844422 149.23913043458015,146.928819359513 148.0652173915878,145.67757699417416 146.89130434812978,145.56382761721034 146.10869565187022,144.995080557419 143.07608695654199,143.85758555401117 142.48913043458015,143.17508798639756 140.2391304350458,141.24134257610422 139.35869565233588,140.10384368523955 138.67391304345801,140.33134355803486 137.69565217383206,140.2175936276326 136.91304347803816,140.78634316113312 136.03260869532824,140.44509347632993 135.54347826028243,140.10384368523955 135.83695652196184,140.33134355803486 135.25,140.6725932782283 135.05434782570228,141.3550924002193" stroke="#4DD2FF" stroke-linecap="round" stroke-linejoin="round" stroke-width="0.5"><title>2024-10-27 5.5km</title><desc>12753632530</desc></polyline><polyline fill="none" points="61.08759124111384,249.5100732240826 62.3686131387949,249.28091680270154 62.664233576506376,248.93718208209611 63.945255474653095,243.43741202633828 66.80291970819235,236.10434276179876 67.0,234.3856476226356 66.50729927048087,234.04190827463754 66.01459854003042,234.04190827463754 64.73357664234936,234.61480712913908 64.3394160582684,234.50022738194093 63.25547445239499,233.12526949099265 62.27007299289107,232.43778990465216 61.481751824729145,232.20862994762138 59.11678832117468,232.0940499510616 58.42700729938224,232.32320993219037 57.047445255331695,233.2398493803339 56.1605839417316,234.3856476226356 55.86496350355446,235.76060394744854 55.86496350355446,237.13555856386665 56.062043795827776,237.93761463428382 55.76642335765064,238.05219402513467 54.68248175224289,238.16677340469323 49.2627737224102,238.05219402513467 46.40510948887095,238.16677340469323 42.36496350355446,238.05219402513467 35.959854014683515,238.3959321276052 34.58029197063297,238.62509080325253 32.313868613447994,237.59387638955377 30.638686131685972,236.56266101484653 29.45620437990874,236.33350191207137 27.879562043584883,235.1877056864323 26.598540146369487,234.50022738194093 25.908759124111384,234.50022738194093 24.233576642349362,234.1564880691003 23.740875912830234,233.81274864985608 20.88321167882532,232.66694981383625 19.306569343432784,232.32320993219037 16.44890510989353,231.06282945047133 15.46350364945829,230.9482493356336 14.872262774035335,230.37534858298022 14.182481752242893,231.06282945047133 14.182481752242893,232.0940499510616 13.591240875888616,233.46900912374258 13.197080292273313,235.3022853625007 13.197080292273313,235.9897631688509 14.182481752242893,237.36471750040073 14.773722628131509,237.36471750040073 16.744525547605008,236.9063995797187 18.124087591655552,237.02097907790449 21.86861313926056,239.08340801217128 23.346715328283608,239.19798728451133 29.062043795827776,240.80209585418925 31.328467153478414,242.4062020975398 33.20072992751375,243.20825434743892 36.35401459876448,243.09367549058516 38.22627737233415,243.89572724187747 39.113138685934246,244.69777841190808 40.591240875888616,245.15609310532454 41.18248175224289,245.0415144499857 42.75912408763543,244.4686209942447 44.43430656939745,243.3228331930004 44.92700729938224,243.3228331930004 46.40510948887095,242.52078102587257 47.78467153245583,242.7499388474971 48.8686131387949,243.20825434743892 50.24817518284544,244.12488477840088 49.75547445286065,244.81235710298643 49.65693430695683,245.3852503808448 49.75547445286065,245.95814336184412 49.16423357697204,246.645614547655 49.16423357697204,246.98934998025652 49.85401459876448,248.36429064359982 50.149635036475956,248.70802554220427 51.33211678871885,249.39549501938745 52.51459854003042,249.6246514171362 55.076642335858196,248.93718208209611 57.14598540170118,248.5934472543886 59.60948905115947,249.0517603341723 60.989051094744354,249.6246514171362 61.77737226290628,249.39549501938745 62.3686131387949,249.0517603341723 62.56569343106821,248.70802554220427 63.05839416058734,246.87477151467465 63.74817518237978,244.81235710298643 64.43795620417222,243.43741202633828 64.93065693415701,241.14583310170565 66.21167883230373,238.3959321276052 66.90145985363051,235.41686502681114 66.90145985363051,234.50022738194093 66.31021897820756,234.04190827463754 64.63503649644554,234.50022738194093 63.452554744668305,233.2398493803339 62.7627737224102,232.66694981383625 59.21532846707851,231.86488992290106 58.1313868612051,232.20862994762138 57.93430656939745,232.66694981383625 57.047445255331695,233.6981688195374 56.45620437944308,234.72938686434645 56.062043795827776,236.33350191207137 56.1605839417316,238.05219402513467 55.86496350355446,238.28135277202819 54.78102189814672,238.51051147154067 53.00729927048087,238.28135277202819 47.09489051112905,238.28135277202819 45.61678832117468,238.05219402513467 42.75912408763543,238.3959321276052 39.6058394163847,238.16677340469323 34.974452554713935,238.3959321276052 33.003649635240436,237.70845581649337 32.313868613447994,237.02097907790449 30.638686131685972,236.67724054818973 30.244525547605008,236.21892234298866 29.45620437990874,236.10434276179876 29.062043795827776,235.87518356414512 28.66788321128115,235.3022853625007 27.091240875888616,234.61480712913908 22.85401459876448,233.58358897757716 22.459854014683515,233.12526949099265 21.57299270108342,232.89610967598855 20.784671532921493,231.86488992290106 17.237226277589798,231.17740955378395 15.759124088101089,231.40656972420402 14.47810218995437,230.8336692089215 13.788321167696267,231.40656972420402 13.788321167696267,233.35442925791722 13.197080292273313,234.3856476226356 13.0,235.53144467878155 13.394160584546626,236.21892234298866 14.182481752242893,237.02097907790449 14.773722628131509,237.13555856386665 15.46350364945829,236.9063995797187 16.547445255797356,236.79182006965857 18.025547445751727,237.02097907790449 18.91240875935182,237.36471750040073 20.09489051112905,238.28135277202819 21.178832117002457,238.73967012309004 24.33211678871885,240.00004185992293 27.48540145996958,240.11462103761733 29.259124087635428,240.6875167475082 31.131386861670762,241.83330727752764 32.41240875935182,242.4062020975398 35.959854014683515,242.7499388474971 37.83211678871885,243.66656965774018 38.916058394126594,244.4686209942447 39.901459854096174,244.92693578230683 41.47810218995437,244.92693578230683 42.75912408763543,244.35404226742685 44.6313868612051,243.09367549058516 45.91240875935182,242.6353599425638 46.996350364759564,242.4062020975398 48.08029197063297,242.6353599425638 49.459854014683515,243.43741202633828 49.75547445286065,244.12488477840088 49.36131386877969,245.15609310532454 49.459854014683515,246.87477151467465 49.952554744668305,248.02055563777685 50.64233576646075,248.5934472543886 51.62773722643033,248.93718208209611 53.00729927048087,249.0517603341723 54.48540145996958,248.70802554220427 56.35766423353925,248.5934472543886 57.835766423493624,248.70802554220427 60.59489051112905,249.39549501938745 61.481751824729145,249.1663385744905 62.171532846521586,248.822603818262 62.56569343106821,248.13513398496434 62.664233576506376,247.33308530633803 63.25547445239499,246.07272192265373 64.3394160582684,242.7499388474971 65.52189781004563,240.11462103761733 65.62043795641512,239.31256654532626 66.60583941591904,237.02097907790449 67.0,235.53144467878155 66.80291970819235,234.72938686434645 66.50729927048087,234.27106785192154 66.11313868593425,234.1564880691003 64.63503649644554,234.72938686434645 64.3394160582684,234.72938686434645 62.56569343106821,232.7815297509078 61.481751824729145,232.43778990465216 59.11678832117468,232.0940499510616 58.62408759165555,232.20862994762138 58.1313868612051,232.55236986512318 58.032846715301275,232.89610967598855 57.24452554760501,233.58358897757716 56.45620437944308,234.72938686434645 56.1605839417316,236.21892234298866 56.1605839417316,238.16677340469323 56.062043795827776,238.51051147154067 55.569343065842986,238.85424943140242 53.99270072998479,238.51051147154067 48.967153284698725,238.28135277202819 38.62043795641512,238.3959321276052 37.240875912830234,238.62509080325253 36.35401459876448,238.51051147154067 35.27007299289107,238.05219402513467 35.171532846521586,237.36471750040073 33.7919708029367,236.21892234298866 32.41240875935182,235.87518356414512 31.624087591655552,236.10434276179876 30.244525547605008,235.87518356414512 29.357664233539253,234.84396658744663 29.357664233539253,234.50022738194093 28.96350364992395,234.27106785192154 27.189781022258103,234.1564880691003 26.204379562288523,233.46900912374258 23.346715328283608,233.81274864985608 21.770072992891073,233.58358897757716 19.799270073417574,232.66694981383625 16.153284671716392,231.40656972420402 15.364963504020125,230.9482493356336 15.562043795827776,230.8336692089215 15.364963504020125,230.48992875707336 14.675182481762022,231.17740955378395 14.576642335858196,232.20862994762138 13.985401460435241,233.9273284683004 13.591240875888616,234.50022738194093 13.394160584546626,236.21892234298866 13.788321167696267,236.9063995797187 14.379562044050545,237.47929695085622 17.729927007108927,236.9063995797187 17.9270072998479,237.13555856386665 19.70072992751375,237.59387638955377 21.474452554713935,239.08340801217128 22.164233576972038,239.4271457939176 23.642335766460747,239.77088346914388 25.711678832303733,239.77088346914388 28.175182481762022,240.3437793571502 29.357664233539253,241.03125403111335 30.737226277589798,241.4895702431677 31.722627737559378,242.2916231576819 33.20072992751375,242.7499388474971 37.14233576646075,242.8645177402068 37.63503649644554,243.55199084815104 39.80291970819235,244.81235710298643 40.78832116769627,245.15609310532454 41.77372262813151,245.0415144499857 45.22262773755938,242.8645177402068 46.10948905115947,242.52078102587257 46.8978102193214,242.2916231576819 47.981751825194806,242.52078102587257 48.77007299289107,243.09367549058516 49.36131386877969,243.89572724187747 49.2627737224102,246.53103604656644 49.75547445286065,248.02055563777685 50.34671532828361,249.0517603341723 51.03649635054171,249.39549501938745 53.00729927048087,249.5100732240826 55.569343065842986,248.822603818262 57.047445255331695,248.5934472543886 58.62408759165555,248.822603818262 59.80656934296712,249.39549501938745 60.7919708029367,249.5100732240826 62.3686131387949,248.70802554220427 62.7627737224102,248.24971232004464 63.05839416058734,247.33308530633803" stroke="#4DD2FF" stroke-linecap="round" stroke-linejoin="round" stroke-width="0.5"><title>2024-10-13 5.5km</title><desc>12641545700</desc></polyline><polyline fill="none" points="106.86106032924727,242.69757484830916 108.8354661790654,243.27151706803124 109.23034734930843,243.73067062941846 109.32906764186919,244.41940061480273 108.93418647162616,245.68207114364486 108.93418647162616,246.60037607967388 109.03290676465258,247.17431627796032 109.6252285190858,248.0926199775422 110.41499085957184,248.66655940376222 111.50091407680884,249.12571073067375 112.68555758707225,249.24049853242468 117.02925045695156,248.78134725312702 119.8921389398165,249.35528632276691 121.6691042049788,249.12571073067375 122.06398537475616,248.66655940376222 122.26142595987767,247.4038922743639 123.74223034735769,243.61588225665037 124.03839122503996,242.0088437933009 124.82815356552601,240.74616908025928 125.71663619764149,238.56518209748901 126.80255941487849,235.2362989555113 126.70383912278339,234.89193116361275 126.21023766044527,234.54756326426286 124.33455210272223,234.6623525756877 122.75502742221579,233.0553011316806 118.608775137458,232.25177453598008 117.6215722123161,232.71093266212847 116.53564899461344,233.6292483432917 115.74588665459305,234.54756326426286 115.35100548435003,236.0398233878659 115.35100548435003,238.22081533935852 114.8574040220119,238.67997099319473 108.44058500928804,237.9912374415435 103.99817184684798,237.9912374415435 102.22120658168569,237.7616594955325 97.08775137132034,237.7616594955325 93.33638025587425,238.33560427068733 92.54661791585386,238.1060263963882 92.34917733073235,237.7616594955325 91.26325411349535,237.6468705049483 90.57221206557006,237.18771442375146 90.17733089625835,236.7285581517499 90.07861060323194,236.26940169010777 90.27605118835345,235.81024503801018 90.07861060323194,235.35108819568995 89.28884826321155,234.7771418755874 88.49908592365682,234.54756326426286 87.51188299804926,235.12150970322546 85.73491773288697,234.89193116361275 85.04387568542734,234.31798460532445 81.98354661790654,233.28488005243707 81.19378427835181,232.82572216377594 80.79890310764313,232.25177453598008 79.51553930528462,231.33345771359745 78.42961608758196,231.44824735773727 75.96160877496004,230.9890887090005 75.36928702006117,230.75950931268744 75.17184643493965,230.5299298693426 75.27056672796607,230.3003503786167 74.77696526516229,230.75950931268744 73.49360146233812,233.6292483432917 73.0,235.12150970322546 73.29616087768227,236.7285581517499 73.78976234002039,237.3025034618331 76.25776965264231,237.18771442375146 77.24497257778421,237.417292487924 77.93601462524384,237.7616594955325 78.23217550246045,238.1060263963882 79.81170018296689,238.56518209748901 81.0950639853254,239.59828172950074 82.67458866536617,240.28701428277418 86.72212065802887,240.86095775011927 92.64533820841461,243.1567286476493 93.63254113355651,243.04194021574222 93.53382084099576,242.69757484830916 95.11334552103654,242.92715177196078 98.56855575880036,245.10813017270993 99.35831809882075,245.4524947910104 100.44424131605774,245.4524947910104 101.82632541144267,244.99334194255061 103.5045703840442,243.73067062941846 105.67641681944951,242.69757484830916 108.73674588697031,243.27151706803124 109.32906764186919,244.30461231374647 108.73674588697031,245.9116474490147 108.8354661790654,247.6334682230372 109.03290676465258,248.20740788662806 109.72394881164655,248.89613509061746 110.41499085957184,249.47007410088554 111.00731261447072,249.5848618670134 112.8829981717281,249.6996496214997 115.25228519178927,249.12571073067375 117.12797074951231,248.89613509061746 118.51005484443158,249.01092291658279 120.48446069471538,249.6996496214997 121.07678245007992,249.6996496214997 121.6691042049788,248.78134725312702 121.6691042049788,247.4038922743639 122.16270566731691,246.82995219470467 123.34734917758033,243.73067062941846 124.33455210272223,243.04194021574222 124.63071297993883,242.35320937423967 124.53199268784374,241.89405524241738 124.82815356552601,241.5496895184042 125.42047531995922,240.17222555342596 125.81535648973659,238.56518209748901 126.11151736741886,238.1060263963882 127.0,235.12150970322546 126.80255941487849,234.6623525756877 126.11151736741886,234.20319525816012 124.72943327249959,234.7771418755874 124.33455210272223,234.7771418755874 122.55758683755994,232.94051165389828 121.17550274217501,232.36656408535782 118.31261425977573,232.0221954016015 117.02925045695156,233.17009059793781 116.14076782437041,234.43277394084726 115.6471663620323,236.49897994485218 115.74588665459305,238.33560427068733 115.35100548435003,238.67997099319473 109.8226691042073,238.22081533935852 102.61608775146306,238.22081533935852 100.54296160908416,238.45039318990894" stroke="#4DD2FF" stroke-linecap="round" stroke-linejoin="round" stroke-width="0.5"><title>2024-09-09 5.2km</title><desc>12366514575</desc></polyline><polyline fill="none" points="165.55737704923376,241.94434559333604 166.24590163910761,242.05871593521442 168.5081967213191,242.85930799820926 169.0983606558293,243.431159116677 169.39344262285158,244.00300993875135 169.4918032786809,244.68923053436447 169.19672131119296,245.71856062870938 168.9016393441707,245.94730051932856 169.0983606558293,247.31973886839114 169.78688524570316,248.4634361898061 170.37704918021336,248.80654515558854 171.65573770506307,249.2640236101579 173.2295081964694,249.6071323271608 174.80327868834138,249.2640236101579 175.0983606558293,249.03528440673836 178.04918032791466,248.69217551196925 179.22950819693506,249.03528440673836 181.29508196702227,249.1496540143853 181.59016393404454,248.80654515558854 181.59016393404454,248.57780585659202 182.3770491797477,247.77721793891396 182.86885245889425,245.83293057978153 182.9672131142579,244.2317501846701 183.36065573757514,242.97367824590765 184.24590163957328,242.05871593521442 184.6393442619592,240.68627104896586 185.7213114751503,239.19945383060258 186.31147540919483,237.82700539077632 186.4098360654898,237.14078053133562 186.80327868834138,236.1114424430998 186.5081967213191,235.42521651776042 186.80327868834138,234.28150569449645 186.60655737668276,233.70964983897284 186.5081967213191,233.48090741364285 184.44262295076624,233.93839221668895 183.45901639340445,233.13779368728865 183.06557377055287,232.56593723921105 182.47540983604267,231.99408049532212 180.70491803251207,231.65096630703192 179.91803278634325,231.765337714809 177.75409836042672,232.45156591420528 177.26229508174583,232.79467985383235 176.86885245889425,233.93839221668895 176.77049180259928,235.1964744478464 176.57377049140632,235.88270051509608 175.0983606558293,238.5132298239041 174.60655737668276,238.85634188039694 173.8196721309796,238.62760052119847 172.73770491825417,238.05574691586662 171.65573770506307,237.82700539077632 169.98360655736178,237.14078053133562 165.45901639340445,236.34018432325684 162.11475409800187,236.79766794189345 158.27868852438405,236.56892615626566 156.50819672085345,236.68329705484211 152.0819672131911,237.59826381830499 151.0983606558293,237.36952219845261 147.6557377045974,235.3108454887988 145.68852458987385,233.36653618316632 144.21311475383118,233.13779368728865 142.34426229493693,233.36653618316632 141.55737704923376,233.13779368728865 140.67213114723563,232.33719457732514 140.67213114723563,231.1934805563651 141.16393442638218,230.96473761007655 140.96721311472356,230.85036611929536 138.4098360654898,230.27850848680828 135.95081967208534,230.39288003719412 135.26229508128017,229.70665055862628 134.1803278690204,230.7359946166398 133.98360655736178,231.42222345538903 134.1803278690204,231.765337714809 133.98360655736178,232.10845186794177 133.78688524616882,233.5952786321286 133.78688524616882,234.8533612539759 133.0,236.4545552454656 133.0,236.912038816954 134.27868852438405,237.36952219845261 135.45901639340445,237.14078053133562 136.83606557361782,237.25515137100592 139.4918032786809,238.62760052119847 140.96721311472356,239.8856774107553 142.83606557361782,240.68627104896586 145.88524590153247,240.915011981735 147.95081967161968,242.97367824590765 148.63934426242486,242.97367824590765 149.52459016395733,242.63056746823713 151.0983606558293,242.74493773910217 152.3770491797477,243.20241870451719 155.8196721309796,243.08804848103318 158.37704918021336,243.54552930465434 160.34426229493693,244.4604903833242 163.29508196702227,243.65989948110655 164.67213114723563,242.63056746823713 166.63934426242486,242.05871593521442 168.31147541012615,242.97367824590765 168.80327868834138,243.431159116677 168.9016393441707,244.68923053436447 168.9016393441707,247.20536907133646 169.39344262285158,248.80654515558854 171.06557377055287,249.83587141241878 171.36065573757514,250.2933494412573 171.75409836042672,250.2933494412573 172.24590163910761,250.17897995153908 172.73770491825417,249.72150187566876 174.80327868834138,248.69217551196925 177.16393442591652,248.3490665111458 178.1475409832783,248.9209147868678 180.50819672085345,249.1496540143853 181.19672131119296,249.03528440673836 181.78688524570316,248.57780585659202 182.18032786855474,248.00595740345307 182.77049180306494,245.2610807052115 183.26229508174583,244.68923053436447 183.5573770487681,243.65989948110655 184.34426229493693,242.4018268903019 184.7377049177885,240.68627104896586 185.8196721309796,238.74197120650206 186.70491803251207,235.9970714849187 187.0,234.05276338779368 186.80327868834138,233.5952786321286 186.5081967213191,233.48090741364285 184.6393442619592,233.70964983897284 183.85245901625603,233.25216494116466 183.65573770506307,232.6803085526917 183.06557377055287,232.10845186794177 180.60655737668276,231.53659488714766 177.45901639340445,232.6803085526917 176.0819672131911,233.70964983897284 175.39344262238592,235.88270051509608 175.19672131119296,236.68329705484211 175.29508196702227,237.36952219845261 175.0983606558293,238.28448839357588 174.80327868834138,238.3988591147354 174.21311475383118,238.3988591147354 172.83606557361782,237.59826381830499 172.14754098374397,237.36952219845261 169.4918032786809,237.14078053133562 166.83606557361782,236.56892615626566 165.55737704923376,236.68329705484211 164.77049180306494,236.912038816954 164.37704918021336,237.25515137100592 163.68852458987385,237.36952219845261" stroke="#4DD2FF" stroke-linecap="round" stroke-linejoin="round" stroke-width="0.5"><title>2024-09-08 5.3km</title><desc>12358368474</desc></polyline></svg>