<?xml version="1.0" encoding="utf-8" ?>
<svg baseProfile="full" height="300mm" version="1.1" viewBox="0,0,200,300" width="200mm" xmlns="http://www.w3.org/2000/svg" xmlns:ev="http://www.w3.org/2001/xml-events" xmlns:xlink="http://www.w3.org/1999/xlink"><defs /><rect fill="#222222" height="300" width="200" x="0" y="0" /><text fill="#FFFFFF" style="font-size:12px; font-family:Arial; font-weight:bold;" x="10" y="20">Over 5km Runs</text><text fill="#FFFFFF" style="font-size:4px; font-family:Arial" x="10" y="280">Runner</text><text fill="#FFFFFF" style="font-size:9px; font-family:Arial" x="10" y="290">Mr. Error 追</text><text fill="#FFFFFF" style="font-size:4px; font-family:Arial" x="65" y="280">SPECIAL TRACKS</text><rect fill="yellow" height="2.6" width="2.6" x="65" y="283" /><text fill="#FFFFFF" style="font-size:3px; font-family:Arial" x="70" y="285.5">Over 20.0 km</text><rect fill="red" height="2.6" width="2.6" x="65" y="287" /><text fill="#FFFFFF" style="font-size:3px; font-family:Arial" x="70" y="289.5">Over 40.0 km</text><text fill="#FFFFFF" style="font-size:4px; font-family:Arial" x="120" y="280">STATISTICS</text><text fill="#FFFFFF" style="font-size:3px; font-family:Arial" x="120" y="285">Number: 11</text><text fill="#FFFFFF" style="font-size:3px; font-family:Arial" x="120" y="290">Weekly: 1.1</text><text fill="#FFFFFF" style="font-size:3px; font-family:Arial" x="141" y="285">Total: 58.1 km</text><text fill="#FFFFFF" style="font-size:3px; font-family:Arial" x="141" y="290">Avg: 5.3 km</text><text fill="#FFFFFF" style="font-size:3px; font-family:Arial" x="167" y="285">Min: 5.0 km</text><text fill="#FFFFFF" style="font-size:3px; font-family:Arial" x="167" y="290">Max: 5.5 km</text><polyline fill="none" opacity="1" points="27.129032258875668,70.448074194137 26.161290322430432,69.32463325327262 25.967741935513914,68.42588008381426 27.322580645792186,59.88770652213134 27.516129032708704,56.06798648764379 28.483870968222618,54.04577905801125 29.64516129065305,53.59639937477186 31.774193548597395,53.82108922768384 34.48387096822262,54.49515864881687 40.2903225813061,55.39391755219549 42.22580645233393,55.39391755219549 56.54838709719479,58.09019204438664 56.93548387195915,57.865502630826086 57.12903225887567,57.19143425044604 58.2903225813061,49.7766683336813 56.54838709719479,48.877907117363065 49.774193548597395,48.203835961874574 46.483870967291296,47.52976459893398 36.22580645233393,46.6310024575796 32.93548387102783,45.95693060918711 29.64516129065305,45.95693060918711 24.225806451402605,45.05816782033071 23.64516129065305,45.732239946955815 22.483870968222618,50.90011933282949 22.483870968222618,53.14701959909871 23.064516129903495,54.49515864881687 25.0,54.94453814695589 30.419354839250445,54.27046886528842 34.677419355139136,55.39391755219549 37.19354838691652,55.6186072207056 42.41935483831912,56.51736566238105 44.93548387102783,56.51736566238105 47.64516129065305,57.19143425044604 49.19354838784784,56.966744743753225 51.12903225887567,57.19143425044604 56.161290323361754,58.31488143489696 56.93548387195915,60.11239572823979 57.12903225887567,63.932108687702566 56.35483871027827,68.20119173335843 56.161290323361754,70.22338605253026 55.387096773833036,72.69495434314013 54.225806451402605,74.26776907150634 51.90322580654174,74.26776907150634 49.19354838784784,73.81839355034754 47.64516129065305,74.04308132268488 39.709677420556545,72.4702664327342 34.677419355139136,71.79620256111957 26.93548387195915,69.77400969923474 26.354838710278273,68.42588008381426 26.74193548411131,67.0777496357914 26.74193548411131,63.932108687702566 27.322580645792186,61.460530476411805 27.90322580654174,56.74205521447584 27.516129032708704,54.49515864881687 27.129032258875668,54.27046886528842 29.25806451588869,53.37170949857682 31.774193548597395,54.27046886528842 35.45161290280521,54.94453814695589 42.80645161308348,55.6186072207056 45.12903225887567,55.39391755219549 48.419354839250445,56.51736566238105 53.25806451682001,57.416123733855784 56.74193548504263,58.76426014699973 57.322580644860864,59.88770652213134 57.70967741962522,61.90990854147822 57.90322580747306,64.1567974765785 57.51612903177738,67.30243810149841 55.774193548597395,72.69495434314013 55.19354838784784,73.59370575542562 52.87096774298698,74.04308132268488 43.00000000093132,72.24557849834673 35.06451612897217,71.79620256111957 28.677419355139136,70.22338605253026 27.322580645792186,70.22338605253026 26.54838709719479,68.87525671417825 26.354838710278273,66.62837263499387 26.54838709719479,65.05555240344256 26.54838709719479,63.258042179979384 27.7096774186939,57.416123733855784 27.90322580654174,55.39391755219549 27.516129032708704,54.49515864881687 26.54838709719479,53.82108922768384 24.612903226166964,54.49515864881687 23.64516129065305,54.27046886528842 19.0,52.472949761664495 17.064516129903495,52.02356975548901 15.709677419625223,52.24825976998545 14.935483871027827,52.697639730758965 13.580645161680877,54.49515864881687 13.580645161680877,56.06798648764379 18.419354838319123,64.1567974765785 19.967741935513914,65.28024107706733 23.258064516820014,64.83086370676756 26.54838709719479,65.28024107706733 27.322580645792186,64.60617498634383 27.516129032708704,56.06798648764379 28.290322580374777,54.27046886528842 29.64516129065305,53.82108922768384 31.774193548597395,53.82108922768384 36.612903226166964,54.94453814695589 39.90322580654174,55.16922786110081 45.709677420556545,56.51736566238105 48.612903226166964,56.74205521447584 51.70967741962522,56.51736566238105 53.064516129903495,56.74205521447584 56.35483871027827,58.53957080282271 56.74193548504263,60.56177407037467 56.35483871027827,63.70741987437941 57.12903225887567,67.30243810149841 57.322580644860864,69.54932148754597 56.54838709719479,72.24557849834673 55.387096773833036,73.36901793652214 50.93548387102783,74.26776907150634 47.64516129065305,74.04308132268488 41.83870967850089,72.4702664327342 35.64516129065305,72.02089054114185 31.967741936445236,71.12213848205283 27.7096774186939,70.67276231362484 26.54838709719479,69.77400969923474 26.354838710278273,66.17899554152973 26.93548387195915,63.70741987437941 27.129032258875668,58.98894946859218 27.7096774186939,56.06798648764379 27.90322580654174,54.94453814695589 28.677419355139136,54.04577905801125 31.580645160749555,54.04577905801125 37.967741936445236,54.94453814695589 47.45161290373653,56.966744743753225 53.25806451682001,57.416123733855784 54.80645161308348,57.865502630826086 54.612903226166964,57.640813193516806 55.19354838784784,57.640813193516806 58.48387096822262,58.98894946859218 63.322580645792186,59.213638766435906 67.0,60.786463206168264 66.80645161308348,63.258042179979384 66.03225806541741,66.17899554152973 65.25806451588869,69.32463325327262 64.09677419345826,71.57151455804706 63.70967741962522,74.04308132268488 63.129032257944345,74.71714450023137 61.58064516168088,74.94183217943646 54.225806451402605,73.36901793652214 52.48387096822262,72.4702664327342 47.64516129065305,71.79620256111957 31.38709677476436,70.67276231362484 27.516129032708704,69.99869788740762 26.74193548411131,69.09994499478489 26.74193548411131,65.28024107706733 27.516129032708704,61.6852195202373 27.322580645792186,58.53957080282271 28.290322580374777,54.49515864881687 28.677419355139136,53.59639937477186 29.45161290280521,53.59639937477186 32.93548387102783,54.27046886528842 35.25806451682001,55.16922786110081 38.35483871027827,55.16922786110081 43.967741936445236,56.51736566238105 50.35483870934695,56.966744743753225 54.419354839250445,57.865502630826086 56.35483871027827,58.98894946859218 56.93548387195915,59.88770652213134 57.12903225887567,65.05555240344256 56.54838709719479,65.72961835563183 56.93548387195915,69.54932148754597 56.54838709719479,71.79620256111957 55.967741935513914,72.91964223072864 51.90322580654174,73.59370575542562 34.48387096822262,71.34682653122582 27.129032258875668,69.77400969923474 26.354838710278273,68.20119173335843 26.161290322430432,67.30243810149841 27.516129032708704,61.90990854147822 27.129032258875668,61.23584140976891 28.09677419438958,58.76426014699973 27.516129032708704,54.94453814695589 26.54838709719479,54.04577905801125 24.806451614014804,54.94453814695589 23.64516129065305,54.94453814695589 21.322580645792186,53.37170949857682 19.0,52.697639730758965 17.25806451588869,50.67542917933315 17.64516129065305,51.34949957160279 15.516129031777382,51.12480946374126 14.935483871027827,51.5741896557156 13.193548386916518,55.16922786110081 14.935483871027827,59.213638766435906 16.870967742055655,61.6852195202373 18.419354838319123,64.83086370676756 19.38709677476436,65.72961835563183 20.354838710278273,66.17899554152973 21.516129033640027,66.17899554152973 24.419354838319123,65.05555240344256 24.612903226166964,64.38148624286987 23.838709677569568,59.663017293438315 24.225806451402605,56.29267608677037 23.838709677569568,55.39391755219549 18.419354838319123,52.697639730758965 16.483870967291296,52.472949761664495 14.935483871027827,52.9223296768032 13.774193548597395,54.71984840929508 13.387096773833036,55.843296866165474 13.580645161680877,56.74205521447584 16.09677419438958,60.337084911065176 19.0,65.28024107706733 20.354838710278273,65.95430695987307 23.64516129065305,65.72961835563183 24.612903226166964,64.83086370676756 24.806451614014804,62.35928651317954 24.419354838319123,56.74205521447584 23.838709677569568,55.6186072207056 18.032258064486086,52.9223296768032 16.09677419438958,52.472949761664495 15.516129031777382,52.472949761664495 14.161290323361754,53.59639937477186 13.580645161680877,54.71984840929508 13.387096773833036,55.843296866165474 15.322580645792186,59.213638766435906 16.677419354207814,60.56177407037467 18.225806451402605,63.932108687702566 20.161290322430432,65.95430695987307 21.129032258875668,65.95430695987307 22.290322580374777,65.72961835563183 23.45161290373653,64.38148624286987 24.032258064486086,56.966744743753225 24.032258064486086,56.06798648764379 23.258064516820014,54.94453814695589 18.225806451402605,52.697639730758965 15.903225807473063,52.24825976998545 14.548387096263468,53.14701959909871 13.387096773833036,55.16922786110081 13.580645161680877,56.29267608677037 18.225806451402605,63.932108687702566 19.0,65.05555240344256 20.161290322430432,65.72961835563183 23.64516129065305,64.60617498634383 24.612903226166964,63.258042179979384 23.45161290373653,59.213638766435906 24.419354838319123,55.39391755219549 20.354838710278273,53.14701959909871 16.483870967291296,52.02356975548901 15.322580645792186,52.472949761664495 13.0,54.71984840929508 13.0,56.29267608677037 18.419354838319123,64.60617498634383 20.74193548411131,65.72961835563183 24.225806451402605,64.83086370676756 24.612903226166964,61.23584140976891 24.225806451402605,60.11239572823979 24.419354838319123,56.51736566238105 23.838709677569568,55.39391755219549 22.290322580374777,54.49515864881687 20.161290322430432,54.04577905801125 17.25806451588869,52.02356975548901 15.516129031777382,52.472949761664495 13.387096773833036,55.6186072207056 13.967741935513914,57.19143425044604 16.290322580374777,60.337084911065176 16.870967742055655,62.13459753873758 18.419354838319123,64.60617498634383 20.161290322430432,65.72961835563183 23.064516129903495,65.50492972810753 24.032258064486086,65.05555240344256 24.806451614014804,63.258042179979384" stroke="#4DD2FF" stroke-dasharray="none" stroke-linecap="round" stroke-linejoin="round" stroke-width="0.5"><title>2026-03-21 5.2km</title><desc>17800395122</desc></polyline><polyline fill="none" opacity="1" points="122.44220183463767,52.33855502551887 121.55045871576294,51.87771239306312 120.163302752655,51.64729100500699 117.58715596329421,52.45376565400511 116.69541284441948,53.2602397184819 116.20000000018626,54.06671319855377 116.00183486286551,54.7579757157946 116.00183486286551,55.7948686867021 116.20000000018626,57.29260127188172 116.10091743152589,57.63823158212472 115.60550458729267,57.868651729193516 111.14678899105638,57.7534416615963 106.48990825703368,57.868651729193516 104.21100917458534,57.63823158212472 98.86055045900866,57.868651729193516 97.37431192677468,57.7534416615963 94.69908256875351,57.868651729193516 92.71743119275197,57.52302149031311 78.05321100912988,51.992923068930395 75.37798165157437,51.1864480858203 74.48623853176832,51.07123732636683 73.99082568800077,51.64729100500699 73.0,54.52755492448341 73.09908256866038,55.21881715534255 73.39633027510718,55.44923780369572 73.59449541242793,56.25570969667751 73.89174311934039,56.486130130593665 74.88256880734116,56.486130130593665 76.07155963312835,56.140499462140724 76.36880733957514,55.910078956978396 78.35045871557668,56.140499462140724 79.34128440357745,56.486130130593665 80.92660550493747,57.7534416615963 83.40366972517222,58.67512186861131 87.26788990851492,59.36638152285013 90.43853211030364,60.51847999182064 93.21284403698519,61.785786930006 94.2036697245203,62.016206217813306 95.39266055030748,62.016206217813306 96.38348623830825,62.13141584408004 97.8697247710079,62.70746379613411 99.35596330277622,63.6291398992762 100.34678899077699,63.974768241052516 102.32844036724418,63.6291398992762 104.7064220183529,62.246625458588824 106.19266055058688,61.785786930006 108.66972477082163,62.13141584408004 109.16513761505485,62.361835060757585 109.56146789016202,62.70746379613411 109.6605504588224,63.28351145016495 109.26422018371522,64.43560586275999 109.16513761505485,66.04853603674565 110.05688073392957,67.3158366754651 110.84954128414392,68.00709096109495 111.84036697261035,68.35271794302389 113.42568807350472,68.35271794302389 115.2091743121855,67.77667291357648 116.69541284441948,67.66146387218032 120.95596330333501,68.58313587098382 121.94678899087012,68.35271794302389 122.44220183463767,67.54625481832772 122.44220183463767,66.85500024666544 123.03669724753127,65.70290833897889 123.92844036733732,63.51393042795826 124.12660550465807,62.361835060757585 125.21651376178488,58.79033184086438 126.30642201891169,56.37091991957277 126.90091743133962,54.52755492448341 126.7027522935532,53.95150273712352 126.30642201891169,53.72108177852351 124.91926605580375,54.297134085092694 124.32477064244449,54.06671319855377 122.54128440376371,52.10813373292331 121.35229357797652,51.64729100500699 120.4605504591018,51.53208029293455 119.8660550462082,52.10813373292331 119.27155963331461,52.33855502551887 118.57798165176064,52.223344385274686 117.48807339463383,52.79939746740274 117.38899082550779,53.37545025150757 116.69541284441948,54.06671319855377 116.39816513797268,54.7579757157946 116.10091743152589,55.7948686867021 116.29908256884664,56.71655051596463 116.20000000018626,57.29260127188172 115.70458715595305,57.63823158212472 113.82201834907755,57.868651729193516 110.15596330305561,57.7534416615963 101.33761467877775,58.09907182876486 97.8697247710079,57.868651729193516 95.98715596320108,58.09907182876486 94.79816513741389,58.09907182876486 93.60917431209236,57.868651729193516 90.83486238494515,56.83176069124602 89.64587155962363,56.601340329274535 87.0697247707285,55.33402748557273 85.08807339472696,54.87318609387148 77.16146788978949,51.87771239306312 75.08073394512758,51.301658833399415 74.28807339444757,51.301658833399415 74.08990825666115,51.416869569336995 73.39633027510718,53.836292263586074 73.39633027510718,54.412344510667026 73.59449541242793,55.44923780369572 74.38715596310794,56.486130130593665 75.57614678889513,56.25570969667751 75.97247706446797,55.7948686867021 77.9541284404695,56.02528921572957 79.04403669713065,56.37091991957277 79.93577981647104,57.29260127188172 81.32293578004465,58.09907182876486 85.78165137628093,59.13596168579534 88.25871559605002,60.63368977291975 90.0422018347308,60.74889954237733 93.01467889919877,61.785786930006 96.28440366964787,62.016206217813306 99.75229357834905,63.398720944998786 101.53577981609851,63.398720944998786 102.42752293590456,62.93788289336953 103.71559633081779,62.70746379613411 104.90458715613931,62.13141584408004 106.19266055058688,61.670577267650515 107.48073394503444,61.785786930006 108.76880733994767,62.13141584408004 109.36330275284126,62.361835060757585 109.75963302748278,62.82267335092183 109.16513761505485,65.47248981439043 109.56146789016202,66.85500024666544 110.45321100950241,67.77667291357648 112.73211009195074,68.46792691294104 114.9119266057387,67.89188194344752 116.20000000018626,67.89188194344752 120.4605504591018,68.69834481715225 121.74862385354936,68.58313587098382 122.24403669731691,68.23750896076672 122.54128440376371,67.77667291357648 124.32477064244449,61.44015790813137 125.81100917467847,57.29260127188172 126.80183486267924,55.44923780369572 127.0,54.64276532595977 126.90091743133962,54.297134085092694 126.4055045871064,53.836292263586074 125.01834862399846,54.18192364787683 124.72110091755167,54.06671319855377 124.0275229359977,53.60587128135376 122.83853211021051,52.10813373292331 121.55045871576294,51.64729100500699 120.4605504591018,51.416869569336995 119.5688073397614,51.87771239306312 118.08256880752742,52.223344385274686 117.38899082550779,52.45376565400511 116.59633027529344,53.72108177852351 116.59633027529344,54.412344510667026 116.29908256884664,55.10360681347083 116.39816513797268,56.25570969667751 116.20000000018626,57.0621810053708 116.00183486286551,57.40781138720922 115.60550458729267,57.63823158212472 114.81284403707832,57.63823158212472 114.3174311928451,57.868651729193516 113.72293577995151,57.868651729193516 112.33577981637791,57.63823158212472 109.56146789016202,57.9838617851492 107.48073394503444,57.7534416615963 104.31009174324572,57.9838617851492 103.02201834879816,57.868651729193516 97.67155963322148,57.868651729193516 94.69908256875351,58.09907182876486 92.71743119275197,57.868651729193516 90.0422018347308,56.601340329274535 74.88256880734116,51.416869569336995 74.38715596310794,51.416869569336995 74.08990825666115,51.64729100500699 73.29724770598114,52.9146080481587 73.19816513778642,53.95150273712352 73.29724770598114,54.7579757157946 73.89174311934039,55.910078956978396 74.28807339444757,56.140499462140724 75.17981651378796,56.25570969667751 76.26972477091476,55.7948686867021 77.6568807340227,56.02528921572957 81.62018348649144,58.32949188060593 88.06055045872927,59.59680131205823 92.51926605496556,61.785786930006 95.39266055030748,62.016206217813306 96.9779816516675,62.246625458588824 98.06788990832865,62.93788289336953 99.05871559632942,63.859558805590495 99.55412844056264,64.08997766440734 100.8422018350102,64.20518707565498 101.63486238522455,63.974768241052516 103.22018348658457,63.16830194299109 104.31009174324572,62.361835060757585 105.40000000037253,61.900996579788625 107.18348623858765,61.785786930006 108.47155963350087,61.900996579788625 109.16513761505485,62.13141584408004 109.6605504588224,62.59225422993768 109.75963302748278,63.16830194299109 109.36330275284126,64.20518707565498 109.26422018371522,65.47248981439043 110.15596330305561,67.43104575271718 110.94862385326996,68.35271794302389 112.6330275228247,68.58313587098382 116.7944954126142,68.23750896076672 121.05504587152973,68.92876267363317 121.94678899087012,68.58313587098382 122.44220183463767,68.00709096109495 124.12660550465807,62.016206217813306 125.81100917467847,58.21428186038975 126.90091743133962,54.87318609387148 126.7027522935532,54.06671319855377 126.50458715623245,53.95150273712352 125.01834862399846,54.297134085092694 124.52293578023091,54.297134085092694 123.1357798166573,52.5689762707334 121.64954128442332,51.87771239306312" stroke="#4DD2FF" stroke-dasharray="none" stroke-linecap="round" stroke-linejoin="round" stroke-width="0.5"><title>2025-05-18 5.0km</title><desc>14514095793</desc></polyline><polyline fill="none" opacity="1" points="134.59116022102535,51.211800454068 133.8950276239775,52.71505593240727 133.19889502739534,54.79648325301241 133.2983425417915,55.83719545882195 133.79558011051267,56.53100305690896 134.39226519363,56.64663761493284 135.9834254141897,56.068464705953375 138.07182320440188,56.18409931182396 139.86187845328823,57.34044471022207 141.7513812156394,57.91861696005799 143.3425414361991,58.84369193762541 147.41988950269297,59.306229139096104 148.81215469632298,60.00003458186984 151.19889502739534,60.69383959355764 153.18784530367702,62.08144832367543 154.1823204420507,62.19708230649121 155.2762430938892,61.96581432898529 155.77348066307604,61.96581432898529 157.06629834277555,62.543984183925204 157.86187845328823,63.12215373979416 158.65745856333524,63.12215373979416 160.14917127089575,63.81595681188628 161.44198895059526,63.70032299635932 162.33701657457277,63.46905532979872 162.8342541437596,63.12215373979416 163.53038674034178,63.23778761527501 164.52486187871546,62.89088595332578 165.32044198922813,62.08144832367543 165.71823204448447,61.850180321605876 169.0994475139305,62.31271627766546 169.69613259704784,62.89088595332578 169.79558011051267,63.353421478299424 169.59668508311734,65.781729841372 169.69613259704784,66.47553126106504 170.79005524888635,67.74749941029586 171.68508287286386,68.21003292372916 174.46961326012388,68.09439956350252 176.85635359119624,67.74749941029586 179.34254143666476,67.97876619093586 180.43646408850327,67.74749941029586 182.02762430999428,66.93806530092843 183.51933701708913,65.20356166234706 183.9171270718798,64.04722440661862 184.51381215499714,61.96581432898529 186.3038674038835,57.22481022414286 187.0,55.25902213086374 187.0,54.79648325301241 186.80110497260466,54.33394418389071 186.3038674038835,54.10267457738519 185.80662983469665,53.98703975591343 184.71270718285814,54.449578969040886 184.41436464106664,54.33394418389071 183.61878453055397,53.177595672081225 182.8232044200413,52.59942096716259 181.33149171294644,51.9056109264493 180.33701657503843,51.9056109264493 179.14364640926942,52.36815100128297 177.8508287295699,52.48378599015996 177.05524861859158,53.06196075503249 176.35911602247506,54.449578969040886 176.06077348114923,55.49029149801936 176.16022099461406,57.45607918407768 175.86187845328823,57.91861696005799 175.06629834277555,58.034251374192536 160.4475138122216,58.034251374192536 154.77900552516803,58.149885776569135 152.98895027628168,57.80298253404908 151.49723756918684,57.10917572607286 148.91160220978782,56.415368486894295 148.0165745858103,55.95283008844126 146.22651933692396,55.49029149801936 142.3480662982911,53.98703975591343 141.3535911599174,53.75577007746324 135.08839778974652,51.32743556261994 134.39226519363,51.4430706591811 133.99447513837367,51.67434081656393 133.79558011051267,52.71505593240727 133.0,54.68084850383457 133.59668508311734,55.95283008844126 133.99447513837367,56.415368486894295 134.88950276235119,56.53100305690896 134.98895027628168,56.299733905354515 136.3812154699117,56.068464705953375 138.76795580098405,56.415368486894295 139.56353591149673,56.993541216361336 140.06077348068357,57.45607918407768 141.3535911599174,58.149885776569135 143.54143646452576,58.72805760754272 146.22651933692396,59.074960562284105 149.20994475157931,60.11566878040321 152.591160221491,62.08144832367543 156.56906077358872,62.19708230649121 158.06077348068357,63.00651985278819 159.45303867431358,64.16285818617325 160.5469613261521,64.39412570907734 161.14364640880376,64.39412570907734 162.73480663029477,63.70032299635932 163.72928176820278,63.12215373979416 165.22099447529763,61.96581432898529 166.71270718239248,61.73454630281776 168.50276243127882,62.08144832367543 169.0994475139305,62.31271627766546 169.79558011051267,63.00651985278819 169.397790055722,64.97229430719744 169.49723756918684,65.55046260578092 170.19337016623467,67.1693322493229 171.08839778974652,68.21003292372916 172.08287292858586,68.44129960844293 175.06629834277555,67.97876619093586 177.7513812156394,67.86313280672766 180.0386740337126,68.67256624554284 181.2320441994816,68.788199545932 181.92817679559812,68.5569329331629 182.42541436478496,68.21003292372916 185.01104972371832,60.00003458186984 186.00552486255765,57.91861696005799 185.9060773481615,57.68734809581656 187.0,54.79648325301241 186.90055248700082,54.21830938663334 186.3038674038835,53.87140492280014 184.71270718285814,54.33394418389071 183.51933701708913,52.94632582599297 182.92265193443745,52.48378599015996 182.02762430999428,52.02124596305657 180.33701657503843,51.789975877502 178.24861878482625,52.59942096716259 177.7513812156394,52.94632582599297 176.9558011055924,53.87140492280014 176.35911602247506,55.374656820320524 176.35911602247506,56.18409931182396 176.6574585638009,56.64663761493284 176.6574585638009,56.993541216361336 176.45856353640556,57.68734809581656 175.96132596675307,58.034251374192536 174.27071823226288,57.80298253404908 169.00000000046566,58.034251374192536 165.41988950315863,58.265520166489296 159.05524861905724,58.265520166489296 154.77900552516803,58.612423265120015 148.71270718239248,56.299733905354515 146.9226519339718,55.374656820320524 146.02762430952862,55.25902213086374 142.3480662982911,53.75577007746324 140.4585635359399,53.29323057702277 138.76795580098405,52.59942096716259 135.48618784546852,51.4430706591811 134.49171270709485,51.558705744100735 133.99447513837367,52.13688098767307 133.2983425417915,53.408865470206365 133.19889502739534,54.565213742200285 133.2983425417915,55.14338742941618 133.59668508311734,55.49029149801936 133.79558011051267,56.299733905354515 134.193370165769,56.53100305690896 134.88950276235119,56.64663761493284 135.68508287286386,56.18409931182396 136.1823204420507,56.068464705953375 138.76795580098405,56.415368486894295 140.16022099461406,57.571713646058924 141.55248618824407,58.149885776569135 143.3425414361991,58.72805760754272" stroke="#4DD2FF" stroke-dasharray="none" stroke-linecap="round" stroke-linejoin="round" stroke-width="0.5"><title>2025-05-10 5.0km</title><desc>14430932480</desc></polyline><polyline fill="none" opacity="1" points="64.82018348621204,115.39162908389699 63.13577981619164,113.77868037042208 60.95596330240369,112.74178353406023 60.460550458636135,112.74178353406023 59.27155963284895,113.08741592010483 57.98348623840138,113.20262669178192 57.19082568772137,113.89389107050374 56.39816513750702,115.50683961692266 56.39816513750702,118.27188882755581 56.29908256838098,118.50230928487144 55.80366972414777,118.73272969457321 52.73211009148508,118.73272969457321 47.6788990823552,118.96315005654469 46.88623853214085,118.84793988137972 42.62568807322532,119.19357037078589 35.293577981647104,118.96315005654469 30.042201834730804,117.92625805211719 24.790825687814504,116.08289210253861 22.908256880939007,115.73726064665243 22.115596330258995,115.27641853888053 18.944954128470272,114.46994439093396 18.25137614645064,113.77868037042208 15.57614678889513,112.62657271453645 14.68440366955474,111.47446386597585 14.188990825321525,111.24404195300303 13.990825687535107,111.47446386597585 13.495412843767554,114.35473375068977 13.0,115.73726064665243 13.099082568660378,116.08289210253861 13.495412843767554,116.42852345050778 13.594495412893593,116.88936508120969 13.990825687535107,117.2349961787695 14.387155963107944,117.35020652075764 16.765137614682317,116.88936508120969 17.656880733557045,117.00457545928657 18.746788990683854,117.35020652075764 20.629357798025012,118.84793988137972 21.917431192472577,119.53920075262431 26.277064220048487,120.11525115044788 27.66422018315643,120.92172120627947 28.85321100940928,121.26735105109401 30.636697247624397,121.4977708881488 31.825688072945923,122.18903011258226 33.70825688028708,122.88028890779242 36.779816513415426,122.88028890779242 39.355963302310556,124.49322442617267 41.04036697279662,124.95406271633692 42.922935779672116,124.6084340166999 46.489908256568015,122.64986935723573 48.174311926122755,122.76507913821843 49.36330275190994,123.11070841073524 49.858715596143156,123.57154727343004 49.957798164803535,124.26280520937871 49.165137614589185,125.87573872378562 49.165137614589185,126.45178584044334 50.55229357769713,128.17992540216073 51.2458715592511,128.75597132567782 52.03853210993111,129.1015987370629 53.425688073504716,128.9863896119641 55.30825688038021,128.64076216472313 58.08256880706176,128.75597132567782 59.568807339295745,129.33201695163734 61.05504587106407,129.56243511801586 62.045871559064835,129.1015987370629 62.64036697195843,128.17992540216073 63.13577981619164,126.7974139675498 63.3339449535124,125.87573872378562 65.11743119219318,121.4977708881488 65.51376146776602,119.76962094742339 66.10825688065961,118.61751949600875 66.80183486174792,116.08289210253861 66.7027522935532,115.50683961692266 66.30642201798037,115.04599741357379 66.30642201798037,114.81557624042034 65.31559633044526,114.00910175847821 65.21651376131922,113.4330481988145 64.62201834842563,112.74178353406023 63.63119266042486,112.16572931816336 61.352293577976525,111.47446386597585 59.667889908421785,110.55277592781931 59.07339449552819,110.43756488198414 58.776146789081395,110.55277592781931 58.4788990826346,111.12883097853046 58.677064219955355,111.93530754884705 58.37981651350856,112.74178353406023 56.99266054993495,114.12431243434548 56.39816513750702,115.27641853888053 56.39816513750702,118.04146832239348 56.29908256838098,118.38709906197619 55.80366972414777,118.73272969457321 49.36330275190994,118.96315005654469 45.598165137227625,119.30878051009495 39.75229357788339,119.07836021948606 37.27522935764864,119.42399063729681 33.11376146739349,118.61751949600875 29.348623853176832,117.35020652075764 28.456880733836442,116.77415469137486 25.484403669834137,115.73726064665243 23.800000000279397,114.93078683281783 21.025688073132187,114.35473375068977 18.647706422023475,113.20262669178192 16.269724770449102,112.62657271453645 14.882568806875497,112.16572931816336 14.188990825321525,112.05051843938418 13.79266055021435,112.280940185301 13.79266055021435,112.9722051366698 13.396330275107175,114.2395230983384 13.198165137320757,114.5851550194202 13.198165137320757,115.16120798222255 13.69357798108831,116.88936508120969 14.188990825321525,117.35020652075764 14.882568806875497,117.35020652075764 16.36880733957514,116.65894428978208 18.746788990683854,117.2349961787695 20.431192660238594,118.61751949600875 22.908256880939007,119.53920075262431 26.970642201136798,120.0000410946086 29.943119266070426,121.03693116630893 31.23119266005233,121.843400554033 33.311926605179906,122.64986935723573 36.977981651201844,122.76507913821843 37.671559632755816,123.11070841073524 39.554128440096974,124.83885316143278 40.94128440367058,125.1844817897072 42.229357798118144,125.06927225878462 45.30091743078083,123.45633757556789 47.976146788802,122.88028890779242 48.86788990814239,122.99549866502639 49.66055045835674,123.57154727343004 49.858715596143156,123.91717629542109 49.46238532103598,125.29969130828977 49.56146788969636,126.68220460403245 50.05688073346391,127.48866989952512 51.2458715592511,128.5255529920105 51.93944954127073,128.75597132567782 53.62385321082547,128.87118047475815 55.30825688038021,128.64076216472313 57.58715596282855,128.75597132567782 58.97431192640215,128.9863896119641 60.65871559595689,129.56243511801586 62.045871559064835,129.56243511801586 62.44220183463767,129.2168078504037 62.838532109279186,128.4103438074235 63.43302752263844,126.22136702970602 64.52293577976525,123.57154727343004 65.6128440364264,120.0000410946086 66.10825688065961,119.07836021948606 66.7027522935532,117.11978582490701 66.7027522935532,115.96768162900116 65.91009174287319,115.39162908389699 64.32477064197883,115.04599741357379 63.73027522908524,114.35473375068977 62.44220183463767,113.20262669178192 61.352293577976525,112.74178353406023 60.361467889510095,112.62657271453645 59.667889908421785,113.20262669178192 58.28073394484818,113.20262669178192 57.58715596282855,113.54825893475208 56.893577981274575,114.35473375068977 56.29908256838098,115.27641853888053 56.10091743059456,116.77415469137486 56.29908256838098,118.04146832239348 55.90275229327381,118.50230928487144 50.35412844037637,118.73272969457321 48.07522935792804,118.73272969457321 44.50825688010082,118.96315005654469 39.75229357788339,118.84793988137972 35.49174311896786,118.84793988137972 33.51009174250066,118.61751949600875 28.357798165176064,116.54373387608211 25.286238531582057,116.08289210253861 23.5027522938326,115.62205013772473 23.007339449599385,115.16120798222255 21.62018348602578,115.04599741357379 21.223853210918605,114.81557624042034 20.92660550447181,114.2395230983384 20.431192660238594,113.66346965834964 20.03486238513142,113.4330481988145 18.944954128470272,113.4330481988145 17.45871559623629,112.74178353406023 15.377981651108712,112.39615104044788 15.080733944661915,112.05051843938418 14.882568806875497,111.24404195300303 14.486238531768322,111.12883097853046 14.089908256661147,111.82009664573707 13.79266055021435,113.08741592010483 13.79266055021435,114.00910175847821 13.990825687535107,114.5851550194202 13.79266055021435,115.16120798222255 13.79266055021435,115.73726064665243 14.089908256661147,117.11978582490701 14.68440366955474,117.35020652075764 16.36880733957514,116.77415469137486 17.557798164896667,116.77415469137486 18.548623852897435,117.2349961787695 20.72844036668539,118.84793988137972 22.809174311812967,119.53920075262431 24.29541284404695,119.76962094742339 25.385321100708097,119.6544108557282 27.267889908049256,120.23046119417995 29.54678899049759,121.03693116630893 31.627522935625166,122.18903011258226 32.71743119228631,122.53465956391301 34.00550458673388,122.64986935723573 36.38348623830825,122.64986935723573 38.16697247698903,123.57154727343004 40.14862385299057,125.41490081546362 40.84220183454454,125.41490081546362 41.932110091205686,125.06927225878462 44.1119266054593,123.57154727343004 45.30091743078083,123.11070841073524 47.08440366946161,122.64986935723573 48.966972476802766,122.99549866502639 49.46238532103598,123.22591814456973 50.15596330212429,123.91717629542109 49.46238532103598,126.22136702970602 49.957798164803535,127.37346060725395 50.65137614635751,127.71908844809514 51.93944954127073,129.1015987370629 52.73211009148508,129.44722604076378 53.72293577995151,129.44722604076378 55.209174311719835,128.87118047475815 56.4972477061674,128.75597132567782 58.776146789081395,128.9863896119641 61.154128439724445,129.56243511801586 62.44220183463767,129.2168078504037 62.54128440329805,128.9863896119641 62.64036697195843,128.17992540216073 63.829357797745615,125.87573872378562 64.12660550465807,124.49322442617267 64.52293577976525,123.8019666330656 65.51376146776602,120.0000410946086 66.4055045871064,118.04146832239348 67.0,115.73726064665243 66.7027522935532,115.16120798222255 66.00917431153357,115.04599741357379 65.31559633044526,115.16120798222255 64.32477064197883,115.04599741357379 62.73944954108447,113.4330481988145 61.352293577976525,112.74178353406023 60.55963302729651,112.62657271453645 59.17247706418857,113.08741592010483 58.28073394484818,113.08741592010483 57.09174311906099,114.00910175847821 56.39816513750702,115.50683961692266 56.39816513750702,116.42852345050778 56.1999999997206,117.46541685098782 56.39816513750702,117.81104776985012" stroke="#4DD2FF" stroke-dasharray="none" stroke-linecap="round" stroke-linejoin="round" stroke-width="0.5"><title>2025-04-20 5.0km</title><desc>14232395834</desc></polyline><polyline fill="none" opacity="1" points="74.98895027581602,110.34454542584717 74.59116022102535,110.46018061833456 74.59116022102535,110.691450967337 73.79558011051267,111.73216694488656 73.0,114.04486564465333 73.69613259658217,115.66375188448 74.09392265183851,116.01065577322152 74.98895027581602,116.01065577322152 76.0828729281202,115.66375188448 76.97790055256337,115.66375188448 77.97237569047138,115.77938652620651 78.86740331491455,116.24192497273907 80.06077348068357,117.28263577760663 82.44751381175593,118.43897997832391 84.53591160243377,119.13278592389543 85.82872928166762,119.36405447672587 87.41988950269297,120.17349403421395 89.60773480683565,120.28912820888218 92.29281767923385,121.56110333930701 93.48618784500286,121.90800539636984 96.17127071833238,121.79237138899043 97.36464088410139,122.13927337387577 99.35359115991741,123.17997868254315 101.24309392273426,123.29561254556756 102.63535911589861,122.83307702059392 103.62983425427228,122.71744310983922 105.02209944743663,122.02363939094357 106.61325966846198,121.79237138899043 107.60773480636999,121.6767373700859 109.0,122.02363939094357 109.39779005525634,122.25490734505001 109.69613259658217,122.94871092005633 109.39779005525634,125.49265367304906 109.59668508311734,126.53335585608147 110.59116022102535,127.689690477564 112.2817679559812,128.1522239909973 114.46961325965822,127.920957258204 115.36464088410139,127.574057069025 116.65745856333524,127.45842364896089 118.34806629829109,127.689690477564 120.73480662982911,128.61475731281098 121.62983425427228,128.61475731281098 122.22651933692396,128.38349067571107 122.52486187871546,128.1522239909973 122.8232044200413,127.11152331659105 123.32044198876247,125.03011905809399 123.32044198876247,124.33631677634548 124.71270718239248,120.40476237179246 125.90607734816149,118.09207684383728 126.9005524860695,114.85430905793328 127.0,114.16050045401789 126.70165745867416,113.8135959901847 126.30386740341783,113.6979611448478 124.71270718239248,114.04486564465333 123.41988950315863,112.65724699979182 122.32596685085446,111.84780199383385 121.13259668508545,111.38526172656566 120.33701657457277,111.38526172656566 119.04419889487326,111.96343703044113 117.85082872956991,112.07907205505762 117.15469613252208,112.65724699979182 116.25966850854456,114.27613525127526 116.16022099461406,115.4324825652875 116.3591160220094,117.05136679345742 116.16022099461406,117.39827025146224 115.66298342542723,117.51390471332707 107.30939226504415,117.74517360143363 105.22099447529763,117.51390471332707 94.87845303816721,117.97644244157709 91.79558011051267,117.28263577760663 87.22099447483197,115.4324825652875 84.63535911589861,114.62303957121912 81.05524861859158,113.00415182241704 75.78453038679436,111.2696266300045 75.38674033153802,111.03835640090983 75.18784530414268,110.57581579859834 74.79005524842069,110.228910221369 74.39226519316435,110.92272126825992 73.79558011051267,112.31034206866752 73.29834254086018,114.39177003630903 73.49723756918684,115.2012131982483 74.19337016530335,116.01065577322152 75.18784530414268,116.01065577322152 76.58011049730703,115.66375188448 78.27071823226288,116.01065577322152 79.96132596675307,116.82009776157793 81.75138121517375,118.20771123387385 85.03314917115495,119.13278592389543 87.32044198876247,119.24842020636424 89.80662983423099,119.82659143861383 92.88950276235119,121.56110333930701 93.68508287286386,121.6767373700859 95.3756906078197,121.56110333930701 96.37016574572772,121.6767373700859 99.45303867384791,123.64251406362746 101.04419889487326,123.75814787915442 101.8397790058516,123.52688023634255 104.4254143643193,121.90800539636984 105.7182320440188,121.56110333930701 109.09944751346484,122.02363939094357 109.79558011051267,122.83307702059392 109.89502762397751,123.29561254556756 109.49723756918684,124.79885167872999 109.69613259658217,125.95518809615169 110.09392265230417,126.6489893719554 110.59116022102535,127.34279021702241 111.38674033153802,127.80532387411222 112.58011049730703,127.920957258204 116.65745856333524,127.45842364896089 118.74585635354742,127.689690477564 121.43093922641128,127.11152331659105 122.22651933692396,126.53335585608147 123.32044198876247,124.68321797123645 124.31491712713614,121.79237138899043 124.81215469632298,120.98293300485238 126.40331491688266,116.47319412429351 126.70165745867416,115.4324825652875 127.0,114.62303957121912 127.0,114.04486564465333 126.70165745867416,113.6979611448478 126.40331491688266,113.58232628775295 124.71270718239248,114.04486564465333 124.01657458534464,113.46669141878374 122.8232044200413,112.19470706768334 122.02762430952862,111.73216694488656 120.43646408803761,111.38526172656566 119.14364640880376,111.96343703044113 118.14917127043009,112.07907205505762 117.55248618731275,112.42597705754451 116.85635359119624,113.35105653759092 116.3591160220094,114.27613525127526 116.25966850854456,114.73867432039697 116.16022099461406,116.01065577322152 116.3591160220094,117.167001291411 115.86187845282257,117.6295391630847 113.77348066261038,117.51390471332707 109.69613259658217,117.6295391630847 104.02762430952862,117.51390471332707 101.93922651931643,117.74517360143363 95.87292817700654,117.74517360143363 92.19337016576901,117.39827025146224 90.20441988948733,116.70446322788484 87.22099447483197,115.4324825652875 83.6408839779906,114.16050045401789 81.35359115991741,113.11978673946578 76.18232044158503,111.38526172656566 75.28729281760752,111.03835640090983 74.88950276235119,110.34454542584717 74.19337016530335,110.57581579859834 73.69613259658217,111.73216694488656 73.198895027861,114.27613525127526 73.79558011051267,116.12629037920851 74.59116022102535,116.24192497273907 75.8839779002592,115.89502115582582 76.0828729281202,115.54811723076273 77.07734806602821,115.54811723076273 77.3756906078197,115.89502115582582 79.26519337017089,116.35755955427885 79.86187845282257,117.05136679345742 81.85082872910425,117.97644244157709 86.12707182299346,119.01715162955225 87.61878453055397,120.05785984778777 88.81215469585732,120.5203965222463 90.40331491688266,120.75166478741448 92.79005524842069,121.90800539636984 93.88397790072486,122.02363939094357 95.07734806602821,121.6767373700859 96.17127071833238,121.90800539636984 99.85082872956991,123.98941547388677 102.13812154671177,123.64251406362746 103.62983425427228,122.94871092005633 105.51933701662347,121.56110333930701 106.61325966846198,121.44546929630451 108.50276243081316,121.79237138899043 109.79558011051267,122.60180918662809 109.79558011051267,123.0643448070623 109.29834254132584,124.79885167872999 109.29834254132584,125.37702003715094 109.59668508311734,126.41772232833318 110.29281767969951,127.34279021702241 111.38674033153802,128.03659063077066 115.16574585670605,128.1522239909973 116.3591160220094,128.61475731281098 118.54696132615209,129.7710897787474 121.82872928166762,128.49912400043104 122.52486187871546,127.920957258204 123.02209944743663,126.07082167221233" stroke="#4DD2FF" stroke-dasharray="none" stroke-linecap="round" stroke-linejoin="round" stroke-width="0.5"><title>2025-02-08 5.5km</title><desc>13569967175</desc></polyline><polyline fill="none" opacity="1" points="160.244122965727,107.05609885440208 158.77938517183065,106.94255383254495 157.99819168215618,106.94255383254495 156.6311030741781,106.37482854607515 155.55696202535182,106.48837362683844 154.58047016290948,106.26128345332108 151.84629294788465,105.12583188095596 150.5768535262905,104.89874142524786 149.2097649187781,104.21746977651492 148.23327305633575,103.99037913256325 147.6473779384978,103.53619770391379 146.08499095821753,103.19556150876451 145.98734177229926,103.08201608678792 144.91320072347298,102.51428880158346 141.78842676291242,101.60592453333084 141.20253164554015,101.60592453333084 139.64014466572553,102.85492520814296 139.2495479201898,103.42265231721103 139.3471971070394,104.10392446035985 139.2495479201898,104.6716509226244 138.0777576849796,105.35292228928301 136.90596745023504,106.82900879858062 136.80831826431677,108.64572792837862 136.41772151878104,109.7811758556636 136.22242314647883,110.80307798483409 135.8318264009431,111.82497916172724 135.8318264009431,113.07396819547284 135.53887884272262,113.6416900131153 135.05063291126862,114.09586725581903 133.87884267652407,115.68548612308223 133.29294755868614,118.97826073132455 133.488245931454,119.65952320897486 134.9529837248847,121.02204689383507 137.2965641953051,120.45432889764197 138.8589511755854,120.79495973081794 139.3471971070394,121.24913401016966 139.93309222441167,121.93039507674985 141.78842676291242,123.29291593970265 143.64376130187884,124.08771899470594 145.88969258591533,124.31480547611136 147.06148282112554,124.768978297594 148.13562386948615,125.56378028262407 149.99095840891823,126.47212470287923 150.28390596760437,126.47212470287923 151.0650994577445,127.0398395829834 152.43218806525692,127.72109705174807 152.334538878873,127.49401127616875 152.52983725164086,127.49401127616875 155.4593128389679,127.2669254533248 156.92405063286424,128.06172562751453 158.77938517183065,128.28881128586363 160.244122965727,129.4242388715502 161.22061482816935,129.764866918209 162.58770343568176,129.53778156568296 163.56419529858977,128.28881128586363 164.93128390610218,127.2669254533248 165.41952983709052,127.15338252391666 166.2983725136146,126.92629663052503 168.54430379765108,127.2669254533248 169.52079566009343,128.17526846239343 169.9113924051635,128.85652522556484 169.61844484647736,129.8784095768351 169.13019891502336,130.33258009387646 169.13019891502336,131.01383551675826 169.7160940328613,132.0357178573031 170.30198915023357,132.7169722217368 172.0596745023504,133.62531071621925 173.4267631098628,133.62531071621925 175.7703435807489,132.9440569159342 177.8209764920175,133.2846838691039 179.38336347183213,133.96593745751306 179.57866184413433,133.85239522217307 180.555153707508,133.85239522217307 181.23869801079854,133.2846838691039 181.53164556948468,132.8305145748891 181.53164556948468,132.4898874805076 182.99638336338103,130.6732078579953 183.58227848121896,129.4242388715502 184.16817359859124,127.2669254533248 184.94936708873138,125.33669406024273 184.94936708873138,124.88252147368621 185.92585895117372,123.17937259934843 186.70705244131386,120.56787252030335 186.70705244131386,120.00015428918414 186.02350813755766,118.29699783050455 185.53526220610365,117.50219057803042 184.94936708873138,116.82092676032335 183.19168173568323,115.91257434454747 182.01989150093868,115.68548612308223 177.62567811924964,113.75523434160277 176.06329113943502,113.52814567321911 175.7703435807489,113.07396819547284 171.18083182629198,110.91662260715384 169.42314647417516,110.80307798483409 167.4701627488248,109.55408636422362 164.63833634741604,108.41863820177969 161.12296564225107,107.73736873979215 157.99819168215618,106.37482854607515 157.41229656431824,106.26128345332108 156.24050632910803,106.6019186959602 153.7016274863854,106.03419323277194 152.82278480986133,105.69355781411286 149.30741410469636,103.64974307850935 146.18264014460146,103.19556150876451 145.30379746854305,102.74137975124177 141.397830018308,101.60592453333084 139.64014466572553,102.40074330905918 139.15189873427153,102.85492520814296 139.2495479201898,103.19556150876451 138.76130198920146,104.21746977651492 138.66365280281752,105.69355781411286 137.68716094037518,106.37482854607515 137.2965641953051,107.05609885440208 136.90596745023504,108.41863820177969 136.61301989201456,108.64572792837862 136.3200723323971,109.21345203905366 136.12477396056056,110.1218100048136 135.53887884272262,110.46244404732715 134.9529837248847,111.3708009783877 134.9529837248847,111.82497916172724 135.44122965680435,113.07396819547284 134.75768535304815,114.55004431027919 134.56238698028028,115.45839785470162 134.07414104882628,115.91257434454747 133.87884267652407,118.29699783050455 133.39059674507007,118.8647169440519 133.58589511737227,120.1136979587609 134.07414104882628,121.24913401016966 135.2459312840365,121.93039507674985 135.8318264009431,122.61165571969468 137.19891500892118,123.29291593970265 140.81193490047008,125.79086645809002 141.49547920422629,126.13149563362822 143.44846292957664,126.35858169128187 147.06148282112554,127.2669254533248 148.62386980094016,127.72109705174807 150.28390596760437,128.62943968502805 150.96745027136058,128.5158968968317 151.84629294788465,128.97006797848735 153.01808318309486,128.97006797848735 153.31103074131534,129.31069616577588 153.79927667276934,129.31069616577588 154.38517179060727,129.65132424759213 155.7522603981197,129.65132424759213 156.92405063286424,130.10549485881347 158.2911392408423,130.33258009387646 159.65822784835473,131.35446306923404 161.22061482816935,131.35446306923404 161.80650994554162,131.80863297486212 162.19710669107735,132.4898874805076 163.27124773990363,132.7169722217368 163.95479204365984,133.1711415629834 168.25135623896495,134.4201062816428 169.03254972863942,134.4201062816428 169.9113924051635,135.21490127081051 169.9113924051635,135.55552751827054 170.98553345398977,135.78261162468698 171.66907775774598,136.23677969619166 172.25497287511826,136.00969568395521 174.40325497323647,136.57740562630352 175.28209764929488,137.25865716929547 176.6491862568073,137.59928278194275 178.21157323662192,138.39407546666916 179.67631103098392,138.0534501009388 180.35985533474013,137.37219905201346 180.4575045206584,136.91803145047743 181.04339963849634,136.1232376957778 181.04339963849634,135.78261162468698 181.72694394225255,135.21490127081051 181.72694394225255,134.4201062816428 182.99638336338103,132.7169722217368 183.58227848121896,130.55966528179124 184.65641953004524,127.38046837050933 185.14466546103358,125.56378028262407 185.82820976525545,124.20126224134583 186.41410488262773,121.70330810162704 186.90235081361607,120.79495973081794 187.0,119.77306691394188 186.41410488262773,118.52408551145345 185.82820976525545,118.29699783050455 185.24231464741752,117.38864663790446 185.0470162751153,116.70738274930045 181.72694394225255,115.11776536365505 181.23869801079854,114.77713276690338 180.94575045164675,114.3229558065068 179.7739602169022,113.75523434160277 174.2079566004686,112.61979052959941 173.5244122967124,112.2791571568232 172.64556962018833,111.59789009392262 170.88788426760584,111.25725640321616 167.27486437605694,109.7811758556636 165.90777576854452,108.9863624300342 162.8806509943679,107.73736873979215 161.90415913239121,107.62382378836628 161.22061482816935,107.16964386485051 159.16998191690072,106.71546375320759 155.84990958403796,106.26128345332108 152.23688969248906,105.35292228928301 150.18625678122044,105.23937709094025 148.7215189873241,104.44456037285272 146.76853526197374,103.99037913256325 146.2802893309854,103.64974307850935 146.18264014460146,103.30910691909958 141.69077757699415,101.7194701078115 140.909584086854,101.83301567099988 140.4213381554,102.17365228908602 138.8589511755854,102.85492520814296 138.3707052441314,103.53619770391379 137.49186256807297,103.99037913256325 137.49186256807297,104.55810565361753 138.0777576849796,104.89874142524786 138.0777576849796,105.80710296565667 137.88245931267738,106.48837362683844 137.49186256807297,106.71546375320759 137.2965641953051,107.16964386485051 137.39421338168904,107.85091367957648 137.39421338168904,108.64572792837862 136.80831826431677,109.7811758556636 136.12477396056056,110.68953335098922 135.6365280286409,112.05206818273291 135.7341772154905,112.96042379643768 134.85533453896642,114.77713276690338 134.26943942112848,116.02611843775958 133.39059674507007,116.82092676032335 133.0,117.61573450674769 133.0,118.41054167691618 133.29294755868614,119.54597949190065 133.97649186244234,120.79495973081794 134.85533453896642,121.13559045805596 137.1012658230029,121.02204689383507 139.5424954793416,121.70330810162704 142.08137432206422,123.17937259934843 144.2296564192511,123.63354589126538 145.1084990957752,124.20126224134583 145.59674502676353,124.08771899470594" stroke="#4DD2FF" stroke-dasharray="none" stroke-linecap="round" stroke-linejoin="round" stroke-width="0.5"><title>2024-11-16 5.2km</title><desc>12913950085</desc></polyline><polyline fill="none" opacity="1" points="64.35869565233588,182.38876936677843 64.75,180.68253790505696 66.2173913042061,177.61131459474564 67.0,175.22257941646967 66.60869565187022,174.65383217984345 66.2173913042061,174.54008269729093 64.06521739112213,174.995080557419 63.478260869625956,174.8813311101403 63.08695652149618,174.54008269729093 62.89130434766412,173.40258722309954 62.40217391261831,172.83383904374205 60.05434782616794,172.15134084026795 59.271739130374044,172.26509057043586 57.41304347803816,173.0613383507589 57.41304347803816,173.40258722309954 55.84782608691603,175.79132635879796 55.74999999953434,177.49756541813258 55.84782608691603,178.06631118257064 55.065217391587794,178.6350566522451 42.64130434766412,178.06631118257064 41.76086956495419,178.18006030004472 34.130434782709926,178.293809405528 31.0,177.15631781844422 30.119565217290074,176.47382230078802 29.04347826074809,174.995080557419 27.576086956076324,174.42633320274763 26.5,174.42633320274763 26.010869565419853,174.19883417885285 25.326086956076324,173.85758555401117 24.25,172.83383904374205 23.076086956541985,173.0613383507589 22.19565217383206,172.72008937282953 22.09782608691603,173.0613383507589 21.217391304206103,172.94758870301303 19.65217391308397,172.26509057043586 19.358695652335882,171.6963418024825 19.358695652335882,171.3550924002193 18.771739130374044,171.01384289213456 17.98913043504581,170.9000930323964 17.5,171.12759274011478 16.228260869625956,171.01384289213456 15.25,170.6725932782283 14.565217391122133,170.10384368523955 14.467391304671764,170.2175936276326 13.782608695793897,172.4925899951486 13.391304347664118,174.19883417885285 13.391304347664118,175.67757699417416 13.782608695793897,176.928819359513 14.369565217290074,177.15631781844422 15.05434782570228,177.27006703033112 15.934782608412206,176.928819359513 17.01086956495419,177.04256859468296 18.771739130374044,177.7250637592515 20.23913043504581,178.86255475773942 22.880434782244265,180.11379349557683 26.89130434812978,180.341291294666 30.119565217290074,182.27502068527974 32.271739130374044,182.957512598834 33.64130434766412,183.298758396646 35.10869565187022,182.73001534107607 35.89130434766412,182.8437639757758 36.576086956541985,183.0712612096686 36.673913043458015,183.4125069718575 38.23913043458015,184.32249515340663 39.51086956495419,184.20874667179305 41.076086956541985,184.54999208077788 43.228260869160295,183.9812496737577 45.08695652149618,182.73001534107607 46.06521739112213,182.61626669485122 48.2173913042061,182.73001534107607 49.19565217383206,183.4125069718575 49.58695652196184,183.9812496737577 49.48913043504581,184.89123738370836 49.19565217383206,185.3462309561437 49.48913043504581,186.82495876494795 49.29347826074809,187.39369969966356 49.48913043504581,187.96244033996481 50.76086956495419,188.75867674173787 52.423913043458015,189.32741667551454 55.65217391261831,188.18993651366327 57.41304347803816,188.41743264032993 58.978260869160295,189.2136687124148 60.44565217383206,189.2136687124148 62.40217391261831,188.41743264032993 62.5,187.7349441194674 63.18478260887787,186.25621753570158 64.26086956541985,182.50251803710125 65.72826086962596,179.65879775572103 66.60869565187022,176.8150701127015 66.90217391261831,175.67757699417416 66.70652173925191,174.995080557419 66.2173913042061,174.65383217984345 64.06521739112213,174.76758165098727 62.10869565187022,173.0613383507589 61.032608695328236,172.72008937282953 60.25,172.72008937282953 57.51086956495419,172.94758870301303 56.630434782244265,173.51633682334796 55.74999999953434,174.8813311101403 55.55434782616794,175.79132635879796 55.55434782616794,177.7250637592515 55.16304347803816,178.293809405528 54.869565217290074,178.52130758180283 44.01086956495419,178.293809405528 38.826086956541985,178.52130758180283 34.619565217290074,178.293809405528 32.66304347803816,177.95256205345504 31.684782608412206,176.8150701127015 30.021739130374044,176.24632370041218 29.728260869625956,176.13257438270375 29.434782608877867,175.56382761721034 28.260869565419853,174.995080557419 26.989130434580147,174.995080557419 25.815217391122133,174.42633320274763 22.391304347664118,173.63008641195484 19.94565217383206,172.26509057043586 16.815217391587794,171.3550924002193 15.836956521961838,170.6725932782283 14.956521739251912,170.6725932782283 14.565217391122133,170.9000930323964 14.271739130374044,172.94758870301303 13.586956521961838,174.995080557419 13.978260869625956,176.13257438270375 14.565217391122133,176.8150701127015 16.619565217290074,177.04256859468296 19.065217391587794,178.18006030004472 20.532608695793897,178.40755849971902 21.90217391308397,179.31755082739983 23.858695652335882,179.7725467082346 24.739130434580147,179.7725467082346 26.10869565187022,180.22754240094218 27.478260869625956,180.341291294666 28.163043478038162,180.45504017651547 28.65217391261831,180.91003558645025 31.684782608412206,182.50251803710125 32.95652173925191,182.61626669485122 33.54347826074809,182.50251803710125 34.91304347803816,182.61626669485122 37.26086956495419,183.298758396646 38.434782608412206,184.20874667179305 39.90217391308397,184.89123738370836 43.228260869160295,183.86750115675386 45.576086956541985,182.73001534107607 47.826086956541985,182.8437639757758 49.48913043504581,183.298758396646 49.782608695328236,183.52625553600956 49.880434782244265,183.75375262845773 49.39130434766412,185.68747601169161 49.58695652196184,187.62119599129073 49.978260869625956,188.3036845830502 50.56521739112213,188.87242475210223 51.934782608412206,189.55491256644018 52.91304347803816,189.55491256644018 55.65217391261831,188.41743264032993 57.41304347803816,188.18993651366327 57.99999999953434,188.3036845830502 58.39130434766412,188.98617275094148 58.978260869160295,189.2136687124148 60.05434782616794,189.2136687124148 60.83695652149618,189.44116462673992 61.423913043458015,189.2136687124148 62.89130434766412,186.71121054282412 63.380434782709926,185.45997931994498 64.06521739112213,183.298758396646 64.84782608691603,181.59252834774088 65.33695652149618,179.54504879144952 66.02173913037404,178.52130758180283 67.0,174.76758165098727 66.70652173925191,174.3125836966792 66.2173913042061,174.19883417885285 64.75,174.65383217984345 64.35869565233588,174.54008269729093 63.771739130374044,174.3125836966792 63.08695652149618,173.51633682334796 61.7173913042061,172.4925899951486 59.56521739112213,172.4925899951486 58.880434782244265,172.60633969004266 56.43478260887787,173.85758555401117 56.33695652149618,174.42633320274763 55.45652173878625,175.79132635879796 55.45652173878625,177.49756541813258 55.26086956495419,178.06631118257064 54.380434782244265,178.6350566522451 49.48913043504581,178.6350566522451 46.35869565233588,178.18006030004472 45.673913043458015,178.293809405528 44.20652173925191,178.06631118257064 35.59782608691603,178.6350566522451 32.369565217290074,177.95256205345504 31.489130434580147,177.61131459474564 31.29347826074809,177.38381623011082 31.0,176.58757158310618 30.70652173925191,176.24632370041218 29.239130434580147,174.8813311101403 27.673913043458015,174.76758165098727 26.89130434812978,174.3125836966792 25.521739130839705,174.19883417885285 24.34782608691603,173.63008641195484 23.565217391587794,173.74383598892018 22.391304347664118,173.63008641195484 21.51086956495419,173.17508798639756 20.630434782244265,171.92384134500753 19.163043478038162,171.58259201340843 16.815217391587794,171.3550924002193 16.032608695328236,171.01384289213456 15.445652173832059,170.33134355803486 14.271739130374044,171.01384289213456 14.076086956541985,171.6963418024825 14.173913042992353,172.4925899951486 14.271739130374044,172.72008937282953 13.0,175.33632882870734 13.978260869625956,176.8150701127015 15.934782608412206,176.70132085355 17.108695652335882,177.15631781844422 18.478260869625956,177.7250637592515 21.80434782616794,180.0000445782207 22.391304347664118,180.0000445782207 23.760869565419853,180.68253790505696 26.10869565187022,180.5687890467234 27.869565217290074,181.47877958370373 28.75,181.47877958370373 29.336956521496177,182.27502068527974 31.489130434580147,183.18500980897807 32.95652173925191,183.18500980897807 34.52173912990838,182.8437639757758 35.40217391261831,182.8437639757758 36.77173912990838,183.298758396646 38.5326086957939,184.43624362302944 39.60869565187022,184.89123738370836 40.39130434766412,184.89123738370836 43.130434782709926,184.20874667179305 43.7173913042061,183.9812496737577 44.30434782570228,183.298758396646 45.380434782709926,182.8437639757758 46.55434782570228,182.73001534107607 48.021739130374044,182.957512598834 49.09782608691603,183.75375262845773 49.39130434766412,184.09499817865435 49.48913043504581,184.43624362302944 49.19565217383206,185.80122434021905 49.684782608412206,187.96244033996481 50.369565217290074,189.0999207375571 51.25,189.78240841068327 51.54347826028243,189.89615631476045 52.815217391587794,189.6686604943825 53.40217391308397,189.44116462673992 53.69565217383206,189.0999207375571 55.35869565187022,188.53118068620097 56.826086956076324,188.53118068620097 59.271739130374044,188.87242475210223 60.64130434766412,188.75867674173787 61.619565217290074,188.3036845830502 63.08695652149618,186.25621753570158 63.673913043458015,184.20874667179305 64.75,182.1612719919067 64.9456521733664,180.22754240094218 65.53260869532824,179.65879775572103 66.90217391261831,175.1088299928233 66.41304347803816,174.54008269729093 65.92391304345801,174.42633320274763 64.06521739112213,174.8813311101403 62.89130434766412,174.19883417885285 62.30434782616794,173.51633682334796 61.423913043458015,172.94758870301303 60.83695652149618,172.72008937282953 59.66304347803816,172.72008937282953 57.70652173925191,173.28883761062752 56.14130434766412,174.54008269729093 55.65217391261831,176.13257438270375 55.65217391261831,178.18006030004472 55.16304347803816,178.6350566522451 54.771739130374044,178.74880571104586 53.40217391308397,178.52130758180283 48.60869565233588,178.6350566522451 44.89130434766412,178.18006030004472 39.90217391308397,178.40755849971902 35.40217391261831,178.18006030004472 33.15217391308397,178.6350566522451 32.173913043458015,178.293809405528 31.489130434580147,177.61131459474564 30.90217391261831,177.27006703033112 29.728260869625956,177.15631781844422 29.239130434580147,176.928819359513" stroke="#4DD2FF" stroke-dasharray="none" stroke-linecap="round" stroke-linejoin="round" stroke-width="0.5"><title>2024-10-27 5.5km</title><desc>13388431337</desc></polyline><polyline fill="none" opacity="1" points="126.2173913042061,174.4832077261526 124.06521739112213,174.93820558628067 123.47826086962596,174.824456139002 123.08695652149618,174.4832077261526 122.79347826074809,173.34571225196123 122.40217391261831,172.77696407260373 120.05434782616794,172.09446586912964 119.27173913037404,172.20821559929755 117.41304347803816,173.00446337962057 117.41304347803816,173.34571225196123 115.84782608691603,175.73445138765965 115.74999999953434,177.44069044699427 115.84782608691603,178.00943621143233 115.0652173915878,178.5781816811068 102.64130434766412,178.00943621143233 101.76086956495419,178.1231853289064 94.13043478270993,178.2369344343897 91.0,177.0994428473059 90.11956521729007,176.4169473296497 89.04347826074809,174.93820558628067 87.57608695607632,174.36945823160931 86.5,174.36945823160931 86.01086956541985,174.14195920771454 85.32608695607632,173.80071058287285 84.25,172.77696407260373 83.07608695654199,173.00446337962057 82.19565217383206,172.66321440169122 82.09782608691603,173.00446337962057 81.2173913042061,172.8907137318747 79.65217391308397,172.20821559929755 79.35869565233588,171.63946683134418 79.35869565233588,171.29821742908098 78.77173913037404,170.95696792099625 77.98913043504581,170.84321806125809 77.5,171.07071776897646 76.22826086962596,170.95696792099625 74.46739130467176,170.16071865649428 73.7826086957939,172.43571502401028 73.39130434766412,174.14195920771454 73.39130434766412,175.62070202303585 73.7826086957939,176.8719443883747 74.36956521729007,177.0994428473059 75.05434782570228,177.2131920591928 75.9347826084122,176.8719443883747 77.10869565233588,176.98569362354465 78.77173913037404,177.78193794109393 80.23913043504581,178.8056797866011 82.88043478224427,180.05691852443852 86.89130434812978,180.2844163235277 90.11956521729007,182.21814571414143 92.27173913037404,182.9006376276957 93.64130434766412,183.2418834255077 95.10869565187022,182.67314036993776 95.89130434766412,182.7868890046375 96.57608695654199,183.01438623853028 96.67391304345801,183.3556320007192 98.23913043458015,184.26562018226832 99.51086956495419,184.15187170065474 101.07608695654199,184.49311710963957 103.2282608691603,183.9243747026194 105.08695652149618,182.67314036993776 106.06521739112213,182.5593917237129 108.2173913042061,182.67314036993776 109.19565217383206,183.3556320007192 109.58695652196184,183.9243747026194 109.48913043504581,184.83436241257004 109.19565217383206,185.2893559850054 109.48913043504581,186.76808379380964 109.29347826074809,187.33682472852524 109.48913043504581,187.9055653688265 110.76086956495419,188.70180177059956 112.42391304345801,189.27054170437623 115.65217391261831,188.13306154252496 117.41304347803816,188.36055766919162 118.9782608691603,189.1567937412765 120.44565217383206,189.1567937412765 122.40217391261831,188.36055766919162 122.5,187.6780691483291 123.18478260887787,186.19934256456327 124.26086956541985,182.44564306596294 125.72826086962596,179.6019227845827 126.60869565187022,176.7581951415632 126.90217391261831,175.62070202303585 126.70652173925191,174.93820558628067 126.2173913042061,174.59695720870513 124.06521739112213,174.71070667984895 122.10869565187022,173.00446337962057 121.03260869532824,172.66321440169122 120.25,172.66321440169122 117.51086956495419,172.8907137318747 116.63043478224427,173.45946185220964 115.74999999953434,174.824456139002 115.55434782616794,175.73445138765965 115.55434782616794,177.66818878811318 115.16304347803816,178.2369344343897 114.86956521729007,178.46443261066452 104.01086956495419,178.2369344343897 98.82608695654199,178.46443261066452 94.61956521729007,178.2369344343897 92.66304347803816,177.89568708231673 91.6847826084122,176.7581951415632 90.02173913037404,176.18944872927386 89.72826086962596,176.07569941156544 89.43478260887787,175.50695264607202 88.26086956541985,174.93820558628067 87.18478260887787,174.93820558628067 85.81521739112213,174.36945823160931 82.39130434766412,173.57321144081652 79.94565217383206,172.20821559929755 77.59782608691603,171.63946683134418 76.61956521729007,171.29821742908098 75.83695652196184,170.61571830709 74.95652173925191,170.61571830709 74.56521739112213,170.84321806125809 74.27173913037404,172.8907137318747 73.58695652196184,174.93820558628067 73.97826086962596,176.07569941156544 74.56521739112213,176.7581951415632 76.61956521729007,176.98569362354465 79.0652173915878,178.1231853289064 80.5326086957939,178.3506835285807 81.90217391308397,179.2606758562615 83.85869565233588,179.71567173709627 84.73913043458015,179.71567173709627 86.10869565187022,180.17066742980387 88.16304347803816,180.39816520537715 88.65217391261831,180.85316061531194 91.6847826084122,182.44564306596294 92.95652173925191,182.5593917237129 93.54347826074809,182.44564306596294 94.91304347803816,182.5593917237129 97.26086956495419,183.2418834255077 98.4347826084122,184.15187170065474 99.90217391308397,184.83436241257004 103.2282608691603,183.81062618561555 105.57608695654199,182.67314036993776 107.82608695654199,182.7868890046375 109.48913043504581,183.2418834255077 109.78260869532824,183.46938056487124 109.88043478224427,183.69687765731942 109.39130434766412,185.6306010405533 109.58695652196184,187.56432102015242 109.97826086962596,188.24680961191189 110.56521739112213,188.81554978096392 111.54347826028243,189.3842896556016 112.22826086962596,189.49803759530187 113.5,189.27054170437623 115.65217391261831,188.36055766919162 117.41304347803816,188.13306154252496 117.99999999953434,188.24680961191189 118.39130434766412,188.92929777980316 118.9782608691603,189.1567937412765 120.05434782616794,189.1567937412765 120.83695652149618,189.3842896556016 121.42391304345801,189.1567937412765 122.89130434766412,186.6543355716858 123.38043478270993,185.40310434880666 124.06521739112213,183.2418834255077 124.84782608691603,181.53565337660257 125.33695652149618,179.4881738203112 126.02173913037404,178.46443261066452 127.0,174.71070667984895 126.70652173925191,174.2557087255409 126.2173913042061,174.14195920771454 124.75,174.59695720870513 124.35869565233588,174.4832077261526 123.77173913037404,174.2557087255409 123.08695652149618,173.45946185220964 121.7173913042061,172.43571502401028 119.56521739112213,172.43571502401028 118.88043478224427,172.54946471890435 116.43478260887787,173.80071058287285 116.33695652149618,174.36945823160931 115.45652173878625,175.73445138765965 115.45652173878625,177.44069044699427 115.26086956495419,178.00943621143233 114.38043478224427,178.5781816811068 109.88043478224427,178.5781816811068 106.35869565233588,178.1231853289064 105.67391304345801,178.2369344343897 104.20652173925191,178.00943621143233 95.59782608691603,178.5781816811068 92.36956521729007,177.89568708231673 91.48913043458015,177.55443962360732 91.29347826074809,177.3269412589725 91.0,176.53069661196787 89.23913043458015,174.824456139002 87.67391304345801,174.71070667984895 86.89130434812978,174.2557087255409 85.5217391308397,174.14195920771454 84.34782608691603,173.57321144081652 83.5652173915878,173.68696101778187 82.39130434766412,173.57321144081652 81.51086956495419,173.11821301525924 80.63043478224427,171.86696637386922 79.94565217383206,171.63946683134418 76.8152173915878,171.29821742908098 76.03260869532824,170.95696792099625 75.44565217383206,170.27446858689655 74.27173913037404,170.95696792099625 74.07608695654199,171.63946683134418 74.17391304299235,172.43571502401028 74.27173913037404,172.66321440169122 73.0,175.27945385756902 73.97826086962596,176.7581951415632 75.9347826084122,176.64444588241167 77.10869565233588,177.0994428473059 78.47826086962596,177.66818878811318 81.80434782616794,179.94316960708238 82.39130434766412,179.94316960708238 83.76086956541985,180.62566293391865 86.10869565187022,180.51191407558508 87.86956521729007,181.4219046125654 88.75,181.4219046125654 89.33695652149618,182.21814571414143 91.48913043458015,183.12813483783975 92.95652173925191,183.12813483783975 94.52173912990838,182.7868890046375 95.40217391261831,182.7868890046375 96.77173912990838,183.2418834255077 98.5326086957939,184.37936865189113 99.60869565187022,184.83436241257004 100.39130434766412,184.83436241257004 103.13043478270993,184.15187170065474 103.7173913042061,183.9243747026194 104.30434782570228,183.2418834255077 105.38043478270993,182.7868890046375 106.55434782570228,182.67314036993776 108.02173913037404,182.9006376276957 109.39130434766412,184.03812320751604 109.48913043504581,184.37936865189113 109.19565217383206,185.74434936908074 109.6847826084122,187.9055653688265 110.36956521729007,189.0430457664188 111.25,189.72553343954496 111.54347826028243,189.83928134362213 112.8152173915878,189.61178552324418 113.40217391308397,189.3842896556016 113.69565217383206,189.0430457664188 115.35869565187022,188.47430571506266 116.82608695607632,188.47430571506266 119.27173913037404,188.81554978096392 120.64130434766412,188.70180177059956 121.61956521729007,188.24680961191189 123.08695652149618,186.19934256456327 123.67391304345801,184.15187170065474 124.75,182.10439702076837 124.9456521733664,180.17066742980387 125.53260869532824,179.6019227845827 125.92391304345801,178.00943621143233 126.70652173925191,176.07569941156544 126.90217391261831,175.051955021685 126.80434782570228,174.824456139002 126.41304347803816,174.4832077261526 125.72826086962596,174.36945823160931 124.26086956541985,174.93820558628067 122.89130434766412,174.14195920771454 122.30434782616794,173.45946185220964" stroke="#4DD2FF" stroke-dasharray="none" stroke-linecap="round" stroke-linejoin="round" stroke-width="0.5"><title>2024-10-27 5.5km</title><desc>12753632530</desc></polyline><polyline fill="none" opacity="1" points="147.87956204358488,175.1877056864323 146.5985401463695,174.50022738194093 145.90875912411138,174.50022738194093 144.23357664234936,174.1564880691003 143.74087591283023,173.81274864985608 140.88321167882532,172.66694981383625 139.30656934343278,172.32320993219037 136.44890510989353,171.06282945047133 135.4635036494583,170.9482493356336 134.87226277403533,170.37534858298022 134.1824817522429,171.06282945047133 134.1824817522429,172.0940499510616 133.59124087588862,173.46900912374258 133.1970802922733,175.3022853625007 133.1970802922733,175.9897631688509 134.1824817522429,177.36471750040073 134.7737226281315,177.36471750040073 136.744525547605,176.9063995797187 138.12408759165555,177.02097907790449 141.86861313926056,179.08340801217128 143.3467153282836,179.19798728451133 149.06204379582778,180.80209585418925 151.3284671534784,182.4062020975398 153.20072992751375,183.20825434743892 156.35401459876448,183.09367549058516 158.22627737233415,183.89572724187747 159.11313868593425,184.69777841190808 160.59124087588862,185.15609310532454 161.1824817522429,185.0415144499857 162.75912408763543,184.4686209942447 164.43430656939745,183.3228331930004 164.92700729938224,183.3228331930004 166.40510948887095,182.52078102587257 167.78467153245583,182.7499388474971 168.8686131387949,183.20825434743892 170.24817518284544,184.12488477840088 169.75547445286065,184.81235710298643 169.65693430695683,185.3852503808448 169.75547445286065,185.95814336184412 169.16423357697204,186.645614547655 169.16423357697204,186.98934998025652 169.85401459876448,188.36429064359982 170.14963503647596,188.70802554220427 171.33211678871885,189.39549501938745 172.51459854003042,189.6246514171362 175.0766423358582,188.93718208209611 177.14598540170118,188.5934472543886 179.60948905115947,189.0517603341723 180.98905109474435,189.6246514171362 181.77737226290628,189.39549501938745 182.3686131387949,189.0517603341723 182.5656934310682,188.70802554220427 183.05839416058734,186.87477151467465 183.74817518237978,184.81235710298643 184.43795620417222,183.43741202633828 184.930656934157,181.14583310170565 186.21167883230373,178.3959321276052 186.9014598536305,175.41686502681114 186.9014598536305,174.50022738194093 186.31021897820756,174.04190827463754 184.63503649644554,174.50022738194093 183.4525547446683,173.2398493803339 182.7627737224102,172.66694981383625 179.2153284670785,171.86488992290106 178.1313868612051,172.20862994762138 177.93430656939745,172.66694981383625 177.0474452553317,173.6981688195374 176.45620437944308,174.72938686434645 176.06204379582778,176.33350191207137 176.1605839417316,178.05219402513467 175.86496350355446,178.28135277202819 174.78102189814672,178.51051147154067 173.00729927048087,178.28135277202819 167.09489051112905,178.28135277202819 165.61678832117468,178.05219402513467 162.75912408763543,178.3959321276052 159.6058394163847,178.16677340469323 154.97445255471393,178.3959321276052 153.00364963524044,177.70845581649337 152.313868613448,177.02097907790449 150.63868613168597,176.67724054818973 150.244525547605,176.21892234298866 149.45620437990874,176.10434276179876 149.06204379582778,175.87518356414512 148.66788321128115,175.3022853625007 147.09124087588862,174.61480712913908 142.85401459876448,173.58358897757716 142.45985401468351,173.12526949099265 141.57299270108342,172.89610967598855 140.7846715329215,171.86488992290106 137.2372262775898,171.17740955378395 135.7591240881011,171.40656972420402 134.47810218995437,170.8336692089215 133.78832116769627,171.40656972420402 133.78832116769627,173.35442925791722 133.1970802922733,174.3856476226356 133.0,175.53144467878155 133.39416058454663,176.21892234298866 134.1824817522429,177.02097907790449 134.7737226281315,177.13555856386665 135.4635036494583,176.9063995797187 136.54744525579736,176.79182006965857 138.02554744575173,177.02097907790449 138.91240875935182,177.36471750040073 140.09489051112905,178.28135277202819 141.17883211700246,178.73967012309004 144.33211678871885,180.00004185992293 147.48540145996958,180.11462103761733 149.25912408763543,180.6875167475082 151.13138686167076,181.83330727752764 152.41240875935182,182.4062020975398 155.95985401468351,182.7499388474971 157.83211678871885,183.66656965774018 158.9160583941266,184.4686209942447 159.90145985409617,184.92693578230683 161.47810218995437,184.92693578230683 162.75912408763543,184.35404226742685 164.6313868612051,183.09367549058516 165.91240875935182,182.6353599425638 166.99635036475956,182.4062020975398 168.08029197063297,182.6353599425638 169.45985401468351,183.43741202633828 169.75547445286065,184.12488477840088 169.3613138687797,185.15609310532454 169.45985401468351,186.87477151467465 169.9525547446683,188.02055563777685 170.64233576646075,188.5934472543886 171.62773722643033,188.93718208209611 173.00729927048087,189.0517603341723 174.48540145996958,188.70802554220427 176.35766423353925,188.5934472543886 177.83576642349362,188.70802554220427 180.59489051112905,189.39549501938745 181.48175182472914,189.1663385744905 182.1715328465216,188.822603818262 182.5656934310682,188.13513398496434 182.66423357650638,187.33308530633803 183.255474452395,186.07272192265373 184.3394160582684,182.7499388474971 185.52189781004563,180.11462103761733 185.62043795641512,179.31256654532626 186.60583941591904,177.02097907790449 187.0,175.53144467878155 186.80291970819235,174.72938686434645 186.50729927048087,174.27106785192154 186.11313868593425,174.1564880691003 184.63503649644554,174.72938686434645 184.3394160582684,174.72938686434645 182.5656934310682,172.7815297509078 181.48175182472914,172.43778990465216 179.11678832117468,172.0940499510616 178.62408759165555,172.20862994762138 178.1313868612051,172.55236986512318 178.03284671530128,172.89610967598855 177.244525547605,173.58358897757716 176.45620437944308,174.72938686434645 176.1605839417316,176.21892234298866 176.1605839417316,178.16677340469323 176.06204379582778,178.51051147154067 175.569343065843,178.85424943140242 173.9927007299848,178.51051147154067 168.96715328469872,178.28135277202819 158.62043795641512,178.3959321276052 157.24087591283023,178.62509080325253 156.35401459876448,178.51051147154067 155.27007299289107,178.05219402513467 155.1715328465216,177.36471750040073 153.7919708029367,176.21892234298866 152.41240875935182,175.87518356414512 151.62408759165555,176.10434276179876 150.244525547605,175.87518356414512 149.35766423353925,174.84396658744663 149.35766423353925,174.50022738194093 148.96350364992395,174.27106785192154 147.1897810222581,174.1564880691003 146.20437956228852,173.46900912374258 143.3467153282836,173.81274864985608 141.77007299289107,173.58358897757716 139.79927007341757,172.66694981383625 136.1532846717164,171.40656972420402 135.36496350402012,170.9482493356336 135.56204379582778,170.8336692089215 135.36496350402012,170.48992875707336 134.67518248176202,171.17740955378395 134.5766423358582,172.20862994762138 133.98540146043524,173.9273284683004 133.59124087588862,174.50022738194093 133.39416058454663,176.21892234298866 133.78832116769627,176.9063995797187 134.37956204405054,177.47929695085622 137.72992700710893,176.9063995797187 137.9270072998479,177.13555856386665 139.70072992751375,177.59387638955377 141.47445255471393,179.08340801217128 142.16423357697204,179.4271457939176" stroke="#4DD2FF" stroke-dasharray="none" stroke-linecap="round" stroke-linejoin="round" stroke-width="0.5"><title>2024-10-13 5.5km</title><desc>12641545700</desc></polyline><polyline fill="none" opacity="1" points="67.0,237.73143587540835 66.37062937067822,238.3168860914884 58.188811189029366,237.43871067720465 52.52447552466765,237.43871067720465 50.25874125864357,237.14598541718442 43.713286713697016,237.14598541718442 38.93006992992014,237.8777984523913 37.92307692253962,237.5850732838735 37.67132867127657,237.14598541718442 36.286713286768645,236.99962276499718 35.40559440525249,236.41417200409342 34.90209790226072,235.82872099999804 34.7762237759307,235.2432697538752 35.027972027659416,234.65781826514285 34.7762237759307,234.07236653380096 33.76923076901585,233.34055152884685 32.762237762100995,233.047825420741 31.503496502991766,233.77964057726786 29.237762237433344,233.48691456043161 28.356643356382847,232.75509925198276 24.454545454587787,231.4378307426814 23.447552447672933,230.85237767721992 22.944055943749845,230.12056100496557 21.307692307047546,228.94965354143642 19.92307692253962,229.09601702715736 16.77622377546504,228.5105629924219 16.020979020744562,228.21783588337712 15.769230769015849,227.92510871426202 15.895104894880205,227.6323814848438 15.265734265558422,228.21783588337712 13.629370628856122,231.87692038167734 13.0,233.77964057726786 13.37762237759307,235.82872099999804 14.006993006449193,236.56053471704945 17.15384615305811,236.41417200409342 18.41258741216734,236.70689741463866 19.293706293217838,237.14598541718442 19.671328670810908,237.5850732838735 21.68531468557194,238.17052356002387 23.321678321342915,239.48778579488862 25.335664335638285,240.36595993617084 30.49650349607691,241.09777130372822 38.04895104886964,244.0250129842898 39.30769230751321,243.8786510443315 39.18181818164885,243.43956513295416 41.19580419547856,243.7322890892392 45.601398601196706,246.5131636466831 46.60839160811156,246.95224860310555 47.993006992619485,246.95224860310555 49.75524475518614,246.36680196411908 51.89510489534587,244.75682245753706 54.66433566482738,243.43956513295416 58.566433566622436,244.17137490969617 59.32167832180858,245.48863155161962 58.566433566622436,247.53769499901682 58.69230769248679,249.73311682522763 58.944055944215506,250.46492334268987 59.82517482480034,251.3430906633148 60.7062937063165,252.074896347709 61.4615384619683,252.22125743888319 63.85314685339108,252.3676185151562" stroke="#4DD2FF" stroke-dasharray="none" stroke-linecap="round" stroke-linejoin="round" stroke-width="0.5"><title>2024-09-09 5.2km</title><desc>12366514575</desc></polyline><polyline fill="none" opacity="1" points="127.0,231.26192881108727 125.06759443320334,230.88743638677988 124.20874751498923,231.01226720761042 121.84691848931834,231.76125186274294 121.3101391652599,232.1357440155698 120.88071570592001,233.3840503519168 120.7733598407358,234.75718582887203 120.55864811129868,235.50616815662943 118.94831013958901,238.37726277008187 118.4115308150649,238.75175286759622 117.5526838968508,238.50209281546995 116.37176938401535,237.8779424589593 115.19085487117991,237.6282822258072 113.36580516956747,236.87930121610407 108.42743538832292,236.00548945029732 104.77733598416671,236.50481053697877 100.59045725641772,236.25515001954045 98.65805169008672,236.37998028460424 93.82703777356073,237.3786219409667 92.75347912544385,237.1289616044378 88.99602385703474,234.88201624923386 86.84890656080097,232.75989734509494 85.23856858862564,232.510236052447 83.19880715711042,232.75989734509494 82.33996023889631,232.510236052447 81.37375745549798,231.6364211193286 81.37375745549798,230.38811297318898 81.91053677955642,230.1384511886863 81.69582504965365,230.01362027740106 78.90457256464288,229.3894655253971 76.22067594435066,229.51429650187492 75.46918489038944,228.76531045068987 74.28827037801966,229.8887893530773 74.07355864811689,230.63777470577043 74.28827037801966,231.01226720761042 74.07355864811689,231.38675959350076 73.85884691914544,233.00955858663656 73.85884691914544,234.3826944900211 73.0,236.1303197412053 73.0,236.6296407765476 74.39562624273822,237.1289616044378 75.68389662075788,236.87930121610407 77.18687872774899,237.00413141702302 80.08548707794398,238.50209281546995 81.69582504965365,239.87522246222943 83.73558648116887,240.74903142324183 87.06361829023808,240.99869100993965 89.31809145119041,243.24562496424187 90.06958250561729,243.24562496424187 91.03578528901562,242.87113626254722 92.75347912544385,242.99596584250685 94.1491053677164,243.49528403347358 97.9065606361255,243.37045450520236 100.69781312160194,243.86977254133672 102.84493041783571,244.86840799299534 106.06560636218637,243.99460201815236 107.56858846917748,242.87113626254722 109.71570576587692,242.24698816798627 111.54075546795502,243.24562496424187 112.0775347915478,243.7449430519482 112.18489065626636,245.11806672636885 112.18489065626636,247.86430938413832 112.72166998079047,249.61191509035416 114.54671968240291,250.73537456360646 114.86878727655858,251.23468954931013 115.2982107354328,251.23468954931013 115.83499005995691,251.10986082197633 116.37176938401535,250.6105457849335 118.62624254496768,249.48708619514946" stroke="#4DD2FF" stroke-dasharray="none" stroke-linecap="round" stroke-linejoin="round" stroke-width="0.5"><title>2024-09-08 5.3km</title><desc>12358368474</desc></polyline></svg>