<?xml version="1.0" encoding="utf-8" ?>
<svg baseProfile="full" height="300mm" version="1.1" viewBox="0,0,200,300" width="200mm" xmlns="http://www.w3.org/2000/svg" xmlns:ev="http://www.w3.org/2001/xml-events" xmlns:xlink="http://www.w3.org/1999/xlink"><defs /><rect fill="#222222" height="300" width="200" x="0" y="0" /><text fill="#FFFFFF" style="font-size:12px; font-family:Arial; font-weight:bold;" x="10" y="20">Over 5km Runs</text><text fill="#FFFFFF" style="font-size:4px; font-family:Arial" x="10" y="280">Runner</text><text fill="#FFFFFF" style="font-size:9px; font-family:Arial" x="10" y="290">Mr. Error 追</text><text fill="#FFFFFF" style="font-size:4px; font-family:Arial" x="65" y="280">SPECIAL TRACKS</text><rect fill="yellow" height="2.6" width="2.6" x="65" y="283" /><text fill="#FFFFFF" style="font-size:3px; font-family:Arial" x="70" y="285.5">Over 20.0 km</text><rect fill="red" height="2.6" width="2.6" x="65" y="287" /><text fill="#FFFFFF" style="font-size:3px; font-family:Arial" x="70" y="289.5">Over 40.0 km</text><text fill="#FFFFFF" style="font-size:4px; font-family:Arial" x="120" y="280">STATISTICS</text><text fill="#FFFFFF" style="font-size:3px; font-family:Arial" x="120" y="285">Number: 10</text><text fill="#FFFFFF" style="font-size:3px; font-family:Arial" x="120" y="290">Weekly: 1.1</text><text fill="#FFFFFF" style="font-size:3px; font-family:Arial" x="141" y="285">Total: 52.8 km</text><text fill="#FFFFFF" style="font-size:3px; font-family:Arial" x="141" y="290">Avg: 5.3 km</text><text fill="#FFFFFF" style="font-size:3px; font-family:Arial" x="167" y="285">Min: 5.0 km</text><text fill="#FFFFFF" style="font-size:3px; font-family:Arial" x="167" y="290">Max: 5.5 km</text><polyline fill="none" points="39.010989010799676,63.564995843567885 38.813186812680215,63.794992785085924 39.8021978023462,64.36998493003193 40.98901098873466,64.25498652504757 42.67032966995612,63.909991237916984 45.83516483474523,62.07001456327271 47.417582417838275,62.07001456327271 48.50549450563267,62.300011814339086 49.0,62.415010422235355 49.49450549436733,62.760006173863076 49.59340659342706,63.33499885443598 49.1978021976538,64.82997843180783 49.1978021976538,66.32495599670801 49.59340659342706,67.2449411903508 50.384615384507924,68.049927609507 51.57142857136205,68.50991958705708 52.46153846150264,68.50991958705708 55.03296703286469,68.049927609507 57.50549450563267,67.81993154925294 58.59340659342706,68.049927609507 60.57142857136205,68.85491344495676 61.36263736244291,68.85491344495676 62.0549450549297,68.50991958705708 62.450549450237304,67.93492958508432 62.450549450237304,66.78494868858252 63.73626373615116,63.67999432014767 64.52747252723202,61.035026344121434 65.02197802159935,60.345033662510104 65.02197802159935,59.655040551908314 66.70329670282081,55.63007219519932 66.8021978023462,54.59507797413971 66.50549450563267,54.250079686404206 66.01098901126534,54.135080233216286 64.42857142863795,54.480078556691296 62.450549450237304,52.52508663816843 61.56043956056237,52.06508803984616 60.17582417558879,51.835088668973185 57.60439560422674,52.64008625829592 56.71428571455181,53.44508326391224 56.219780219718814,54.250079686404206 56.021978022065014,54.94007615512237 56.021978022065014,55.975070054642856 56.219780219718814,57.47005953988992 56.120879121124744,57.815056827501394 55.62637362629175,58.045054959715344 51.17582417558879,57.930055899429135 46.52747252723202,58.045054959715344 44.252747252583504,57.815056827501394 38.912087911739945,58.045054959715344 37.42857142817229,57.930055899429135 34.75824175775051,58.045054959715344 32.780219779815525,57.70005774323363 18.142857142258435,52.18008770712186 15.472527472302318,51.37508978450205 14.582417581696063,51.26009003375657 14.087912087794393,51.835088668973185 13.09890109859407,54.71007737983018 13.197802197188139,55.40007356274873 13.49450549390167,55.63007219519932 13.69230769155547,56.43506703339517 13.989010988734663,56.6650654518744 14.978021977934986,56.6650654518744 16.16483516432345,56.32006780663505 16.46153846103698,56.090069317026064 18.439560438971967,56.32006780663505 19.42857142817229,56.6650654518744 21.010989010799676,57.930055899429135 23.483516483567655,58.85004804749042 27.340659340377897,59.54004165844526 30.50549450563267,60.69003005698323 33.27472527464852,61.95501592021901 34.26373626338318,62.185013194568455 35.450549450237304,62.185013194568455 36.43956043897197,62.300011814339086 37.92307692300528,62.875004733446985 39.40659340610728,63.794992785085924 40.3956043953076,64.13998810795601 42.37362637370825,63.794992785085924 44.747252746950835,62.415010422235355 46.23076923051849,61.95501592021901 48.70329670282081,62.300011814339086 49.1978021976538,62.5300090177916 49.59340659342706,62.875004733446985 49.69230769202113,63.44999735511374 49.29670329671353,64.59998170472682 49.1978021976538,66.2099577941699 50.08791208779439,67.47493736934848 50.879120878409594,68.16492562158965 51.86813186807558,68.50991958705708 53.450549450702965,68.50991958705708 55.23076923051849,67.93492958508432 56.71428571455181,67.81993154925294 60.96703296713531,68.73991550412029 61.95604395586997,68.50991958705708 62.450549450237304,67.70493350108154 62.450549450237304,67.01494496339001 63.043956043664366,65.86496311414521 63.93406593380496,63.67999432014767 64.13186813192442,62.5300090177916 65.21978021971881,58.965047012548894 66.30769230797887,56.55006624863017 66.90109890094027,54.71007737983018 66.70329670282081,54.135080233216286 66.30769230797887,53.905081290984526 64.92307692347094,54.480078556691296 64.32967033004388,54.250079686404206 62.549450549297035,52.295087362639606 61.36263736244291,51.835088668973185 60.47252747230232,51.72008896560874 59.879120878875256,52.295087362639606 59.285714285913855,52.52508663816843 58.59340659342706,52.41008700651582 57.50549450563267,52.985085046384484 57.40659340610728,53.560082788812 56.71428571455181,54.250079686404206 56.417582417838275,54.94007615512237 56.120879121124744,55.975070054642856 56.31868131831288,56.895063822041266 56.219780219718814,57.47005953988992 55.72527472488582,57.815056827501394 53.846153846010566,58.045054959715344 50.186813186854124,57.930055899429135 41.384615384507924,58.27505304443184 37.92307692300528,58.045054959715344 36.043956043664366,58.27505304443184 34.85714285681024,58.27505304443184 33.67032966995612,58.045054959715344 30.901098900474608,57.010062989545986 29.714285714086145,56.78006464289501 27.142857142258435,55.51507288496941 25.16483516478911,55.055075525073335 17.252747252117842,52.06508803984616 15.175824175588787,51.49008952337317 14.384615384507924,51.49008952337317 14.186813186388463,51.60508925060276 13.49450549390167,54.02008076780476 13.49450549390167,54.59507797413971 13.69230769155547,55.63007219519932 14.483516483101994,56.6650654518744 15.670329669490457,56.43506703339517 16.06593406572938,55.975070054642856 18.043956043664366,56.20506856800057 19.13186813145876,56.55006624863017 20.021978021599352,57.47005953988992 21.406593406107277,58.27505304443184 25.857142856810242,59.31004383577965 28.32967032911256,60.80502883112058 30.109890109393746,60.92002759373281 33.076923076529056,61.95501592021901 36.3406593403779,62.185013194568455 39.8021978023462,63.564995843567885 41.58241758169606,63.564995843567885 42.47252747230232,63.105001817806624 43.75824175821617,62.875004733446985 44.9450549450703,62.300011814339086 46.23076923051849,61.84001726459246 47.516483515966684,61.95501592021901 48.8021978023462,62.300011814339086 49.39560439577326,62.5300090177916 49.7912087906152,62.99000328173861 49.1978021976538,65.63496660150122 49.59340659342706,67.01494496339001 50.483516483567655,67.93492958508432 52.75824175821617,68.62491755152587 54.93406593380496,68.049927609507 56.219780219718814,68.049927609507 60.47252747230232,68.85491344495676 61.75824175821617,68.73991550412029 62.252747252583504,68.39492161024828 62.549450549297035,67.93492958508432 64.32967033004388,61.61001991853118 65.81318681314588,57.47005953988992 66.8021978023462,55.63007219519932 67.0,54.82507677329704 66.90109890094027,54.480078556691296 66.40659340610728,54.02008076780476 65.02197802159935,54.36507912760135 64.72527472488582,54.250079686404206 64.03296703286469,53.79008180194069 62.846153846010566,52.295087362639606 61.56043956056237,51.835088668973185 60.47252747230232,51.60508925060276 59.582417582161725,52.06508803984616 58.09890109905973,52.41008700651582 57.40659340610728,52.64008625829592 56.615384615026414,53.905081290984526 56.615384615026414,54.59507797413971 56.31868131831288,55.2850742287701 56.417582417838275,56.43506703339517 56.219780219718814,57.24006128846668 56.021978022065014,57.58505864767358 55.62637362629175,57.815056827501394 54.83516483521089,57.815056827501394 54.3406593403779,58.045054959715344 53.747252746950835,58.045054959715344 52.36263736244291,57.815056827501394 49.59340659342706,58.160054008243605 47.516483515966684,57.930055899429135 44.35164835117757,58.160054008243605 43.06593406572938,58.045054959715344 37.72527472488582,58.045054959715344 34.75824175775051,58.27505304443184 32.780219779815525,58.045054959715344 30.109890109393746,56.78006464289501 14.978021977934986,51.60508925060276 14.483516483101994,51.60508925060276 14.186813186388463,51.835088668973185 13.39560439484194,53.10008461878169 13.296703296713531,54.135080233216286 13.39560439484194,54.94007615512237 13.989010988734663,56.090069317026064 14.384615384507924,56.32006780663505 15.274725274648517,56.43506703339517 16.36263736244291,55.975070054642856 17.747252746950835,56.20506856800057 21.703296702820808,58.50505108141806 28.13186813145876,59.77003943338059 32.58241758169606,61.95501592021901 35.450549450237304,62.185013194568455 37.03296703286469,62.415010422235355 38.12087912065908,63.105001817806624 39.109890109393746,64.02498967875727 39.60439560422674,64.25498652504757 40.89010989014059,64.36998493003193 41.681318681221455,64.13998810795601 43.26373626338318,63.33499885443598 44.35164835117757,62.5300090177916 45.43956043943763,62.07001456327271 47.219780219718814,61.95501592021901 48.50549450563267,62.07001456327271 49.1978021976538,62.300011814339086 49.69230769202113,62.760006173863076 49.7912087906152,63.33499885443598 49.39560439577326,64.36998493003193 49.29670329671353,65.63496660150122 50.186813186854124,67.58993544103578 50.978021977934986,68.50991958705708 52.65934065915644,68.73991550412029 56.813186812680215,68.39492161024828 61.06593406572938,69.08490929065738 61.95604395586997,68.73991550412029 62.450549450237304,68.16492562158965 64.13186813192442,62.185013194568455 65.81318681314588,58.3900520686293 66.90109890094027,55.055075525073335 66.70329670282081,54.250079686404206 66.50549450563267,54.135080233216286 65.02197802159935,54.480078556691296 64.52747252723202,54.480078556691296 63.1428571427241,52.75508586643264 61.65934065915644,52.06508803984616 59.978021977934986,51.950088360579684 58.1978021976538,52.52508663816843 57.20879120891914,53.33008372725453 56.615384615026414,54.02008076780476 56.31868131831288,55.2850742287701 56.417582417838275,57.58505864767358 55.92307692300528,58.045054959715344 50.879120878409594,58.160054008243605 48.30769230797887,57.930055899429135 39.30769230751321,58.27505304443184 37.72527472488582,58.045054959715344 35.15384615352377,58.045054959715344 34.56043956009671,58.160054008243605 32.780219779815525,57.815056827501394 28.626373626291752,56.43506703339517 26.252747252583504,55.40007356274873 23.384615384507924,54.480078556691296 21.901098900474608,53.675082301255316 17.747252746950835,52.64008625829592 15.571428570896387,51.72008896560874 14.780219779815525,51.030090496176854 14.186813186388463,50.91509070945904 13.989010988734663,51.030090496176854 13.39560439484194,53.44508326391224 13.49450549390167,54.135080233216286 13.0,54.94007615512237 13.39560439484194,55.745071493671276 14.186813186388463,56.55006624863017 16.65934065915644,57.1250621448271 18.83516483474523,58.3900520686293 21.406593406107277,59.19504490646068" stroke="#4DD2FF" stroke-linecap="round" stroke-linejoin="round" stroke-width="0.5"><title>2025-05-18 5.0km</title><desc>14514095793</desc></polyline><polyline fill="none" points="116.25966850901023,63.642612514435314 116.7569060777314,61.79245815251488 117.45303867431358,60.52047525101807 118.04972375743091,59.826665784581564 119.04419889533892,59.71103083190974 119.6408839779906,59.47976088966243 119.54143646452576,59.13285588717554 118.64640884008259,57.74523479945492 118.54696132615209,56.93578836857341 118.04972375743091,56.35761198680848 117.25414364691824,56.01070601446554 115.56353591196239,55.6637999342056 113.77348066307604,54.85435199411586 109.198895027861,53.351089978124946 103.92817679606378,51.26964692212641 101.44198895059526,50.69146760669537 100.54696132615209,50.113287992193364 99.15469613252208,49.650744085083716 98.65745856333524,49.53510807827115 96.66850828705356,48.841291786171496 92.29281767969951,47.91620272642467 89.20994475157931,46.75984032393899 87.9171270718798,46.528567699482664 87.32044198876247,45.95038592966739 86.92265193397179,45.719113137573004 81.15469613252208,43.75329247233458 79.86187845328823,44.44711192592513 79.26519337017089,45.14093094796408 78.86740331491455,45.95038592966739 78.46961325965822,47.80056653986685 77.37569060735404,49.99765203346033 76.87845303863287,51.38528274919372 76.77900552470237,52.19473320362158 74.59116022102535,58.20777535357047 73.89502762397751,59.71103083190974 73.19889502739534,61.79245815251488 73.2983425417915,62.83317035832442 73.79558011051267,63.52697795641143 74.39226519363001,63.642612514435314 75.9834254141897,63.064439605455846 78.07182320440188,63.18007421132643 79.86187845328823,64.33641960972454 81.75138121563941,64.91459185956046 83.3425414361991,65.83966683712788 87.41988950269297,66.30220403859857 88.81215469632298,66.99600948137231 91.19889502739534,67.68981449306011 93.18784530367702,69.0774232231779 94.1823204420507,69.19305720599368 95.2762430938892,68.96178922848776 95.77348066307604,68.96178922848776 97.06629834277555,69.53995908342768 97.86187845328823,70.11812863929663 98.65745856333524,70.11812863929663 100.14917127089575,70.81193171138875 101.44198895059526,70.69629789586179 102.33701657457277,70.46503022930119 102.83425414375961,70.11812863929663 103.53038674034178,70.23376251477748 104.52486187871546,69.88686085282825 105.32044198922813,69.0774232231779 105.71823204448447,68.84615522110835 109.0994475139305,69.30869117716793 109.69613259704784,69.88686085282825 109.79558011051267,70.3493963778019 109.59668508311734,72.77770474087447 109.69613259704784,73.47150616056751 110.79005524888635,74.74347430979833 111.68508287286386,75.20600782323163 114.46961326012388,75.09037446300499 116.85635359119624,74.74347430979833 119.34254143666476,74.97474109043833 120.43646408850327,74.74347430979833 122.02762430999428,73.9340402004309 123.51933701708913,72.19953656184953 123.9171270718798,71.0431993061211 124.51381215499714,68.96178922848776 126.30386740388349,64.22078512364533 127.0,62.25499703036621 127.0,61.79245815251488 126.80110497260466,61.32991908339318 126.30386740388349,61.09864947688766 125.80662983469665,60.9830146554159 124.71270718285814,61.44555386854336 124.41436464106664,61.32991908339318 123.61878453055397,60.173570571583696 122.8232044200413,59.59539586666506 121.33149171294644,58.90158582595177 120.33701657503843,58.90158582595177 119.14364640926942,59.36412590078544 117.85082872956991,59.47976088966243 117.05524861859158,60.05793565453496 116.35911602247506,61.44555386854336 116.06077348114923,62.48626639752183 116.16022099461406,64.45205408358015 115.86187845328823,64.91459185956046 115.06629834277555,65.030226273695 100.44751381222159,65.030226273695 94.77900552516803,65.1458606760716 92.98895027628168,64.79895743355155 91.49723756918684,64.10515062557533 88.91160220978782,63.411343386396766 88.0165745858103,62.94880498794373 86.22651933692396,62.48626639752183 82.34806629829109,60.9830146554159 81.35359115991741,60.75174497696571 75.08839778974652,58.32341046212241 74.39226519363001,58.439045558683574 73.99447513837367,58.6703157160664 73.79558011051267,59.71103083190974 73.0,61.67682340333704 73.59668508311734,62.94880498794373 73.99447513837367,63.411343386396766 74.88950276235119,63.52697795641143 74.98895027628168,63.295708804856986 76.3812154699117,63.064439605455846 78.76795580098405,63.411343386396766 79.56353591149673,63.98951611586381 80.06077348068357,64.45205408358015 81.35359115991741,65.1458606760716 83.54143646452576,65.7240325070452 86.22651933692396,66.07093546178658 89.20994475157931,67.11164367990568 92.59116022149101,69.0774232231779 96.56906077358872,69.19305720599368 98.06077348068357,70.00249475229066 99.45303867431358,71.15883308567572 100.54696132615209,71.39010060857981 101.14364640880376,71.39010060857981 102.73480663029477,70.69629789586179 103.72928176820278,70.11812863929663 105.22099447529763,68.96178922848776 106.71270718239248,68.73052120232023 108.50276243127882,69.0774232231779 109.0994475139305,69.30869117716793 109.79558011051267,70.00249475229066 109.397790055722,71.96826920669992 109.49723756918684,72.5464375052834 110.19337016623467,74.16530714882538 111.08839778974652,75.20600782323163 112.08287292858586,75.4372745079454 115.06629834277555,74.97474109043833 117.75138121563941,74.85910770623013 120.0386740337126,75.66854114504531 121.2320441994816,75.78417444543447 121.92817679559812,75.55290783266537 122.42541436478496,75.20600782323163 125.01104972371832,66.99600948137231 126.00552486255765,64.91459185956046 125.90607734816149,64.68332299531903 127.0,61.79245815251488 126.90055248700082,61.21428428613581 126.30386740388349,60.86737982230261 124.71270718285814,61.32991908339318 123.51933701708913,59.94230072549544 122.92265193443745,59.47976088966243 122.02762430999428,59.01722086255904 120.33701657503843,58.78595077700447 118.24861878482625,59.59539586666506 117.75138121563941,59.94230072549544 116.9558011055924,60.86737982230261 116.35911602247506,62.370631719822995 116.35911602247506,63.18007421132643 116.6574585638009,63.642612514435314 116.6574585638009,63.98951611586381 116.45856353640556,64.68332299531903 115.96132596675307,65.030226273695 114.27071823226288,64.79895743355155 109.00000000046566,65.030226273695 105.41988950315863,65.26149506599177 99.05524861905724,65.26149506599177 94.77900552516803,65.60839816462249 88.71270718239248,63.295708804856986 86.92265193397179,62.370631719822995 86.02762430952862,62.25499703036621 82.34806629829109,60.75174497696571 80.4585635359399,60.28920547652524 78.76795580098405,59.59539586666506 75.48618784546852,58.439045558683574 74.49171270709485,58.554680643603206 73.99447513837367,59.13285588717554 73.2983425417915,60.404840369708836 73.19889502739534,61.561188641702756 73.2983425417915,62.13936232891865 73.59668508311734,62.48626639752183 73.79558011051267,63.295708804856986 74.19337016576901,63.52697795641143 74.88950276235119,63.642612514435314 75.68508287286386,63.18007421132643 76.1823204420507,63.064439605455846 78.76795580098405,63.411343386396766 80.16022099461406,64.5676885455614 81.55248618824407,65.1458606760716 83.3425414361991,65.7240325070452 84.93370165769011,65.83966683712788 88.21546961320564,66.4178383089602 92.29281767969951,68.61488717154134 94.0828729281202,69.0774232231779 95.87292817700654,68.96178922848776 97.36464088410139,69.42432513658423 99.05524861905724,70.92756551480852 100.54696132615209,71.39010060857981 101.24309392273426,71.39010060857981 103.03314917162061,70.23376251477748 104.8232044200413,69.42432513658423 106.81215469678864,68.84615522110835 107.90607734862715,68.84615522110835 110.39226519363001,69.77122694207355 112.08287292858586,69.77122694207355 113.97237569047138,70.11812863929663 114.56906077358872,70.11812863929663 115.86187845328823,69.42432513658423 117.65193370170891,68.84615522110835 118.04972375743091,68.96178922848776 118.94475138187408,69.42432513658423 119.6408839779906,69.42432513658423 121.1325966855511,68.84615522110835 122.52486187871546,67.92108273447957 123.81767955841497,67.45854620391037 124.3149171276018,67.57418035436422 124.41436464106664,68.15235092805233 122.7237569061108,74.85910770623013 122.32596685132012,75.4372745079454 121.33149171294644,76.24670752766542" stroke="#4DD2FF" stroke-linecap="round" stroke-linejoin="round" stroke-width="0.5"><title>2025-05-10 5.0km</title><desc>14430932480</desc></polyline><polyline fill="none" points="159.40875912411138,65.04152123699896 160.0,65.38525763060898 161.7737226272002,65.04152123699896 162.95620437944308,64.58320587943308 164.63138686073944,63.32283766637556 165.7153284670785,62.864521596580744 168.08029197063297,62.979100632015616 169.16423357650638,63.32283766637556 169.45985401421785,63.66657459398266 169.65693430649117,64.35404812905472 169.36131386831403,65.61441516724881 169.26277372287586,66.7602021379862 169.65693430649117,67.90598792210221 170.93795620463789,68.93719411350321 172.02189781004563,69.28092929685954 173.69708029180765,69.28092929685954 174.97810218995437,68.93719411350321 176.75182481715456,68.82261569518596 180.39781021885574,69.62466437392868 181.48175182472914,69.51008602662478 182.2700729924254,68.93719411350321 182.46715328469872,67.67683085997123 184.43795620463789,62.63536349055357 184.5364963505417,61.94788888795301 185.0291970805265,60.9166761826491 185.0291970805265,60.00004186038859 186.3102189777419,56.90639541554265 187.0,55.87517801148351 186.70437956228852,55.302279038587585 186.21167883230373,54.95853951247409 185.62043795594946,54.95853951247409 184.5364963505417,55.302279038587585 182.8613138687797,53.698160336352885 180.69343065656722,52.666939942515455 180.2007299270481,52.666939942515455 179.01824817527086,53.01068018050864 177.73722627712414,53.125260236207396 176.9489051089622,53.812740320921876 176.1605839417316,55.41685885703191 176.1605839417316,58.16677093692124 176.06204379536211,58.39592996845022 175.56934306537732,58.62508895259816 172.51459854003042,58.62508895259816 167.48905109474435,58.854247889248654 166.7007299270481,58.73966842668597 162.4635036494583,59.08340677828528 155.1715328465216,58.854247889248654 149.94890510942787,57.82303230080288 144.7262773718685,55.98975777067244 142.85401459829882,55.646018457831815 142.0656934301369,55.187699208268896 138.91240875888616,54.385640064720064 138.22262773662806,53.698160336352885 135.56204379536211,52.552359839202836 134.67518248176202,51.40655815589707 134.18248175131157,51.17739767674357 133.98540145950392,51.40655815589707 133.49270072951913,54.27106013975572 133.0,55.646018457831815 133.09854014590383,55.98975777067244 133.49270072951913,56.333496976294555 133.59124087588862,56.79181575123221 133.98540145950392,57.13555470784195 134.37956204358488,57.250134336180054 136.74452554713935,56.79181575123221 137.63138686073944,56.90639541554265 138.7153284670785,57.250134336180054 140.58759124064818,58.73966842668597 141.86861313832924,59.42714502301533 146.20437956182286,60.00004186038859 147.5839416058734,60.80209693405777 148.76642335765064,61.14583464479074 150.54014598531649,61.37499305931851 151.72262773709372,62.062468017917126 153.5948905106634,62.749942549620755 156.6496350360103,62.749942549620755 159.21167883183807,64.35404812905472 160.88686131406575,64.81236358184833 162.75912408763543,64.46862701012287 166.30656934250146,62.520784419961274 167.98175182426348,62.63536349055357 169.16423357650638,62.979100632015616 169.65693430649117,63.43741665419657 169.755474452395,64.12489033141173 168.96715328469872,65.72899391769897 168.96715328469872,66.30188749183435 170.3467153282836,68.02056643541437 171.03649635007605,68.59345882292837 171.82481751823798,68.93719411350321 173.20437956228852,68.82261569518596 175.07664233539253,68.47888036910444 177.83576642349362,68.59345882292837 179.31386861298233,69.16635091439821 180.79197080247104,69.39550766744651 181.77737226244062,68.93719411350321 182.36861313832924,68.02056643541437 182.8613138687797,66.64562349417247 183.05839416058734,65.72899391769897 184.83211678778753,61.37499305931851 185.22627737233415,59.65630379342474 185.81751824822277,58.510509466635995 186.50729926954955,55.98975777067244 186.40875912411138,55.41685885703191 186.01459854003042,54.95853951247409 186.01459854003042,54.72937976906542 185.0291970805265,53.92732029338367 184.930656934157,53.354420311632566 184.3394160582684,52.666939942515455 183.35401459876448,52.094039308140054 181.08759124111384,51.40655815589707 179.41240875935182,50.48991595453117 178.8211678834632,50.37533562607132 178.52554744528607,50.48991595453117 178.22992700710893,51.06281741918065 178.42700729891658,51.86487897171173 178.1313868612051,52.666939942515455 176.75182481715456,54.04190025385469 176.1605839417316,55.187699208268896 176.1605839417316,57.93761185789481 176.06204379536211,58.281350458506495 175.56934306537732,58.62508895259816 169.16423357650638,58.854247889248654 165.41970802890137,59.19798620522488 159.60583941591904,58.96882733958773 157.14233576646075,59.312565620057285 153.00364963477477,58.510509466635995 149.25912408716977,57.250134336180054 148.37226277356967,56.677236075280234 145.4160583941266,55.646018457831815 143.74087591236457,54.84395964664873 140.98175182472914,54.27106013975572 138.61678832117468,53.125260236207396 136.25182481715456,52.552359839202836 134.872262773104,52.094039308140054 134.18248175131157,51.97945914580487 133.78832116769627,52.20861945883371 133.78832116769627,52.89610011293553 133.3941605836153,54.156480202567764 133.197080291342,54.50021997815929 133.197080291342,55.073119366308674 133.68978102132678,56.79181575123221 134.18248175131157,57.250134336180054 134.872262773104,57.250134336180054 136.35036496352404,56.562656387570314 138.7153284670785,57.13555470784195 140.39051094884053,58.510509466635995 142.85401459829882,59.42714502301533 146.8941605836153,59.88546251645312 149.85036496352404,60.9166761826491 151.13138686073944,61.71873059193604 153.2007299270481,62.520784419961274 156.8467153282836,62.63536349055357 157.53649635007605,62.979100632015616 159.40875912411138,64.69778473628685 160.78832116769627,65.04152123699896 162.069343065843,64.9269424151862 165.1240875911899,63.32283766637556 167.78467153245583,62.749942549620755 168.6715328465216,62.864521596580744 169.45985401421785,63.43741665419657 169.65693430649117,63.78115354641341 169.26277372287586,65.15610004658811 169.36131386831403,66.53104483871721 169.85401459829882,67.33309517835733 171.03649635007605,68.36430190352257 171.72627737233415,68.59345882292837 173.40145985409617,68.70803726499435 175.07664233539253,68.47888036910444 177.34306569350883,68.59345882292837 178.72262773709372,68.82261569518596 180.39781021885574,69.39550766744651 181.77737226244062,69.39550766744651 182.17153284698725,69.0517725199461 182.5656934301369,68.24972342618275 183.1569343060255,66.0727300979197 184.24087591236457,63.43741665419657 185.32481751823798,59.88546251645312 185.81751824822277,58.96882733958773 186.40875912411138,57.02097506751306 186.40875912411138,55.87517801148351 185.62043795594946,55.302279038587585 184.04379562009126,54.95853951247409 183.45255474420264,54.27106013975572 182.17153284698725,53.125260236207396 181.08759124111384,52.666939942515455 180.1021897806786,52.552359839202836 179.41240875935182,53.125260236207396 178.03284671530128,53.125260236207396 177.34306569350883,53.469000331824645 176.65328467125073,54.27106013975572 176.06204379536211,55.187699208268896 175.86496350355446,56.677236075280234 176.06204379536211,57.93761185789481 175.6678832117468,58.39592996845022 170.14963503647596,58.62508895259816 167.88321167882532,58.62508895259816 164.33576642302796,58.854247889248654 159.60583941591904,58.73966842668597 155.36861313832924,58.73966842668597 153.39781021839008,58.510509466635995 148.27372262766585,56.4480766877532 145.21897810185328,55.98975777067244 143.4452554746531,55.531438663369045 142.95255474420264,55.073119366308674 141.5729927001521,54.95853951247409 141.1788321165368,54.72937976906542 140.88321167882532,54.156480202567764 140.39051094884053,53.583580339793116 139.99635036475956,53.354420311632566 138.91240875888616,53.354420311632566 137.4343065689318,52.666939942515455 135.3649635030888,52.323199597653 135.06934306537732,51.97945914580487 134.872262773104,51.17739767674357 134.4781021894887,51.06281741918065 134.08394160540774,51.750298785278574 133.78832116769627,53.01068018050864 133.78832116769627,53.92732029338367 133.98540145950392,54.50021997815929 133.78832116769627,55.073119366308674 133.78832116769627,55.646018457831815 134.08394160540774,57.02097506751306 134.67518248176202,57.250134336180054 136.35036496352404,56.677236075280234 137.5328467148356,56.677236075280234 138.5182481748052,57.13555470784195 140.686131386552,58.73966842668597 142.755474452395,59.42714502301533 144.23357664234936,59.65630379342474 145.3175182477571,59.54172441386618 147.18978102179244,60.11462119210046 149.45620437897742,60.9166761826491 151.52554744528607,62.062468017917126 152.6094890506938,62.40620533726178 153.89051094884053,62.520784419961274 156.255474452395,62.520784419961274 158.0291970805265,63.43741665419657 160.0,65.27067884476855 160.68978102132678,65.27067884476855 161.7737226272002,64.9269424151862 163.94160583941266,63.43741665419657 165.1240875911899,62.979100632015616 166.89781021885574,62.520784419961274 168.7700729924254,62.864521596580744 169.26277372287586,63.093679655576125 169.95255474420264,63.78115354641341 169.26277372287586,66.0727300979197 169.755474452395,67.21851659391541 170.44525547418743,67.56225231150165 171.72627737233415,68.93719411350321 172.51459854003042,69.28092929685954 173.5,69.28092929685954 174.97810218995437,68.70803726499435 176.25912408763543,68.59345882292837 178.52554744528607,68.82261569518596 180.89051094837487,69.39550766744651 182.17153284698725,69.0517725199461 182.2700729924254,68.82261569518596 182.36861313832924,68.02056643541437 183.55109489057213,65.72899391769897 183.8467153282836,64.35404812905472 184.24087591236457,63.66657459398266 185.22627737233415,59.88546251645312 186.1131386863999,57.93761185789481 186.70437956228852,55.646018457831815 186.40875912411138,55.073119366308674 185.71897810185328,54.95853951247409 185.0291970805265,55.073119366308674 184.04379562009126,54.95853951247409 182.46715328469872,53.354420311632566 181.08759124111384,52.666939942515455 180.2992700729519,52.552359839202836 178.91970802936703,53.01068018050864 178.03284671530128,53.01068018050864 176.85036496352404,53.92732029338367 176.1605839417316,55.41685885703191 176.1605839417316,56.333496976294555 175.9635036494583,57.36471395299304 176.1605839417316,57.70845273172017 176.06204379536211,58.39592996845022 175.4708029194735,58.73966842668597 174.28832116769627,58.62508895259816 173.40145985409617,58.854247889248654 171.82481751823798,58.73966842668597 170.64233576646075,58.96882733958773 168.1788321165368,58.62508895259816 160.4927007299848,58.96882733958773 156.1569343060255,58.96882733958773 153.10218978114426,58.39592996845022 150.24452554713935,57.13555470784195 149.16058394126594,57.02097506751306 147.68248175131157,56.10433751787059 144.62773722596467,55.302279038587585 142.55839416058734,55.073119366308674 139.50364963524044,53.92732029338367 137.72992700710893,53.01068018050864 136.54744525486603,52.781520033604465 136.4489051089622,52.89610011293553 135.8576642330736,52.666939942515455 134.872262773104,51.750298785278574 134.28102189768106,51.63571858743671 133.98540145950392,51.86487897171173 133.197080291342,55.073119366308674 133.29562043771148,56.10433751787059 133.78832116769627,57.02097506751306 134.872262773104,57.36471395299304 136.64598540123552,58.281350458506495 138.5182481748052,58.73966842668597 146.99270072951913,61.37499305931851" stroke="#4DD2FF" stroke-linecap="round" stroke-linejoin="round" stroke-width="0.5"><title>2025-04-20 5.0km</title><desc>14232395834</desc></polyline><polyline fill="none" points="67.0,114.74834587483201 67.0,114.05581258272287 66.40441176481545,113.47870117716957 65.21323529398069,113.82496805628762 64.61764705879614,113.70954577496741 63.72426470555365,113.13243419013452 62.53308823518455,111.97821012407076 60.448529412038624,111.28567511041183 58.860294117592275,112.0936325842049 57.66911764675751,111.97821012407076 56.87499999953434,112.78616709588096 56.27941176481545,113.59412348200567 55.98161764675751,114.40207928256132 55.78308823518455,115.44087873701937 55.98161764675751,116.82594316999894 55.68382352916524,117.51847474137321 51.91176470601931,117.63389662781265 49.827205881942064,117.40305284282658 47.2463235296309,117.74931850272696 40.397058823145926,117.63389662781265 37.22058823518455,117.86474036541767 33.051470587961376,117.63389662781265 31.363970587961376,116.82594316999894 29.180147058330476,116.24883319879882 26.5,115.09461235976778 21.040441176388413,113.36327885999344 17.764705881942064,111.862787651713 16.077205881942064,111.40109764237422 14.985294117126614,110.36229442316107 14.588235293980688,110.47771705081686 14.588235293980688,110.70856227062177 13.794117646757513,111.74736516724806 13.0,114.05581258272287 13.694852941203862,115.67172292876057 14.091911764349788,116.01798912649974 14.985294117126614,116.01798912649974 16.077205881942064,115.67172292876057 16.97058823518455,115.67172292876057 17.963235293980688,115.78714500681963 18.856617647223175,116.24883319879882 20.047794117592275,117.28763093228918 22.430147058796138,118.44184950029012 24.514705882407725,119.13438006734941 25.805147058330476,119.36522349412553 27.393382352776825,120.17317511118017 29.577205882407725,120.28859672311228 32.2573529407382,121.55823366402183 33.44852941157296,121.90449803334195 36.12867647083476,121.78907658858225 37.31985294120386,122.1353408859577 39.30514705879614,123.17413313337602 41.19117647083476,123.28955443424638 42.580882352776825,122.82786915835459 43.57352941157296,122.71244780998677 44.96323529398069,122.0199194655288 46.55147058842704,121.78907658858225 47.54411764675751,121.67365513218101 48.93382352916524,122.0199194655288 49.330882352776825,122.25076229462866 49.6286764703691,122.94329049543012 49.330882352776825,125.48255688312929 49.52941176481545,126.5213460107334 50.52205882361159,127.67555501696188 52.20955882361159,128.13723828503862 54.393382352776825,127.9063966749236 55.28676470601931,127.56013416999485 56.577205882407725,127.44471331126988 58.264705882407725,127.67555501696188 60.64705882361159,128.59892136172857 61.54044117638841,128.59892136172857 62.136029412038624,128.36807984719053 62.4338235296309,128.13723828503862 62.731617647223175,127.09845066338312 63.22794117638841,125.02087251562625 63.22794117638841,124.3283456057543 64.61764705879614,120.40401832317002 65.8088235296309,118.09558405540884 66.80147058796138,114.86376804846805 66.90073529398069,114.17123482807074 66.60294117638841,113.82496805628762 66.20588235277683,113.70954577496741 64.61764705879614,114.05581258272287 63.327205882873386,112.67074470734224 62.235294117592275,111.862787651713 61.044117647223175,111.40109764237422 60.25,111.40109764237422 58.95955882361159,111.97821012407076 57.76838235324249,112.0936325842049 57.073529412038624,112.67074470734224 56.18014705879614,114.28665706131142 56.08088235324249,115.44087873701937 56.27941176481545,117.0567870750092 56.08088235324249,117.40305284282658 55.58455882361159,117.51847474137321 47.2463235296309,117.74931850272696 45.16176470601931,117.51847474137321 34.83823529398069,117.98016221635044 31.761029411572963,117.28763093228918 27.1948529407382,115.44087873701937 24.613970588427037,114.63292368955445 21.040441176388413,113.0170118373353 15.77941176481545,111.28567511041183 15.382352941203862,111.05483001028188 15.1838235296309,110.59313966648187 14.78676470555365,110.24687178328168 14.389705882407725,110.93940744223073 13.794117646757513,112.32447746919934 13.297794117126614,114.40207928256132 13.4963235296309,115.21003449743148 14.1911764703691,116.01798912649974 15.1838235296309,116.01798912649974 16.573529411572963,115.67172292876057 18.261029411572963,116.01798912649974 19.948529411572963,116.82594316999894 21.735294117592275,118.21100588224363 25.011029411572963,119.13438006734941 27.294117647223175,119.24980178673286 29.775735293980688,119.82691020425409 32.85294117638841,121.55823366402183 33.64705882361159,121.67365513218101 35.33455882361159,121.55823366402183 36.327205882407725,121.67365513218101 39.40441176434979,123.6358182656113 40.99264705879614,123.75123951898422 41.78676470601931,123.52039700048044 44.36764705879614,121.90449803334195 45.65808823518455,121.55823366402183 49.03308823518455,122.0199194655288 49.72794117638841,122.82786915835459 49.827205881942064,123.28955443424638 49.43014705879614,124.79003026010469 49.6286764703691,125.94424105912913 50.02573529444635,126.63676696503535 50.52205882361159,127.32929244078696 51.3161764703691,127.79097585217096 52.50735294120386,127.9063966749236 56.577205882407725,127.44471331126988 58.66176470601931,127.67555501696188 61.34191176481545,127.09845066338312 62.136029412038624,126.5213460107334 63.22794117638841,124.67460911453236 64.22058823518455,121.78907658858225 64.71691176481545,120.98112614266574 66.30514705879614,116.4796772232512 66.60294117638841,115.44087873701937 66.90073529398069,114.63292368955445 66.90073529398069,114.05581258272287 66.60294117638841,113.70954577496741 66.30514705879614,113.59412348200567 64.61764705879614,114.05581258272287 63.922794117592275,113.47870117716957 62.731617647223175,112.20905503258109 61.9375,111.74736516724806 60.34926470555365,111.40109764237422 59.05882352916524,111.97821012407076 58.0661764703691,112.0936325842049 57.47058823518455,112.43989989371039 56.77573529444635,113.36327885999344 56.27941176481545,114.28665706131142 56.18014705879614,114.74834587483201 56.08088235324249,116.01798912649974 56.27941176481545,117.17220900952816 55.78308823518455,117.63389662781265 53.69852941157296,117.51847474137321 49.6286764703691,117.63389662781265 43.97058823518455,117.51847474137321 41.88602941157296,117.74931850272696 35.83088235324249,117.74931850272696 32.15808823518455,117.40305284282658 30.172794117592275,116.71052119985688 27.1948529407382,115.44087873701937 23.621323529165238,114.17123482807074 21.338235293980688,113.13243419013452 16.176470587961376,111.40109764237422 15.28308823518455,111.05483001028188 14.886029411572963,110.36229442316107 14.1911764703691,110.59313966648187 13.694852941203862,111.74736516724806 13.198529412038624,114.28665706131142 13.794117646757513,116.1334111688193 14.588235293980688,116.24883319879882 15.8786764703691,115.90256707265507 16.077205881942064,115.55630083871074 17.069852941203862,115.55630083871074 17.367647058796138,115.90256707265507 19.2536764703691,116.36425521678757 19.84926470555365,117.0567870750092 21.834558823145926,117.98016221635044 26.102941176388413,119.01895833597519 27.59191176481545,120.05775348760653 28.78308823518455,120.51943991088774 30.371323529165238,120.75028305058368 32.7536764703691,121.90449803334195 33.84558823518455,122.0199194655288 35.03676470555365,121.67365513218101 36.12867647083476,121.90449803334195 39.80147058842704,123.98208198952489 42.084558823145926,123.6358182656113 43.57352941157296,122.94329049543012 45.45955882361159,121.55823366402183 46.55147058842704,121.44281218352262 48.4375,121.78907658858225 49.72794117638841,122.5970264490461 49.72794117638841,123.05871182016563 49.231617647223175,124.79003026010469 49.231617647223175,125.36713580903597 49.52941176481545,126.40592504455708 50.22426470601931,127.32929244078696 51.3161764703691,128.02181748615112 55.08823529444635,128.13723828503862 56.27941176481545,128.59892136172857 58.46323529444635,129.7531282166019 61.738970587961376,128.48350061068777 62.4338235296309,127.9063966749236 62.93014705879614,126.05966207350139 63.823529412038624,123.86666076036636 64.41911764722317,121.67365513218101 65.01470588240772,120.28859672311228 66.30514705879614,116.01798912649974 66.90073529398069,114.74834587483201 66.90073529398069,114.05581258272287 66.60294117638841,113.82496805628762 66.00735294120386,113.70954577496741 65.01470588240772,114.05581258272287 64.71691176481545,114.28665706131142 64.8161764703691,114.51750149182044 64.1213235296309,115.09461235976778 64.02205882361159,115.67172292876057 62.83088235324249,115.67172292876057 62.63235294120386,116.01798912649974 61.54044117638841,116.36425521678757 60.547794117592275,117.17220900952816 59.15808823518455,117.40305284282658 58.0661764703691,116.94136512861587 57.56985294120386,117.0567870750092 56.97426470601931,117.51847474137321 55.68382352916524,117.74931850272696 51.61397058842704,117.51847474137321 48.04044117638841,117.86474036541767 40.09926470601931,117.86474036541767 35.53308823518455,118.09558405540884 33.25,117.74931850272696 17.665441176388413,112.0936325842049 17.367647058796138,112.0936325842049 16.573529411572963,111.74736516724806 16.275735293980688,111.74736516724806 15.481617646757513,111.05483001028188 15.28308823518455,110.59313966648187 14.78676470555365,110.36229442316107 14.1911764703691,110.82398486230522" stroke="#4DD2FF" stroke-linecap="round" stroke-linejoin="round" stroke-width="0.5"><title>2025-02-08 5.5km</title><desc>13569967175</desc></polyline><polyline fill="none" points="119.38336347183213,137.9399082888849 120.16455696197227,138.0534501009388 120.75045207934454,137.82636646495666 121.72694394225255,136.6909475796856 122.70343580469489,132.4898874805076 123.38698010891676,130.21903748204932 123.48462929483503,129.4242388715502 124.26582278497517,127.2669254533248 125.43761301971972,124.65543510997668 126.90235081361607,120.45432889764197 127.0,119.77306691394188 126.80470162723213,118.8647169440519 125.82820976525545,117.38864663790446 124.85171790234745,116.36675064649899 123.48462929483503,115.68548612308223 122.11754068685696,115.45839785470162 120.555153707508,114.3229558065068 118.30922242347151,113.41460132133216 116.55153707042336,113.07396819547284 114.50090415915474,112.2791571568232 113.5244122967124,111.48434554191772 112.25497287511826,111.03016721759923 110.1066907774657,110.68953335098922 106.10307414131239,109.32699682598468 104.93128390610218,108.64572792837862 103.95479204365984,108.5321830707835 103.8571428572759,108.30509332078509 102.49005424929783,107.73736873979215 100.244122965727,107.05609885440208 98.77938517183065,106.94255383254495 97.99819168215618,106.94255383254495 96.6311030741781,106.37482854607515 95.55696202535182,106.48837362683844 94.58047016290948,106.26128345332108 91.84629294788465,105.12583188095596 90.5768535262905,104.89874142524786 89.20976491877809,104.21746977651492 88.23327305633575,103.99037913256325 87.64737793849781,103.53619770391379 86.08499095821753,103.19556150876451 85.98734177229926,103.08201608678792 84.91320072347298,102.51428880158346 81.78842676291242,101.60592453333084 81.20253164554015,101.60592453333084 79.64014466572553,102.85492520814296 79.2495479201898,103.42265231721103 79.34719710703939,104.10392446035985 79.2495479201898,104.6716509226244 78.07775768497959,105.35292228928301 76.90596745023504,106.82900879858062 76.80831826431677,108.64572792837862 76.41772151878104,109.7811758556636 76.22242314647883,110.80307798483409 75.8318264009431,111.82497916172724 75.8318264009431,113.07396819547284 75.53887884272262,113.6416900131153 75.05063291126862,114.09586725581903 73.87884267652407,115.68548612308223 73.29294755868614,118.97826073132455 73.488245931454,119.65952320897486 74.95298372488469,121.02204689383507 77.29656419530511,120.45432889764197 78.85895117558539,120.79495973081794 79.34719710703939,121.24913401016966 79.93309222441167,121.93039507674985 81.78842676291242,123.29291593970265 83.64376130187884,124.08771899470594 85.88969258591533,124.31480547611136 87.06148282112554,124.768978297594 88.13562386948615,125.56378028262407 89.99095840891823,126.47212470287923 90.28390596760437,126.47212470287923 91.06509945774451,127.0398395829834 92.43218806525692,127.72109705174807 92.33453887887299,127.49401127616875 92.52983725164086,127.49401127616875 95.45931283896789,127.2669254533248 96.92405063286424,128.06172562751453 98.77938517183065,128.28881128586363 100.244122965727,129.4242388715502 101.22061482816935,129.764866918209 102.58770343568176,129.53778156568296 103.56419529858977,128.28881128586363 104.93128390610218,127.2669254533248 105.41952983709052,127.15338252391666 106.2983725136146,126.92629663052503 108.54430379765108,127.2669254533248 109.52079566009343,128.17526846239343 109.9113924051635,128.85652522556484 109.61844484647736,129.8784095768351 109.13019891502336,130.33258009387646 109.13019891502336,131.01383551675826 109.71609403286129,132.0357178573031 110.30198915023357,132.7169722217368 112.05967450235039,133.62531071621925 113.4267631098628,133.62531071621925 115.77034358074889,132.9440569159342 117.82097649201751,133.2846838691039 119.38336347183213,133.96593745751306 119.57866184413433,133.85239522217307 120.555153707508,133.85239522217307 121.23869801079854,133.2846838691039 121.53164556948468,132.8305145748891 121.53164556948468,132.4898874805076 122.99638336338103,130.6732078579953 123.58227848121896,129.4242388715502 124.16817359859124,127.2669254533248 124.94936708873138,125.33669406024273 124.94936708873138,124.88252147368621 125.92585895117372,123.17937259934843 126.70705244131386,120.56787252030335 126.70705244131386,120.00015428918414 126.02350813755766,118.29699783050455 125.53526220610365,117.50219057803042 124.94936708873138,116.82092676032335 123.19168173568323,115.91257434454747 122.01989150093868,115.68548612308223 117.62567811924964,113.75523434160277 116.06329113943502,113.52814567321911 115.77034358074889,113.07396819547284 111.18083182629198,110.91662260715384 109.42314647417516,110.80307798483409 107.4701627488248,109.55408636422362 104.63833634741604,108.41863820177969 101.12296564225107,107.73736873979215 97.99819168215618,106.37482854607515 97.41229656431824,106.26128345332108 96.24050632910803,106.6019186959602 93.7016274863854,106.03419323277194 92.82278480986133,105.69355781411286 89.30741410469636,103.64974307850935 86.18264014460146,103.19556150876451 85.30379746854305,102.74137975124177 81.39783001830801,101.60592453333084 79.64014466572553,102.40074330905918 79.15189873427153,102.85492520814296 79.2495479201898,103.19556150876451 78.76130198920146,104.21746977651492 78.66365280281752,105.69355781411286 77.68716094037518,106.37482854607515 77.29656419530511,107.05609885440208 76.90596745023504,108.41863820177969 76.61301989201456,108.64572792837862 76.3200723323971,109.21345203905366 76.12477396056056,110.1218100048136 75.53887884272262,110.46244404732715 74.95298372488469,111.3708009783877 74.95298372488469,111.82497916172724 75.44122965680435,113.07396819547284 74.75768535304815,114.55004431027919 74.56238698028028,115.45839785470162 74.07414104882628,115.91257434454747 73.87884267652407,118.29699783050455 73.39059674507007,118.8647169440519 73.58589511737227,120.1136979587609 74.07414104882628,121.24913401016966 75.24593128403649,121.93039507674985 75.8318264009431,122.61165571969468 77.19891500892118,123.29291593970265 80.81193490047008,125.79086645809002 81.49547920422629,126.13149563362822 83.44846292957664,126.35858169128187 87.06148282112554,127.2669254533248 88.62386980094016,127.72109705174807 90.28390596760437,128.62943968502805 90.96745027136058,128.5158968968317 91.84629294788465,128.97006797848735 93.01808318309486,128.97006797848735 93.31103074131534,129.31069616577588 93.79927667276934,129.31069616577588 94.38517179060727,129.65132424759213 95.75226039811969,129.65132424759213 96.92405063286424,130.10549485881347 98.29113924084231,130.33258009387646 99.65822784835473,131.35446306923404 101.22061482816935,131.35446306923404 101.80650994554162,131.80863297486212 102.19710669107735,132.4898874805076 103.27124773990363,132.7169722217368 103.95479204365984,133.1711415629834 108.25135623896495,134.4201062816428 109.03254972863942,134.4201062816428 109.9113924051635,135.21490127081051 109.9113924051635,135.55552751827054 110.98553345398977,135.78261162468698 111.66907775774598,136.23677969619166 112.25497287511826,136.00969568395521 114.40325497323647,136.57740562630352 115.28209764929488,137.25865716929547 116.6491862568073,137.59928278194275 118.21157323662192,138.39407546666916 119.67631103098392,138.0534501009388 120.35985533474013,137.37219905201346 120.4575045206584,136.91803145047743 121.04339963849634,136.1232376957778 121.04339963849634,135.78261162468698 121.72694394225255,135.21490127081051 121.72694394225255,134.4201062816428 122.99638336338103,132.7169722217368 123.58227848121896,130.55966528179124 124.65641953004524,127.38046837050933 125.14466546103358,125.56378028262407 125.82820976525545,124.20126224134583 126.41410488262773,121.70330810162704 126.90235081361607,120.79495973081794 127.0,119.77306691394188 126.41410488262773,118.52408551145345 125.82820976525545,118.29699783050455 125.24231464741752,117.38864663790446 125.04701627511531,116.70738274930045 121.72694394225255,115.11776536365505 121.23869801079854,114.77713276690338 120.94575045164675,114.3229558065068 119.7739602169022,113.75523434160277 114.2079566004686,112.61979052959941 113.5244122967124,112.2791571568232 112.64556962018833,111.59789009392262 110.88788426760584,111.25725640321616 107.27486437605694,109.7811758556636 105.90777576854452,108.9863624300342 102.8806509943679,107.73736873979215 101.90415913239121,107.62382378836628 101.22061482816935,107.16964386485051 99.16998191690072,106.71546375320759 95.84990958403796,106.26128345332108 92.23688969248906,105.35292228928301 90.18625678122044,105.23937709094025 88.72151898732409,104.44456037285272 86.76853526197374,103.99037913256325 86.2802893309854,103.64974307850935 86.18264014460146,103.30910691909958 81.69077757699415,101.7194701078115 80.90958408685401,101.83301567099988 80.42133815540001,102.17365228908602 78.85895117558539,102.85492520814296 78.37070524413139,103.53619770391379 77.49186256807297,103.99037913256325 77.49186256807297,104.55810565361753 78.07775768497959,104.89874142524786 78.07775768497959,105.80710296565667 77.88245931267738,106.48837362683844 77.49186256807297,106.71546375320759 77.29656419530511,107.16964386485051 77.39421338168904,107.85091367957648 77.39421338168904,108.64572792837862 76.80831826431677,109.7811758556636 76.12477396056056,110.68953335098922 75.6365280286409,112.05206818273291 75.73417721549049,112.96042379643768 74.85533453896642,114.77713276690338 74.26943942112848,116.02611843775958 73.39059674507007,116.82092676032335 73.0,117.61573450674769 73.0,118.41054167691618 73.29294755868614,119.54597949190065 73.97649186244234,120.79495973081794 74.85533453896642,121.13559045805596 77.1012658230029,121.02204689383507 79.5424954793416,121.70330810162704 82.08137432206422,123.17937259934843 84.22965641925111,123.63354589126538 85.10849909577519,124.20126224134583 85.59674502676353,124.08771899470594 85.88969258591533,124.42834869923536 86.4755877032876,124.42834869923536 87.25678119342774,124.99606463790406 88.13562386948615,124.99606463790406 89.30741410469636,125.56378028262407 91.16274864366278,127.2669254533248 92.62748643755913,127.94818278052844 95.6546112112701,127.2669254533248 96.6311030741781,127.38046837050933 97.50994575023651,127.94818278052844 98.29113924084231,128.28881128586363 99.267631102819,129.08361071941908 100.0488245934248,129.31069616577588 102.00180831784382,129.08361071941908 104.44303797511384,128.06172562751453 105.02893309202045,128.06172562751453 105.22423146478832,127.60755417007022 106.00542495492846,127.15338252391666 106.59132007230073,127.15338252391666 107.4701627488248,127.2669254533248 109.42314647417516,128.17526846239343 109.71609403286129,128.5158968968317 109.32549728732556,131.01383551675826 110.1066907774657,132.26280269224662 110.98553345398977,132.9440569159342 111.76672694366425,133.05759924522135 111.86437613004819,133.39822616323363 113.03616636572406,133.73885297495872 115.77034358074889,133.2846838691039 117.82097649201751,133.1711415629834 118.89511754084378,133.1711415629834 119.7739602169022,133.73885297495872 119.96925858967006,134.19302189315204 119.48101265868172,135.32844336493872 118.40687160938978,136.46386366139632 118.21157323662192,136.8044895209605 117.91862567840144,136.57740562630352" stroke="#4DD2FF" stroke-linecap="round" stroke-linejoin="round" stroke-width="0.5"><title>2024-11-16 5.2km</title><desc>12913950085</desc></polyline><polyline fill="none" points="151.0,121.47877958370373 150.60869565233588,122.04752328654286 150.9021739126183,122.04752328654286 150.80434782616794,122.16127199190669 151.78260869532824,122.04752328654286 152.46739130467176,122.50251803710125 152.56521739112213,122.957512598834 153.83695652196184,122.957512598834 156.08695652196184,122.50251803710125 156.9673913042061,122.957512598834 157.84782608645037,123.9812496737577 159.80434782616794,124.32249515340663 163.13043478270993,124.09499817865435 164.10869565187022,123.18500980897807 164.59782608645037,122.16127199190669 164.89130434766412,122.04752328654286 165.1847826084122,121.93377456930466 165.47826086962596,122.16127199190669 165.38043478270993,122.61626669485122 165.47826086962596,122.61626669485122 166.94565217383206,122.38876936677843 168.80434782570228,123.07126120966859 169.2934782607481,123.52625553600956 169.58695652196184,124.32249515340663 169.58695652196184,126.14246925432235 170.27173913037404,127.96244033996481 169.97826086962596,128.18993651366327 170.4673913042061,128.6449287198484 172.52173913037404,129.44116462673992 173.30434782616794,129.44116462673992 174.86956521729007,128.75867674173787 177.02173913037404,128.6449287198484 177.7065217392519,128.6449287198484 179.66304347803816,129.44116462673992 180.64130434766412,129.32741667551454 181.52173913037404,129.0999207375571 181.81521739112213,128.0761884325184 182.7934782607481,126.3699658048572 184.35869565233588,122.38876936677843 184.75,120.68253790505696 186.2173913042061,117.61131459474564 187.0,115.22257941646967 186.60869565187022,114.65383217984345 186.2173913042061,114.54008269729093 184.06521739112213,114.99508055741899 183.47826086962596,114.88133111014031 183.08695652149618,114.54008269729093 182.89130434766412,113.40258722309954 182.4021739126183,112.83383904374205 180.05434782616794,112.15134084026795 179.27173913037404,112.26509057043586 177.41304347803816,113.06133835075889 177.41304347803816,113.40258722309954 175.84782608691603,115.79132635879796 175.74999999953434,117.49756541813258 175.84782608691603,118.06631118257064 175.0652173915878,118.63505665224511 162.64130434766412,118.06631118257064 161.7608695649542,118.18006030004472 154.13043478270993,118.29380940552801 151.0,117.15631781844422 150.11956521729007,116.47382230078802 149.0434782607481,114.99508055741899 147.57608695607632,114.42633320274763 146.5,114.42633320274763 146.01086956541985,114.19883417885285 145.32608695607632,113.85758555401117 144.25,112.83383904374205 143.07608695654199,113.06133835075889 142.19565217383206,112.72008937282953 142.09782608691603,113.06133835075889 141.2173913042061,112.94758870301303 139.65217391308397,112.26509057043586 139.35869565233588,111.6963418024825 139.35869565233588,111.35509240021929 138.77173913037404,111.01384289213456 137.9891304350458,110.9000930323964 137.5,111.12759274011478 136.22826086962596,111.01384289213456 135.25,110.6725932782283 134.56521739112213,110.10384368523955 134.46739130467176,110.2175936276326 133.7826086957939,112.49258999514859 133.39130434766412,114.19883417885285 133.39130434766412,115.67757699417416 133.7826086957939,116.928819359513 134.36956521729007,117.15631781844422 135.05434782570228,117.27006703033112 135.9347826084122,116.928819359513 137.0108695649542,117.04256859468296 138.77173913037404,117.7250637592515 140.2391304350458,118.86255475773942 142.88043478224427,120.11379349557683 146.89130434812978,120.34129129466601 150.11956521729007,122.27502068527974 152.27173913037404,122.957512598834 153.64130434766412,123.29875839664601 155.10869565187022,122.73001534107607 155.89130434766412,122.8437639757758 156.57608695654199,123.07126120966859 156.67391304345801,123.41250697185751 158.23913043458015,124.32249515340663 159.5108695649542,124.20874667179305 161.07608695654199,124.54999208077788 163.2282608691603,123.9812496737577 165.08695652149618,122.73001534107607 166.06521739112213,122.61626669485122 168.2173913042061,122.73001534107607 169.19565217383206,123.41250697185751 169.58695652196184,123.9812496737577 169.4891304350458,124.89123738370836 169.19565217383206,125.3462309561437 169.4891304350458,126.82495876494795 169.2934782607481,127.39369969966356 169.4891304350458,127.96244033996481 170.7608695649542,128.75867674173787 172.42391304345801,129.32741667551454 175.6521739126183,128.18993651366327 177.41304347803816,128.41743264032993 178.9782608691603,129.2136687124148 180.44565217383206,129.2136687124148 182.4021739126183,128.41743264032993 182.5,127.7349441194674 183.18478260887787,126.25621753570158 184.26086956541985,122.50251803710125 185.72826086962596,119.65879775572103 186.60869565187022,116.8150701127015 186.9021739126183,115.67757699417416 186.7065217392519,114.99508055741899 186.2173913042061,114.65383217984345 184.06521739112213,114.76758165098727 182.10869565187022,113.06133835075889 181.03260869532824,112.72008937282953 180.25,112.72008937282953 177.5108695649542,112.94758870301303 176.63043478224427,113.51633682334796 175.74999999953434,114.88133111014031 175.55434782616794,115.79132635879796 175.55434782616794,117.7250637592515 175.16304347803816,118.29380940552801 174.86956521729007,118.52130758180283 164.0108695649542,118.29380940552801 158.82608695654199,118.52130758180283 154.61956521729007,118.29380940552801 152.66304347803816,117.95256205345504 151.6847826084122,116.8150701127015 150.02173913037404,116.24632370041218 149.72826086962596,116.13257438270375 149.43478260887787,115.56382761721034 148.26086956541985,114.99508055741899 146.98913043458015,114.99508055741899 145.81521739112213,114.42633320274763 142.39130434766412,113.63008641195484 139.94565217383206,112.26509057043586 136.8152173915878,111.35509240021929 135.83695652196184,110.6725932782283 134.9565217392519,110.6725932782283 134.56521739112213,110.9000930323964 134.27173913037404,112.94758870301303 133.58695652196184,114.99508055741899 133.97826086962596,116.13257438270375 134.56521739112213,116.8150701127015 136.61956521729007,117.04256859468296 139.0652173915878,118.18006030004472 140.5326086957939,118.40755849971902 141.90217391308397,119.31755082739983 143.85869565233588,119.77254670823459 144.73913043458015,119.77254670823459 146.10869565187022,120.22754240094218 147.47826086962596,120.34129129466601 148.16304347803816,120.45504017651547 148.6521739126183,120.91003558645025 151.6847826084122,122.50251803710125 152.9565217392519,122.61626669485122 153.5434782607481,122.50251803710125 154.91304347803816,122.61626669485122 157.2608695649542,123.29875839664601 158.4347826084122,124.20874667179305 159.90217391308397,124.89123738370836 163.2282608691603,123.86750115675386 165.57608695654199,122.73001534107607 167.82608695654199,122.8437639757758 169.4891304350458,123.29875839664601 169.78260869532824,123.52625553600956 169.88043478224427,123.75375262845773 169.39130434766412,125.68747601169161 169.58695652196184,127.62119599129073 169.97826086962596,128.3036845830502 170.56521739112213,128.87242475210223 171.9347826084122,129.55491256644018 172.91304347803816,129.55491256644018 175.6521739126183,128.41743264032993 177.41304347803816,128.18993651366327 177.99999999953434,128.3036845830502 178.39130434766412,128.98617275094148 178.9782608691603,129.2136687124148 180.05434782616794,129.2136687124148 180.83695652149618,129.44116462673992 181.42391304345801,129.2136687124148 182.89130434766412,126.71121054282412 183.38043478270993,125.45997931994498 184.06521739112213,123.29875839664601 184.84782608691603,121.59252834774088 185.33695652149618,119.54504879144952 186.02173913037404,118.52130758180283 187.0,114.76758165098727 186.7065217392519,114.31258369667921 186.2173913042061,114.19883417885285 184.75,114.65383217984345 184.35869565233588,114.54008269729093 183.77173913037404,114.31258369667921 183.08695652149618,113.51633682334796 181.7173913042061,112.49258999514859 179.56521739112213,112.49258999514859 178.88043478224427,112.60633969004266 176.43478260887787,113.85758555401117 176.33695652149618,114.42633320274763 175.45652173878625,115.79132635879796 175.45652173878625,117.49756541813258 175.2608695649542,118.06631118257064 174.38043478224427,118.63505665224511 169.4891304350458,118.63505665224511 166.35869565233588,118.18006030004472 165.67391304345801,118.29380940552801 164.2065217392519,118.06631118257064 155.59782608691603,118.63505665224511 152.36956521729007,117.95256205345504 151.48913043458015,117.61131459474564 151.2934782607481,117.38381623011082 151.0,116.58757158310618 150.7065217392519,116.24632370041218 149.23913043458015,114.88133111014031 147.67391304345801,114.76758165098727 146.89130434812978,114.31258369667921 145.5217391308397,114.19883417885285 144.34782608691603,113.63008641195484 143.5652173915878,113.74383598892018 142.39130434766412,113.63008641195484 141.5108695649542,113.17508798639756 140.63043478224427,111.92384134500753 139.16304347803816,111.58259201340843 136.8152173915878,111.35509240021929 136.03260869532824,111.01384289213456 135.44565217383206,110.33134355803486 134.27173913037404,111.01384289213456 134.07608695654199,111.6963418024825 134.17391304299235,112.49258999514859 134.27173913037404,112.72008937282953 133.0,115.33632882870734 133.97826086962596,116.8150701127015 135.9347826084122,116.70132085354999 137.10869565233588,117.15631781844422 138.47826086962596,117.7250637592515 141.80434782616794,120.0000445782207 142.39130434766412,120.0000445782207 143.76086956541985,120.68253790505696 146.10869565187022,120.5687890467234 147.86956521729007,121.47877958370373 148.75,121.47877958370373 149.33695652149618,122.27502068527974 151.48913043458015,123.18500980897807 152.9565217392519,123.18500980897807 154.52173912990838,122.8437639757758 155.4021739126183,122.8437639757758 156.77173912990838,123.29875839664601 158.5326086957939,124.43624362302944 159.60869565187022,124.89123738370836 160.39130434766412,124.89123738370836 163.13043478270993,124.20874667179305 163.7173913042061,123.9812496737577 164.30434782570228,123.29875839664601 165.38043478270993,122.8437639757758 166.55434782570228,122.73001534107607 168.02173913037404,122.957512598834 169.09782608691603,123.75375262845773 169.39130434766412,124.09499817865435 169.4891304350458,124.43624362302944 169.19565217383206,125.80122434021905 169.6847826084122,127.96244033996481 170.36956521729007,129.0999207375571 171.25,129.78240841068327 171.54347826028243,129.89615631476045 172.8152173915878,129.6686604943825 173.40217391308397,129.44116462673992 173.69565217383206,129.0999207375571 175.35869565187022,128.53118068620097 176.82608695607632,128.53118068620097 179.27173913037404,128.87242475210223 180.64130434766412,128.75867674173787 181.61956521729007,128.3036845830502 183.08695652149618,126.25621753570158 183.67391304345801,124.20874667179305 184.75,122.16127199190669 184.9456521733664,120.22754240094218 185.53260869532824,119.65879775572103 186.9021739126183,115.1088299928233 186.41304347803816,114.54008269729093 185.92391304345801,114.42633320274763 184.06521739112213,114.88133111014031 182.89130434766412,114.19883417885285 182.30434782616794,113.51633682334796 181.42391304345801,112.94758870301303 180.83695652149618,112.72008937282953 179.66304347803816,112.72008937282953 177.7065217392519,113.28883761062752 176.14130434766412,114.54008269729093 175.6521739126183,116.13257438270375 175.6521739126183,118.18006030004472 175.16304347803816,118.63505665224511 174.77173913037404,118.74880571104586 173.40217391308397,118.52130758180283 168.60869565233588,118.63505665224511 164.89130434766412,118.18006030004472 159.90217391308397,118.40755849971902 155.4021739126183,118.18006030004472 153.15217391308397,118.63505665224511 152.17391304345801,118.29380940552801 151.48913043458015,117.61131459474564 150.9021739126183,117.27006703033112 149.72826086962596,117.15631781844422 149.23913043458015,116.928819359513 148.0652173915878,115.67757699417416 146.89130434812978,115.56382761721034 146.10869565187022,114.99508055741899 143.07608695654199,113.85758555401117 142.48913043458015,113.17508798639756 140.2391304350458,111.24134257610422 139.35869565233588,110.10384368523955 138.67391304345801,110.33134355803486 137.69565217383206,110.2175936276326 136.91304347803816,110.78634316113312 136.03260869532824,110.55884338298347 135.54347826028243,110.10384368523955 135.83695652196184,110.33134355803486 135.25,110.6725932782283 134.36956521729007,113.28883761062752 133.6847826084122,114.08508464891929 133.4891304350458,115.22257941646967 134.07608695654199,116.24632370041218 134.9565217392519,116.8150701127015 135.83695652196184,118.06631118257064 137.0108695649542,118.40755849971902 138.08695652196184,118.97630379255861 138.47826086962596,120.11379349557683 139.0652173915878,121.0237844097428 139.65217391308397,121.59252834774088 142.48913043458015,121.70627710025292 143.5652173915878,122.16127199190669 145.61956521729007,122.61626669485122 148.35869565233588,123.75375262845773 153.15217391308397,124.66374052700121 153.5434782607481,124.77748896135017 154.03260869532824,125.45997931994498" stroke="#4DD2FF" stroke-linecap="round" stroke-linejoin="round" stroke-width="0.5"><title>2024-10-27 5.5km</title><desc>13388431337</desc></polyline><polyline fill="none" points="37.16304347803816,183.298758396646 37.84782608645037,183.9812496737577 38.434782608412206,184.20874667179305 38.923913043458015,184.09499817865435 40.19565217383206,184.32249515340663 42.934782608412206,184.09499817865435 44.10869565187022,183.18500980897807 44.59782608645037,182.1612719919067 45.184782608412206,181.93377456930466 45.478260869625956,182.1612719919067 45.380434782709926,182.61626669485122 45.478260869625956,182.61626669485122 46.94565217383206,182.38876936677843 48.80434782570228,183.0712612096686 49.29347826074809,183.52625553600956 49.58695652196184,184.32249515340663 49.58695652196184,186.14246925432235 50.271739130374044,187.96244033996481 49.978260869625956,188.18993651366327 50.4673913042061,188.6449287198484 52.521739130374044,189.44116462673992 53.30434782616794,189.44116462673992 54.869565217290074,188.75867674173787 57.021739130374044,188.6449287198484 57.70652173925191,188.6449287198484 59.66304347803816,189.44116462673992 60.93478260887787,189.32741667551454 61.521739130374044,189.0999207375571 61.81521739112213,188.0761884325184 62.79347826074809,186.3699658048572 64.35869565233588,182.38876936677843 64.75,180.68253790505696 66.2173913042061,177.61131459474564 67.0,175.22257941646967 66.60869565187022,174.65383217984345 66.2173913042061,174.54008269729093 64.06521739112213,174.995080557419 63.478260869625956,174.8813311101403 63.08695652149618,174.54008269729093 62.79347826074809,173.40258722309954 62.40217391261831,172.83383904374205 60.05434782616794,172.15134084026795 59.271739130374044,172.26509057043586 57.41304347803816,173.0613383507589 57.41304347803816,173.40258722309954 55.84782608691603,175.79132635879796 55.74999999953434,177.49756541813258 55.84782608691603,178.06631118257064 55.065217391587794,178.6350566522451 42.64130434766412,178.06631118257064 41.76086956495419,178.18006030004472 34.130434782709926,178.293809405528 31.0,177.15631781844422 30.119565217290074,176.47382230078802 29.04347826074809,174.995080557419 27.576086956076324,174.42633320274763 26.5,174.42633320274763 26.010869565419853,174.19883417885285 25.326086956076324,173.85758555401117 24.25,172.83383904374205 23.076086956541985,173.0613383507589 22.19565217383206,172.72008937282953 22.09782608691603,173.0613383507589 21.217391304206103,172.94758870301303 19.65217391308397,172.26509057043586 19.358695652335882,171.6963418024825 19.358695652335882,171.3550924002193 18.771739130374044,171.01384289213456 17.98913043504581,170.9000930323964 17.5,171.12759274011478 16.228260869625956,171.01384289213456 14.467391304671764,170.2175936276326 13.782608695793897,172.4925899951486 13.391304347664118,174.19883417885285 13.391304347664118,175.67757699417416 13.782608695793897,176.928819359513 14.369565217290074,177.15631781844422 15.05434782570228,177.27006703033112 15.934782608412206,176.928819359513 17.108695652335882,177.04256859468296 18.771739130374044,177.83881291223224 20.23913043504581,178.86255475773942 22.880434782244265,180.11379349557683 26.89130434812978,180.341291294666 30.119565217290074,182.27502068527974 32.271739130374044,182.957512598834 33.64130434766412,183.298758396646 35.10869565187022,182.73001534107607 35.89130434766412,182.8437639757758 36.576086956541985,183.0712612096686 36.673913043458015,183.4125069718575 38.23913043458015,184.32249515340663 39.51086956495419,184.20874667179305 41.076086956541985,184.54999208077788 43.228260869160295,183.9812496737577 45.08695652149618,182.73001534107607 46.06521739112213,182.61626669485122 48.2173913042061,182.73001534107607 49.19565217383206,183.4125069718575 49.58695652196184,183.9812496737577 49.48913043504581,184.89123738370836 49.19565217383206,185.3462309561437 49.48913043504581,186.82495876494795 49.29347826074809,187.39369969966356 49.48913043504581,187.96244033996481 50.76086956495419,188.75867674173787 52.423913043458015,189.32741667551454 55.65217391261831,188.18993651366327 57.41304347803816,188.41743264032993 58.978260869160295,189.2136687124148 60.44565217383206,189.2136687124148 62.40217391261831,188.41743264032993 62.5,187.7349441194674 63.18478260887787,186.25621753570158 64.26086956541985,182.50251803710125 65.72826086962596,179.65879775572103 66.60869565187022,176.8150701127015 66.90217391261831,175.67757699417416 66.70652173925191,174.995080557419 66.2173913042061,174.65383217984345 64.06521739112213,174.76758165098727 62.10869565187022,173.0613383507589 61.032608695328236,172.72008937282953 60.25,172.72008937282953 57.51086956495419,172.94758870301303 56.630434782244265,173.51633682334796 55.74999999953434,174.8813311101403 55.55434782616794,175.79132635879796 55.55434782616794,177.7250637592515 55.16304347803816,178.293809405528 54.869565217290074,178.52130758180283 44.01086956495419,178.293809405528 38.826086956541985,178.52130758180283 34.619565217290074,178.293809405528 32.66304347803816,177.95256205345504 31.684782608412206,176.8150701127015 30.021739130374044,176.24632370041218 29.728260869625956,176.13257438270375 29.434782608877867,175.56382761721034 28.260869565419853,174.995080557419 27.184782608877867,174.995080557419 25.815217391122133,174.42633320274763 22.391304347664118,173.63008641195484 19.94565217383206,172.26509057043586 17.59782608691603,171.6963418024825 16.619565217290074,171.3550924002193 15.836956521961838,170.6725932782283 14.956521739251912,170.6725932782283 14.565217391122133,170.9000930323964 14.271739130374044,172.94758870301303 13.586956521961838,174.995080557419 13.978260869625956,176.13257438270375 14.565217391122133,176.8150701127015 16.619565217290074,177.04256859468296 19.065217391587794,178.18006030004472 20.532608695793897,178.40755849971902 21.90217391308397,179.31755082739983 23.858695652335882,179.7725467082346 24.739130434580147,179.7725467082346 26.10869565187022,180.22754240094218 28.163043478038162,180.45504017651547 28.65217391261831,180.91003558645025 31.684782608412206,182.50251803710125 32.95652173925191,182.61626669485122 33.54347826074809,182.50251803710125 34.91304347803816,182.61626669485122 37.26086956495419,183.298758396646 38.434782608412206,184.20874667179305 39.90217391308397,184.89123738370836 43.228260869160295,183.86750115675386 45.576086956541985,182.73001534107607 47.826086956541985,182.8437639757758 49.48913043504581,183.298758396646 49.782608695328236,183.52625553600956 49.880434782244265,183.75375262845773 49.39130434766412,185.68747601169161 49.58695652196184,187.62119599129073 49.978260869625956,188.3036845830502 50.56521739112213,188.87242475210223 51.54347826028243,189.44116462673992 52.228260869625956,189.55491256644018 53.5,189.32741667551454 55.65217391261831,188.41743264032993 57.41304347803816,188.18993651366327 57.99999999953434,188.3036845830502 58.39130434766412,188.98617275094148 58.978260869160295,189.2136687124148 60.05434782616794,189.2136687124148 60.83695652149618,189.44116462673992 61.423913043458015,189.2136687124148 62.89130434766412,186.71121054282412 63.380434782709926,185.45997931994498 64.06521739112213,183.298758396646 64.84782608691603,181.59252834774088 65.33695652149618,179.54504879144952 66.02173913037404,178.52130758180283 67.0,174.76758165098727 66.70652173925191,174.3125836966792 66.2173913042061,174.19883417885285 64.75,174.65383217984345 64.35869565233588,174.54008269729093 63.771739130374044,174.3125836966792 63.08695652149618,173.51633682334796 61.7173913042061,172.4925899951486 59.56521739112213,172.4925899951486 58.880434782244265,172.60633969004266 56.43478260887787,173.85758555401117 56.33695652149618,174.42633320274763 55.45652173878625,175.79132635879796 55.45652173878625,177.49756541813258 55.26086956495419,178.06631118257064 54.380434782244265,178.6350566522451 49.880434782244265,178.6350566522451 46.35869565233588,178.18006030004472 45.673913043458015,178.293809405528 44.20652173925191,178.06631118257064 35.59782608691603,178.6350566522451 32.369565217290074,177.95256205345504 31.489130434580147,177.61131459474564 31.29347826074809,177.38381623011082 31.0,176.58757158310618 29.239130434580147,174.8813311101403 27.673913043458015,174.76758165098727 26.89130434812978,174.3125836966792 25.521739130839705,174.19883417885285 24.34782608691603,173.63008641195484 23.565217391587794,173.74383598892018 22.391304347664118,173.63008641195484 21.51086956495419,173.17508798639756 20.630434782244265,171.92384134500753 19.94565217383206,171.6963418024825 16.815217391587794,171.3550924002193 16.032608695328236,171.01384289213456 15.445652173832059,170.33134355803486 14.271739130374044,171.01384289213456 14.076086956541985,171.6963418024825 14.173913042992353,172.4925899951486 14.271739130374044,172.72008937282953 13.0,175.33632882870734 13.978260869625956,176.8150701127015 15.934782608412206,176.70132085355 17.108695652335882,177.15631781844422 18.478260869625956,177.7250637592515 21.80434782616794,180.0000445782207 22.391304347664118,180.0000445782207 23.760869565419853,180.68253790505696 26.10869565187022,180.5687890467234 27.869565217290074,181.47877958370373 28.75,181.47877958370373 29.336956521496177,182.27502068527974 31.489130434580147,183.18500980897807 32.95652173925191,183.18500980897807 34.52173912990838,182.8437639757758 35.40217391261831,182.8437639757758 36.77173912990838,183.298758396646 38.5326086957939,184.43624362302944 39.60869565187022,184.89123738370836 40.39130434766412,184.89123738370836 43.130434782709926,184.20874667179305 43.7173913042061,183.9812496737577 44.30434782570228,183.298758396646 45.380434782709926,182.8437639757758 46.55434782570228,182.73001534107607 48.021739130374044,182.957512598834 49.39130434766412,184.09499817865435 49.48913043504581,184.43624362302944 49.19565217383206,185.80122434021905 49.684782608412206,187.96244033996481 50.369565217290074,189.0999207375571 51.25,189.78240841068327 51.54347826028243,189.89615631476045 52.815217391587794,189.6686604943825 53.40217391308397,189.44116462673992 53.69565217383206,189.0999207375571 55.35869565187022,188.53118068620097 56.826086956076324,188.53118068620097 59.271739130374044,188.87242475210223 60.64130434766412,188.75867674173787 61.619565217290074,188.3036845830502 63.08695652149618,186.25621753570158 63.673913043458015,184.20874667179305 64.75,182.1612719919067 64.9456521733664,180.22754240094218 65.53260869532824,179.65879775572103 65.92391304345801,178.06631118257064 66.70652173925191,176.13257438270375 66.90217391261831,175.1088299928233 66.80434782570228,174.8813311101403 66.41304347803816,174.54008269729093 65.72826086962596,174.42633320274763 64.26086956541985,174.995080557419 62.89130434766412,174.19883417885285 62.30434782616794,173.51633682334796 61.423913043458015,172.94758870301303 60.83695652149618,172.72008937282953 59.66304347803816,172.72008937282953 57.70652173925191,173.28883761062752 56.14130434766412,174.54008269729093 55.65217391261831,176.13257438270375 55.65217391261831,178.18006030004472 55.16304347803816,178.6350566522451 54.771739130374044,178.74880571104586 53.40217391308397,178.52130758180283 48.60869565233588,178.6350566522451 44.89130434766412,178.18006030004472 39.90217391308397,178.40755849971902 35.40217391261831,178.18006030004472 33.15217391308397,178.6350566522451 32.173913043458015,178.293809405528 31.489130434580147,177.61131459474564 30.90217391261831,177.27006703033112 29.728260869625956,177.15631781844422 29.239130434580147,176.928819359513 28.065217391587794,175.67757699417416 26.89130434812978,175.56382761721034 26.10869565187022,174.995080557419 23.076086956541985,173.85758555401117 22.489130434580147,173.17508798639756 20.23913043504581,171.24134257610422 19.358695652335882,170.10384368523955 18.673913043458015,170.33134355803486 17.69565217383206,170.2175936276326 16.913043478038162,170.78634316113312 16.032608695328236,170.44509347632993 15.543478260282427,170.10384368523955 15.836956521961838,170.33134355803486 15.25,170.6725932782283 15.05434782570228,171.3550924002193" stroke="#4DD2FF" stroke-linecap="round" stroke-linejoin="round" stroke-width="0.5"><title>2024-10-27 5.5km</title><desc>12753632530</desc></polyline><polyline fill="none" points="121.08759124111384,189.5100732240826 122.3686131387949,189.28091680270154 122.66423357650638,188.93718208209611 123.9452554746531,183.43741202633828 126.80291970819235,176.10434276179876 127.0,174.3856476226356 126.50729927048087,174.04190827463754 126.01459854003042,174.04190827463754 124.73357664234936,174.61480712913908 124.3394160582684,174.50022738194093 123.25547445239499,173.12526949099265 122.27007299289107,172.43778990465216 121.48175182472914,172.20862994762138 119.11678832117468,172.0940499510616 118.42700729938224,172.32320993219037 117.0474452553317,173.2398493803339 116.1605839417316,174.3856476226356 115.86496350355446,175.76060394744854 115.86496350355446,177.13555856386665 116.06204379582778,177.93761463428382 115.76642335765064,178.05219402513467 114.6824817522429,178.16677340469323 109.2627737224102,178.05219402513467 106.40510948887095,178.16677340469323 102.36496350355446,178.05219402513467 95.95985401468351,178.3959321276052 94.58029197063297,178.62509080325253 92.313868613448,177.59387638955377 90.63868613168597,176.56266101484653 89.45620437990874,176.33350191207137 87.87956204358488,175.1877056864323 86.59854014636949,174.50022738194093 85.90875912411138,174.50022738194093 84.23357664234936,174.1564880691003 83.74087591283023,173.81274864985608 80.88321167882532,172.66694981383625 79.30656934343278,172.32320993219037 76.44890510989353,171.06282945047133 75.46350364945829,170.9482493356336 74.87226277403533,170.37534858298022 74.1824817522429,171.06282945047133 74.1824817522429,172.0940499510616 73.59124087588862,173.46900912374258 73.19708029227331,175.3022853625007 73.19708029227331,175.9897631688509 74.1824817522429,177.36471750040073 74.77372262813151,177.36471750040073 76.74452554760501,176.9063995797187 78.12408759165555,177.02097907790449 81.86861313926056,179.08340801217128 83.34671532828361,179.19798728451133 89.06204379582778,180.80209585418925 91.32846715347841,182.4062020975398 93.20072992751375,183.20825434743892 96.35401459876448,183.09367549058516 98.22627737233415,183.89572724187747 99.11313868593425,184.69777841190808 100.59124087588862,185.15609310532454 101.1824817522429,185.0415144499857 102.75912408763543,184.4686209942447 104.43430656939745,183.3228331930004 104.92700729938224,183.3228331930004 106.40510948887095,182.52078102587257 107.78467153245583,182.7499388474971 108.8686131387949,183.20825434743892 110.24817518284544,184.12488477840088 109.75547445286065,184.81235710298643 109.65693430695683,185.3852503808448 109.75547445286065,185.95814336184412 109.16423357697204,186.645614547655 109.16423357697204,186.98934998025652 109.85401459876448,188.36429064359982 110.14963503647596,188.70802554220427 111.33211678871885,189.39549501938745 112.51459854003042,189.6246514171362 115.0766423358582,188.93718208209611 117.14598540170118,188.5934472543886 119.60948905115947,189.0517603341723 120.98905109474435,189.6246514171362 121.77737226290628,189.39549501938745 122.3686131387949,189.0517603341723 122.56569343106821,188.70802554220427 123.05839416058734,186.87477151467465 123.74817518237978,184.81235710298643 124.43795620417222,183.43741202633828 124.93065693415701,181.14583310170565 126.21167883230373,178.3959321276052 126.90145985363051,175.41686502681114 126.90145985363051,174.50022738194093 126.31021897820756,174.04190827463754 124.63503649644554,174.50022738194093 123.4525547446683,173.2398493803339 122.7627737224102,172.66694981383625 119.2153284670785,171.86488992290106 118.1313868612051,172.20862994762138 117.93430656939745,172.66694981383625 117.0474452553317,173.6981688195374 116.45620437944308,174.72938686434645 116.06204379582778,176.33350191207137 116.1605839417316,178.05219402513467 115.86496350355446,178.28135277202819 114.78102189814672,178.51051147154067 113.00729927048087,178.28135277202819 107.09489051112905,178.28135277202819 105.61678832117468,178.05219402513467 102.75912408763543,178.3959321276052 99.6058394163847,178.16677340469323 94.97445255471393,178.3959321276052 93.00364963524044,177.70845581649337 92.313868613448,177.02097907790449 90.63868613168597,176.67724054818973 90.24452554760501,176.21892234298866 89.45620437990874,176.10434276179876 89.06204379582778,175.87518356414512 88.66788321128115,175.3022853625007 87.09124087588862,174.61480712913908 82.85401459876448,173.58358897757716 82.45985401468351,173.12526949099265 81.57299270108342,172.89610967598855 80.7846715329215,171.86488992290106 77.2372262775898,171.17740955378395 75.75912408810109,171.40656972420402 74.47810218995437,170.8336692089215 73.78832116769627,171.40656972420402 73.78832116769627,173.35442925791722 73.19708029227331,174.3856476226356 73.0,175.53144467878155 73.39416058454663,176.21892234298866 74.1824817522429,177.02097907790449 74.77372262813151,177.13555856386665 75.46350364945829,176.9063995797187 76.54744525579736,176.79182006965857 78.02554744575173,177.02097907790449 78.91240875935182,177.36471750040073 80.09489051112905,178.28135277202819 81.17883211700246,178.73967012309004 84.33211678871885,180.00004185992293 87.48540145996958,180.11462103761733 89.25912408763543,180.6875167475082 91.13138686167076,181.83330727752764 92.41240875935182,182.4062020975398 95.95985401468351,182.7499388474971 97.83211678871885,183.66656965774018 98.9160583941266,184.4686209942447 99.90145985409617,184.92693578230683 101.47810218995437,184.92693578230683 102.75912408763543,184.35404226742685 104.6313868612051,183.09367549058516 105.91240875935182,182.6353599425638 106.99635036475956,182.4062020975398 108.08029197063297,182.6353599425638 109.45985401468351,183.43741202633828 109.75547445286065,184.12488477840088 109.36131386877969,185.15609310532454 109.45985401468351,186.87477151467465 109.9525547446683,188.02055563777685 110.64233576646075,188.5934472543886 111.62773722643033,188.93718208209611 113.00729927048087,189.0517603341723 114.48540145996958,188.70802554220427 116.35766423353925,188.5934472543886 117.83576642349362,188.70802554220427 120.59489051112905,189.39549501938745 121.48175182472914,189.1663385744905 122.17153284652159,188.822603818262 122.56569343106821,188.13513398496434 122.66423357650638,187.33308530633803 123.25547445239499,186.07272192265373 124.3394160582684,182.7499388474971 125.52189781004563,180.11462103761733 125.62043795641512,179.31256654532626 126.60583941591904,177.02097907790449 127.0,175.53144467878155 126.80291970819235,174.72938686434645 126.50729927048087,174.27106785192154 126.11313868593425,174.1564880691003 124.63503649644554,174.72938686434645 124.3394160582684,174.72938686434645 122.56569343106821,172.7815297509078 121.48175182472914,172.43778990465216 119.11678832117468,172.0940499510616 118.62408759165555,172.20862994762138 118.1313868612051,172.55236986512318 118.03284671530128,172.89610967598855 117.24452554760501,173.58358897757716 116.45620437944308,174.72938686434645 116.1605839417316,176.21892234298866 116.1605839417316,178.16677340469323 116.06204379582778,178.51051147154067 115.56934306584299,178.85424943140242 113.99270072998479,178.51051147154067 108.96715328469872,178.28135277202819 98.62043795641512,178.3959321276052 97.24087591283023,178.62509080325253 96.35401459876448,178.51051147154067 95.27007299289107,178.05219402513467 95.17153284652159,177.36471750040073 93.7919708029367,176.21892234298866 92.41240875935182,175.87518356414512 91.62408759165555,176.10434276179876 90.24452554760501,175.87518356414512 89.35766423353925,174.84396658744663 89.35766423353925,174.50022738194093 88.96350364992395,174.27106785192154 87.1897810222581,174.1564880691003 86.20437956228852,173.46900912374258 83.34671532828361,173.81274864985608 81.77007299289107,173.58358897757716 79.79927007341757,172.66694981383625 76.15328467171639,171.40656972420402 75.36496350402012,170.9482493356336 75.56204379582778,170.8336692089215 75.36496350402012,170.48992875707336 74.67518248176202,171.17740955378395 74.5766423358582,172.20862994762138 73.98540146043524,173.9273284683004 73.59124087588862,174.50022738194093 73.39416058454663,176.21892234298866 73.78832116769627,176.9063995797187 74.37956204405054,177.47929695085622 77.72992700710893,176.9063995797187 77.9270072998479,177.13555856386665 79.70072992751375,177.59387638955377 81.47445255471393,179.08340801217128 82.16423357697204,179.4271457939176 83.64233576646075,179.77088346914388 85.71167883230373,179.77088346914388 88.17518248176202,180.3437793571502 89.35766423353925,181.03125403111335 90.7372262775898,181.4895702431677 91.72262773755938,182.2916231576819 93.20072992751375,182.7499388474971 97.14233576646075,182.8645177402068 97.63503649644554,183.55199084815104 99.80291970819235,184.81235710298643 100.78832116769627,185.15609310532454 101.77372262813151,185.0415144499857 105.22262773755938,182.8645177402068 106.10948905115947,182.52078102587257 106.8978102193214,182.2916231576819 107.9817518251948,182.52078102587257 108.77007299289107,183.09367549058516 109.36131386877969,183.89572724187747 109.2627737224102,186.53103604656644 109.75547445286065,188.02055563777685 110.34671532828361,189.0517603341723 111.03649635054171,189.39549501938745 113.00729927048087,189.5100732240826 115.56934306584299,188.822603818262 117.0474452553317,188.5934472543886 118.62408759165555,188.822603818262 119.80656934296712,189.39549501938745 120.7919708029367,189.5100732240826 122.3686131387949,188.70802554220427 122.7627737224102,188.24971232004464 123.05839416058734,187.33308530633803" stroke="#4DD2FF" stroke-linecap="round" stroke-linejoin="round" stroke-width="0.5"><title>2024-10-13 5.5km</title><desc>12641545700</desc></polyline><polyline fill="none" points="166.86106032924727,182.69757484830916 168.8354661790654,183.27151706803124 169.23034734930843,183.73067062941846 169.3290676418692,184.41940061480273 168.93418647162616,185.68207114364486 168.93418647162616,186.60037607967388 169.03290676465258,187.17431627796032 169.6252285190858,188.0926199775422 170.41499085957184,188.66655940376222 171.50091407680884,189.12571073067375 172.68555758707225,189.24049853242468 177.02925045695156,188.78134725312702 179.8921389398165,189.35528632276691 181.6691042049788,189.12571073067375 182.06398537475616,188.66655940376222 182.26142595987767,187.4038922743639 183.7422303473577,183.61588225665037 184.03839122503996,182.0088437933009 184.828153565526,180.74616908025928 185.7166361976415,178.56518209748901 186.8025594148785,175.2362989555113 186.7038391227834,174.89193116361275 186.21023766044527,174.54756326426286 184.33455210272223,174.6623525756877 182.7550274222158,173.0553011316806 178.608775137458,172.25177453598008 177.6215722123161,172.71093266212847 176.53564899461344,173.6292483432917 175.74588665459305,174.54756326426286 175.35100548435003,176.0398233878659 175.35100548435003,178.22081533935852 174.8574040220119,178.67997099319473 168.44058500928804,177.9912374415435 163.99817184684798,177.9912374415435 162.2212065816857,177.7616594955325 157.08775137132034,177.7616594955325 153.33638025587425,178.33560427068733 152.54661791585386,178.1060263963882 152.34917733073235,177.7616594955325 151.26325411349535,177.6468705049483 150.57221206557006,177.18771442375146 150.17733089625835,176.7285581517499 150.07861060323194,176.26940169010777 150.27605118835345,175.81024503801018 150.07861060323194,175.35108819568995 149.28884826321155,174.7771418755874 148.49908592365682,174.54756326426286 147.51188299804926,175.12150970322546 145.73491773288697,174.89193116361275 145.04387568542734,174.31798460532445 141.98354661790654,173.28488005243707 141.1937842783518,172.82572216377594 140.79890310764313,172.25177453598008 139.51553930528462,171.33345771359745 138.42961608758196,171.44824735773727 135.96160877496004,170.9890887090005 135.36928702006117,170.75950931268744 135.17184643493965,170.5299298693426 135.27056672796607,170.3003503786167 134.7769652651623,170.75950931268744 133.49360146233812,173.6292483432917 133.0,175.12150970322546 133.29616087768227,176.7285581517499 133.7897623400204,177.3025034618331 136.2577696526423,177.18771442375146 137.2449725777842,177.417292487924 137.93601462524384,177.7616594955325 138.23217550246045,178.1060263963882 139.8117001829669,178.56518209748901 141.0950639853254,179.59828172950074 142.67458866536617,180.28701428277418 146.72212065802887,180.86095775011927 152.6453382084146,183.1567286476493 153.63254113355651,183.04194021574222 153.53382084099576,182.69757484830916 155.11334552103654,182.92715177196078 158.56855575880036,185.10813017270993 159.35831809882075,185.4524947910104 160.44424131605774,185.4524947910104 161.82632541144267,184.99334194255061 163.5045703840442,183.73067062941846 165.6764168194495,182.69757484830916 168.7367458869703,183.27151706803124 169.3290676418692,184.30461231374647 168.7367458869703,185.9116474490147 168.8354661790654,187.6334682230372 169.03290676465258,188.20740788662806 169.72394881164655,188.89613509061746 170.41499085957184,189.47007410088554 171.00731261447072,189.5848618670134 172.8829981717281,189.6996496214997 175.25228519178927,189.12571073067375 177.12797074951231,188.89613509061746 178.51005484443158,189.01092291658279 180.48446069471538,189.6996496214997 181.07678245007992,189.6996496214997 181.6691042049788,188.78134725312702 181.6691042049788,187.4038922743639 182.1627056673169,186.82995219470467 183.34734917758033,183.73067062941846 184.33455210272223,183.04194021574222 184.63071297993883,182.35320937423967 184.53199268784374,181.89405524241738 184.828153565526,181.5496895184042 185.42047531995922,180.17222555342596 185.8153564897366,178.56518209748901 186.11151736741886,178.1060263963882 187.0,175.12150970322546 186.8025594148785,174.6623525756877 186.11151736741886,174.20319525816012 184.7294332724996,174.7771418755874 184.33455210272223,174.7771418755874 182.55758683755994,172.94051165389828 181.175502742175,172.36656408535782 178.31261425977573,172.0221954016015 177.02925045695156,173.17009059793781 176.1407678243704,174.43277394084726 175.6471663620323,176.49897994485218 175.74588665459305,178.33560427068733 175.35100548435003,178.67997099319473 169.8226691042073,178.22081533935852 162.61608775146306,178.22081533935852 160.54296160908416,178.45039318990894" stroke="#4DD2FF" stroke-linecap="round" stroke-linejoin="round" stroke-width="0.5"><title>2024-09-09 5.2km</title><desc>12366514575</desc></polyline><polyline fill="none" points="45.557377049233764,241.94434559333604 46.245901639107615,242.05871593521442 48.50819672131911,242.85930799820926 49.09836065582931,243.431159116677 49.39344262285158,244.00300993875135 49.49180327868089,244.68923053436447 49.19672131119296,245.71856062870938 48.90163934417069,245.94730051932856 49.09836065582931,247.31973886839114 49.78688524570316,248.4634361898061 50.37704918021336,248.80654515558854 51.655737705063075,249.2640236101579 53.229508196469396,249.6071323271608 54.80327868834138,249.2640236101579 55.09836065582931,249.03528440673836 58.049180327914655,248.69217551196925 59.22950819693506,249.03528440673836 61.29508196702227,249.1496540143853 61.59016393404454,248.80654515558854 61.59016393404454,248.57780585659202 62.3770491797477,247.77721793891396 62.86885245889425,245.83293057978153 62.9672131142579,244.2317501846701 63.360655737575144,242.97367824590765 64.24590163957328,242.05871593521442 64.6393442619592,240.68627104896586 65.72131147515029,239.19945383060258 66.31147540919483,237.82700539077632 66.4098360654898,237.14078053133562 66.80327868834138,236.1114424430998 66.50819672131911,235.42521651776042 66.80327868834138,234.28150569449645 66.60655737668276,233.70964983897284 66.50819672131911,233.48090741364285 64.44262295076624,233.93839221668895 63.459016393404454,233.13779368728865 63.065573770552874,232.56593723921105 62.47540983604267,231.99408049532212 60.70491803251207,231.65096630703192 59.91803278634325,231.765337714809 57.754098360426724,232.45156591420528 57.26229508174583,232.79467985383235 56.86885245889425,233.93839221668895 56.77049180259928,235.1964744478464 56.57377049140632,235.88270051509608 55.09836065582931,238.5132298239041 54.60655737668276,238.85634188039694 53.8196721309796,238.62760052119847 52.73770491825417,238.05574691586662 51.655737705063075,237.82700539077632 49.98360655736178,237.14078053133562 45.459016393404454,236.34018432325684 42.11475409800187,236.79766794189345 38.27868852438405,236.56892615626566 36.50819672085345,236.68329705484211 32.08196721319109,237.59826381830499 31.09836065582931,237.36952219845261 27.655737704597414,235.3108454887988 25.68852458987385,233.36653618316632 24.213114753831178,233.13779368728865 22.344262294936925,233.36653618316632 21.557377049233764,233.13779368728865 20.672131147235632,232.33719457732514 20.672131147235632,231.1934805563651 21.163934426382184,230.96473761007655 20.967213114723563,230.85036611929536 18.4098360654898,230.27850848680828 15.950819672085345,230.39288003719412 15.262295081280172,229.70665055862628 14.180327869020402,230.7359946166398 13.983606557361782,231.42222345538903 14.180327869020402,231.765337714809 13.983606557361782,232.10845186794177 13.786885246168822,233.5952786321286 13.786885246168822,234.8533612539759 13.0,236.4545552454656 13.0,236.912038816954 14.278688524384052,237.36952219845261 15.459016393404454,237.14078053133562 16.836065573617816,237.25515137100592 19.49180327868089,238.62760052119847 20.967213114723563,239.8856774107553 22.836065573617816,240.68627104896586 25.88524590153247,240.915011981735 27.950819671619684,242.97367824590765 28.639344262424856,242.97367824590765 29.524590163957328,242.63056746823713 31.09836065582931,242.74493773910217 32.3770491797477,243.20241870451719 35.8196721309796,243.08804848103318 38.37704918021336,243.54552930465434 40.344262294936925,244.4604903833242 43.29508196702227,243.65989948110655 44.67213114723563,242.63056746823713 46.639344262424856,242.05871593521442 48.31147541012615,242.97367824590765 48.80327868834138,243.431159116677 48.90163934417069,244.68923053436447 48.90163934417069,247.20536907133646 49.39344262285158,248.80654515558854 51.065573770552874,249.83587141241878 51.360655737575144,250.2933494412573 51.754098360426724,250.2933494412573 52.245901639107615,250.17897995153908 52.73770491825417,249.72150187566876 54.80327868834138,248.69217551196925 57.16393442591652,248.3490665111458 58.147540983278304,248.9209147868678 60.50819672085345,249.1496540143853 61.19672131119296,249.03528440673836 61.78688524570316,248.57780585659202 62.18032786855474,248.00595740345307 62.77049180306494,245.2610807052115 63.26229508174583,244.68923053436447 63.5573770487681,243.65989948110655 64.34426229493693,242.4018268903019 64.7377049177885,240.68627104896586 65.8196721309796,238.74197120650206 66.70491803251207,235.9970714849187 67.0,234.05276338779368 66.80327868834138,233.5952786321286 66.50819672131911,233.48090741364285 64.6393442619592,233.70964983897284 63.852459016256034,233.25216494116466 63.655737705063075,232.6803085526917 63.065573770552874,232.10845186794177 60.60655737668276,231.53659488714766 57.459016393404454,232.6803085526917 56.08196721319109,233.70964983897284 55.39344262238592,235.88270051509608 55.19672131119296,236.68329705484211 55.29508196702227,237.36952219845261 55.09836065582931,238.28448839357588 54.80327868834138,238.3988591147354 54.21311475383118,238.3988591147354 52.836065573617816,237.59826381830499 52.147540983743966,237.36952219845261 49.49180327868089,237.14078053133562 46.836065573617816,236.56892615626566 45.557377049233764,236.68329705484211 44.77049180306494,236.912038816954 44.37704918021336,237.25515137100592 43.68852458987385,237.36952219845261" stroke="#4DD2FF" stroke-linecap="round" stroke-linejoin="round" stroke-width="0.5"><title>2024-09-08 5.3km</title><desc>12358368474</desc></polyline></svg>