<?xml version="1.0" encoding="utf-8" ?>
<svg baseProfile="full" height="200mm" version="1.1" viewBox="0,0,200,200" width="200mm" xmlns="http://www.w3.org/2000/svg" xmlns:ev="http://www.w3.org/2001/xml-events" xmlns:xlink="http://www.w3.org/1999/xlink"><defs /><rect fill="#1a1a1a" height="200" width="200" x="0" y="0" /><text alignment-baseline="middle" fill="#e1ed5e" style="dominant-baseline: central; font-size:9.0px; font-family:Arial;" text-anchor="middle" x="100.0" y="100.0">2025</text><line stroke="#e1ed5e" stroke-width="0.3" x1="100.0" x2="100.0" y1="15.0" y2="10.0" /><path d="M 100.0 14.0 a86.0,86.0 0 0,1 42.46469731375804,11.215312516191453" fill="none" id="id13" stroke="none" /><text fill="#e1ed5e" style="font-size:6.75px; font-family:Arial;" text-anchor="middle"><textPath startOffset="22.20632615414155" xlink:href="#id13">January</textPath></text><path d="M 101.44485096284872 79.0497635885617 l 2.0109906308475076 -29.15922141504225 a50.22848399846997,50.22848399846997 0 0,0 0.8620399241192971,0.06691088907276678 l -2.5126207443291455 29.120285263781017" fill="red" stroke="none" /><path d="M 103.59715602781102 79.31037775812273 l 6.328323982188453 -36.39837460577615 a57.944409027157974,57.944409027157974 0 0,0 0.9812054549936423,0.1793090251926563 l -6.953924558284997 36.28405009923276" fill="red" stroke="none" /><path d="M 103.95276090670814 79.375362276772 l 5.493157613489796 -28.662089210240325 a50.18373071528751,50.18373071528751 0 0,0 0.8469904697025837,0.1698983201496967 l -5.985714492659505 28.56328693401342" fill="red" stroke="none" /><path d="M 106.40334571778207 80.00007090966166 l 7.286734735586507 -22.759067592919767 a44.89710569934974,44.89710569934974 0 0,0 0.7339975056278393,0.24198743741184842 l -7.677415063456764 22.630266431248682" fill="red" stroke="none" /><path d="M 106.74666289553966 80.11325718540242 l 12.83132923330673 -37.82215717357072 a60.9394364401377,60.9394364401377 0 0,0 0.9904631580600625,0.34555314759324224 l -13.480474395430067 37.59568317280527" fill="red" stroke="none" /><path d="M 108.09893153111575 80.62456947434976 l 5.958138205319282 -14.25391638586706 a36.44906285860002,36.44906285860002 0 0,0 0.5767912191064072,0.24695189851597713 l -6.202613182216004 14.149244959388291" fill="red" stroke="none" /><line stroke="#e1ed5e" stroke-width="0.3" x1="143.23703022742887" x2="145.7803849466894" y1="26.81831364943548" y2="22.513508569990506" /><path d="M 143.74570117128098 25.957352633546492 a86.0,86.0 0 0,1 28.547481713284135,27.462654790039103" fill="none" id="id14" stroke="none" /><text fill="#e1ed5e" style="font-size:6.75px; font-family:Arial;" text-anchor="middle"><textPath startOffset="19.985693538727396" xlink:href="#id14">February</textPath></text><path d="M 111.60114157652 82.49532879139004 l 18.480345307301032 -27.884528974339137 a54.45250541884482,54.45250541884482 0 0,0 0.7768435714899167,0.5245282472249725 l -18.95759357319749 27.562288814815496" fill="red" stroke="none" /><path d="M 111.90073688211348 82.69761687909136 l 20.16390312582789 -29.316132316169874 a56.581155170215474,56.581155170215474 0 0,0 0.7977103872517292,0.5588471045823048 l -20.66554465266327 28.96470036882363" fill="red" stroke="none" /><path d="M 112.77801427241765 83.33499621200491 l 38.33404281725294 -49.995011363985284 a84.0,84.0 0 0,0 1.1398697793622787,0.8896864431071037 l -39.188945151774654 49.32774653165496" fill="red" stroke="none" /><path d="M 113.6212207817346 84.01681056812373 l 15.006888038542096 -17.609136372315042 a44.13629988524799,44.13629988524799 0 0,0 0.5739951049260636,0.49776289875019386 l -15.307776942114923 17.348208480145175" fill="red" stroke="none" /><path d="M 114.68862486808459 84.99185889309783 l 17.07702133076088 -17.44849147686476 a45.41463725615198,45.41463725615198 0 0,0 0.5539811530196892,0.551602181893992 l -17.37483828394789 17.151953444320647" fill="red" stroke="none" /><line stroke="#e1ed5e" stroke-width="0.3" x1="172.23445277983987" x2="176.4835382374775" y1="55.19839476539836" y2="52.563006222186495" /><path d="M 173.08426987136738 54.67131705675599 a86.0,86.0 0 0,1 12.851231095245387,41.99856678651699" fill="none" id="id15" stroke="none" /><text fill="#e1ed5e" style="font-size:6.75px; font-family:Arial;" text-anchor="middle"><textPath startOffset="22.20632615414155" xlink:href="#id15">March</textPath></text><path d="M 117.84615892207809 88.93136811851018 l 22.947987017777894 -14.232912630109743 a48.0034425602448,48.0034425602448 0 0,0 0.42948040404498555,0.7059528599812552 l -23.189583220109103 13.835791996921406" fill="red" stroke="none" /><path d="M 120.08093135843002 93.85539295169968 l 32.991381699198016 -10.095103304905043 a55.50133877342853,55.50133877342853 0 0,0 0.27167668230067044,0.9159587150045583 l -33.16026427861039 9.525715203153954" fill="red" stroke="none" /><path d="M 120.67395015179393 96.31383870115 l 28.796141565867327 -5.134346451304328 a50.2502868800204,50.2502868800204 0 0,0 0.1445010134647234,0.8528531612021649 l -28.880254440852273 4.637907501786325" fill="red" stroke="none" /><path d="M 120.94382443527127 98.46500227214037 l 38.31848944873968 -2.808407529418202 a59.42126737217901,59.42126737217901 0 0,0 0.06598423032799154,1.020746837862402 l -38.36115427007209 2.1484016273027646" fill="red" stroke="none" /><path d="M 120.96714384426684 98.82574320788733 l 39.395743670522336 -2.2063434070487298 a60.4574780058651,60.4574780058651 0 0,0 0.049248062094433276,1.039548753785817 l -39.42788534085027 1.5278835466399128" fill="red" stroke="none" /><line stroke="#e1ed5e" stroke-width="0.3" x1="184.98032266829074" x2="189.97916517819016" y1="98.17113171792111" y2="98.06355123074" /><path d="M 185.9800911702706 98.14961562048488 a86.0,86.0 0 0,1 -9.607161424134198,41.387399972396054" fill="none" id="id16" stroke="none" /><text fill="#e1ed5e" style="font-size:6.75px; font-family:Arial;" text-anchor="middle"><textPath startOffset="21.466115282336823" xlink:href="#id16">April</textPath></text><path d="M 120.9904718944345 100.63252640178507 l 33.35818441043908 1.0052147689358228 a54.37332653321433,54.37332653321433 0 0,0 -0.03624336196428965,0.9352801285397173 l -33.335938915623586 -1.5792721444895463" fill="red" stroke="none" /><path d="M 120.95626037817324 101.35467743843564 l 24.25957866586765 1.5682141418148514 a45.31021292872625,45.31021292872625 0 0,0 -0.057011988248979364,0.7778832834217697 l -24.228990118954336 -1.9855705617333914" fill="red" stroke="none" /><line stroke="#e1ed5e" stroke-width="0.3" x1="174.80103733775053" x2="179.2010983576182" y1="140.37084112569926" y2="142.7455964860345" /><path d="M 175.68104954172406 140.8457921977663 a86.0,86.0 0 0,1 -30.038265399797805,32.042727171017184" fill="none" id="id17" stroke="none" /><text fill="#e1ed5e" style="font-size:6.75px; font-family:Arial;" text-anchor="middle"><textPath startOffset="22.206326154141568" xlink:href="#id17">May</textPath></text><line stroke="#e1ed5e" stroke-width="0.3" x1="143.8653032363475" x2="146.44561519142675" y1="172.8068346515853" y2="177.08958963109032" /><path d="M 144.38136562736335 173.6633856474863 a86.0,86.0 0 0,1 -40.68145358897372,12.25698825130547" fill="none" id="id18" stroke="none" /><text fill="#e1ed5e" style="font-size:6.75px; font-family:Arial;" text-anchor="middle"><textPath startOffset="21.466115282336833" xlink:href="#id18">June</textPath></text><line stroke="#e1ed5e" stroke-width="0.3" x1="102.19456741930631" x2="102.32365962044197" y1="184.97166512339345" y2="189.96999836594603" /><path d="M 102.22038585953345 185.97133177190398 a86.0,86.0 0 0,1 -42.740103519485714,-10.115201625700543" fill="none" id="id19" stroke="none" /><text fill="#e1ed5e" style="font-size:6.75px; font-family:Arial;" text-anchor="middle"><textPath startOffset="22.20632615414155" xlink:href="#id19">July</textPath></text><line stroke="#e1ed5e" stroke-width="0.3" x1="58.666819895761336" x2="56.23545636021788" y1="174.27360380694188" y2="178.64263932499728" /><path d="M 58.180547188652646 175.14741091055294 a86.0,86.0 0 0,1 -31.652253787137756,-30.449443065178592" fill="none" id="id20" stroke="none" /><text fill="#e1ed5e" style="font-size:6.75px; font-family:Arial;" text-anchor="middle"><textPath startOffset="22.20632615414155" xlink:href="#id20">August</textPath></text><line stroke="#e1ed5e" stroke-width="0.3" x1="26.63291911575756" x2="22.317208475507996" y1="142.92168965132927" y2="145.44649492493687" /><path d="M 25.769776987707644 143.4266507060508 a86.0,86.0 0 0,1 -11.730757126820373,-40.83630448921669" fill="none" id="id21" stroke="none" /><text fill="#e1ed5e" style="font-size:6.75px; font-family:Arial;" text-anchor="middle"><textPath startOffset="21.46611528233685" xlink:href="#id21">September</textPath></text><line stroke="#e1ed5e" stroke-width="0.3" x1="15.007084014347285" x2="10.007500721073583" y1="101.09737516637583" y2="101.16192664675087" /><path d="M 14.007167355692545 101.11028546245083 a86.0,86.0 0 0,1 10.666146001902534,-42.60595125391555" fill="none" id="id22" stroke="none" /><text fill="#e1ed5e" style="font-size:6.75px; font-family:Arial;" text-anchor="middle"><textPath startOffset="22.20632615414155" xlink:href="#id22">October</textPath></text><line stroke="#e1ed5e" stroke-width="0.3" x1="26.266209847984243" x2="21.928928074336255" y1="57.711370442889674" y2="55.22380399835377" /><path d="M 25.398753493254645 57.213857153982495 a86.0,86.0 0 0,1 29.58750427330803,-30.492523968695096" fill="none" id="id23" stroke="none" /><text fill="#e1ed5e" style="font-size:6.75px; font-family:Arial;" text-anchor="middle"><textPath startOffset="21.46611528233685" xlink:href="#id23">November</textPath></text><line stroke="#e1ed5e" stroke-width="0.3" x1="56.762969772571076" x2="54.21961505331055" y1="26.818313649435495" y2="22.513508569990535" /><path d="M 56.25429882871897 25.957352633546506 a86.0,86.0 0 0,1 42.265352541879196,-11.944610805530505" fill="none" id="id24" stroke="none" /><text fill="#e1ed5e" style="font-size:6.75px; font-family:Arial;" text-anchor="middle"><textPath startOffset="22.20632615414155" xlink:href="#id24">December</textPath></text></svg>