<?xml version="1.0" encoding="utf-8" ?>
<svg baseProfile="full" height="200mm" version="1.1" viewBox="0,0,200,200" width="200mm" xmlns="http://www.w3.org/2000/svg" xmlns:ev="http://www.w3.org/2001/xml-events" xmlns:xlink="http://www.w3.org/1999/xlink"><defs /><rect fill="#1a1a1a" height="200" width="200" x="0" y="0" /><rect fill="#1a1a1a" height="200" width="180" x="10" y="0" /><text alignment-baseline="middle" fill="#e1ed5e" style="dominant-baseline: central; font-size:9.0px; font-family:Arial;" text-anchor="middle" x="100.0" y="100.0">2025</text><line stroke="#e1ed5e" stroke-width="0.3" x1="100.0" x2="100.0" y1="15.0" y2="10.0" /><path d="M 100.0 14.0 a86.0,86.0 0 0,1 42.46469731375804,11.215312516191453" fill="none" id="id13" stroke="none" /><text fill="#e1ed5e" style="font-size:6.75px; font-family:Arial;" text-anchor="middle"><textPath startOffset="22.20632615414155" xlink:href="#id13">January</textPath></text><path d="M 101.44485096284872 79.0497635885617 l 2.0109906308475076 -29.15922141504225 a50.22848399846997,50.22848399846997 0 0,0 0.8620399241192971,0.06691088907276678 l -2.5126207443291455 29.120285263781017" fill="red" stroke="none" /><path d="M 103.59715602781102 79.31037775812273 l 6.328323982188453 -36.39837460577615 a57.944409027157974,57.944409027157974 0 0,0 0.9812054549936423,0.1793090251926563 l -6.953924558284997 36.28405009923276" fill="red" stroke="none" /><path d="M 103.95276090670814 79.375362276772 l 5.493157613489796 -28.662089210240325 a50.18373071528751,50.18373071528751 0 0,0 0.8469904697025837,0.1698983201496967 l -5.985714492659505 28.56328693401342" fill="red" stroke="none" /><path d="M 106.40334571778207 80.00007090966166 l 7.286734735586507 -22.759067592919767 a44.89710569934974,44.89710569934974 0 0,0 0.7339975056278393,0.24198743741184842 l -7.677415063456764 22.630266431248682" fill="red" stroke="none" /><path d="M 106.74666289553966 80.11325718540242 l 12.83132923330673 -37.82215717357072 a60.9394364401377,60.9394364401377 0 0,0 0.9904631580600625,0.34555314759324224 l -13.480474395430067 37.59568317280527" fill="red" stroke="none" /><path d="M 108.09893153111575 80.62456947434976 l 5.958138205319282 -14.25391638586706 a36.44906285860002,36.44906285860002 0 0,0 0.5767912191064072,0.24695189851597713 l -6.202613182216004 14.149244959388291" fill="red" stroke="none" /><line stroke="#e1ed5e" stroke-width="0.3" x1="143.23703022742887" x2="145.7803849466894" y1="26.81831364943548" y2="22.513508569990506" /><path d="M 143.74570117128098 25.957352633546492 a86.0,86.0 0 0,1 28.547481713284135,27.462654790039103" fill="none" id="id14" stroke="none" /><text fill="#e1ed5e" style="font-size:6.75px; font-family:Arial;" text-anchor="middle"><textPath startOffset="19.985693538727396" xlink:href="#id14">February</textPath></text><path d="M 111.60114157652 82.49532879139004 l 18.480345307301032 -27.884528974339137 a54.45250541884482,54.45250541884482 0 0,0 0.7768435714899167,0.5245282472249725 l -18.95759357319749 27.562288814815496" fill="red" stroke="none" /><path d="M 111.90073688211348 82.69761687909136 l 20.16390312582789 -29.316132316169874 a56.581155170215474,56.581155170215474 0 0,0 0.7977103872517292,0.5588471045823048 l -20.66554465266327 28.96470036882363" fill="red" stroke="none" /><path d="M 112.77801427241765 83.33499621200491 l 38.33404281725294 -49.995011363985284 a84.0,84.0 0 0,0 1.1398697793622787,0.8896864431071037 l -39.188945151774654 49.32774653165496" fill="red" stroke="none" /><path d="M 113.6212207817346 84.01681056812373 l 15.006888038542096 -17.609136372315042 a44.13629988524799,44.13629988524799 0 0,0 0.5739951049260636,0.49776289875019386 l -15.307776942114923 17.348208480145175" fill="red" stroke="none" /><path d="M 114.68862486808459 84.99185889309783 l 17.07702133076088 -17.44849147686476 a45.41463725615198,45.41463725615198 0 0,0 0.5539811530196892,0.551602181893992 l -17.37483828394789 17.151953444320647" fill="red" stroke="none" /><line stroke="#e1ed5e" stroke-width="0.3" x1="172.23445277983987" x2="176.4835382374775" y1="55.19839476539836" y2="52.563006222186495" /><path d="M 173.08426987136738 54.67131705675599 a86.0,86.0 0 0,1 12.851231095245387,41.99856678651699" fill="none" id="id15" stroke="none" /><text fill="#e1ed5e" style="font-size:6.75px; font-family:Arial;" text-anchor="middle"><textPath startOffset="22.20632615414155" xlink:href="#id15">March</textPath></text><path d="M 117.84615892207809 88.93136811851018 l 22.947987017777894 -14.232912630109743 a48.0034425602448,48.0034425602448 0 0,0 0.42948040404498555,0.7059528599812552 l -23.189583220109103 13.835791996921406" fill="red" stroke="none" /><path d="M 120.08093135843002 93.85539295169968 l 32.991381699198016 -10.095103304905043 a55.50133877342853,55.50133877342853 0 0,0 0.27167668230067044,0.9159587150045583 l -33.16026427861039 9.525715203153954" fill="red" stroke="none" /><path d="M 120.67395015179393 96.31383870115 l 28.796141565867327 -5.134346451304328 a50.2502868800204,50.2502868800204 0 0,0 0.1445010134647234,0.8528531612021649 l -28.880254440852273 4.637907501786325" fill="red" stroke="none" /><path d="M 120.94382443527127 98.46500227214037 l 38.31848944873968 -2.808407529418202 a59.42126737217901,59.42126737217901 0 0,0 0.06598423032799154,1.020746837862402 l -38.36115427007209 2.1484016273027646" fill="red" stroke="none" /><path d="M 120.96714384426684 98.82574320788733 l 39.395743670522336 -2.2063434070487298 a60.4574780058651,60.4574780058651 0 0,0 0.049248062094433276,1.039548753785817 l -39.42788534085027 1.5278835466399128" fill="red" stroke="none" /><line stroke="#e1ed5e" stroke-width="0.3" x1="184.98032266829074" x2="189.97916517819016" y1="98.17113171792111" y2="98.06355123074" /><path d="M 185.9800911702706 98.14961562048488 a86.0,86.0 0 0,1 -9.607161424134198,41.387399972396054" fill="none" id="id16" stroke="none" /><text fill="#e1ed5e" style="font-size:6.75px; font-family:Arial;" text-anchor="middle"><textPath startOffset="21.466115282336823" xlink:href="#id16">April</textPath></text><path d="M 120.9904718944345 100.63252640178507 l 33.35818441043908 1.0052147689358228 a54.37332653321433,54.37332653321433 0 0,0 -0.03624336196428965,0.9352801285397173 l -33.335938915623586 -1.5792721444895463" fill="red" stroke="none" /><path d="M 120.95626037817324 101.35467743843564 l 24.25957866586765 1.5682141418148514 a45.31021292872625,45.31021292872625 0 0,0 -0.057011988248979364,0.7778832834217697 l -24.228990118954336 -1.9855705617333914" fill="red" stroke="none" /><path d="M 120.64145759157962 103.86396538481128 l 26.643914203473184 4.987591682483673 a48.10671936758892,48.10671936758892 0 0,0 -0.1593708424154323,0.8126284919736573 l -26.55411342808209 -5.445483901525275" fill="red" stroke="none" /><path d="M 120.32669344350535 105.2749913415812 l 41.015854471957994 10.644046844533024 a63.37447405329593,63.37447405329593 0 0,0 -0.2831086343698961,1.0535525474874559 l -40.82655776124632 -11.348490325196028" fill="red" stroke="none" /><path d="M 120.13307415673323 105.97154293290107 l 28.20229263626471 8.364902447218762 a50.41667729185261,50.41667729185261 0 0,0 -0.2539397465083819,0.8298897844447926 l -28.054126117250192 -8.849119204215611" fill="red" stroke="none" /><path d="M 120.02730092923936 106.31721596034902 l 54.880371231826125 17.310927632260757 a78.54583705214841,78.54583705214841 0 0,0 -0.4178180309114363,1.2859116752711177 l -54.57426094989844 -18.25303820750967" fill="red" stroke="none" /><path d="M 119.26925614724726 108.34839909993367 l 24.5789100150376 10.64880495016949 a47.78656126482214,47.78656126482214 0 0,0 -0.33350221825690024,0.7519594601549795 l -24.391966712049427 -11.070312746817157" fill="red" stroke="none" /><path d="M 118.64920377521936 109.65438752849418 l 31.421807391765924 16.266555348004022 a56.38263419609843,56.38263419609843 0 0,0 -0.45360498224305723,0.8580496809030534 l -31.13714990129797 -16.80502004399321" fill="red" stroke="none" /><line stroke="#e1ed5e" stroke-width="0.3" x1="174.80103733775053" x2="179.2010983576182" y1="140.37084112569926" y2="142.7455964860345" /><path d="M 175.68104954172406 140.8457921977663 a86.0,86.0 0 0,1 -30.038265399797805,32.042727171017184" fill="none" id="id17" stroke="none" /><text fill="#e1ed5e" style="font-size:6.75px; font-family:Arial;" text-anchor="middle"><textPath startOffset="22.206326154141568" xlink:href="#id17">May</textPath></text><path d="M 117.75023020441432 111.22182372390056 l 36.228238922701564 22.903754280144778 a63.861022567894935,63.861022567894935 0 0,0 -0.5954132208839172,0.9240945412053285 l -35.8286208384406 -23.523970421271557" fill="red" stroke="none" /><path d="M 116.71984013943494 112.70617746262583 l 45.878222943210055 34.86497702878395 a78.62272089761571,78.62272089761571 0 0,0 -0.8281338035390048,1.0704745746342939 l -45.27128232245298 -35.64952959753149" fill="red" stroke="none" /><path d="M 114.81725581225074 114.88116024355365 l 40.55400950082162 40.7289123942481 a78.47583832717072,78.47583832717072 0 0,0 -0.9654398366273347,0.9448860782899998 l -39.846919711818494 -41.42094857546067" fill="red" stroke="none" /><path d="M 113.20401910651253 116.32954008644616 l 16.758697571281022 20.725645849140356 a47.653448935356366,47.653448935356366 0 0,0 -0.6422834127299496,0.5102687879166753 l -16.39945666583372 -21.01104855106216" fill="red" stroke="none" /><path d="M 111.1453310114006 117.79835938074945 l 15.139712406645097 24.177123322674483 a49.5262017085299,49.5262017085299 0 0,0 -0.7264333464083447,0.44623469321133047 l -14.721299860304445 -24.434146482714194" fill="red" stroke="none" /><line stroke="#e1ed5e" stroke-width="0.3" x1="143.8653032363475" x2="146.44561519142675" y1="172.8068346515853" y2="177.08958963109032" /><path d="M 144.38136562736335 173.6633856474863 a86.0,86.0 0 0,1 -40.68145358897372,12.25698825130547" fill="none" id="id18" stroke="none" /><text fill="#e1ed5e" style="font-size:6.75px; font-family:Arial;" text-anchor="middle"><textPath startOffset="21.466115282336833" xlink:href="#id18">June</textPath></text><path d="M 110.8373102113329 117.98757091392108 l 13.51322826792257 22.429011166541503 a47.18526074206299,47.18526074206299 0 0,0 -0.6993128169920555,0.41316633866391594 l -13.125147579902132 -22.65829607749917" fill="red" stroke="none" /><path d="M 106.57524785965236 119.94407469862006 l 12.61598211850277 38.26686006954225 a61.292872625270945,61.292872625270945 0 0,0 -1.0048489401400287,0.3217208985491816 l -11.9554118332718 -38.47835381475114" fill="red" stroke="none" /><path d="M 104.13013068566511 120.58985236759428 l 6.268656850969963 31.251001221961268 a52.873517786561266,52.873517786561266 0 0,0 -0.8938957688451554,0.1713172515890348 l -5.729793467553104 -31.35427567189877" fill="red" stroke="none" /><path d="M 101.62511606390274 120.93702456842531 l 2.114299650213666 27.239373669858747 a48.3213056228484,48.3213056228484 0 0,0 -0.8298315359705523,0.057230041236894194 l -1.6451053534641833 -27.271732055611928" fill="red" stroke="none" /><line stroke="#e1ed5e" stroke-width="0.3" x1="102.19456741930631" x2="102.32365962044197" y1="184.97166512339345" y2="189.96999836594603" /><path d="M 102.22038585953345 185.97133177190398 a86.0,86.0 0 0,1 -42.740103519485714,-10.115201625700543" fill="none" id="id19" stroke="none" /><text fill="#e1ed5e" style="font-size:6.75px; font-family:Arial;" text-anchor="middle"><textPath startOffset="22.20632615414155" xlink:href="#id19">July</textPath></text><path d="M 96.58105272829116 120.7198165907248 l -4.125080914336604 24.999192199952837 a46.33724340175953,46.33724340175953 0 0,0 -0.7858598522231726,-0.13663180851690845 l 4.554789738031827 -24.924481812914923" fill="red" stroke="none" /><path d="M 96.22490169976321 120.6578951692458 l -5.083087587628723 27.815405631885707 a49.27604233074078,49.27604233074078 0 0,0 -0.8330757549118586,-0.1596609511658611 l 5.561130957112278 -27.723787482371378" fill="red" stroke="none" /><path d="M 94.11515582081647 120.15858648285463 l -12.9370958364729 44.316137745672656 a67.16588040290705,67.16588040290705 0 0,0 -1.1070377176761712,-0.33354138316695914 l 13.698008528589316 -44.08688099339997" fill="red" stroke="none" /><line stroke="#e1ed5e" stroke-width="0.3" x1="58.666819895761336" x2="56.23545636021788" y1="174.27360380694188" y2="178.64263932499728" /><path d="M 58.180547188652646 175.14741091055294 a86.0,86.0 0 0,1 -31.652253787137756,-30.449443065178592" fill="none" id="id20" stroke="none" /><text fill="#e1ed5e" style="font-size:6.75px; font-family:Arial;" text-anchor="middle"><textPath startOffset="22.20632615414155" xlink:href="#id20">August</textPath></text><path d="M 89.4739219176387 118.17145234162733 l -20.203949949237128 34.87862342864437 a61.30779038633175,61.30779038633175 0 0,0 -0.9086168630706534,-0.5368268583692486 l 20.80133468333616 -34.52567799798137" fill="red" stroke="none" /><path d="M 86.79598089348748 116.32954008644616 l -16.340217156619502 20.208107011042397 a46.98788728802754,46.98788728802754 0 0,0 -0.6245582351744656,-0.5139689078404074 l 16.685645520338657 -19.92384298434481" fill="red" stroke="none" /><path d="M 85.44109423537348 115.13401014063109 l -28.855543851046527 29.995392532603972 a62.62170087976539,62.62170087976539 0 0,0 -0.7703961621236265,-0.7539947915363003 l 29.367589965545946 -29.494247638145104" fill="red" stroke="none" /><path d="M 83.50135304334701 112.99209946851258 l -22.581998996570782 17.782523496145966 a49.74308300395257,49.74308300395257 0 0,0 -0.5239443262395274,-0.6772686700705279 l 22.884750140028377 -17.391176831962184" fill="red" stroke="none" /><path d="M 82.05923443525364 110.91462005526583 l -23.750984171715093 14.449381618491023 a48.800969016957794,48.800969016957794 0 0,0 -0.4304225117332686,-0.7214128875215783 l 23.996187559146595 -14.038406637083334" fill="red" stroke="none" /><line stroke="#e1ed5e" stroke-width="0.3" x1="26.63291911575756" x2="22.317208475507996" y1="142.92168965132927" y2="145.44649492493687" /><path d="M 25.769776987707644 143.4266507060508 a86.0,86.0 0 0,1 -11.730757126820373,-40.83630448921669" fill="none" id="id21" stroke="none" /><text fill="#e1ed5e" style="font-size:6.75px; font-family:Arial;" text-anchor="middle"><textPath startOffset="21.46611528233685" xlink:href="#id21">September</textPath></text><path d="M 80.87730276802145 108.67885076344099 l -29.794291516114686 13.5221619907466 a53.71924008670152,53.71924008670152 0 0,0 -0.3749063598174724,-0.8453148689999417 l 30.02263896066344 -13.007298785253964" fill="red" stroke="none" /><path d="M 79.97269907076064 106.31721596034903 l -29.99991259029372 9.462879061640841 a52.45696799693995,52.45696799693995 0 0,0 -0.26421632426566516,-0.8634742351544082 l 30.158355687065516 -8.945077853934386" fill="red" stroke="none" /><line stroke="#e1ed5e" stroke-width="0.3" x1="15.007084014347285" x2="10.007500721073583" y1="101.09737516637583" y2="101.16192664675087" /><path d="M 14.007167355692545 101.11028546245083 a86.0,86.0 0 0,1 10.666146001902534,-42.60595125391555" fill="none" id="id22" stroke="none" /><text fill="#e1ed5e" style="font-size:6.75px; font-family:Arial;" text-anchor="middle"><textPath startOffset="22.20632615414155" xlink:href="#id22">October</textPath></text><path d="M 79.00486145842228 99.54816195383935 l -15.524646987010962 -0.3341071623820637 a36.52824174423053,36.52824174423053 0 0,0 0.01893955510044013,-0.6285116287746182 l 15.516595737454876 0.6012889385816763" fill="red" stroke="none" /><path d="M 79.08570108090925 98.10471618934814 l -28.738923239196474 -2.6043625063184006 a49.8566874920311,49.8566874920311 0 0,0 0.08481067529420136,-0.8540319261383789 l 28.689835438220044 3.0986699631612096" fill="red" stroke="none" /><path d="M 80.65960295795068 91.81776055985345 l -27.900392446955546 -11.803671402335222 a51.294530154277695,51.294530154277695 0 0,0 0.3510238341630693,-0.8102114062001138 l 27.693077902949796 12.282181953121935" fill="red" stroke="none" /><line stroke="#e1ed5e" stroke-width="0.3" x1="26.266209847984243" x2="21.928928074336255" y1="57.711370442889674" y2="55.22380399835377" /><path d="M 25.398753493254645 57.213857153982495 a86.0,86.0 0 0,1 29.58750427330803,-30.492523968695096" fill="none" id="id23" stroke="none" /><text fill="#e1ed5e" style="font-size:6.75px; font-family:Arial;" text-anchor="middle"><textPath startOffset="21.46611528233685" xlink:href="#id23">November</textPath></text><path d="M 81.78341655067845 89.55222093294921 l -24.954273901625196 -14.312054794916092 a49.767180925666196,49.767180925666196 0 0,0 0.43259606699358766,-0.7394469065674549 l 24.704218160161282 14.739481113837439" fill="red" stroke="none" /><path d="M 83.17141714833178 87.43820079747576 l -23.939372545717497 -17.869691916685312 a50.87339028432998,50.87339028432998 0 0,0 0.5298683075024776,-0.6972445822084018 l 23.62822829799091 18.279121274774738" fill="red" stroke="none" /><path d="M 85.05521093208273 85.24692304244772 l -24.691935060793796 -24.375186329313728 a55.696417187300774,55.696417187300774 0 0,0 0.679401340111067,-0.6764837748435952 l 24.268697920515415 24.796605954807433" fill="red" stroke="none" /><line stroke="#e1ed5e" stroke-width="0.3" x1="56.762969772571076" x2="54.21961505331055" y1="26.818313649435495" y2="22.513508569990535" /><path d="M 56.25429882871897 25.957352633546506 a86.0,86.0 0 0,1 42.265352541879196,-11.944610805530505" fill="none" id="id24" stroke="none" /><text fill="#e1ed5e" style="font-size:6.75px; font-family:Arial;" text-anchor="middle"><textPath startOffset="22.20632615414155" xlink:href="#id24">December</textPath></text></svg>