<?xml version="1.0" encoding="utf-8" ?>
<svg baseProfile="full" height="200mm" version="1.1" viewBox="0,0,200,200" width="200mm" xmlns="http://www.w3.org/2000/svg" xmlns:ev="http://www.w3.org/2001/xml-events" xmlns:xlink="http://www.w3.org/1999/xlink"><defs /><rect fill="#1a1a1a" height="200" width="200" x="0" y="0" /><rect fill="#1a1a1a" height="200" width="180" x="10" y="0" /><text alignment-baseline="middle" fill="#e1ed5e" style="dominant-baseline: central; font-size:9.0px; font-family:Arial;" text-anchor="middle" x="100.0" y="100.0">2024</text><line stroke="#e1ed5e" stroke-width="0.3" x1="100.0" x2="100.0" y1="15.0" y2="10.0" /><path d="M 100.0 14.0 a86.0,86.0 0 0,1 42.35913384403234,11.155469271406648" fill="none" id="id1" stroke="none" /><text fill="#e1ed5e" style="font-size:6.75px; font-family:Arial;" text-anchor="middle"><textPath startOffset="22.145653131862478" xlink:href="#id1">January</textPath></text><line stroke="#e1ed5e" stroke-width="0.3" x1="143.13028292997686" x2="145.6673583964461" y1="26.7553504044142" y2="22.446841604673864" /><path d="M 143.63769802327073 25.89364864446614 a86.0,86.0 0 0,1 29.32050498858742,28.57503671076993" fill="none" id="id2" stroke="none" /><text fill="#e1ed5e" style="font-size:6.75px; font-family:Arial;" text-anchor="middle"><textPath startOffset="20.669276256404974" xlink:href="#id2">February</textPath></text><line stroke="#e1ed5e" stroke-width="0.3" x1="172.87174338648825" x2="177.1583165268699" y1="56.24261187166439" y2="53.66864786411523" /><path d="M 173.72905801456457 55.72781907015455 a86.0,86.0 0 0,1 12.242430191666344,42.057860355516425" fill="none" id="id3" stroke="none" /><text fill="#e1ed5e" style="font-size:6.75px; font-family:Arial;" text-anchor="middle"><textPath startOffset="22.145653131862474" xlink:href="#id3">March</textPath></text><line stroke="#e1ed5e" stroke-width="0.3" x1="184.99686870605535" x2="189.99668451229388" y1="99.2704041080226" y2="99.22748670261217" /><path d="M 185.99683186730306 99.26182062694052 a86.0,86.0 0 0,1 -10.086455211305974,41.156179273409016" fill="none" id="id4" stroke="none" /><text fill="#e1ed5e" style="font-size:6.75px; font-family:Arial;" text-anchor="middle"><textPath startOffset="21.40746469413373" xlink:href="#id4">April</textPath></text><line stroke="#e1ed5e" stroke-width="0.3" x1="174.33088141563837" x2="178.70328620479359" y1="141.23008692659167" y2="143.65538615756765" /><path d="M 175.20536237346943 141.71514677278685 a86.0,86.0 0 0,1 -30.301960400862466,31.631185727798858" fill="none" id="id5" stroke="none" /><text fill="#e1ed5e" style="font-size:6.75px; font-family:Arial;" text-anchor="middle"><textPath startOffset="22.145653131862474" xlink:href="#id5">May</textPath></text><line stroke="#e1ed5e" stroke-width="0.3" x1="143.1302829299769" x2="145.66735839644613" y1="173.24464959558577" y2="177.55315839532614" /><path d="M 143.63769802327073 174.10635135553383 a86.0,86.0 0 0,1 -40.68552437913181,11.842963189579606" fill="none" id="id6" stroke="none" /><text fill="#e1ed5e" style="font-size:6.75px; font-family:Arial;" text-anchor="middle"><textPath startOffset="21.407464694133747" xlink:href="#id6">June</textPath></text><line stroke="#e1ed5e" stroke-width="0.3" x1="101.45913802915013" x2="101.54496967792366" y1="184.9874750549273" y2="189.98673829345242" /><path d="M 101.47630435890484 185.9873277026323 a86.0,86.0 0 0,1 -42.54439059252881,-10.42667462771756" fill="none" id="id7" stroke="none" /><text fill="#e1ed5e" style="font-size:6.75px; font-family:Arial;" text-anchor="middle"><textPath startOffset="22.145653131862474" xlink:href="#id7">July</textPath></text><line stroke="#e1ed5e" stroke-width="0.3" x1="58.13341422392154" x2="55.67067388415222" y1="173.97424548756322" y2="178.32567169271397" /><path d="M 57.64086615596768 174.84453072859336 a86.0,86.0 0 0,1 -31.369924170532247,-30.572349798747897" fill="none" id="id8" stroke="none" /><text fill="#e1ed5e" style="font-size:6.75px; font-family:Arial;" text-anchor="middle"><textPath startOffset="22.145653131862474" xlink:href="#id8">August</textPath></text><line stroke="#e1ed5e" stroke-width="0.3" x1="26.387840678322732" x2="22.057713659400548" y1="142.50000000000003" y2="145.00000000000006" /><path d="M 25.521815274538298 143.00000000000003 a86.0,86.0 0 0,1 -11.493303480769221,-40.785679425670985" fill="none" id="id9" stroke="none" /><text fill="#e1ed5e" style="font-size:6.75px; font-family:Arial;" text-anchor="middle"><textPath startOffset="21.40746469413373" xlink:href="#id9">September</textPath></text><path d="M 80.83023694016515 108.57439118712176 l -6.300504326194297 2.8181354459270183 a27.902046229632436,27.902046229632436 0 0,0 -0.1918147665692919,-0.43890972383406407 l 6.347952974780557 -2.7095636523171045" fill="red" stroke="none" /><path d="M 80.68587082218212 108.24405325689762 l -27.616705900659422 11.787929558149392 a51.02728306176583,51.02728306176583 0 0,0 -0.33696025638990823,-0.8085819492615822 l 27.814992001585814 -11.312115099446528" fill="red" stroke="none" /><path d="M 80.5471966667186 107.91128576633889 l -27.627024405906134 11.235670314663789 a50.824365289882536,50.824365289882536 0 0,0 -0.32174564122108085,-0.8110091956859913 l 27.81582872209334 -10.759760101764233" fill="red" stroke="none" /><path d="M 79.73907114497094 105.5222062557868 l -21.93243080788265 5.9777815458760735 a43.7324744221296,43.7324744221296 0 0,0 -0.19119529439949856,-0.7259996750272443 l 22.031815583086882 -5.600401366476026" fill="red" stroke="none" /><path d="M 79.64726062577567 105.17358676015961 l -22.616848041686627 5.749114329700448 a44.336112163698374,44.336112163698374 0 0,0 -0.18117102140085725,-0.7392395920781415 l 22.712206589603777 -5.360018913014207" fill="red" stroke="none" /><path d="M 79.2786578344484 103.40968896794605 l -24.228367352613645 3.9867686278975056 a45.55418719211822,45.55418719211822 0 0,0 -0.12034658725108398,-0.772711420968547 l 24.293235432002998 -3.5702690249975086" fill="red" stroke="none" /><path d="M 79.0935383218832 101.97986365728391 l -21.809582796459097 2.0653901661624148 a42.90716180371353,42.90716180371353 0 0,0 -0.06314785388926927,-0.7338737827019441 l 21.841824273046107 -1.6906953360848087" fill="red" stroke="none" /><path d="M 79.03789590574601 101.26102812881392 l -16.213772768405143 0.9753803073976978 a37.24308450170519,37.24308450170519 0 0,0 -0.032912973908866695,-0.638502901060371 l 16.228127331770583 -0.6969056129605959" fill="red" stroke="none" /><path d="M 79.00696218219943 100.54070618675478 l -18.136084584760436 0.46712120578245886 a39.14209928003032,39.14209928003032 0 0,0 -0.011534931369822516,-0.6718519238539269 l 18.141430947728924 -0.15572236595947964" fill="red" stroke="none" /><line stroke="#e1ed5e" stroke-width="0.3" x1="15.003131293944662" x2="10.003315487706104" y1="100.72959589197737" y2="100.7725132973878" /><path d="M 14.003168132696942 100.73817937305945 a86.0,86.0 0 0,1 10.791469493833604,-42.45332614584628" fill="none" id="id10" stroke="none" /><text fill="#e1ed5e" style="font-size:6.75px; font-family:Arial;" text-anchor="middle"><textPath startOffset="22.145653131862435" xlink:href="#id10">October</textPath></text><path d="M 79.00077361379809 100.18025310272382 l -16.499392160587213 0.1416274378544311 a37.5,37.5 0 0,0 0.0,-0.6437610811564912 l 16.499392160587213 0.14162743785442503" fill="red" stroke="none" /><path d="M 79.06263194458094 98.37931529534042 l -16.756241505511575 -1.2970390664043367 a37.80636604774536,37.80636604774536 0 0,0 0.05564084826185009,-0.646630998074324 l 16.73150703455198 1.5844911118543414" fill="red" stroke="none" /><path d="M 79.0935383218832 98.0201363427161 l -16.171866191168196 -1.5314925421295063 a37.24422129594544,37.24422129594544 0 0,0 0.0657406751106746,-0.6359813965628794 l 16.14319312357586 1.8088784609752984" fill="red" stroke="none" /><path d="M 79.22317932658666 96.9465228501225 l -14.154511350344121 -2.0802257311323666 a35.30655551345207,35.30655551345207 0 0,0 0.09327404845827356,-0.5988863013897595 l 14.11671580974758 2.322900214453576" fill="red" stroke="none" /><path d="M 79.34024301695615 96.23510406497455 l -17.419822160336217 -3.174471882420633 a38.70670708601743,38.70670708601743 0 0,0 0.12473458962186759,-0.6526640807221715 l 17.36276127843219 3.473038528176119" fill="red" stroke="none" /><path d="M 79.407916724674 95.88100663000787 l -30.873633651007783 -6.175591396740492 a52.485221674876854,52.485221674876854 0 0,0 0.18430382829504666,-0.8819605371286909 l 30.76307211188837 6.704668385154592" fill="red" stroke="none" /><path d="M 80.05021161711548 93.44210830539832 l -15.04684683260597 -4.94619742223165 a36.83895414929898,36.83895414929898 0 0,0 0.20263982182244034,-0.5990686264813684 l 14.959721589211165 5.20376772318718" fill="red" stroke="none" /><path d="M 80.16572619554312 93.10060997987247 l -14.967774263575558 -5.206568861342919 a36.8474801061008,36.8474801061008 0 0,0 0.212943043808837,-0.5956395924509826 l 14.876191049722777 5.462743410174823" fill="red" stroke="none" /><path d="M 80.5471966667186 92.08871423366112 l -16.036215858868392 -6.5217893841114885 a38.311671087533156,38.311671087533156 0 0,0 0.25299231583142257,-0.6070894593766711 l 15.92189769850049 6.796111352929423" fill="red" stroke="none" /><path d="M 80.9802524753101 91.09779779509293 l -57.05924257406971 -26.706606614721213 a84.0,84.0 0 0,0 0.6224829681603801,-1.3007499917396512 l 56.59238034794942 27.68216910852595" fill="red" stroke="none" /><line stroke="#e1ed5e" stroke-width="0.3" x1="26.387840678322718" x2="22.05771365940052" y1="57.49999999999999" y2="54.99999999999999" /><path d="M 25.521815274538284 56.99999999999999 a86.0,86.0 0 0,1 29.574782752854787,-30.34633250058573" fill="none" id="id11" stroke="none" /><text fill="#e1ed5e" style="font-size:6.75px; font-family:Arial;" text-anchor="middle"><textPath startOffset="21.40746469413373" xlink:href="#id11">November</textPath></text><path d="M 81.81346652052679 89.5 l -15.132144905875764 -8.736547934823799 a38.473095869647594,38.473095869647594 0 0,0 0.33513050891694973,-0.5691248706683522 l 14.979940686829035 8.995023973785724" fill="red" stroke="none" /><path d="M 81.99639281039701 89.18935116829357 l -13.878166317325105 -8.333440121447497 a37.187949981053436,37.187949981053436 0 0,0 0.3333315963173675,-0.5444721117424254 l 13.733066756552345 8.570449349314465" fill="red" stroke="none" /><path d="M 82.18462484594161 88.88188828441811 l -13.433620322008133 -8.383572627196335 a36.83497536945813,36.83497536945813 0 0,0 0.3393769553993451,-0.5335569429017665 l 13.287725674982898 8.612943244776773" fill="red" stroke="none" /><path d="M 83.2033758604659 87.39550010848427 l -14.217983633946563 -10.66943998287401 a38.77605153467223,38.77605153467223 0 0,0 0.4040982002081198,-0.5289775157989194 l 14.032733456384136 10.911938411913813" fill="red" stroke="none" /><path d="M 83.42222388311158 87.10902102172516 l -10.94206810984791 -8.508618344725019 a34.860932171277,34.860932171277 0 0,0 0.371407656468677,-0.46926144101728656 l 10.79439402273767 8.695199729656988" fill="red" stroke="none" /><path d="M 83.64595745247003 86.82634096563983 l -17.733773793690613 -14.285072860216841 a43.77169382341796,43.77169382341796 0 0,0 0.4763885643169044,-0.5811165887695762 l 17.48593841013508 14.58739173068491" fill="red" stroke="none" /><path d="M 84.34580500576568 86.00192230759919 l -11.803990102971193 -10.55520073709182 a36.83497536945813,36.83497536945813 0 0,0 0.425535700669704,-0.46773827791874595 l 11.621056701459622 10.756276590568223" fill="red" stroke="none" /><path d="M 85.08716467003674 85.21462403516908 l -20.795869350810285 -20.618127945760133 a50.28438802576734,50.28438802576734 0 0,0 0.6130099821864714,-0.6077706121122707 l 20.438867448493838 20.97207856810108" fill="red" stroke="none" /><path d="M 85.34317274990677 84.96080404539775 l -9.290141843303287 -9.532503948055957 a34.31072375899962,34.31072375899962 0 0,0 0.42533454401632126,-0.40746087171100154 l 9.125134813421665 9.690576950072527" fill="red" stroke="none" /><path d="M 85.60350026404147 84.71141617570332 l -9.00979448099478 -9.568089514030959 a34.14247821144373,34.14247821144373 0 0,0 0.4301468223004779,-0.39813747700214 l 8.84421788738035 9.721344737165465" fill="red" stroke="none" /><path d="M 87.25179093698888 83.31218511350988 l -12.489421730221151 -16.349053960683058 a41.57370215990906,41.57370215990906 0 0,0 0.5708406075106847,-0.42836943398084903 l 12.206928133799714 16.561042421927908" fill="red" stroke="none" /><path d="M 88.12776184653039 82.6780497279521 l -6.113820254098218 -8.9202464644612 a31.814323607427056,31.814323607427056 0 0,0 0.4531324896507149,-0.30488776169749005 l 5.959791476350514 9.0238839002158" fill="red" stroke="none" /><line stroke="#e1ed5e" stroke-width="0.3" x1="56.869717070023135" x2="54.33264160355391" y1="26.7553504044142" y2="22.446841604673864" /><path d="M 56.362301976729285 25.89364864446614 a86.0,86.0 0 0,1 42.16139366436587,-11.88097634709845" fill="none" id="id12" stroke="none" /><text fill="#e1ed5e" style="font-size:6.75px; font-family:Arial;" text-anchor="middle"><textPath startOffset="22.145653131862474" xlink:href="#id12">December</textPath></text><path d="M 89.34428304082924 81.90426304109057 l -9.328439055037594 -15.84172890702557 a39.38423645320197,39.38423645320197 0 0,0 0.5855264413455558,-0.33805384852849846 l 9.055120145831639 15.999529652830242" fill="red" stroke="none" /><path d="M 90.28995756902619 81.37971332152246 l -7.30395142097097 -14.006289911805588 a36.796324365289884,36.796324365289884 0 0,0 0.5625856235567537,-0.28726022796935397 l 7.062438575700633 14.129608091447777" fill="red" stroke="none" /><path d="M 90.61103034731259 81.2157712731953 l -7.504110996432802 -15.013248797537383 a37.78419856006063,37.78419856006063 0 0,0 0.582667878263006,-0.2850120571181641 l 7.2452828689077435 15.13985460475276" fill="red" stroke="none" /><path d="M 92.93061703081487 80.22567764915836 l -4.969577612615061 -13.900793051915203 a35.76241000378931,35.76241000378931 0 0,0 0.5798521040023932,-0.20170266171303305 l 4.730219736567664 13.984054146196822" fill="red" stroke="none" /><path d="M 93.95794788825049 79.88797359093562 l -4.235618191260548 -14.098995398548357 a35.721485411140584,35.721485411140584 0 0,0 0.5887921199010567,-0.1713888049549015 l 3.992966058977867 14.16962789780578" fill="red" stroke="none" /><path d="M 96.41257539226777 79.30868818359171 l -2.394950142091576 -13.813435986350635 a35.01951496779083,35.01951496779083 0 0,0 0.5932013955339449,-0.09761106389550632 l 2.1574712435045584 13.85251304874181" fill="red" stroke="none" /><path d="M 97.84075906011542 79.11130261209362 l -0.773144545924676 -7.479472141628687 a28.519325502084126,28.519325502084126 0 0,0 0.4874094464125168,-0.046158181332956426 l 0.6446355361271435 7.491642078466827" fill="red" stroke="none" /><path d="M 98.9189461498227 79.02784411241856 l -1.3637383423161669 -26.45615951530634 a47.49128457749147,47.49128457749147 0 0,0 0.8145303476565712,-0.03497943783675482 l 0.9093822340587757 26.47567152156892" fill="red" stroke="none" /></svg>