<?xml version="1.0" encoding="utf-8" ?>
<svg baseProfile="full" height="200mm" version="1.1" viewBox="0,0,200,200" width="200mm" xmlns="http://www.w3.org/2000/svg" xmlns:ev="http://www.w3.org/2001/xml-events" xmlns:xlink="http://www.w3.org/1999/xlink"><defs /><rect fill="#1a1a1a" height="200" width="200" x="0" y="0" /><rect fill="#1a1a1a" height="200" width="180" x="10" y="0" /><text alignment-baseline="middle" fill="#e1ed5e" style="dominant-baseline: central; font-size:9.0px; font-family:Arial;" text-anchor="middle" x="100.0" y="100.0">2024</text><line stroke="#e1ed5e" stroke-width="0.3" x1="100.0" x2="100.0" y1="15.0" y2="10.0" /><path d="M 100.0 14.0 a86.0,86.0 0 0,1 42.35913384403234,11.155469271406648" fill="none" id="id1" stroke="none" /><text fill="#e1ed5e" style="font-size:6.75px; font-family:Arial;" text-anchor="middle"><textPath startOffset="22.145653131862478" xlink:href="#id1">January</textPath></text><line stroke="#e1ed5e" stroke-width="0.3" x1="143.13028292997686" x2="145.6673583964461" y1="26.7553504044142" y2="22.446841604673864" /><path d="M 143.63769802327073 25.89364864446614 a86.0,86.0 0 0,1 29.32050498858742,28.57503671076993" fill="none" id="id2" stroke="none" /><text fill="#e1ed5e" style="font-size:6.75px; font-family:Arial;" text-anchor="middle"><textPath startOffset="20.669276256404974" xlink:href="#id2">February</textPath></text><line stroke="#e1ed5e" stroke-width="0.3" x1="172.87174338648825" x2="177.1583165268699" y1="56.24261187166439" y2="53.66864786411523" /><path d="M 173.72905801456457 55.72781907015455 a86.0,86.0 0 0,1 12.242430191666344,42.057860355516425" fill="none" id="id3" stroke="none" /><text fill="#e1ed5e" style="font-size:6.75px; font-family:Arial;" text-anchor="middle"><textPath startOffset="22.145653131862474" xlink:href="#id3">March</textPath></text><line stroke="#e1ed5e" stroke-width="0.3" x1="184.99686870605535" x2="189.99668451229388" y1="99.2704041080226" y2="99.22748670261217" /><path d="M 185.99683186730306 99.26182062694052 a86.0,86.0 0 0,1 -10.086455211305974,41.156179273409016" fill="none" id="id4" stroke="none" /><text fill="#e1ed5e" style="font-size:6.75px; font-family:Arial;" text-anchor="middle"><textPath startOffset="21.40746469413373" xlink:href="#id4">April</textPath></text><line stroke="#e1ed5e" stroke-width="0.3" x1="174.33088141563837" x2="178.70328620479359" y1="141.23008692659167" y2="143.65538615756765" /><path d="M 175.20536237346943 141.71514677278685 a86.0,86.0 0 0,1 -30.301960400862466,31.631185727798858" fill="none" id="id5" stroke="none" /><text fill="#e1ed5e" style="font-size:6.75px; font-family:Arial;" text-anchor="middle"><textPath startOffset="22.145653131862474" xlink:href="#id5">May</textPath></text><line stroke="#e1ed5e" stroke-width="0.3" x1="143.1302829299769" x2="145.66735839644613" y1="173.24464959558577" y2="177.55315839532614" /><path d="M 143.63769802327073 174.10635135553383 a86.0,86.0 0 0,1 -40.68552437913181,11.842963189579606" fill="none" id="id6" stroke="none" /><text fill="#e1ed5e" style="font-size:6.75px; font-family:Arial;" text-anchor="middle"><textPath startOffset="21.407464694133747" xlink:href="#id6">June</textPath></text><line stroke="#e1ed5e" stroke-width="0.3" x1="101.45913802915013" x2="101.54496967792366" y1="184.9874750549273" y2="189.98673829345242" /><path d="M 101.47630435890484 185.9873277026323 a86.0,86.0 0 0,1 -42.54439059252881,-10.42667462771756" fill="none" id="id7" stroke="none" /><text fill="#e1ed5e" style="font-size:6.75px; font-family:Arial;" text-anchor="middle"><textPath startOffset="22.145653131862474" xlink:href="#id7">July</textPath></text><line stroke="#e1ed5e" stroke-width="0.3" x1="58.13341422392154" x2="55.67067388415222" y1="173.97424548756322" y2="178.32567169271397" /><path d="M 57.64086615596768 174.84453072859336 a86.0,86.0 0 0,1 -31.369924170532247,-30.572349798747897" fill="none" id="id8" stroke="none" /><text fill="#e1ed5e" style="font-size:6.75px; font-family:Arial;" text-anchor="middle"><textPath startOffset="22.145653131862474" xlink:href="#id8">August</textPath></text><line stroke="#e1ed5e" stroke-width="0.3" x1="26.387840678322732" x2="22.057713659400548" y1="142.50000000000003" y2="145.00000000000006" /><path d="M 25.521815274538298 143.00000000000003 a86.0,86.0 0 0,1 -11.493303480769221,-40.785679425670985" fill="none" id="id9" stroke="none" /><text fill="#e1ed5e" style="font-size:6.75px; font-family:Arial;" text-anchor="middle"><textPath startOffset="21.40746469413373" xlink:href="#id9">September</textPath></text><path d="M 80.83023694016515 108.57439118712176 l -8.549089131884918 3.8238988286683635 a30.36531511679154,30.36531511679154 0 0,0 -0.20874869832107965,-0.47765787363262047 l 8.613471712222966 -3.6765788852598935" fill="red" stroke="none" /><path d="M 80.68587082218212 108.24405325689762 l -18.736719850994618 7.9975915501576935 a41.37219039224328,41.37219039224328 0 0,0 -0.27320255058666976,-0.6555866655116347 l 18.871248246117773 -7.674772375204777" fill="red" stroke="none" /><path d="M 80.5471966667186 107.91128576633889 l -37.240601592072835 15.145428463834959 a61.20256721022477,61.20256721022477 0 0,0 -0.3874452562096241,-0.9766151436221296 l 37.49510552324858 -14.503912302999263" fill="red" stroke="none" /><path d="M 80.41425534168474 107.57618678355246 l -18.52618090476383 7.166324761656885 a40.863926840017626,40.863926840017626 0 0,0 -0.24745893490009324,-0.6564142247125613 l 18.64647052347836 -6.847242256750179" fill="red" stroke="none" /><path d="M 79.73907114497094 105.5222062557868 l -29.304976500982608 7.987201658784921 a51.37395328338475,51.37395328338475 0 0,0 -0.22460330114576027,-0.8528553181918472 l 29.4377692829331 -7.482965836220271" fill="red" stroke="none" /><path d="M 79.64726062577567 105.17358676015961 l -29.95802441017198 7.615212655122545 a51.91075363596298,51.91075363596298 0 0,0 -0.21212334142406156,-0.8655356202779216 l 30.084335278112334 -7.099821210236524" fill="red" stroke="none" /><path d="M 79.2786578344484 103.40968896794605 l -32.48421219573555 5.345264755115801 a53.921055531070955,53.921055531070955 0 0,0 -0.14245046205683015,-0.9146341534713347 l 32.57118414993065 -4.786842419713016" fill="red" stroke="none" /><path d="M 79.0935383218832 101.97986365728391 l -14.796842331386399 1.4012763530012593 a35.86304539444689,35.86304539444689 0 0,0 -0.05278080057946785,-0.6133929086998344 l 14.818716754663608 -1.1470623969257627" fill="red" stroke="none" /><path d="M 79.06263194458094 101.62068470465958 l -14.402706907521631 1.1148606037268194 a35.445791097399734,35.445791097399734 0 0,0 -0.041751831672392124,-0.6070624692491071 l 14.41972270035909 -0.867454710323369" fill="red" stroke="none" /><path d="M 79.03789590574601 101.26102812881392 l -21.728512740714617 1.3071333698244316 a42.767794182459234,42.767794182459234 0 0,0 -0.03779534678451816,-0.7332196305116135 l 21.74774967695571 -0.9339419459360874" fill="red" stroke="none" /><path d="M 79.00696218219943 100.54070618675478 l -12.304535424352853 0.3169211853393331 a33.30861613045395,33.30861613045395 0 0,0 -0.009815840441766206,-0.5717234956678616 l 12.308162696393286 -0.10565077370241908" fill="red" stroke="none" /><line stroke="#e1ed5e" stroke-width="0.3" x1="15.003131293944662" x2="10.003315487706104" y1="100.72959589197737" y2="100.7725132973878" /><path d="M 14.003168132696942 100.73817937305945 a86.0,86.0 0 0,1 10.791469493833604,-42.45332614584628" fill="none" id="id10" stroke="none" /><text fill="#e1ed5e" style="font-size:6.75px; font-family:Arial;" text-anchor="middle"><textPath startOffset="22.145653131862435" xlink:href="#id10">October</textPath></text><path d="M 79.00077361379809 100.18025310272382 l -33.76434668630551 0.289826307870484 a54.76559056853239,54.76559056853239 0 0,0 0.0,-0.9401588211885906 l 33.76434668630551 0.2898263078704716" fill="red" stroke="none" /><path d="M 79.00696218219943 99.45929381324524 l -10.115640376433948 -0.2605430134502155 a31.11899515204936,31.11899515204936 0 0,0 0.018338443111909707,-0.5339037622067775 l 10.109677246325187 0.4341530402211316" fill="red" stroke="none" /><path d="M 79.06263194458094 98.37931529534042 l -22.483755860599306 -1.7403849008205388 a43.55101366240635,43.55101366240635 0 0,0 0.06409543143552736,-0.7448860701424064 l 22.450566806466036 2.126092018338626" fill="red" stroke="none" /><path d="M 79.0935383218832 98.0201363427161 l -21.729190989417745 -2.057776978452544 a42.826410312913175,42.826410312913175 0 0,0 0.07559393185229972,-0.7313027173841472 l 21.690664665083784 2.430484218119604" fill="red" stroke="none" /><path d="M 79.22317932658666 96.9465228501225 l -9.603213169344311 -1.4113416310859483 a30.706368444248568,30.706368444248568 0 0,0 0.08112111919711895,-0.5208557776099303 l 9.577570558008926 1.5759855906273286" fill="red" stroke="none" /><path d="M 79.2786578344484 96.59031103205396 l -9.250327384394 -1.5221378509396248 a30.374724548259145,30.374724548259145 0 0,0 0.08907775975845952,-0.513776846793312 l 9.222834807143306 1.6807077306535296" fill="red" stroke="none" /><path d="M 79.34024301695615 96.23510406497455 l -11.818582884085902 -2.1537394991904057 a33.01322168356104,33.01322168356104 0 0,0 0.1063870054779806,-0.5566617675302632 l 11.779869586325763 2.3563038317539835" fill="red" stroke="none" /><path d="M 79.407916724674 95.88100663000787 l -52.99769074641481 -10.601022436177963 a75.04754297047157,75.04754297047157 0 0,0 0.26353226741187014,-1.2610972993205123 l 52.80790076817858 11.509236186783886" fill="red" stroke="none" /><path d="M 80.05021161711548 93.44210830539832 l -10.208623532346484 -3.355777324110668 a31.746033494931687,31.746033494931687 0 0,0 0.17462522266269592,-0.5162484419336357 l 10.149512888111422 3.530527440518465" fill="red" stroke="none" /><path d="M 80.16572619554312 93.10060997987247 l -19.87251750119312 -6.9126931630706965 a42.04049140590569,42.04049140590569 0 0,0 0.2429536613471324,-0.6795846308987272 l 19.750923669802045 7.252812750350345" fill="red" stroke="none" /><path d="M 80.5471966667186 92.08871423366112 l -10.879866885591149 -4.424747146051548 a32.74520713970912,32.74520713970912 0 0,0 0.21623399740843982,-0.5188828765574769 l 10.80230704364623 4.610862532050288" fill="red" stroke="none" /><path d="M 80.68587082218212 91.75594674310238 l -10.360028523653229 -4.422080131371735 a32.26432349052446,32.26432349052446 0 0,0 0.22180357769883163,-0.5075299924734157 l 10.28259106393742 4.599272193621017" fill="red" stroke="none" /><path d="M 80.9802524753101 91.09779779509293 l -57.05924257406971 -26.706606614721213 a84.0,84.0 0 0,0 0.6224829681603801,-1.3007499917396512 l 56.59238034794942 27.68216910852595" fill="red" stroke="none" /><line stroke="#e1ed5e" stroke-width="0.3" x1="26.387840678322718" x2="22.05771365940052" y1="57.49999999999999" y2="54.99999999999999" /><path d="M 25.521815274538284 56.99999999999999 a86.0,86.0 0 0,1 29.574782752854787,-30.34633250058573" fill="none" id="id11" stroke="none" /><text fill="#e1ed5e" style="font-size:6.75px; font-family:Arial;" text-anchor="middle"><textPath startOffset="21.40746469413373" xlink:href="#id11">November</textPath></text><path d="M 81.81346652052679 89.5 l -10.266494522045065 -5.927363375936538 a32.85472675187307,32.85472675187307 0 0,0 0.28619015568666795,-0.48601345150015574 l 10.163230656228617 6.102727995730267" fill="red" stroke="none" /><path d="M 81.99639281039701 89.18935116829357 l -19.251323025021705 -11.55986634108758 a43.45537681798149,43.45537681798149 0 0,0 0.38950923970507534,-0.6362340703024413 l 19.05004582086124 11.888637527514566" fill="red" stroke="none" /><path d="M 82.18462484594161 88.88188828441811 l -27.11400906040114 -16.921146997129995 a52.96083076245041,52.96083076245041 0 0,0 0.4879516090156898,-0.7671409759806924 l 26.81953975975956 17.38410164778936" fill="red" stroke="none" /><path d="M 83.2033758604659 87.39550010848427 l -9.646276321062688 -7.238745585560144 a33.06026884089908,33.06026884089908 0 0,0 0.3445321173317042,-0.45100360121674365 l 9.520592226376678 7.403270100017772" fill="red" stroke="none" /><path d="M 83.42222388311158 87.10902102172516 l -23.34210301047701 -18.150960484394787 a50.56875275451741,50.56875275451741 0 0,0 0.5387584548463116,-0.6807037078481674 l 23.02707812498914 18.54898413615764" fill="red" stroke="none" /><path d="M 83.64595745247003 86.82634096563983 l -23.56374394753277 -18.981284134218487 a51.257877919788456,51.257877919788456 0 0,0 0.5578643351259834,-0.6805037813816297 l 23.234432793168157 19.38299019729861" fill="red" stroke="none" /><path d="M 84.34580500576568 86.00192230759919 l -8.00848792317419 -7.161239283689482 a31.74333406787131,31.74333406787131 0 0,0 0.3667145632290622,-0.40308354392484574 l 7.884375659103262 7.297660403171985" fill="red" stroke="none" /><path d="M 84.58840730492382 85.73525988315684 l -7.423352365062586 -6.870944124886075 a31.11513882767739,31.11513882767739 0 0,0 0.36618690684507105,-0.38887780525409826 l 7.304309624481243 6.9973633900846846" fill="red" stroke="none" /><path d="M 85.08716467003674 85.21462403516908 l -14.109082360713913 -13.988492637800315 a40.8681687968268,40.8681687968268 0 0,0 0.4982181629276018,-0.4939599136182584 l 13.866872277656336 14.228632561647247" fill="red" stroke="none" /><path d="M 85.34317274990677 84.96080404539775 l -25.891682602550098 -26.567147282959205 a58.097069193477296,58.097069193477296 0 0,0 0.7202031238880752,-0.6899383010310136 l 25.431806992796723 27.007697714295787" fill="red" stroke="none" /><path d="M 85.60350026404147 84.71141617570332 l -6.112749134986649 -6.4915277505763855 a29.916593212869103,29.916593212869103 0 0,0 0.37690666227791486,-0.3488591797146933 l 6.000412701394781 6.595504676423444" fill="red" stroke="none" /><path d="M 85.86807049272753 84.46653392183569 l -5.805260450229276 -6.380998166749957 a29.62659762009696,29.62659762009696 0 0,0 0.3791287103214723,-0.33901923059309974 l 5.694866713084411 6.4797129272264575" fill="red" stroke="none" /><path d="M 87.25179093698888 83.31218511350988 l -8.47352312407725 -11.092113773163588 a34.95835169678273,34.95835169678273 0 0,0 0.48000648687495373,-0.36020581644747673 l 8.281863648291543 11.235938616875066" fill="red" stroke="none" /><path d="M 87.54013794807813 83.09580414077388 l -8.008211617035139 -10.864677080081421 a34.497135301895106,34.497135301895106 0 0,0 0.47970564742152066,-0.3472698948885304 l 7.82052495923965 11.000547746343031" fill="red" stroke="none" /><path d="M 88.12776184653039 82.6780497279521 l -4.147958041499792 -6.051994745776102 a28.33704275011018,28.33704275011018 0 0,0 0.40360546051963103,-0.27156376617701405 l 4.043456292883172 6.122308186010225" fill="red" stroke="none" /><path d="M 88.4268655584334 82.4767994020092 l -4.025179343383122 -6.09463455497917 a28.303878360511238,28.303878360511238 0 0,0 0.40772999366210005,-0.2642856558377422 l 3.9199637174639963 6.162834052520819" fill="red" stroke="none" /><line stroke="#e1ed5e" stroke-width="0.3" x1="56.869717070023135" x2="54.33264160355391" y1="26.7553504044142" y2="22.446841604673864" /><path d="M 56.362301976729285 25.89364864446614 a86.0,86.0 0 0,1 42.16139366436587,-11.88097634709845" fill="none" id="id12" stroke="none" /><text fill="#e1ed5e" style="font-size:6.75px; font-family:Arial;" text-anchor="middle"><textPath startOffset="22.145653131862474" xlink:href="#id12">December</textPath></text><path d="M 89.34428304082924 81.90426304109057 l -6.328935458487933 -10.747916045963102 a33.47289554869987,33.47289554869987 0 0,0 0.49764238632505703,-0.2873139657049379 l 6.143500604302477 10.854976908944213" fill="red" stroke="none" /><path d="M 89.65649057296885 81.72400993836675 l -5.99078682474957 -10.585146293225959 a33.162847069193475,33.162847069193475 0 0,0 0.4978466798025525,-0.2761471610917286 l 5.8081959567909145 10.686426369750833" fill="red" stroke="none" /><path d="M 90.28995756902619 81.37971332152246 l -4.955409673850326 -9.502651444865013 a31.71711106214191,31.71711106214191 0 0,0 0.48492861752098926,-0.2476080073594173 l 4.791553834615755 9.586317403897263" fill="red" stroke="none" /><path d="M 90.61103034731259 81.2157712731953 l -9.780866377025555 -19.568284696689144 a42.87654252974879,42.87654252974879 0 0,0 0.6611966116828013,-0.3234243957588006 l 9.4435095160807 19.733302842545157" fill="red" stroke="none" /><path d="M 90.93487009805054 81.0573650232925 l -4.870826005050701 -10.178152993581259 a32.28360511238431,32.28360511238431 0 0,0 0.5019505441004043,-0.23493819960776463 l 4.695386747078774 10.260267424759565" fill="red" stroke="none" /><path d="M 92.93061703081487 80.22567764915836 l -6.531416114764983 -18.269533313418993 a40.40193918025562,40.40193918025562 0 0,0 0.6550774804317061,-0.22786995256086387 l 6.216832862288273 18.37896169854844" fill="red" stroke="none" /><path d="M 93.95794788825049 79.88797359093562 l -5.697432347920103 -18.964899296780082 a40.802225650066106,40.802225650066106 0 0,0 0.6725372324436216,-0.19576578670169503 l 5.371035103094856 19.059908777784297" fill="red" stroke="none" /><path d="M 96.41257539226777 79.30868818359171 l -3.19077623908312 -18.40354943124239 a39.67810709563685,39.67810709563685 0 0,0 0.6721140633422632,-0.11059611335357328 l 2.8743846726877837 18.45561154309163" fill="red" stroke="none" /><path d="M 97.84075906011542 79.11130261209362 l -1.043974120505014 -10.099502598908973 a31.153316438959898,31.153316438959898 0 0,0 0.5324256605689276,-0.050421263616749944 l 0.8704488965510708 10.115935618030907" fill="red" stroke="none" /><path d="M 98.9189461498227 79.02784411241856 l -1.4562741899415255 -28.251330238087842 a49.288838695460555,49.288838695460555 0 0,0 0.845360475619351,-0.036303416185352766 l 0.9710879537213543 28.272166222699024" fill="red" stroke="none" /><path d="M 99.27912038922189 79.0123766808444 l -0.2456942407823157 -7.153119744445572 a28.157338034376377,28.157338034376377 0 0,0 0.48321570184755697,-0.012445922395495572 l 0.12286522486401483 7.156283384191113" fill="red" stroke="none" /></svg>