<?xml version="1.0" encoding="utf-8" ?>
<svg baseProfile="full" height="200mm" version="1.1" viewBox="0,0,200,200" width="200mm" xmlns="http://www.w3.org/2000/svg" xmlns:ev="http://www.w3.org/2001/xml-events" xmlns:xlink="http://www.w3.org/1999/xlink"><defs /><rect fill="#1a1a1a" height="200" width="200" x="0" y="0" /><rect fill="#1a1a1a" height="200" width="180" x="10" y="0" /><text alignment-baseline="middle" fill="#e1ed5e" style="dominant-baseline: central; font-size:9.0px; font-family:Arial;" text-anchor="middle" x="100.0" y="100.0">2025</text><line stroke="#e1ed5e" stroke-width="0.3" x1="100.0" x2="100.0" y1="15.0" y2="10.0" /><path d="M 100.0 14.0 a86.0,86.0 0 0,1 42.46469731375804,11.215312516191453" fill="none" id="id13" stroke="none" /><text fill="#e1ed5e" style="font-size:6.75px; font-family:Arial;" text-anchor="middle"><textPath startOffset="22.20632615414155" xlink:href="#id13">January</textPath></text><path d="M 101.44485096284872 79.0497635885617 l 1.0054953154237538 -14.579610707521125 a35.614241999234984,35.614241999234984 0 0,0 0.6112248673784779,0.04744281344215113 l -1.2563103721645728 14.560142631890509" fill="red" stroke="none" /><path d="M 101.80526077348638 79.07773832637324 l 1.2350520874328024 -14.313767480763945 a35.36695142164988,35.36695142164988 0 0,0 0.6060798641938933,0.05755458604728707 l -1.48125707871694 14.29038735020148" fill="red" stroke="none" /><path d="M 103.59715602781102 79.31037775812273 l 3.1641619910942267 -18.199187302888074 a39.47220451357899,39.47220451357899 0 0,0 0.6684051669453708,0.12214677192095888 l -3.4769622791424983 18.14202504961638" fill="red" stroke="none" /><path d="M 103.95276090670814 79.375362276772 l 6.188442072353578 -32.28993071573591 a53.87759785796251,53.87759785796251 0 0,0 0.9093347837182842,0.18240400303639093 l -6.7433432655389876 32.17862275662231" fill="red" stroke="none" /><path d="M 104.307194497241 79.44645832069477 l 2.954964039609158 -14.100820519681449 a35.40711462450593,35.40711462450593 0 0,0 0.5954419117321093,0.13014053906591222 l -3.1972486754947953 14.047866482519664" fill="red" stroke="none" /><path d="M 106.40334571778207 80.00007090966166 l 7.286787221070797 -22.759231523778777 a44.897277827361975,44.897277827361975 0 0,0 0.7340003196518096,0.24198836515130823 l -7.677470362965024 22.63042943436823" fill="red" stroke="none" /><path d="M 106.74666289553966 80.11325718540242 l 12.83134766647615 -37.822211507943905 a60.93949381614178,60.93949381614178 0 0,0 0.9904640906059067,0.34555347294017624 l -13.48049376114533 37.595737181831524" fill="red" stroke="none" /><path d="M 108.09893153111575 80.62456947434976 l 5.959996942633576 -14.25836312499063 a36.45388244294275,36.45388244294275 0 0,0 0.5768674870186827,0.24698455245575363 l -6.204548187442574 14.153659044572086" fill="red" stroke="none" /><line stroke="#e1ed5e" stroke-width="0.3" x1="143.23703022742887" x2="145.7803849466894" y1="26.81831364943548" y2="22.513508569990506" /><path d="M 143.74570117128098 25.957352633546492 a86.0,86.0 0 0,1 28.547481713284135,27.462654790039103" fill="none" id="id14" stroke="none" /><text fill="#e1ed5e" style="font-size:6.75px; font-family:Arial;" text-anchor="middle"><textPath startOffset="19.985693538727396" xlink:href="#id14">February</textPath></text><path d="M 111.60114157652 82.49532879139004 l 18.49555964207653 -27.90748550203481 a54.48004590080326,54.48004590080326 0 0,0 0.7772364762093705,0.5247935382454366 l -18.973200812692443 27.584980051490703" fill="red" stroke="none" /><path d="M 111.90073688211348 82.69761687909136 l 20.165919060929323 -29.319063267573753 a56.58471248246844,56.58471248246844 0 0,0 0.7977605400795806,0.5588822398432709 l -20.667610740592554 28.96759618496655" fill="red" stroke="none" /><path d="M 112.77801427241765 83.33499621200491 l 38.33404281725294 -49.995011363985284 a84.0,84.0 0 0,0 1.1398697793622787,0.8896864431071037 l -39.188945151774654 49.32774653165496" fill="red" stroke="none" /><path d="M 113.6212207817346 84.01681056812373 l 15.006962470086776 -17.60922371055714 a44.13641463725615,44.13641463725615 0 0,0 0.5739965972824944,0.4977641929069847 l -15.307852866016034 17.348294524230486" fill="red" stroke="none" /><path d="M 114.68862486808459 84.99185889309783 l 17.07686080226557 -17.448327456452308 a45.41440775213566,45.41440775213566 0 0,0 0.5539783534619417,0.5515993943584351 l -17.374674955894836 17.15179221144375" fill="red" stroke="none" /><line stroke="#e1ed5e" stroke-width="0.3" x1="172.23445277983987" x2="176.4835382374775" y1="55.19839476539836" y2="52.563006222186495" /><path d="M 173.08426987136738 54.67131705675599 a86.0,86.0 0 0,1 12.851231095245387,41.99856678651699" fill="none" id="id15" stroke="none" /><text fill="#e1ed5e" style="font-size:6.75px; font-family:Arial;" text-anchor="middle"><textPath startOffset="22.20632615414155" xlink:href="#id15">March</textPath></text><path d="M 117.84615892207809 88.93136811851018 l 22.954715774807585 -14.23708597267084 a48.01136044880785,48.01136044880785 0 0,0 0.42955124433888686,0.7060693027982279 l -23.196382817432696 13.839848896665531" fill="red" stroke="none" /><path d="M 120.08093135843002 93.85539295169968 l 32.99895305999508 -10.097420081756098 a55.50925666199158,55.50925666199158 0 0,0 0.2717154400269375,0.9160893867900329 l -33.16787439713372 9.527901308219535" fill="red" stroke="none" /><path d="M 120.67395015179393 96.31383870115 l 28.796311021388505 -5.134376665190859 a50.250459008032635,50.250459008032635 0 0,0 0.1445015084404491,0.8528560825769169 l -28.880424391349177 4.637934794298104" fill="red" stroke="none" /><path d="M 120.94382443527127 98.46500227214037 l 38.318375003696225 -2.808399141605259 a59.421152620170844,59.421152620170844 0 0,0 0.06598410290184814,1.0207448666363637 l -38.361039697602486 2.14839521071586" fill="red" stroke="none" /><path d="M 120.96714384426684 98.82574320788733 l 39.40387831586364 -2.206798984718936 a60.46562539844447,60.46562539844447 0 0,0 0.04925469887963986,1.0396888458320264 l -39.436026622976776 1.52819903226391" fill="red" stroke="none" /><line stroke="#e1ed5e" stroke-width="0.3" x1="184.98032266829074" x2="189.97916517819016" y1="98.17113171792111" y2="98.06355123074" /><path d="M 185.9800911702706 98.14961562048488 a86.0,86.0 0 0,1 -9.607161424134198,41.387399972396054" fill="none" id="id16" stroke="none" /><text fill="#e1ed5e" style="font-size:6.75px; font-family:Arial;" text-anchor="middle"><textPath startOffset="21.466115282336823" xlink:href="#id16">April</textPath></text><path d="M 120.9904718944345 100.63252640178507 l 33.374815902167974 1.0057159419286217 a54.38996557439755,54.38996557439755 0 0,0 -0.036254452968478505,0.9355663380760626 l -33.35255931634829 -1.5800595270186903" fill="red" stroke="none" /><path d="M 120.95626037817324 101.35467743843564 l 24.259349639871274 1.5681993368666158 a45.30998342470993,45.30998342470993 0 0,0 -0.05701169947345976,0.777879343309238 l -24.228761381733477 -1.985551816672624" fill="red" stroke="none" /><path d="M 120.64145759157962 103.86396538481128 l 26.650174203635302 4.988763519493149 a48.11308810404182,48.11308810404182 0 0,0 -0.15939194114980795,0.8127360739656853 l -26.56035232950983 -5.446763320526779" fill="red" stroke="none" /><path d="M 120.32669344350535 105.2749913415812 l 41.01596554476237 10.644075669097285 a63.37458880530409,63.37458880530409 0 0,0 -0.2831091469940213,1.0535544551525267 l -40.826668321426574 -11.34852105742536" fill="red" stroke="none" /><path d="M 120.13307415673323 105.97154293290107 l 28.202512665854222 8.36496770879432 a50.416906795868925,50.416906795868925 0 0,0 -0.25394090247888323,0.829893562223275 l -28.054344990869204 -8.849188243569651" fill="red" stroke="none" /><path d="M 120.02730092923936 106.31721596034902 l 54.88031651342137 17.310910372422246 a78.54577967614433,78.54577967614433 0 0,0 -0.4178177257045667,1.2859107359409598 l -54.57420653670056 -18.253020008341004" fill="red" stroke="none" /><path d="M 119.26925614724726 108.34839909993367 l 24.57912060416509 10.648896187842027 a47.78679076883846,47.78679076883846 0 0,0 -0.3335038199645041,0.7519630715827879 l -24.392175699469313 -11.070407595917501" fill="red" stroke="none" /><path d="M 118.64920377521936 109.65438752849418 l 31.42206215766876 16.2666872361417 a56.38292107611883,56.38292107611883 0 0,0 -0.4536072902268614,0.8580540467386246 l -31.137402359217003 -16.805156297966455" fill="red" stroke="none" /><line stroke="#e1ed5e" stroke-width="0.3" x1="174.80103733775053" x2="179.2010983576182" y1="140.37084112569926" y2="142.7455964860345" /><path d="M 175.68104954172406 140.8457921977663 a86.0,86.0 0 0,1 -30.038265399797805,32.042727171017184" fill="none" id="id17" stroke="none" /><text fill="#e1ed5e" style="font-size:6.75px; font-family:Arial;" text-anchor="middle"><textPath startOffset="22.206326154141568" xlink:href="#id17">May</textPath></text><path d="M 117.75023020441432 111.22182372390056 l 36.228190425688204 22.903723619982692 a63.860965191890855,63.860965191890855 0 0,0 -0.5954126859342715,0.9240937109515989 l -35.82857287637688 -23.523938930855746" fill="red" stroke="none" /><path d="M 116.71984013943494 112.70617746262583 l 45.878359988583775 34.86508117588251 a78.62289302562795,78.62289302562795 0 0,0 -0.8281356165648559,1.0704769182146048 l -45.271417554800855 -35.649636088210364" fill="red" stroke="none" /><path d="M 114.81725581225074 114.88116024355365 l 40.55834124260751 40.73326281813673 a78.4819775596073,78.4819775596073 0 0,0 -0.9655153638174474,0.9449599975418914 l -39.85117592641427 -41.42537291860119" fill="red" stroke="none" /><path d="M 113.20401910651253 116.32954008644616 l 16.75873364717884 20.725690464557434 a47.653506311360445,47.653506311360445 0 0,0 -0.6422841860560473,0.5102694022936975 l -16.39949196840544 -21.011093780856257" fill="red" stroke="none" /><path d="M 111.1453310114006 117.79835938074945 l 15.139742857814506 24.177171951185933 a49.526259084533976,49.526259084533976 0 0,0 -0.7264341879799009,0.4462352101733162 l -14.721329469902297 -24.434195628187627" fill="red" stroke="none" /><line stroke="#e1ed5e" stroke-width="0.3" x1="143.8653032363475" x2="146.44561519142675" y1="172.8068346515853" y2="177.08958963109032" /><path d="M 144.38136562736335 173.6633856474863 a86.0,86.0 0 0,1 -40.68145358897372,12.25698825130547" fill="none" id="id18" stroke="none" /><text fill="#e1ed5e" style="font-size:6.75px; font-family:Arial;" text-anchor="middle"><textPath startOffset="21.466115282336833" xlink:href="#id18">June</textPath></text><path d="M 110.8373102113329 117.98757091392108 l 13.5165149332842 22.43446631409286 a47.19162947851588,47.19162947851588 0 0,0 -0.699407205344679,0.41322210496637507 l -13.128339856911138 -22.663806991352985" fill="red" stroke="none" /><path d="M 106.57524785965236 119.94407469862006 l 12.61860498380807 38.27481575770639 a61.30124952186663,61.30124952186663 0 0,0 -1.0049862728396608,0.3217648681427801 l -11.95789736587747 -38.486353472508874" fill="red" stroke="none" /><path d="M 104.13013068566511 120.58985236759428 l 6.270394633867157 31.25966455395324 a52.88235369118959,52.88235369118959 0 0,0 -0.8940451513355179,0.17134588109884608 l -5.731381867959935 -31.362967633400554" fill="red" stroke="none" /><path d="M 101.62511606390274 120.93702456842531 l 2.1142907699597693 27.23925926197236 a48.32119087084024,48.32119087084024 0 0,0 -0.8298295653111514,0.05722990532868405 l -1.6450984438696878 -27.27161751181733" fill="red" stroke="none" /><line stroke="#e1ed5e" stroke-width="0.3" x1="102.19456741930631" x2="102.32365962044197" y1="184.97166512339345" y2="189.96999836594603" /><path d="M 102.22038585953345 185.97133177190398 a86.0,86.0 0 0,1 -42.740103519485714,-10.115201625700543" fill="none" id="id19" stroke="none" /><text fill="#e1ed5e" style="font-size:6.75px; font-family:Arial;" text-anchor="middle"><textPath startOffset="22.20632615414155" xlink:href="#id19">July</textPath></text><path d="M 96.58105272829116 120.7198165907248 l -4.125080914336604 24.999192199952837 a46.33724340175953,46.33724340175953 0 0,0 -0.7858598522231726,-0.13663180851690845 l 4.554789738031827 -24.924481812914923" fill="red" stroke="none" /><path d="M 96.22490169976321 120.6578951692458 l -5.084139645041041 27.821162645347933 a49.28189468315695,49.28189468315695 0 0,0 -0.8331746965613196,-0.1596799135684634 l 5.562281956174056 -27.729525533431" fill="red" stroke="none" /><path d="M 94.11515582081647 120.15858648285463 l -12.9370958364729 44.316137745672656 a67.16588040290705,67.16588040290705 0 0,0 -1.1070377176761712,-0.33354138316695914 l 13.698008528589316 -44.08688099339997" fill="red" stroke="none" /><line stroke="#e1ed5e" stroke-width="0.3" x1="58.666819895761336" x2="56.23545636021788" y1="174.27360380694188" y2="178.64263932499728" /><path d="M 58.180547188652646 175.14741091055294 a86.0,86.0 0 0,1 -31.652253787137756,-30.449443065178592" fill="none" id="id20" stroke="none" /><text fill="#e1ed5e" style="font-size:6.75px; font-family:Arial;" text-anchor="middle"><textPath startOffset="22.20632615414155" xlink:href="#id20">August</textPath></text><path d="M 89.4739219176387 118.17145234162733 l -20.208982818395466 34.88731180634182 a61.31783118704577,61.31783118704577 0 0,0 -0.9087656735365011,-0.536914778215468 l 20.806516362960352 -34.5342784558326" fill="red" stroke="none" /><path d="M 86.79598089348748 116.32954008644616 l -16.346386135145977 20.21573624736263 a46.99769858472523,46.99769858472523 0 0,0 -0.6246886459357054,-0.5140762270185883 l 16.691944909626372 -19.931364901486862" fill="red" stroke="none" /><path d="M 85.44109423537348 115.13401014063109 l -28.86019784270732 30.000230365757613 a62.62841387224276,62.62841387224276 0 0,0 -0.7704787479296374,-0.7540756191294901 l 29.37232654301275 -29.499004643705554" fill="red" stroke="none" /><path d="M 83.50135304334701 112.99209946851258 l -22.590744021733137 17.78940989337978 a49.7542139487441,49.7542139487441 0 0,0 -0.5240615685778992,-0.6774202215972999 l 22.893612407529105 -17.397911677669228" fill="red" stroke="none" /><path d="M 82.05923443525364 110.91462005526583 l -23.75108220689969 14.449441260137196 a48.80108376896595,48.80108376896595 0 0,0 -0.4304235238411954,-0.72141458387268 l 23.996286606439114 -14.038464582378404" fill="red" stroke="none" /><line stroke="#e1ed5e" stroke-width="0.3" x1="26.63291911575756" x2="22.317208475507996" y1="142.92168965132927" y2="145.44649492493687" /><path d="M 25.769776987707644 143.4266507060508 a86.0,86.0 0 0,1 -11.730757126820373,-40.83630448921669" fill="none" id="id21" stroke="none" /><text fill="#e1ed5e" style="font-size:6.75px; font-family:Arial;" text-anchor="middle"><textPath startOffset="21.46611528233685" xlink:href="#id21">September</textPath></text><path d="M 80.87730276802145 108.67885076344099 l -29.79450050353457 13.522256839846944 a53.719469590717836,53.719469590717836 0 0,0 -0.37490796152507627,-0.8453184804277499 l 30.022849549790926 -13.007390022926499" fill="red" stroke="none" /><path d="M 79.97269907076064 106.31721596034903 l -29.99991259029372 9.462879061640841 a52.45696799693995,52.45696799693995 0 0,0 -0.26421632426566516,-0.8634742351544082 l 30.158355687065516 -8.945077853934386" fill="red" stroke="none" /><line stroke="#e1ed5e" stroke-width="0.3" x1="15.007084014347285" x2="10.007500721073583" y1="101.09737516637583" y2="101.16192664675087" /><path d="M 14.007167355692545 101.11028546245083 a86.0,86.0 0 0,1 10.666146001902534,-42.60595125391555" fill="none" id="id22" stroke="none" /><text fill="#e1ed5e" style="font-size:6.75px; font-family:Arial;" text-anchor="middle"><textPath startOffset="22.20632615414155" xlink:href="#id22">October</textPath></text><path d="M 79.00486145842228 99.54816195383935 l -15.533079307093319 -0.3342886350131239 a36.53667601683029,36.53667601683029 0 0,0 0.018943928192683493,-0.6286567504162872 l 15.52502368444499 0.6016155328544055" fill="red" stroke="none" /><path d="M 79.08570108090925 98.10471618934814 l -28.74635168000671 -2.6050356822953002 a49.86414637256152,49.86414637256152 0 0,0 0.08482336351571276,-0.8541596947974429 l 28.69725119080877 3.0994709077971736" fill="red" stroke="none" /><path d="M 80.65960295795068 91.81776055985345 l -27.906891970196032 -11.80642112124145 a51.301587402779546,51.301587402779546 0 0,0 0.3510721290284343,-0.8103228774079675 l 27.69952913132492 12.285043143236017" fill="red" stroke="none" /><line stroke="#e1ed5e" stroke-width="0.3" x1="26.266209847984243" x2="21.928928074336255" y1="57.711370442889674" y2="55.22380399835377" /><path d="M 25.398753493254645 57.213857153982495 a86.0,86.0 0 0,1 29.58750427330803,-30.492523968695096" fill="none" id="id23" stroke="none" /><text fill="#e1ed5e" style="font-size:6.75px; font-family:Arial;" text-anchor="middle"><textPath startOffset="21.46611528233685" xlink:href="#id23">November</textPath></text><path d="M 81.78341655067845 89.55222093294921 l -24.954025045728457 -14.311912068293623 a49.7668940456458,49.7668940456458 0 0,0 0.43259357331871573,-0.7394426440687621 l 24.703971797939417 14.739334124716276" fill="red" stroke="none" /><path d="M 83.17141714833178 87.43820079747576 l -23.944062393218093 -17.873192682205037 a50.87924263674614,50.87924263674614 0 0,0 0.5299292622777015,-0.697324791547558 l 23.632857190716283 18.282702249633623" fill="red" stroke="none" /><path d="M 85.05521093208273 85.24692304244772 l -24.696916566411964 -24.380103932059093 a55.70341705979855,55.70341705979855 0 0,0 0.6794867266223681,-0.6765687946780811 l 24.27359403962228 24.801608577387285" fill="red" stroke="none" /><line stroke="#e1ed5e" stroke-width="0.3" x1="56.762969772571076" x2="54.21961505331055" y1="26.818313649435495" y2="22.513508569990535" /><path d="M 56.25429882871897 25.957352633546506 a86.0,86.0 0 0,1 42.265352541879196,-11.944610805530505" fill="none" id="id24" stroke="none" /><text fill="#e1ed5e" style="font-size:6.75px; font-family:Arial;" text-anchor="middle"><textPath startOffset="22.20632615414155" xlink:href="#id24">December</textPath></text></svg>