<?xml version="1.0" encoding="utf-8" ?>
<svg baseProfile="full" height="200mm" version="1.1" viewBox="0,0,200,200" width="200mm" xmlns="http://www.w3.org/2000/svg" xmlns:ev="http://www.w3.org/2001/xml-events" xmlns:xlink="http://www.w3.org/1999/xlink"><defs /><rect fill="#1a1a1a" height="200" width="200" x="0" y="0" /><text alignment-baseline="middle" fill="#e1ed5e" style="dominant-baseline: central; font-size:9.0px; font-family:Arial;" text-anchor="middle" x="100.0" y="100.0">2024</text><line stroke="#e1ed5e" stroke-width="0.3" x1="100.0" x2="100.0" y1="15.0" y2="10.0" /><path d="M 100.0 14.0 a86.0,86.0 0 0,1 42.35913384403234,11.155469271406648" fill="none" id="id1" stroke="none" /><text fill="#e1ed5e" style="font-size:6.75px; font-family:Arial;" text-anchor="middle"><textPath startOffset="22.145653131862478" xlink:href="#id1">January</textPath></text><line stroke="#e1ed5e" stroke-width="0.3" x1="143.13028292997686" x2="145.6673583964461" y1="26.7553504044142" y2="22.446841604673864" /><path d="M 143.63769802327073 25.89364864446614 a86.0,86.0 0 0,1 29.32050498858742,28.57503671076993" fill="none" id="id2" stroke="none" /><text fill="#e1ed5e" style="font-size:6.75px; font-family:Arial;" text-anchor="middle"><textPath startOffset="20.669276256404974" xlink:href="#id2">February</textPath></text><line stroke="#e1ed5e" stroke-width="0.3" x1="172.87174338648825" x2="177.1583165268699" y1="56.24261187166439" y2="53.66864786411523" /><path d="M 173.72905801456457 55.72781907015455 a86.0,86.0 0 0,1 12.242430191666344,42.057860355516425" fill="none" id="id3" stroke="none" /><text fill="#e1ed5e" style="font-size:6.75px; font-family:Arial;" text-anchor="middle"><textPath startOffset="22.145653131862474" xlink:href="#id3">March</textPath></text><line stroke="#e1ed5e" stroke-width="0.3" x1="184.99686870605535" x2="189.99668451229388" y1="99.2704041080226" y2="99.22748670261217" /><path d="M 185.99683186730306 99.26182062694052 a86.0,86.0 0 0,1 -10.086455211305974,41.156179273409016" fill="none" id="id4" stroke="none" /><text fill="#e1ed5e" style="font-size:6.75px; font-family:Arial;" text-anchor="middle"><textPath startOffset="21.40746469413373" xlink:href="#id4">April</textPath></text><line stroke="#e1ed5e" stroke-width="0.3" x1="174.33088141563837" x2="178.70328620479359" y1="141.23008692659167" y2="143.65538615756765" /><path d="M 175.20536237346943 141.71514677278685 a86.0,86.0 0 0,1 -30.301960400862466,31.631185727798858" fill="none" id="id5" stroke="none" /><text fill="#e1ed5e" style="font-size:6.75px; font-family:Arial;" text-anchor="middle"><textPath startOffset="22.145653131862474" xlink:href="#id5">May</textPath></text><line stroke="#e1ed5e" stroke-width="0.3" x1="143.1302829299769" x2="145.66735839644613" y1="173.24464959558577" y2="177.55315839532614" /><path d="M 143.63769802327073 174.10635135553383 a86.0,86.0 0 0,1 -40.68552437913181,11.842963189579606" fill="none" id="id6" stroke="none" /><text fill="#e1ed5e" style="font-size:6.75px; font-family:Arial;" text-anchor="middle"><textPath startOffset="21.407464694133747" xlink:href="#id6">June</textPath></text><line stroke="#e1ed5e" stroke-width="0.3" x1="101.45913802915013" x2="101.54496967792366" y1="184.9874750549273" y2="189.98673829345242" /><path d="M 101.47630435890484 185.9873277026323 a86.0,86.0 0 0,1 -42.54439059252881,-10.42667462771756" fill="none" id="id7" stroke="none" /><text fill="#e1ed5e" style="font-size:6.75px; font-family:Arial;" text-anchor="middle"><textPath startOffset="22.145653131862474" xlink:href="#id7">July</textPath></text><line stroke="#e1ed5e" stroke-width="0.3" x1="58.13341422392154" x2="55.67067388415222" y1="173.97424548756322" y2="178.32567169271397" /><path d="M 57.64086615596768 174.84453072859336 a86.0,86.0 0 0,1 -31.369924170532247,-30.572349798747897" fill="none" id="id8" stroke="none" /><text fill="#e1ed5e" style="font-size:6.75px; font-family:Arial;" text-anchor="middle"><textPath startOffset="22.145653131862474" xlink:href="#id8">August</textPath></text><line stroke="#e1ed5e" stroke-width="0.3" x1="26.387840678322732" x2="22.057713659400548" y1="142.50000000000003" y2="145.00000000000006" /><path d="M 25.521815274538298 143.00000000000003 a86.0,86.0 0 0,1 -11.493303480769221,-40.785679425670985" fill="none" id="id9" stroke="none" /><text fill="#e1ed5e" style="font-size:6.75px; font-family:Arial;" text-anchor="middle"><textPath startOffset="21.40746469413373" xlink:href="#id9">September</textPath></text><path d="M 80.83023694016515 108.57439118712176 l -12.603737767912419 5.6374915905148955 a34.80708213763604,34.80708213763604 0 0,0 -0.23928396792985954,-0.5475285462137474 l 12.698655617859247 -5.420300974525299" fill="red" stroke="none" /><path d="M 80.68587082218212 108.24405325689762 l -55.245374205737335 23.5809651554165 a81.06757268937139,81.06757268937139 0 0,0 -0.5353322465797927,-1.284602510929935 l 55.642032296853614 -22.629130135045283" fill="red" stroke="none" /><path d="M 80.5471966667186 107.91128576633889 l -55.2660156857766 22.476207452789453 a80.66164925009477,80.66164925009477 0 0,0 -0.5106317395583483,-1.287125553027759 l 55.643706100301074 -21.52418088254813" fill="red" stroke="none" /><path d="M 79.73907114497094 105.5222062557868 l -43.87436182944568 11.958152417236308 a66.47479560344361,66.47479560344361 0 0,0 -0.2906231189405446,-1.1035433197711213 l 44.073174429190956 -11.203228593092383" fill="red" stroke="none" /><path d="M 79.64726062577567 105.17358676015961 l -45.243492758035316 11.500718935790394 a67.68233255725812,67.68233255725812 0 0,0 -0.27657087466119595,-1.1285035486600723 l 45.434251159212806 -10.722359562522222" fill="red" stroke="none" /><path d="M 79.2786578344484 103.40968896794605 l -48.46722942279841 7.97526415757763 a70.11901023336401,70.11901023336401 0 0,0 -0.1852427647851707,-1.1893914341139933 l 48.59699367972185 -7.142084541532187" fill="red" stroke="none" /><path d="M 79.0935383218832 101.97986365728391 l -43.62861259396706 4.1316749731461675 a64.82381287562943,64.82381287562943 0 0,0 -0.09540329613834529,-1.1087309149421263 l 43.69310951280315 -3.382123010828379" fill="red" stroke="none" /><path d="M 79.03789590574601 101.26102812881392 l -32.43456866649501 1.9511831088372593 a53.49320482971466,53.49320482971466 0 0,0 -0.04727375507207115,-0.9170982191130177 l 32.46328401102366 -1.394113096347511" fill="red" stroke="none" /><path d="M 79.00696218219943 100.54070618675478 l -36.280024964457134 0.9344447489760529 a57.29205696031188,57.29205696031188 0 0,0 -0.016883610159619627,-0.9833856486581494 l 36.29072000621542 -0.3115121843488512" fill="red" stroke="none" /><line stroke="#e1ed5e" stroke-width="0.3" x1="15.003131293944662" x2="10.003315487706104" y1="100.72959589197737" y2="100.7725132973878" /><path d="M 14.003168132696942 100.73817937305945 a86.0,86.0 0 0,1 10.791469493833604,-42.45332614584628" fill="none" id="id10" stroke="none" /><text fill="#e1ed5e" style="font-size:6.75px; font-family:Arial;" text-anchor="middle"><textPath startOffset="22.145653131862435" xlink:href="#id10">October</textPath></text><path d="M 79.00077361379809 100.18025310272382 l -33.00593116925958 0.28331622280414814 a54.00714711137582,54.00714711137582 0 0,0 0.0,-0.9271386510559192 l 33.00593116925958 0.283316222804136" fill="red" stroke="none" /><path d="M 79.00696218219943 99.45929381324524 l -31.750420995431455 -0.817778218345376 a52.76095078239212,52.76095078239212 0 0,0 0.03109206096551761,-0.9052114305969379 l 31.731704247469086 1.3626959135064525" fill="red" stroke="none" /><path d="M 79.06263194458094 98.37931529534042 l -33.51974111552497 -2.594639956000576 a54.620011911852295,54.620011911852295 0 0,0 0.08038603316197485,-0.9342075557536644 l 33.47026145966526 3.169668559129921" fill="red" stroke="none" /><path d="M 79.0935383218832 98.0201363427161 l -32.35073735984083 -3.0636484629117295 a53.49547891060697,53.49547891060697 0 0,0 0.09442616267922924,-0.9134874674120701 l 32.29337880467993 3.6185404526067124" fill="red" stroke="none" /><path d="M 79.22317932658666 96.9465228501225 l -28.315153844269524 -4.161352529233657 a49.619308029671345,49.619308029671345 0 0,0 0.13108596050561175,-0.841665901169173 l 28.239546391625645 4.64680661233428" fill="red" stroke="none" /><path d="M 79.34024301695615 96.23510406497455 l -34.84718986061951 -6.350318813574785 a56.42108397855866,56.42108397855866 0 0,0 0.18182018791851082,-0.9513600530879798 l 34.73304338041884 6.947581431696079" fill="red" stroke="none" /><path d="M 79.407916724674 95.88100663000787 l -61.760640471608276 -12.353857801936984 a83.98408143375386,83.98408143375386 0 0,0 0.29491325805894303,-1.41126669961325 l 61.53946950272497 13.412240952835644" fill="red" stroke="none" /><path d="M 80.05021161711548 93.44210830539832 l -30.100211331282694 -9.894537330758055 a52.68476907249986,52.68476907249986 0 0,0 0.28980280423652977,-0.8567504961416276 l 29.9259231054738 10.409789501373844" fill="red" stroke="none" /><path d="M 80.5471966667186 92.08871423366112 l -32.0793779371786 -13.046403735198604 a55.630840868482316,55.630840868482316 0 0,0 0.3673599940553495,-0.8815302530227259 l 31.85069209858677 13.595166497662595" fill="red" stroke="none" /><path d="M 80.9802524753101 91.09779779509293 l -57.05924257406971 -26.706606614721213 a84.0,84.0 0 0,0 0.6224829681603801,-1.3007499917396512 l 56.59238034794942 27.68216910852595" fill="red" stroke="none" /><line stroke="#e1ed5e" stroke-width="0.3" x1="26.387840678322718" x2="22.05771365940052" y1="57.49999999999999" y2="54.99999999999999" /><path d="M 25.521815274538284 56.99999999999999 a86.0,86.0 0 0,1 29.574782752854787,-30.34633250058573" fill="none" id="id11" stroke="none" /><text fill="#e1ed5e" style="font-size:6.75px; font-family:Arial;" text-anchor="middle"><textPath startOffset="21.40746469413373" xlink:href="#id11">November</textPath></text><path d="M 81.81346652052679 89.5 l -30.27084442538773 -17.476880177594893 a55.95376035518978,55.95376035518978 0 0,0 0.48740065647915737,-0.8277128706629099 l 29.966370058778793 17.993944216551377" fill="red" stroke="none" /><path d="M 81.99639281039701 89.18935116829357 l -27.76234407709639 -16.670489941361154 a53.38291190643782,53.38291190643782 0 0,0 0.47849400816415366,-0.7815840021153733 l 27.472082104476844 17.144611059601072" fill="red" stroke="none" /><path d="M 82.18462484594161 88.88188828441811 l -26.873059527690323 -16.770776668168054 a52.6768097893768,52.6768097893768 0 0,0 0.4853347978967877,-0.7630269142610042 l 26.581207038167644 17.22961725710773" fill="red" stroke="none" /><path d="M 83.2033758604659 87.39550010848427 l -28.44212590501866 -21.343501521861665 a56.55980291298933,56.55980291298933 0 0,0 0.5894286204160875,-0.7715809850375598 l 28.071545307248265 21.82860342014011" fill="red" stroke="none" /><line stroke="#e1ed5e" stroke-width="0.3" x1="56.869717070023135" x2="54.33264160355391" y1="26.7553504044142" y2="22.446841604673864" /><path d="M 56.362301976729285 25.89364864446614 a86.0,86.0 0 0,1 42.16139366436587,-11.88097634709845" fill="none" id="id12" stroke="none" /><text fill="#e1ed5e" style="font-size:6.75px; font-family:Arial;" text-anchor="middle"><textPath startOffset="22.145653131862474" xlink:href="#id12">December</textPath></text></svg>